<?xml version="1.0" encoding="UTF-8" standalone="no"?>
<!DOCTYPE svg PUBLIC "-//W3C//DTD SVG 1.1//EN"
 "http://www.w3.org/Graphics/SVG/1.1/DTD/svg11.dtd">
<!-- Generated by graphviz version 2.38.0 (20140413.2041)
 -->
<!-- Title: G Pages: 1 -->
<svg width="2683pt" height="715pt"
 viewBox="0.00 0.00 2683.49 715.00" xmlns="http://www.w3.org/2000/svg" xmlns:xlink="http://www.w3.org/1999/xlink">
<g id="graph0" class="graph" transform="scale(1 1) rotate(0) translate(4 711)">
<title>G</title>
<polygon fill="white" stroke="none" points="-4,4 -4,-711 2679.49,-711 2679.49,4 -4,4"/>
<text text-anchor="middle" x="1337.75" y="-691.8" font-family="Times New Roman,serif" font-size="14.00">SS13 Codebases Circa Early 2020</text>
<!-- Red arrows indicate that the child is not a fork of a parent, rather a new version or rebrand. -->
<g id="node1" class="node"><title>Red arrows indicate that the child is not a fork of a parent, rather a new version or rebrand.</title>
<polygon fill="none" stroke="black" points="939.697,-684 415.697,-684 415.697,-648 939.697,-648 939.697,-684"/>
<text text-anchor="middle" x="677.697" y="-662.3" font-family="Times New Roman,serif" font-size="14.00">Red arrows indicate that the child is not a fork of a parent, rather a new version or rebrand.</text>
</g>
<!-- BurgerStation -->
<g id="node2" class="node"><title>BurgerStation</title>
<ellipse fill="none" stroke="black" cx="1017.7" cy="-666" rx="60.3893" ry="18"/>
<text text-anchor="middle" x="1017.7" y="-662.3" font-family="Times New Roman,serif" font-size="14.00">BurgerStation</text>
</g>
<!-- SS13 (Pre Open) -->
<g id="node3" class="node"><title>SS13 (Pre Open)</title>
<ellipse fill="none" stroke="black" cx="1169.7" cy="-666" rx="73.387" ry="18"/>
<text text-anchor="middle" x="1169.7" y="-662.3" font-family="Times New Roman,serif" font-size="14.00">SS13 (Pre Open)</text>
</g>
<!-- Source Decompilation (OpenSS13) -->
<g id="node4" class="node"><title>Source Decompilation (OpenSS13)</title>
<ellipse fill="none" stroke="black" cx="1044.7" cy="-594" rx="139.976" ry="18"/>
<text text-anchor="middle" x="1044.7" y="-590.3" font-family="Times New Roman,serif" font-size="14.00">Source Decompilation (OpenSS13)</text>
</g>
<!-- SS13 (Pre Open)&#45;&gt;Source Decompilation (OpenSS13) -->
<g id="edge1" class="edge"><title>SS13 (Pre Open)&#45;&gt;Source Decompilation (OpenSS13)</title>
<path fill="none" stroke="black" d="M1141.64,-649.291C1124.45,-639.661 1102.19,-627.197 1083.34,-616.641"/>
<polygon fill="black" stroke="black" points="1084.83,-613.465 1074.4,-611.633 1081.41,-619.573 1084.83,-613.465"/>
</g>
<!-- Goonstation -->
<g id="node5" class="node"><title>Goonstation</title>
<ellipse fill="none" stroke="black" cx="1293.7" cy="-594" rx="55.7903" ry="18"/>
<text text-anchor="middle" x="1293.7" y="-590.3" font-family="Times New Roman,serif" font-size="14.00">Goonstation</text>
</g>
<!-- SS13 (Pre Open)&#45;&gt;Goonstation -->
<g id="edge2" class="edge"><title>SS13 (Pre Open)&#45;&gt;Goonstation</title>
<path fill="none" stroke="black" d="M1197.52,-649.291C1215.52,-639.13 1239.11,-625.814 1258.42,-614.913"/>
<polygon fill="black" stroke="black" points="1260.25,-617.901 1267.24,-609.938 1256.81,-611.806 1260.25,-617.901"/>
</g>
<!-- BayStation OpenSS13 -->
<g id="node6" class="node"><title>BayStation OpenSS13</title>
<ellipse fill="none" stroke="black" cx="1009.7" cy="-522" rx="92.0841" ry="18"/>
<text text-anchor="middle" x="1009.7" y="-518.3" font-family="Times New Roman,serif" font-size="14.00">BayStation OpenSS13</text>
</g>
<!-- Source Decompilation (OpenSS13)&#45;&gt;BayStation OpenSS13 -->
<g id="edge3" class="edge"><title>Source Decompilation (OpenSS13)&#45;&gt;BayStation OpenSS13</title>
<path fill="none" stroke="black" d="M1036.04,-575.697C1032.06,-567.728 1027.25,-558.1 1022.83,-549.264"/>
<polygon fill="black" stroke="black" points="1025.85,-547.483 1018.25,-540.104 1019.59,-550.614 1025.85,-547.483"/>
</g>
<!-- Revision 4407 (r4407) -->
<g id="node7" class="node"><title>Revision 4407 (r4407)</title>
<ellipse fill="none" stroke="black" cx="1696.7" cy="-522" rx="90.9839" ry="18"/>
<text text-anchor="middle" x="1696.7" y="-518.3" font-family="Times New Roman,serif" font-size="14.00">Revision 4407 (r4407)</text>
</g>
<!-- Goonstation&#45;&gt;Revision 4407 (r4407) -->
<g id="edge4" class="edge"><title>Goonstation&#45;&gt;Revision 4407 (r4407)</title>
<path fill="none" stroke="black" d="M1341.91,-584.626C1411,-572.625 1538.86,-550.417 1620.74,-536.194"/>
<polygon fill="black" stroke="black" points="1621.48,-539.617 1630.74,-534.457 1620.28,-532.72 1621.48,-539.617"/>
</g>
<!-- Goon 2016 -->
<g id="node8" class="node"><title>Goon 2016</title>
<ellipse fill="none" stroke="black" cx="1171.7" cy="-522" rx="51.9908" ry="18"/>
<text text-anchor="middle" x="1171.7" y="-518.3" font-family="Times New Roman,serif" font-size="14.00">Goon 2016</text>
</g>
<!-- Goonstation&#45;&gt;Goon 2016 -->
<g id="edge5" class="edge"><title>Goonstation&#45;&gt;Goon 2016</title>
<path fill="none" stroke="black" d="M1267.52,-577.983C1249.63,-567.718 1225.73,-554.004 1206.27,-542.84"/>
<polygon fill="black" stroke="black" points="1207.82,-539.693 1197.41,-537.752 1204.34,-545.764 1207.82,-539.693"/>
</g>
<!-- Goon 2020 -->
<g id="node9" class="node"><title>Goon 2020</title>
<ellipse fill="none" stroke="black" cx="1293.7" cy="-522" rx="51.9908" ry="18"/>
<text text-anchor="middle" x="1293.7" y="-518.3" font-family="Times New Roman,serif" font-size="14.00">Goon 2020</text>
</g>
<!-- Goonstation&#45;&gt;Goon 2020 -->
<g id="edge6" class="edge"><title>Goonstation&#45;&gt;Goon 2020</title>
<path fill="none" stroke="black" d="M1293.7,-575.697C1293.7,-567.983 1293.7,-558.712 1293.7,-550.112"/>
<polygon fill="black" stroke="black" points="1297.2,-550.104 1293.7,-540.104 1290.2,-550.104 1297.2,-550.104"/>
</g>
<!-- Goonstation (Open Source) -->
<g id="node10" class="node"><title>Goonstation (Open Source)</title>
<ellipse fill="none" stroke="black" cx="1475.7" cy="-522" rx="112.38" ry="18"/>
<text text-anchor="middle" x="1475.7" y="-518.3" font-family="Times New Roman,serif" font-size="14.00">Goonstation (Open Source)</text>
</g>
<!-- Goonstation&#45;&gt;Goonstation (Open Source) -->
<g id="edge7" class="edge"><title>Goonstation&#45;&gt;Goonstation (Open Source)</title>
<path fill="none" stroke="red" d="M1328.36,-579.669C1355.63,-569.181 1394.02,-554.414 1424.78,-542.584"/>
<polygon fill="red" stroke="red" points="1426.4,-545.712 1434.47,-538.855 1423.88,-539.178 1426.4,-545.712"/>
</g>
<!-- /tg/Station (Pre&#45;AGPL) -->
<g id="node11" class="node"><title>/tg/Station (Pre&#45;AGPL)</title>
<ellipse fill="none" stroke="black" cx="1202.7" cy="-450" rx="94.7833" ry="18"/>
<text text-anchor="middle" x="1202.7" y="-446.3" font-family="Times New Roman,serif" font-size="14.00">/tg/Station (Pre&#45;AGPL)</text>
</g>
<!-- Revision 4407 (r4407)&#45;&gt;/tg/Station (Pre&#45;AGPL) -->
<g id="edge8" class="edge"><title>Revision 4407 (r4407)&#45;&gt;/tg/Station (Pre&#45;AGPL)</title>
<path fill="none" stroke="black" d="M1631.12,-509.518C1619.66,-507.606 1607.84,-505.696 1596.7,-504 1491.35,-487.965 1369.76,-471.993 1289.84,-461.841"/>
<polygon fill="black" stroke="black" points="1290.18,-458.356 1279.82,-460.571 1289.3,-465.301 1290.18,-458.356"/>
</g>
<!-- BayStation (Luna) -->
<g id="node12" class="node"><title>BayStation (Luna)</title>
<ellipse fill="none" stroke="black" cx="1696.7" cy="-450" rx="76.8869" ry="18"/>
<text text-anchor="middle" x="1696.7" y="-446.3" font-family="Times New Roman,serif" font-size="14.00">BayStation (Luna)</text>
</g>
<!-- Revision 4407 (r4407)&#45;&gt;BayStation (Luna) -->
<g id="edge9" class="edge"><title>Revision 4407 (r4407)&#45;&gt;BayStation (Luna)</title>
<path fill="none" stroke="black" d="M1696.7,-503.697C1696.7,-495.983 1696.7,-486.712 1696.7,-478.112"/>
<polygon fill="black" stroke="black" points="1700.2,-478.104 1696.7,-468.104 1693.2,-478.104 1700.2,-478.104"/>
</g>
<!-- D2K5 -->
<g id="node13" class="node"><title>D2K5</title>
<ellipse fill="none" stroke="black" cx="1823.7" cy="-450" rx="32.4942" ry="18"/>
<text text-anchor="middle" x="1823.7" y="-446.3" font-family="Times New Roman,serif" font-size="14.00">D2K5</text>
</g>
<!-- Revision 4407 (r4407)&#45;&gt;D2K5 -->
<g id="edge10" class="edge"><title>Revision 4407 (r4407)&#45;&gt;D2K5</title>
<path fill="none" stroke="black" d="M1725.83,-504.941C1745.77,-493.95 1772.18,-479.393 1792.54,-468.171"/>
<polygon fill="black" stroke="black" points="1794.36,-471.167 1801.43,-463.275 1790.98,-465.037 1794.36,-471.167"/>
</g>
<!-- /tg/Station (AGPL) -->
<g id="node15" class="node"><title>/tg/Station (AGPL)</title>
<ellipse fill="none" stroke="black" cx="1862.7" cy="-378" rx="79.8859" ry="18"/>
<text text-anchor="middle" x="1862.7" y="-374.3" font-family="Times New Roman,serif" font-size="14.00">/tg/Station (AGPL)</text>
</g>
<!-- /tg/Station (Pre&#45;AGPL)&#45;&gt;/tg/Station (AGPL) -->
<g id="edge12" class="edge"><title>/tg/Station (Pre&#45;AGPL)&#45;&gt;/tg/Station (AGPL)</title>
<path fill="none" stroke="red" d="M1283.3,-440.452C1410.19,-426.993 1655.13,-401.014 1782.05,-387.553"/>
<polygon fill="red" stroke="red" points="1782.53,-391.023 1792.1,-386.487 1781.79,-384.062 1782.53,-391.023"/>
</g>
<!-- BayStation (GPL) -->
<g id="node16" class="node"><title>BayStation (GPL)</title>
<ellipse fill="none" stroke="black" cx="584.697" cy="-378" rx="76.0865" ry="18"/>
<text text-anchor="middle" x="584.697" y="-374.3" font-family="Times New Roman,serif" font-size="14.00">BayStation (GPL)</text>
</g>
<!-- /tg/Station (Pre&#45;AGPL)&#45;&gt;BayStation (GPL) -->
<g id="edge13" class="edge"><title>/tg/Station (Pre&#45;AGPL)&#45;&gt;BayStation (GPL)</title>
<path fill="none" stroke="black" d="M1115.3,-442.876C1009.63,-434.878 826.551,-419.113 670.697,-396 663.659,-394.956 656.323,-393.727 649.033,-392.414"/>
<polygon fill="black" stroke="black" points="649.624,-388.964 639.154,-390.583 648.348,-395.847 649.624,-388.964"/>
</g>
<!-- Old HippieStation -->
<g id="node17" class="node"><title>Old HippieStation</title>
<ellipse fill="none" stroke="black" cx="755.697" cy="-378" rx="76.0865" ry="18"/>
<text text-anchor="middle" x="755.697" y="-374.3" font-family="Times New Roman,serif" font-size="14.00">Old HippieStation</text>
</g>
<!-- /tg/Station (Pre&#45;AGPL)&#45;&gt;Old HippieStation -->
<g id="edge14" class="edge"><title>/tg/Station (Pre&#45;AGPL)&#45;&gt;Old HippieStation</title>
<path fill="none" stroke="black" d="M1126.94,-439.077C1053.57,-429.191 939.271,-413.062 840.697,-396 834.371,-394.905 827.794,-393.703 821.224,-392.46"/>
<polygon fill="black" stroke="black" points="821.425,-388.935 810.944,-390.483 820.102,-395.809 821.425,-388.935"/>
</g>
<!-- Old YogStation -->
<g id="node18" class="node"><title>Old YogStation</title>
<ellipse fill="none" stroke="black" cx="917.697" cy="-378" rx="67.6881" ry="18"/>
<text text-anchor="middle" x="917.697" y="-374.3" font-family="Times New Roman,serif" font-size="14.00">Old YogStation</text>
</g>
<!-- /tg/Station (Pre&#45;AGPL)&#45;&gt;Old YogStation -->
<g id="edge15" class="edge"><title>/tg/Station (Pre&#45;AGPL)&#45;&gt;Old YogStation</title>
<path fill="none" stroke="black" d="M1147.07,-435.337C1097.56,-423.177 1025.43,-405.46 975.322,-393.154"/>
<polygon fill="black" stroke="black" points="976.154,-389.754 965.608,-390.768 974.484,-396.552 976.154,-389.754"/>
</g>
<!-- NTStation -->
<g id="node19" class="node"><title>NTStation</title>
<ellipse fill="none" stroke="black" cx="1051.7" cy="-378" rx="48.1917" ry="18"/>
<text text-anchor="middle" x="1051.7" y="-374.3" font-family="Times New Roman,serif" font-size="14.00">NTStation</text>
</g>
<!-- /tg/Station (Pre&#45;AGPL)&#45;&gt;NTStation -->
<g id="edge16" class="edge"><title>/tg/Station (Pre&#45;AGPL)&#45;&gt;NTStation</title>
<path fill="none" stroke="black" d="M1163.46,-433.465C1139.62,-422.986 1109.53,-409.094 1086.53,-397.963"/>
<polygon fill="black" stroke="black" points="1087.98,-394.777 1077.46,-393.536 1084.91,-401.067 1087.98,-394.777"/>
</g>
<!-- /tg/Station (Pre&#45;AGPL)&#45;&gt;NTStation -->
<g id="edge21" class="edge"><title>/tg/Station (Pre&#45;AGPL)&#45;&gt;NTStation</title>
<path fill="none" stroke="black" d="M1173.48,-432.765C1150.63,-421.591 1118.72,-406.795 1093.24,-395.553"/>
<polygon fill="black" stroke="black" points="1094.39,-392.235 1083.82,-391.434 1091.58,-398.648 1094.39,-392.235"/>
</g>
<!-- Traitor Death Match -->
<g id="node20" class="node"><title>Traitor Death Match</title>
<ellipse fill="none" stroke="black" cx="1202.7" cy="-378" rx="84.485" ry="18"/>
<text text-anchor="middle" x="1202.7" y="-374.3" font-family="Times New Roman,serif" font-size="14.00">Traitor Death Match</text>
</g>
<!-- /tg/Station (Pre&#45;AGPL)&#45;&gt;Traitor Death Match -->
<g id="edge17" class="edge"><title>/tg/Station (Pre&#45;AGPL)&#45;&gt;Traitor Death Match</title>
<path fill="none" stroke="black" d="M1202.7,-431.697C1202.7,-423.983 1202.7,-414.712 1202.7,-406.112"/>
<polygon fill="black" stroke="black" points="1206.2,-406.104 1202.7,-396.104 1199.2,-406.104 1206.2,-406.104"/>
</g>
<!-- Archangel -->
<g id="node21" class="node"><title>Archangel</title>
<ellipse fill="none" stroke="black" cx="1352.7" cy="-378" rx="47.3916" ry="18"/>
<text text-anchor="middle" x="1352.7" y="-374.3" font-family="Times New Roman,serif" font-size="14.00">Archangel</text>
</g>
<!-- /tg/Station (Pre&#45;AGPL)&#45;&gt;Archangel -->
<g id="edge18" class="edge"><title>/tg/Station (Pre&#45;AGPL)&#45;&gt;Archangel</title>
<path fill="none" stroke="black" d="M1236.73,-433.116C1259.93,-422.29 1290.67,-407.945 1314.67,-396.744"/>
<polygon fill="black" stroke="black" points="1316.26,-399.866 1323.84,-392.466 1313.3,-393.523 1316.26,-399.866"/>
</g>
<!-- FacePunch -->
<g id="node22" class="node"><title>FacePunch</title>
<ellipse fill="none" stroke="black" cx="1469.7" cy="-378" rx="51.1914" ry="18"/>
<text text-anchor="middle" x="1469.7" y="-374.3" font-family="Times New Roman,serif" font-size="14.00">FacePunch</text>
</g>
<!-- /tg/Station (Pre&#45;AGPL)&#45;&gt;FacePunch -->
<g id="edge19" class="edge"><title>/tg/Station (Pre&#45;AGPL)&#45;&gt;FacePunch</title>
<path fill="none" stroke="black" d="M1257.42,-435.236C1298.98,-424.708 1357.51,-409.716 1408.7,-396 1412.76,-394.912 1416.97,-393.769 1421.19,-392.612"/>
<polygon fill="black" stroke="black" points="1422.29,-395.939 1431.01,-389.908 1420.43,-389.191 1422.29,-395.939"/>
</g>
<!-- Old FTL13 -->
<g id="node23" class="node"><title>Old FTL13</title>
<ellipse fill="none" stroke="black" cx="1590.7" cy="-378" rx="51.9908" ry="18"/>
<text text-anchor="middle" x="1590.7" y="-374.3" font-family="Times New Roman,serif" font-size="14.00">Old FTL13</text>
</g>
<!-- /tg/Station (Pre&#45;AGPL)&#45;&gt;Old FTL13 -->
<g id="edge20" class="edge"><title>/tg/Station (Pre&#45;AGPL)&#45;&gt;Old FTL13</title>
<path fill="none" stroke="black" d="M1278.48,-439.152C1345.04,-429.924 1444.31,-414.756 1529.7,-396 1533.86,-395.084 1538.17,-394.056 1542.48,-392.969"/>
<polygon fill="black" stroke="black" points="1543.67,-396.274 1552.46,-390.355 1541.9,-389.502 1543.67,-396.274"/>
</g>
<!-- Lifeweb -->
<g id="node14" class="node"><title>Lifeweb</title>
<ellipse fill="none" stroke="black" cx="2000.7" cy="-378" rx="40.0939" ry="18"/>
<text text-anchor="middle" x="2000.7" y="-374.3" font-family="Times New Roman,serif" font-size="14.00">Lifeweb</text>
</g>
<!-- BayStation (Luna)&#45;&gt;Lifeweb -->
<g id="edge11" class="edge"><title>BayStation (Luna)&#45;&gt;Lifeweb</title>
<path fill="none" stroke="black" d="M1752.89,-437.722C1822.07,-423.774 1932.76,-401.228 1951.7,-396 1954.68,-395.176 1957.75,-394.266 1960.82,-393.309"/>
<polygon fill="black" stroke="black" points="1962.14,-396.56 1970.57,-390.136 1959.98,-389.904 1962.14,-396.56"/>
</g>
<!-- YogStation -->
<g id="node33" class="node"><title>YogStation</title>
<ellipse fill="none" stroke="black" cx="1745.7" cy="-306" rx="51.9908" ry="18"/>
<text text-anchor="middle" x="1745.7" y="-302.3" font-family="Times New Roman,serif" font-size="14.00">YogStation</text>
</g>
<!-- /tg/Station (AGPL)&#45;&gt;YogStation -->
<g id="edge31" class="edge"><title>/tg/Station (AGPL)&#45;&gt;YogStation</title>
<path fill="none" stroke="black" d="M1835.85,-360.941C1819.19,-350.973 1797.63,-338.071 1779.77,-327.386"/>
<polygon fill="black" stroke="black" points="1781.19,-324.158 1770.81,-322.027 1777.6,-330.165 1781.19,-324.158"/>
</g>
<!-- Fallout 13 -->
<g id="node34" class="node"><title>Fallout 13</title>
<ellipse fill="none" stroke="black" cx="1862.7" cy="-306" rx="46.5926" ry="18"/>
<text text-anchor="middle" x="1862.7" y="-302.3" font-family="Times New Roman,serif" font-size="14.00">Fallout 13</text>
</g>
<!-- /tg/Station (AGPL)&#45;&gt;Fallout 13 -->
<g id="edge32" class="edge"><title>/tg/Station (AGPL)&#45;&gt;Fallout 13</title>
<path fill="none" stroke="black" d="M1862.7,-359.697C1862.7,-351.983 1862.7,-342.712 1862.7,-334.112"/>
<polygon fill="black" stroke="black" points="1866.2,-334.104 1862.7,-324.104 1859.2,-334.104 1866.2,-334.104"/>
</g>
<!-- BeeStation -->
<g id="node35" class="node"><title>BeeStation</title>
<ellipse fill="none" stroke="black" cx="1977.7" cy="-306" rx="50.0912" ry="18"/>
<text text-anchor="middle" x="1977.7" y="-302.3" font-family="Times New Roman,serif" font-size="14.00">BeeStation</text>
</g>
<!-- /tg/Station (AGPL)&#45;&gt;BeeStation -->
<g id="edge33" class="edge"><title>/tg/Station (AGPL)&#45;&gt;BeeStation</title>
<path fill="none" stroke="black" d="M1889.08,-360.941C1905.57,-350.904 1926.94,-337.893 1944.57,-327.165"/>
<polygon fill="black" stroke="black" points="1946.68,-329.98 1953.4,-321.79 1943.04,-324 1946.68,-329.98"/>
</g>
<!-- HippieStation -->
<g id="node36" class="node"><title>HippieStation</title>
<ellipse fill="none" stroke="black" cx="2105.7" cy="-306" rx="59.5901" ry="18"/>
<text text-anchor="middle" x="2105.7" y="-302.3" font-family="Times New Roman,serif" font-size="14.00">HippieStation</text>
</g>
<!-- /tg/Station (AGPL)&#45;&gt;HippieStation -->
<g id="edge34" class="edge"><title>/tg/Station (AGPL)&#45;&gt;HippieStation</title>
<path fill="none" stroke="black" d="M1909.84,-363.42C1951.32,-351.469 2011.6,-334.105 2054.31,-321.802"/>
<polygon fill="black" stroke="black" points="2055.32,-325.156 2063.96,-319.024 2053.38,-318.429 2055.32,-325.156"/>
</g>
<!-- Citadel -->
<g id="node37" class="node"><title>Citadel</title>
<ellipse fill="none" stroke="black" cx="2219.7" cy="-306" rx="36.2938" ry="18"/>
<text text-anchor="middle" x="2219.7" y="-302.3" font-family="Times New Roman,serif" font-size="14.00">Citadel</text>
</g>
<!-- /tg/Station (AGPL)&#45;&gt;Citadel -->
<g id="edge35" class="edge"><title>/tg/Station (AGPL)&#45;&gt;Citadel</title>
<path fill="none" stroke="black" d="M1921.06,-365.604C1931.26,-363.683 1941.78,-361.747 1951.7,-360 2050.57,-342.58 2077.69,-349.87 2174.7,-324 2177.33,-323.298 2180.02,-322.499 2182.72,-321.638"/>
<polygon fill="black" stroke="black" points="2184.06,-324.879 2192.38,-318.321 2181.78,-318.258 2184.06,-324.879"/>
</g>
<!-- Toolbox Station -->
<g id="node39" class="node"><title>Toolbox Station</title>
<ellipse fill="none" stroke="black" cx="2344.7" cy="-306" rx="70.3881" ry="18"/>
<text text-anchor="middle" x="2344.7" y="-302.3" font-family="Times New Roman,serif" font-size="14.00">Toolbox Station</text>
</g>
<!-- /tg/Station (AGPL)&#45;&gt;Toolbox Station -->
<g id="edge37" class="edge"><title>/tg/Station (AGPL)&#45;&gt;Toolbox Station</title>
<path fill="none" stroke="black" d="M1920.04,-365.399C1930.55,-363.458 1941.43,-361.568 1951.7,-360 2090.12,-338.849 2126.5,-346.578 2264.7,-324 2270.95,-322.978 2277.45,-321.796 2283.93,-320.541"/>
<polygon fill="black" stroke="black" points="2284.93,-323.911 2294.05,-318.52 2283.56,-317.047 2284.93,-323.911"/>
</g>
<!-- FulpStation -->
<g id="node40" class="node"><title>FulpStation</title>
<ellipse fill="none" stroke="black" cx="2485.7" cy="-306" rx="52.7911" ry="18"/>
<text text-anchor="middle" x="2485.7" y="-302.3" font-family="Times New Roman,serif" font-size="14.00">FulpStation</text>
</g>
<!-- /tg/Station (AGPL)&#45;&gt;FulpStation -->
<g id="edge38" class="edge"><title>/tg/Station (AGPL)&#45;&gt;FulpStation</title>
<path fill="none" stroke="black" d="M1919.52,-365.159C1930.17,-363.219 1941.25,-361.392 1951.7,-360 2160.24,-332.22 2216.41,-359.981 2423.7,-324 2428.4,-323.184 2433.26,-322.166 2438.09,-321.037"/>
<polygon fill="black" stroke="black" points="2439.06,-324.403 2447.92,-318.592 2437.37,-317.61 2439.06,-324.403"/>
</g>
<!-- OracleStation -->
<g id="node41" class="node"><title>OracleStation</title>
<ellipse fill="none" stroke="black" cx="2615.7" cy="-306" rx="59.5901" ry="18"/>
<text text-anchor="middle" x="2615.7" y="-302.3" font-family="Times New Roman,serif" font-size="14.00">OracleStation</text>
</g>
<!-- /tg/Station (AGPL)&#45;&gt;OracleStation -->
<g id="edge39" class="edge"><title>/tg/Station (AGPL)&#45;&gt;OracleStation</title>
<path fill="none" stroke="black" d="M1919.02,-365.111C1929.83,-363.151 1941.08,-361.329 1951.7,-360 2215.01,-327.038 2285.41,-364.353 2547.7,-324 2552.83,-323.211 2558.14,-322.212 2563.42,-321.097"/>
<polygon fill="black" stroke="black" points="2564.51,-324.439 2573.5,-318.831 2562.98,-317.609 2564.51,-324.439"/>
</g>
<!-- Sunset Station -->
<g id="node42" class="node"><title>Sunset Station</title>
<ellipse fill="none" stroke="black" cx="1392.7" cy="-306" rx="63.0888" ry="18"/>
<text text-anchor="middle" x="1392.7" y="-302.3" font-family="Times New Roman,serif" font-size="14.00">Sunset Station</text>
</g>
<!-- /tg/Station (AGPL)&#45;&gt;Sunset Station -->
<g id="edge40" class="edge"><title>/tg/Station (AGPL)&#45;&gt;Sunset Station</title>
<path fill="none" stroke="black" d="M1791.55,-369.686C1711.66,-360.973 1578.33,-344.927 1464.7,-324 1459.33,-323.011 1453.76,-321.882 1448.2,-320.687"/>
<polygon fill="black" stroke="black" points="1448.78,-317.23 1438.26,-318.48 1447.26,-324.064 1448.78,-317.23"/>
</g>
<!-- Star Trek 13 -->
<g id="node43" class="node"><title>Star Trek 13</title>
<ellipse fill="none" stroke="black" cx="1529.7" cy="-306" rx="55.7903" ry="18"/>
<text text-anchor="middle" x="1529.7" y="-302.3" font-family="Times New Roman,serif" font-size="14.00">Star Trek 13</text>
</g>
<!-- /tg/Station (AGPL)&#45;&gt;Star Trek 13 -->
<g id="edge41" class="edge"><title>/tg/Station (AGPL)&#45;&gt;Star Trek 13</title>
<path fill="none" stroke="black" d="M1802.34,-366.144C1747.87,-356.092 1665.66,-340.28 1594.7,-324 1590.29,-322.99 1585.73,-321.896 1581.17,-320.767"/>
<polygon fill="black" stroke="black" points="1581.77,-317.309 1571.21,-318.259 1580.06,-324.097 1581.77,-317.309"/>
</g>
<!-- FTL13 -->
<g id="node44" class="node"><title>FTL13</title>
<ellipse fill="none" stroke="black" cx="1639.7" cy="-306" rx="36.2938" ry="18"/>
<text text-anchor="middle" x="1639.7" y="-302.3" font-family="Times New Roman,serif" font-size="14.00">FTL13</text>
</g>
<!-- /tg/Station (AGPL)&#45;&gt;FTL13 -->
<g id="edge42" class="edge"><title>/tg/Station (AGPL)&#45;&gt;FTL13</title>
<path fill="none" stroke="black" d="M1814.43,-363.643C1778.46,-353.443 1728.23,-338.684 1684.7,-324 1682.27,-323.183 1679.79,-322.317 1677.28,-321.428"/>
<polygon fill="black" stroke="black" points="1678.26,-318.06 1667.67,-317.923 1675.87,-324.637 1678.26,-318.06"/>
</g>
<!-- /vg/Station -->
<g id="node26" class="node"><title>/vg/Station</title>
<ellipse fill="none" stroke="black" cx="735.697" cy="-306" rx="50.0912" ry="18"/>
<text text-anchor="middle" x="735.697" y="-302.3" font-family="Times New Roman,serif" font-size="14.00">/vg/Station</text>
</g>
<!-- BayStation (GPL)&#45;&gt;/vg/Station -->
<g id="edge24" class="edge"><title>BayStation (GPL)&#45;&gt;/vg/Station</title>
<path fill="none" stroke="black" d="M617.834,-361.638C641.133,-350.837 672.39,-336.347 696.861,-325.003"/>
<polygon fill="black" stroke="black" points="698.612,-328.049 706.213,-320.668 695.668,-321.699 698.612,-328.049"/>
</g>
<!-- Paradise -->
<g id="node27" class="node"><title>Paradise</title>
<ellipse fill="none" stroke="black" cx="891.697" cy="-306" rx="41.6928" ry="18"/>
<text text-anchor="middle" x="891.697" y="-302.3" font-family="Times New Roman,serif" font-size="14.00">Paradise</text>
</g>
<!-- BayStation (GPL)&#45;&gt;Paradise -->
<g id="edge25" class="edge"><title>BayStation (GPL)&#45;&gt;Paradise</title>
<path fill="none" stroke="black" d="M637.472,-364.967C696.219,-351.572 790.206,-330.141 845.947,-317.431"/>
<polygon fill="black" stroke="black" points="846.921,-320.799 855.893,-315.164 845.365,-313.974 846.921,-320.799"/>
</g>
<!-- Tau Ceti -->
<g id="node28" class="node"><title>Tau Ceti</title>
<ellipse fill="none" stroke="black" cx="146.697" cy="-306" rx="42.4939" ry="18"/>
<text text-anchor="middle" x="146.697" y="-302.3" font-family="Times New Roman,serif" font-size="14.00">Tau Ceti</text>
</g>
<!-- BayStation (GPL)&#45;&gt;Tau Ceti -->
<g id="edge26" class="edge"><title>BayStation (GPL)&#45;&gt;Tau Ceti</title>
<path fill="none" stroke="black" d="M514.07,-371.296C435.939,-364.07 306.672,-349.392 197.697,-324 194.322,-323.214 190.854,-322.298 187.39,-321.307"/>
<polygon fill="black" stroke="black" points="188.307,-317.927 177.721,-318.359 186.265,-324.623 188.307,-317.927"/>
</g>
<!-- Aurora (Old) -->
<g id="node29" class="node"><title>Aurora (Old)</title>
<ellipse fill="none" stroke="black" cx="426.697" cy="-306" rx="57.6901" ry="18"/>
<text text-anchor="middle" x="426.697" y="-302.3" font-family="Times New Roman,serif" font-size="14.00">Aurora (Old)</text>
</g>
<!-- BayStation (GPL)&#45;&gt;Aurora (Old) -->
<g id="edge27" class="edge"><title>BayStation (GPL)&#45;&gt;Aurora (Old)</title>
<path fill="none" stroke="black" d="M550.413,-361.811C526.189,-351.079 493.601,-336.641 467.952,-325.278"/>
<polygon fill="black" stroke="black" points="469.054,-321.938 458.494,-321.087 466.219,-328.338 469.054,-321.938"/>
</g>
<!-- Colonial Marines -->
<g id="node30" class="node"><title>Colonial Marines</title>
<ellipse fill="none" stroke="black" cx="278.697" cy="-306" rx="72.2875" ry="18"/>
<text text-anchor="middle" x="278.697" y="-302.3" font-family="Times New Roman,serif" font-size="14.00">Colonial Marines</text>
</g>
<!-- BayStation (GPL)&#45;&gt;Colonial Marines -->
<g id="edge28" class="edge"><title>BayStation (GPL)&#45;&gt;Colonial Marines</title>
<path fill="none" stroke="black" d="M532.093,-364.967C478.656,-352.742 395.963,-333.826 339.689,-320.952"/>
<polygon fill="black" stroke="black" points="340.379,-317.52 329.85,-318.702 338.818,-324.344 340.379,-317.52"/>
</g>
<!-- BayStation (AGPL) -->
<g id="node31" class="node"><title>BayStation (AGPL)</title>
<ellipse fill="none" stroke="black" cx="584.697" cy="-306" rx="82.5854" ry="18"/>
<text text-anchor="middle" x="584.697" y="-302.3" font-family="Times New Roman,serif" font-size="14.00">BayStation (AGPL)</text>
</g>
<!-- BayStation (GPL)&#45;&gt;BayStation (AGPL) -->
<g id="edge29" class="edge"><title>BayStation (GPL)&#45;&gt;BayStation (AGPL)</title>
<path fill="none" stroke="red" d="M584.697,-359.697C584.697,-351.983 584.697,-342.712 584.697,-334.112"/>
<polygon fill="red" stroke="red" points="588.197,-334.104 584.697,-324.104 581.197,-334.104 588.197,-334.104"/>
</g>
<!-- D12 Station -->
<g id="node24" class="node"><title>D12 Station</title>
<ellipse fill="none" stroke="black" cx="1051.7" cy="-306" rx="53.8905" ry="18"/>
<text text-anchor="middle" x="1051.7" y="-302.3" font-family="Times New Roman,serif" font-size="14.00">D12 Station</text>
</g>
<!-- NTStation&#45;&gt;D12 Station -->
<g id="edge22" class="edge"><title>NTStation&#45;&gt;D12 Station</title>
<path fill="none" stroke="black" d="M1051.7,-359.697C1051.7,-351.983 1051.7,-342.712 1051.7,-334.112"/>
<polygon fill="black" stroke="black" points="1055.2,-334.104 1051.7,-324.104 1048.2,-334.104 1055.2,-334.104"/>
</g>
<!-- Corporate Mercenaries -->
<g id="node25" class="node"><title>Corporate Mercenaries</title>
<ellipse fill="none" stroke="black" cx="1217.7" cy="-306" rx="94.4839" ry="18"/>
<text text-anchor="middle" x="1217.7" y="-302.3" font-family="Times New Roman,serif" font-size="14.00">Corporate Mercenaries</text>
</g>
<!-- FacePunch&#45;&gt;Corporate Mercenaries -->
<g id="edge23" class="edge"><title>FacePunch&#45;&gt;Corporate Mercenaries</title>
<path fill="none" stroke="black" d="M1430.65,-366.111C1423.35,-364.078 1415.79,-361.973 1408.7,-360 1365.17,-347.897 1316.07,-334.271 1278.54,-323.866"/>
<polygon fill="black" stroke="black" points="1279.35,-320.456 1268.77,-321.157 1277.47,-327.201 1279.35,-320.456"/>
</g>
<!-- Persistence SS13 (Old) -->
<g id="node32" class="node"><title>Persistence SS13 (Old)</title>
<ellipse fill="none" stroke="black" cx="1350.7" cy="-234" rx="95.5831" ry="18"/>
<text text-anchor="middle" x="1350.7" y="-230.3" font-family="Times New Roman,serif" font-size="14.00">Persistence SS13 (Old)</text>
</g>
<!-- Paradise&#45;&gt;Persistence SS13 (Old) -->
<g id="edge30" class="edge"><title>Paradise&#45;&gt;Persistence SS13 (Old)</title>
<path fill="none" stroke="black" d="M929.419,-298.074C947.352,-294.862 969.105,-291.083 988.697,-288 1103.07,-270.004 1132.22,-269.34 1246.7,-252 1254.82,-250.769 1263.3,-249.447 1271.75,-248.103"/>
<polygon fill="black" stroke="black" points="1272.32,-251.556 1281.64,-246.52 1271.22,-244.644 1272.32,-251.556"/>
</g>
<!-- Aurora Station -->
<g id="node53" class="node"><title>Aurora Station</title>
<ellipse fill="none" stroke="black" cx="156.697" cy="-234" rx="63.8893" ry="18"/>
<text text-anchor="middle" x="156.697" y="-230.3" font-family="Times New Roman,serif" font-size="14.00">Aurora Station</text>
</g>
<!-- Aurora (Old)&#45;&gt;Aurora Station -->
<g id="edge63" class="edge"><title>Aurora (Old)&#45;&gt;Aurora Station</title>
<path fill="none" stroke="red" d="M383.616,-293.831C336.997,-281.744 262.527,-262.438 211.709,-249.262"/>
<polygon fill="red" stroke="red" points="212.434,-245.835 201.876,-246.713 210.677,-252.611 212.434,-245.835"/>
</g>
<!-- TGMC -->
<g id="node54" class="node"><title>TGMC</title>
<ellipse fill="none" stroke="black" cx="37.6967" cy="-234" rx="37.8943" ry="18"/>
<text text-anchor="middle" x="37.6967" y="-230.3" font-family="Times New Roman,serif" font-size="14.00">TGMC</text>
</g>
<!-- Colonial Marines&#45;&gt;TGMC -->
<g id="edge52" class="edge"><title>Colonial Marines&#45;&gt;TGMC</title>
<path fill="none" stroke="black" d="M229.055,-292.802C189.433,-282.757 132.647,-267.664 83.6967,-252 81.1246,-251.177 78.4837,-250.297 75.8306,-249.387"/>
<polygon fill="black" stroke="black" points="76.8649,-246.04 66.2701,-246.005 74.5309,-252.639 76.8649,-246.04"/>
</g>
<!-- Urist McStation -->
<g id="node46" class="node"><title>Urist McStation</title>
<ellipse fill="none" stroke="black" cx="1079.7" cy="-234" rx="68.4888" ry="18"/>
<text text-anchor="middle" x="1079.7" y="-230.3" font-family="Times New Roman,serif" font-size="14.00">Urist McStation</text>
</g>
<!-- BayStation (AGPL)&#45;&gt;Urist McStation -->
<g id="edge44" class="edge"><title>BayStation (AGPL)&#45;&gt;Urist McStation</title>
<path fill="none" stroke="black" d="M643.979,-293.394C654.839,-291.453 666.091,-289.565 676.697,-288 820.467,-266.783 858.282,-275.506 1001.7,-252 1007.8,-251 1014.15,-249.831 1020.46,-248.584"/>
<polygon fill="black" stroke="black" points="1021.23,-252 1030.33,-246.573 1019.83,-245.141 1021.23,-252"/>
</g>
<!-- Polaris -->
<g id="node47" class="node"><title>Polaris</title>
<ellipse fill="none" stroke="black" cx="1201.7" cy="-234" rx="35.9954" ry="18"/>
<text text-anchor="middle" x="1201.7" y="-230.3" font-family="Times New Roman,serif" font-size="14.00">Polaris</text>
</g>
<!-- BayStation (AGPL)&#45;&gt;Polaris -->
<g id="edge45" class="edge"><title>BayStation (AGPL)&#45;&gt;Polaris</title>
<path fill="none" stroke="black" d="M643.443,-293.169C654.459,-291.228 665.904,-289.398 676.697,-288 888.857,-260.524 947.829,-298.275 1156.7,-252 1159.7,-251.335 1162.77,-250.51 1165.82,-249.584"/>
<polygon fill="black" stroke="black" points="1167.06,-252.859 1175.43,-246.358 1164.84,-246.223 1167.06,-252.859"/>
</g>
<!-- CEV Eris -->
<g id="node48" class="node"><title>CEV Eris</title>
<ellipse fill="none" stroke="black" cx="283.697" cy="-234" rx="45.4919" ry="18"/>
<text text-anchor="middle" x="283.697" y="-230.3" font-family="Times New Roman,serif" font-size="14.00">CEV Eris</text>
</g>
<!-- BayStation (AGPL)&#45;&gt;CEV Eris -->
<g id="edge46" class="edge"><title>BayStation (AGPL)&#45;&gt;CEV Eris</title>
<path fill="none" stroke="black" d="M524.177,-293.658C473.941,-283.851 400.773,-268.657 337.697,-252 334.316,-251.107 330.832,-250.134 327.338,-249.121"/>
<polygon fill="black" stroke="black" points="328.13,-245.704 317.546,-246.189 326.122,-252.41 328.13,-245.704"/>
</g>
<!-- Persistence (New) -->
<g id="node49" class="node"><title>Persistence (New)</title>
<ellipse fill="none" stroke="black" cx="423.697" cy="-234" rx="76.8869" ry="18"/>
<text text-anchor="middle" x="423.697" y="-230.3" font-family="Times New Roman,serif" font-size="14.00">Persistence (New)</text>
</g>
<!-- BayStation (AGPL)&#45;&gt;Persistence (New) -->
<g id="edge47" class="edge"><title>BayStation (AGPL)&#45;&gt;Persistence (New)</title>
<path fill="none" stroke="black" d="M549.365,-289.638C525.398,-279.218 493.533,-265.364 467.888,-254.213"/>
<polygon fill="black" stroke="black" points="468.959,-250.863 458.393,-250.085 466.168,-257.282 468.959,-250.863"/>
</g>
<!-- Europa Station -->
<g id="node50" class="node"><title>Europa Station</title>
<ellipse fill="none" stroke="black" cx="583.697" cy="-234" rx="64.9885" ry="18"/>
<text text-anchor="middle" x="583.697" y="-230.3" font-family="Times New Roman,serif" font-size="14.00">Europa Station</text>
</g>
<!-- BayStation (AGPL)&#45;&gt;Europa Station -->
<g id="edge48" class="edge"><title>BayStation (AGPL)&#45;&gt;Europa Station</title>
<path fill="none" stroke="black" d="M584.449,-287.697C584.339,-279.983 584.207,-270.712 584.084,-262.112"/>
<polygon fill="black" stroke="black" points="587.584,-262.053 583.941,-252.104 580.584,-262.153 587.584,-262.053"/>
</g>
<!-- SCP&#45;13 -->
<g id="node51" class="node"><title>SCP&#45;13</title>
<ellipse fill="none" stroke="black" cx="706.697" cy="-234" rx="39.7935" ry="18"/>
<text text-anchor="middle" x="706.697" y="-230.3" font-family="Times New Roman,serif" font-size="14.00">SCP&#45;13</text>
</g>
<!-- BayStation (AGPL)&#45;&gt;SCP&#45;13 -->
<g id="edge49" class="edge"><title>BayStation (AGPL)&#45;&gt;SCP&#45;13</title>
<path fill="none" stroke="black" d="M612.686,-288.941C631.027,-278.417 655.065,-264.625 674.243,-253.621"/>
<polygon fill="black" stroke="black" points="676.015,-256.64 682.947,-248.627 672.531,-250.568 676.015,-256.64"/>
</g>
<!-- Halo: Space Station Evolved -->
<g id="node52" class="node"><title>Halo: Space Station Evolved</title>
<ellipse fill="none" stroke="black" cx="878.697" cy="-234" rx="114.28" ry="18"/>
<text text-anchor="middle" x="878.697" y="-230.3" font-family="Times New Roman,serif" font-size="14.00">Halo: Space Station Evolved</text>
</g>
<!-- BayStation (AGPL)&#45;&gt;Halo: Space Station Evolved -->
<g id="edge50" class="edge"><title>BayStation (AGPL)&#45;&gt;Halo: Space Station Evolved</title>
<path fill="none" stroke="black" d="M638.279,-292.242C686.047,-280.869 756.287,-264.145 808.524,-251.708"/>
<polygon fill="black" stroke="black" points="809.471,-255.08 818.388,-249.359 807.85,-248.271 809.471,-255.08"/>
</g>
<!-- BayStation (AGPL)&#45;&gt;Aurora Station -->
<g id="edge51" class="edge"><title>BayStation (AGPL)&#45;&gt;Aurora Station</title>
<path fill="none" stroke="black" d="M525.051,-293.423C514.616,-291.522 503.851,-289.64 493.697,-288 376.792,-269.121 346.157,-273.453 229.697,-252 224.258,-250.998 218.613,-249.86 212.98,-248.659"/>
<polygon fill="black" stroke="black" points="213.42,-245.173 202.901,-246.445 211.918,-252.01 213.42,-245.173"/>
</g>
<!-- NSV13 -->
<g id="node63" class="node"><title>NSV13</title>
<ellipse fill="none" stroke="black" cx="1926.7" cy="-234" rx="37.8943" ry="18"/>
<text text-anchor="middle" x="1926.7" y="-230.3" font-family="Times New Roman,serif" font-size="14.00">NSV13</text>
</g>
<!-- BeeStation&#45;&gt;NSV13 -->
<g id="edge61" class="edge"><title>BeeStation&#45;&gt;NSV13</title>
<path fill="none" stroke="black" d="M1965.61,-288.411C1959.39,-279.868 1951.67,-269.278 1944.76,-259.787"/>
<polygon fill="black" stroke="black" points="1947.41,-257.491 1938.7,-251.47 1941.76,-261.613 1947.41,-257.491"/>
</g>
<!-- Austation -->
<g id="node64" class="node"><title>Austation</title>
<ellipse fill="none" stroke="black" cx="2027.7" cy="-234" rx="45.4919" ry="18"/>
<text text-anchor="middle" x="2027.7" y="-230.3" font-family="Times New Roman,serif" font-size="14.00">Austation</text>
</g>
<!-- BeeStation&#45;&gt;Austation -->
<g id="edge62" class="edge"><title>BeeStation&#45;&gt;Austation</title>
<path fill="none" stroke="black" d="M1989.55,-288.411C1995.65,-279.868 2003.21,-269.278 2009.99,-259.787"/>
<polygon fill="black" stroke="black" points="2012.97,-261.642 2015.93,-251.47 2007.27,-257.573 2012.97,-261.642"/>
</g>
<!-- Skyrat 13 -->
<g id="node38" class="node"><title>Skyrat 13</title>
<ellipse fill="none" stroke="black" cx="2219.7" cy="-234" rx="45.4919" ry="18"/>
<text text-anchor="middle" x="2219.7" y="-230.3" font-family="Times New Roman,serif" font-size="14.00">Skyrat 13</text>
</g>
<!-- Citadel&#45;&gt;Skyrat 13 -->
<g id="edge36" class="edge"><title>Citadel&#45;&gt;Skyrat 13</title>
<path fill="none" stroke="black" d="M2219.7,-287.697C2219.7,-279.983 2219.7,-270.712 2219.7,-262.112"/>
<polygon fill="black" stroke="black" points="2223.2,-262.104 2219.7,-252.104 2216.2,-262.104 2223.2,-262.104"/>
</g>
<!-- Deep Space 13 -->
<g id="node45" class="node"><title>Deep Space 13</title>
<ellipse fill="none" stroke="black" cx="1529.7" cy="-234" rx="65.7887" ry="18"/>
<text text-anchor="middle" x="1529.7" y="-230.3" font-family="Times New Roman,serif" font-size="14.00">Deep Space 13</text>
</g>
<!-- Star Trek 13&#45;&gt;Deep Space 13 -->
<g id="edge43" class="edge"><title>Star Trek 13&#45;&gt;Deep Space 13</title>
<path fill="none" stroke="red" d="M1529.7,-287.697C1529.7,-279.983 1529.7,-270.712 1529.7,-262.112"/>
<polygon fill="red" stroke="red" points="1533.2,-262.104 1529.7,-252.104 1526.2,-262.104 1533.2,-262.104"/>
</g>
<!-- V.O.R.E. Station -->
<g id="node58" class="node"><title>V.O.R.E. Station</title>
<ellipse fill="none" stroke="black" cx="1276.7" cy="-162" rx="73.387" ry="18"/>
<text text-anchor="middle" x="1276.7" y="-158.3" font-family="Times New Roman,serif" font-size="14.00">V.O.R.E. Station</text>
</g>
<!-- Polaris&#45;&gt;V.O.R.E. Station -->
<g id="edge56" class="edge"><title>Polaris&#45;&gt;V.O.R.E. Station</title>
<path fill="none" stroke="black" d="M1217.97,-217.811C1227.77,-208.663 1240.46,-196.823 1251.53,-186.49"/>
<polygon fill="black" stroke="black" points="1253.96,-189.01 1258.88,-179.628 1249.18,-183.892 1253.96,-189.01"/>
</g>
<!-- World Server -->
<g id="node61" class="node"><title>World Server</title>
<ellipse fill="none" stroke="black" cx="1125.7" cy="-162" rx="59.5901" ry="18"/>
<text text-anchor="middle" x="1125.7" y="-158.3" font-family="Times New Roman,serif" font-size="14.00">World Server</text>
</g>
<!-- Polaris&#45;&gt;World Server -->
<g id="edge59" class="edge"><title>Polaris&#45;&gt;World Server</title>
<path fill="none" stroke="black" d="M1185.21,-217.811C1175.2,-208.598 1162.24,-196.654 1150.96,-186.268"/>
<polygon fill="black" stroke="black" points="1153.21,-183.58 1143.48,-179.38 1148.47,-188.729 1153.21,-183.58"/>
</g>
<!-- InterStation&#45;Two -->
<g id="node55" class="node"><title>InterStation&#45;Two</title>
<ellipse fill="none" stroke="black" cx="283.697" cy="-162" rx="72.5877" ry="18"/>
<text text-anchor="middle" x="283.697" y="-158.3" font-family="Times New Roman,serif" font-size="14.00">InterStation&#45;Two</text>
</g>
<!-- CEV Eris&#45;&gt;InterStation&#45;Two -->
<g id="edge53" class="edge"><title>CEV Eris&#45;&gt;InterStation&#45;Two</title>
<path fill="none" stroke="black" d="M283.697,-215.697C283.697,-207.983 283.697,-198.712 283.697,-190.112"/>
<polygon fill="black" stroke="black" points="287.197,-190.104 283.697,-180.104 280.197,-190.104 287.197,-190.104"/>
</g>
<!-- Lebensraum -->
<g id="node56" class="node"><title>Lebensraum</title>
<ellipse fill="none" stroke="black" cx="283.697" cy="-90" rx="55.4913" ry="18"/>
<text text-anchor="middle" x="283.697" y="-86.3" font-family="Times New Roman,serif" font-size="14.00">Lebensraum</text>
</g>
<!-- InterStation&#45;Two&#45;&gt;Lebensraum -->
<g id="edge54" class="edge"><title>InterStation&#45;Two&#45;&gt;Lebensraum</title>
<path fill="none" stroke="black" d="M283.697,-143.697C283.697,-135.983 283.697,-126.712 283.697,-118.112"/>
<polygon fill="black" stroke="black" points="287.197,-118.104 283.697,-108.104 280.197,-118.104 287.197,-118.104"/>
</g>
<!-- Civilization 13 -->
<g id="node57" class="node"><title>Civilization 13</title>
<ellipse fill="none" stroke="black" cx="283.697" cy="-18" rx="61.99" ry="18"/>
<text text-anchor="middle" x="283.697" y="-14.3" font-family="Times New Roman,serif" font-size="14.00">Civilization 13</text>
</g>
<!-- Lebensraum&#45;&gt;Civilization 13 -->
<g id="edge55" class="edge"><title>Lebensraum&#45;&gt;Civilization 13</title>
<path fill="none" stroke="black" d="M283.697,-71.6966C283.697,-63.9827 283.697,-54.7125 283.697,-46.1124"/>
<polygon fill="black" stroke="black" points="287.197,-46.1043 283.697,-36.1043 280.197,-46.1044 287.197,-46.1043"/>
</g>
<!-- Chompers -->
<g id="node59" class="node"><title>Chompers</title>
<ellipse fill="none" stroke="black" cx="1328.7" cy="-90" rx="48.9926" ry="18"/>
<text text-anchor="middle" x="1328.7" y="-86.3" font-family="Times New Roman,serif" font-size="14.00">Chompers</text>
</g>
<!-- V.O.R.E. Station&#45;&gt;Chompers -->
<g id="edge57" class="edge"><title>V.O.R.E. Station&#45;&gt;Chompers</title>
<path fill="none" stroke="black" d="M1289.28,-144.055C1295.54,-135.629 1303.23,-125.28 1310.15,-115.966"/>
<polygon fill="black" stroke="black" points="1313.07,-117.904 1316.22,-107.789 1307.45,-113.729 1313.07,-117.904"/>
</g>
<!-- AEIOU -->
<g id="node60" class="node"><title>AEIOU</title>
<ellipse fill="none" stroke="black" cx="1223.7" cy="-90" rx="38.1938" ry="18"/>
<text text-anchor="middle" x="1223.7" y="-86.3" font-family="Times New Roman,serif" font-size="14.00">AEIOU</text>
</g>
<!-- V.O.R.E. Station&#45;&gt;AEIOU -->
<g id="edge58" class="edge"><title>V.O.R.E. Station&#45;&gt;AEIOU</title>
<path fill="none" stroke="black" d="M1263.87,-144.055C1257.39,-135.505 1249.42,-124.975 1242.29,-115.556"/>
<polygon fill="black" stroke="black" points="1244.87,-113.167 1236.04,-107.307 1239.29,-117.392 1244.87,-113.167"/>
</g>
<!-- Eclipse Station -->
<g id="node62" class="node"><title>Eclipse Station</title>
<ellipse fill="none" stroke="black" cx="1223.7" cy="-18" rx="64.9885" ry="18"/>
<text text-anchor="middle" x="1223.7" y="-14.3" font-family="Times New Roman,serif" font-size="14.00">Eclipse Station</text>
</g>
<!-- AEIOU&#45;&gt;Eclipse Station -->
<g id="edge60" class="edge"><title>AEIOU&#45;&gt;Eclipse Station</title>
<path fill="none" stroke="red" d="M1223.7,-71.6966C1223.7,-63.9827 1223.7,-54.7125 1223.7,-46.1124"/>
<polygon fill="red" stroke="red" points="1227.2,-46.1043 1223.7,-36.1043 1220.2,-46.1044 1227.2,-46.1043"/>
</g>
</g>
</svg>
