<?xml version="1.0" encoding="UTF-8" standalone="no"?>
<!DOCTYPE svg PUBLIC "-//W3C//DTD SVG 1.1//EN"
 "http://www.w3.org/Graphics/SVG/1.1/DTD/svg11.dtd">
<!-- Generated by graphviz version 2.38.0 (20140413.2041)
 -->
<!-- Title: G Pages: 1 -->
<svg width="2870pt" height="715pt"
 viewBox="0.00 0.00 2869.69 715.00" xmlns="http://www.w3.org/2000/svg" xmlns:xlink="http://www.w3.org/1999/xlink">
<g id="graph0" class="graph" transform="scale(1 1) rotate(0) translate(4 711)">
<title>G</title>
<polygon fill="white" stroke="none" points="-4,4 -4,-711 2865.69,-711 2865.69,4 -4,4"/>
<text text-anchor="middle" x="1430.84" y="-691.8" font-family="Times New Roman,serif" font-size="14.00">SS13 Codebases Circa Mid&#45;2019</text>
<!-- Red arrows indicate that the child is not a fork of a parent, rather a new version or rebrand. -->
<g id="node1" class="node"><title>Red arrows indicate that the child is not a fork of a parent, rather a new version or rebrand.</title>
<polygon fill="none" stroke="black" points="2031,-684 1507,-684 1507,-648 2031,-648 2031,-684"/>
<text text-anchor="middle" x="1769" y="-662.3" font-family="Times New Roman,serif" font-size="14.00">Red arrows indicate that the child is not a fork of a parent, rather a new version or rebrand.</text>
</g>
<!-- BurgerStation -->
<g id="node2" class="node"><title>BurgerStation</title>
<ellipse fill="none" stroke="black" cx="2109" cy="-666" rx="60.3893" ry="18"/>
<text text-anchor="middle" x="2109" y="-662.3" font-family="Times New Roman,serif" font-size="14.00">BurgerStation</text>
</g>
<!-- SS13 (Pre Open) -->
<g id="node3" class="node"><title>SS13 (Pre Open)</title>
<ellipse fill="none" stroke="black" cx="2261" cy="-666" rx="73.387" ry="18"/>
<text text-anchor="middle" x="2261" y="-662.3" font-family="Times New Roman,serif" font-size="14.00">SS13 (Pre Open)</text>
</g>
<!-- Source Decompilation (OpenSS13) -->
<g id="node4" class="node"><title>Source Decompilation (OpenSS13)</title>
<ellipse fill="none" stroke="black" cx="2154" cy="-594" rx="139.976" ry="18"/>
<text text-anchor="middle" x="2154" y="-590.3" font-family="Times New Roman,serif" font-size="14.00">Source Decompilation (OpenSS13)</text>
</g>
<!-- SS13 (Pre Open)&#45;&gt;Source Decompilation (OpenSS13) -->
<g id="edge1" class="edge"><title>SS13 (Pre Open)&#45;&gt;Source Decompilation (OpenSS13)</title>
<path fill="none" stroke="black" d="M2236.45,-648.941C2222.08,-639.541 2203.72,-627.533 2187.98,-617.234"/>
<polygon fill="black" stroke="black" points="2189.83,-614.261 2179.55,-611.715 2186,-620.119 2189.83,-614.261"/>
</g>
<!-- Goonstation -->
<g id="node5" class="node"><title>Goonstation</title>
<ellipse fill="none" stroke="black" cx="2368" cy="-594" rx="55.7903" ry="18"/>
<text text-anchor="middle" x="2368" y="-590.3" font-family="Times New Roman,serif" font-size="14.00">Goonstation</text>
</g>
<!-- SS13 (Pre Open)&#45;&gt;Goonstation -->
<g id="edge2" class="edge"><title>SS13 (Pre Open)&#45;&gt;Goonstation</title>
<path fill="none" stroke="black" d="M2285.54,-648.941C2300.43,-639.2 2319.6,-626.659 2335.71,-616.121"/>
<polygon fill="black" stroke="black" points="2337.85,-618.907 2344.3,-610.503 2334.01,-613.049 2337.85,-618.907"/>
</g>
<!-- BayStation OpenSS13 -->
<g id="node6" class="node"><title>BayStation OpenSS13</title>
<ellipse fill="none" stroke="black" cx="2154" cy="-522" rx="92.0841" ry="18"/>
<text text-anchor="middle" x="2154" y="-518.3" font-family="Times New Roman,serif" font-size="14.00">BayStation OpenSS13</text>
</g>
<!-- Source Decompilation (OpenSS13)&#45;&gt;BayStation OpenSS13 -->
<g id="edge3" class="edge"><title>Source Decompilation (OpenSS13)&#45;&gt;BayStation OpenSS13</title>
<path fill="none" stroke="black" d="M2154,-575.697C2154,-567.983 2154,-558.712 2154,-550.112"/>
<polygon fill="black" stroke="black" points="2157.5,-550.104 2154,-540.104 2150.5,-550.104 2157.5,-550.104"/>
</g>
<!-- Revision 4407 (r4407) -->
<g id="node7" class="node"><title>Revision 4407 (r4407)</title>
<ellipse fill="none" stroke="black" cx="2361" cy="-522" rx="90.9839" ry="18"/>
<text text-anchor="middle" x="2361" y="-518.3" font-family="Times New Roman,serif" font-size="14.00">Revision 4407 (r4407)</text>
</g>
<!-- Goonstation&#45;&gt;Revision 4407 (r4407) -->
<g id="edge4" class="edge"><title>Goonstation&#45;&gt;Revision 4407 (r4407)</title>
<path fill="none" stroke="black" d="M2366.27,-575.697C2365.49,-567.983 2364.57,-558.712 2363.71,-550.112"/>
<polygon fill="black" stroke="black" points="2367.18,-549.706 2362.71,-540.104 2360.22,-550.403 2367.18,-549.706"/>
</g>
<!-- Goon 2016 -->
<g id="node8" class="node"><title>Goon 2016</title>
<ellipse fill="none" stroke="black" cx="2522" cy="-522" rx="51.9908" ry="18"/>
<text text-anchor="middle" x="2522" y="-518.3" font-family="Times New Roman,serif" font-size="14.00">Goon 2016</text>
</g>
<!-- Goonstation&#45;&gt;Goon 2016 -->
<g id="edge5" class="edge"><title>Goonstation&#45;&gt;Goon 2016</title>
<path fill="none" stroke="black" d="M2399.16,-578.834C2423.19,-567.911 2456.59,-552.732 2482.49,-540.957"/>
<polygon fill="black" stroke="black" points="2484.01,-544.111 2491.66,-536.787 2481.11,-537.738 2484.01,-544.111"/>
</g>
<!-- /tg/Station (Pre&#45;AGPL) -->
<g id="node9" class="node"><title>/tg/Station (Pre&#45;AGPL)</title>
<ellipse fill="none" stroke="black" cx="2002" cy="-450" rx="94.7833" ry="18"/>
<text text-anchor="middle" x="2002" y="-446.3" font-family="Times New Roman,serif" font-size="14.00">/tg/Station (Pre&#45;AGPL)</text>
</g>
<!-- Revision 4407 (r4407)&#45;&gt;/tg/Station (Pre&#45;AGPL) -->
<g id="edge6" class="edge"><title>Revision 4407 (r4407)&#45;&gt;/tg/Station (Pre&#45;AGPL)</title>
<path fill="none" stroke="black" d="M2298.46,-508.807C2236.36,-496.698 2141.18,-478.138 2075.5,-465.331"/>
<polygon fill="black" stroke="black" points="2076.11,-461.885 2065.62,-463.406 2074.77,-468.755 2076.11,-461.885"/>
</g>
<!-- BayStation (Luna) -->
<g id="node10" class="node"><title>BayStation (Luna)</title>
<ellipse fill="none" stroke="black" cx="2361" cy="-450" rx="76.8869" ry="18"/>
<text text-anchor="middle" x="2361" y="-446.3" font-family="Times New Roman,serif" font-size="14.00">BayStation (Luna)</text>
</g>
<!-- Revision 4407 (r4407)&#45;&gt;BayStation (Luna) -->
<g id="edge7" class="edge"><title>Revision 4407 (r4407)&#45;&gt;BayStation (Luna)</title>
<path fill="none" stroke="black" d="M2361,-503.697C2361,-495.983 2361,-486.712 2361,-478.112"/>
<polygon fill="black" stroke="black" points="2364.5,-478.104 2361,-468.104 2357.5,-478.104 2364.5,-478.104"/>
</g>
<!-- D2K5 -->
<g id="node11" class="node"><title>D2K5</title>
<ellipse fill="none" stroke="black" cx="2488" cy="-450" rx="32.4942" ry="18"/>
<text text-anchor="middle" x="2488" y="-446.3" font-family="Times New Roman,serif" font-size="14.00">D2K5</text>
</g>
<!-- Revision 4407 (r4407)&#45;&gt;D2K5 -->
<g id="edge8" class="edge"><title>Revision 4407 (r4407)&#45;&gt;D2K5</title>
<path fill="none" stroke="black" d="M2390.13,-504.941C2410.07,-493.95 2436.48,-479.393 2456.84,-468.171"/>
<polygon fill="black" stroke="black" points="2458.66,-471.167 2465.72,-463.275 2455.28,-465.037 2458.66,-471.167"/>
</g>
<!-- /tg/Station (AGPL) -->
<g id="node13" class="node"><title>/tg/Station (AGPL)</title>
<ellipse fill="none" stroke="black" cx="650.995" cy="-378" rx="79.8859" ry="18"/>
<text text-anchor="middle" x="650.995" y="-374.3" font-family="Times New Roman,serif" font-size="14.00">/tg/Station (AGPL)</text>
</g>
<!-- /tg/Station (Pre&#45;AGPL)&#45;&gt;/tg/Station (AGPL) -->
<g id="edge10" class="edge"><title>/tg/Station (Pre&#45;AGPL)&#45;&gt;/tg/Station (AGPL)</title>
<path fill="none" stroke="red" d="M1911.78,-444.326C1665.11,-431.545 981.633,-396.131 738.36,-383.527"/>
<polygon fill="red" stroke="red" points="738.32,-380.02 728.152,-382.998 737.958,-387.011 738.32,-380.02"/>
</g>
<!-- BayStation (GPL) -->
<g id="node14" class="node"><title>BayStation (GPL)</title>
<ellipse fill="none" stroke="black" cx="1536" cy="-378" rx="76.0865" ry="18"/>
<text text-anchor="middle" x="1536" y="-374.3" font-family="Times New Roman,serif" font-size="14.00">BayStation (GPL)</text>
</g>
<!-- /tg/Station (Pre&#45;AGPL)&#45;&gt;BayStation (GPL) -->
<g id="edge11" class="edge"><title>/tg/Station (Pre&#45;AGPL)&#45;&gt;BayStation (GPL)</title>
<path fill="none" stroke="black" d="M1924.44,-439.577C1847.31,-429.885 1725.69,-413.735 1621,-396 1614.67,-394.928 1608.09,-393.741 1601.51,-392.507"/>
<polygon fill="black" stroke="black" points="1601.71,-388.982 1591.23,-390.54 1600.4,-395.857 1601.71,-388.982"/>
</g>
<!-- Old HippieStation -->
<g id="node15" class="node"><title>Old HippieStation</title>
<ellipse fill="none" stroke="black" cx="1706" cy="-378" rx="76.0865" ry="18"/>
<text text-anchor="middle" x="1706" y="-374.3" font-family="Times New Roman,serif" font-size="14.00">Old HippieStation</text>
</g>
<!-- /tg/Station (Pre&#45;AGPL)&#45;&gt;Old HippieStation -->
<g id="edge12" class="edge"><title>/tg/Station (Pre&#45;AGPL)&#45;&gt;Old HippieStation</title>
<path fill="none" stroke="black" d="M1944.92,-435.503C1894.1,-423.485 1819.93,-405.944 1767.74,-393.602"/>
<polygon fill="black" stroke="black" points="1768.47,-390.179 1757.94,-391.283 1766.86,-396.991 1768.47,-390.179"/>
</g>
<!-- Old YogStation -->
<g id="node16" class="node"><title>Old YogStation</title>
<ellipse fill="none" stroke="black" cx="1868" cy="-378" rx="67.6881" ry="18"/>
<text text-anchor="middle" x="1868" y="-374.3" font-family="Times New Roman,serif" font-size="14.00">Old YogStation</text>
</g>
<!-- /tg/Station (Pre&#45;AGPL)&#45;&gt;Old YogStation -->
<g id="edge13" class="edge"><title>/tg/Station (Pre&#45;AGPL)&#45;&gt;Old YogStation</title>
<path fill="none" stroke="black" d="M1971.25,-432.941C1951.96,-422.86 1926.91,-409.779 1906.33,-399.023"/>
<polygon fill="black" stroke="black" points="1907.7,-395.793 1897.22,-394.264 1904.46,-401.997 1907.7,-395.793"/>
</g>
<!-- NTStation -->
<g id="node17" class="node"><title>NTStation</title>
<ellipse fill="none" stroke="black" cx="2002" cy="-378" rx="48.1917" ry="18"/>
<text text-anchor="middle" x="2002" y="-374.3" font-family="Times New Roman,serif" font-size="14.00">NTStation</text>
</g>
<!-- /tg/Station (Pre&#45;AGPL)&#45;&gt;NTStation -->
<g id="edge14" class="edge"><title>/tg/Station (Pre&#45;AGPL)&#45;&gt;NTStation</title>
<path fill="none" stroke="black" d="M2002,-431.697C2002,-423.983 2002,-414.712 2002,-406.112"/>
<polygon fill="black" stroke="black" points="2005.5,-406.104 2002,-396.104 1998.5,-406.104 2005.5,-406.104"/>
</g>
<!-- Traitor Death Match -->
<g id="node18" class="node"><title>Traitor Death Match</title>
<ellipse fill="none" stroke="black" cx="2153" cy="-378" rx="84.485" ry="18"/>
<text text-anchor="middle" x="2153" y="-374.3" font-family="Times New Roman,serif" font-size="14.00">Traitor Death Match</text>
</g>
<!-- /tg/Station (Pre&#45;AGPL)&#45;&gt;Traitor Death Match -->
<g id="edge15" class="edge"><title>/tg/Station (Pre&#45;AGPL)&#45;&gt;Traitor Death Match</title>
<path fill="none" stroke="black" d="M2036.26,-433.116C2058.13,-422.976 2086.67,-409.749 2110.05,-398.91"/>
<polygon fill="black" stroke="black" points="2111.79,-401.961 2119.39,-394.58 2108.84,-395.611 2111.79,-401.961"/>
</g>
<!-- Archangel -->
<g id="node19" class="node"><title>Archangel</title>
<ellipse fill="none" stroke="black" cx="2303" cy="-378" rx="47.3916" ry="18"/>
<text text-anchor="middle" x="2303" y="-374.3" font-family="Times New Roman,serif" font-size="14.00">Archangel</text>
</g>
<!-- /tg/Station (Pre&#45;AGPL)&#45;&gt;Archangel -->
<g id="edge16" class="edge"><title>/tg/Station (Pre&#45;AGPL)&#45;&gt;Archangel</title>
<path fill="none" stroke="black" d="M2065.5,-436.583C2114.93,-426.587 2185.12,-411.665 2246,-396 2249.82,-395.015 2253.78,-393.944 2257.75,-392.836"/>
<polygon fill="black" stroke="black" points="2258.89,-396.149 2267.54,-390.029 2256.96,-389.42 2258.89,-396.149"/>
</g>
<!-- FacePunch -->
<g id="node20" class="node"><title>FacePunch</title>
<ellipse fill="none" stroke="black" cx="2420" cy="-378" rx="51.1914" ry="18"/>
<text text-anchor="middle" x="2420" y="-374.3" font-family="Times New Roman,serif" font-size="14.00">FacePunch</text>
</g>
<!-- /tg/Station (Pre&#45;AGPL)&#45;&gt;FacePunch -->
<g id="edge17" class="edge"><title>/tg/Station (Pre&#45;AGPL)&#45;&gt;FacePunch</title>
<path fill="none" stroke="black" d="M2081.55,-440.068C2154.24,-431.227 2264.46,-416.109 2359,-396 2363.35,-395.074 2367.85,-394.017 2372.34,-392.891"/>
<polygon fill="black" stroke="black" points="2373.31,-396.256 2382.1,-390.346 2371.55,-389.482 2373.31,-396.256"/>
</g>
<!-- Lifeweb -->
<g id="node12" class="node"><title>Lifeweb</title>
<ellipse fill="none" stroke="black" cx="2530" cy="-378" rx="40.0939" ry="18"/>
<text text-anchor="middle" x="2530" y="-374.3" font-family="Times New Roman,serif" font-size="14.00">Lifeweb</text>
</g>
<!-- BayStation (Luna)&#45;&gt;Lifeweb -->
<g id="edge9" class="edge"><title>BayStation (Luna)&#45;&gt;Lifeweb</title>
<path fill="none" stroke="black" d="M2397.25,-433.983C2425.1,-422.448 2463.46,-406.557 2491.79,-394.825"/>
<polygon fill="black" stroke="black" points="2493.46,-397.923 2501.36,-390.862 2490.78,-391.456 2493.46,-397.923"/>
</g>
<!-- YogStation -->
<g id="node29" class="node"><title>YogStation</title>
<ellipse fill="none" stroke="black" cx="51.9954" cy="-306" rx="51.9908" ry="18"/>
<text text-anchor="middle" x="51.9954" y="-302.3" font-family="Times New Roman,serif" font-size="14.00">YogStation</text>
</g>
<!-- /tg/Station (AGPL)&#45;&gt;YogStation -->
<g id="edge26" class="edge"><title>/tg/Station (AGPL)&#45;&gt;YogStation</title>
<path fill="none" stroke="black" d="M573.335,-373.585C468.214,-368.002 275.131,-354.341 112.995,-324 108.56,-323.17 103.978,-322.169 99.4118,-321.073"/>
<polygon fill="black" stroke="black" points="100.056,-317.626 89.5014,-318.553 98.3302,-324.41 100.056,-317.626"/>
</g>
<!-- Fallout 13 -->
<g id="node30" class="node"><title>Fallout 13</title>
<ellipse fill="none" stroke="black" cx="168.995" cy="-306" rx="46.5926" ry="18"/>
<text text-anchor="middle" x="168.995" y="-302.3" font-family="Times New Roman,serif" font-size="14.00">Fallout 13</text>
</g>
<!-- /tg/Station (AGPL)&#45;&gt;Fallout 13 -->
<g id="edge27" class="edge"><title>/tg/Station (AGPL)&#45;&gt;Fallout 13</title>
<path fill="none" stroke="black" d="M576.091,-371.579C490.502,-364.487 346.561,-349.816 224.995,-324 221.082,-323.169 217.048,-322.191 213.022,-321.132"/>
<polygon fill="black" stroke="black" points="213.681,-317.682 203.108,-318.367 211.8,-324.425 213.681,-317.682"/>
</g>
<!-- BeeStation -->
<g id="node31" class="node"><title>BeeStation</title>
<ellipse fill="none" stroke="black" cx="283.995" cy="-306" rx="50.0912" ry="18"/>
<text text-anchor="middle" x="283.995" y="-302.3" font-family="Times New Roman,serif" font-size="14.00">BeeStation</text>
</g>
<!-- /tg/Station (AGPL)&#45;&gt;BeeStation -->
<g id="edge28" class="edge"><title>/tg/Station (AGPL)&#45;&gt;BeeStation</title>
<path fill="none" stroke="black" d="M585.088,-367.808C522.438,-358.564 425.76,-342.984 342.995,-324 338.963,-323.075 334.797,-322.04 330.631,-320.949"/>
<polygon fill="black" stroke="black" points="331.539,-317.569 320.971,-318.328 329.706,-324.325 331.539,-317.569"/>
</g>
<!-- HippieStation -->
<g id="node32" class="node"><title>HippieStation</title>
<ellipse fill="none" stroke="black" cx="411.995" cy="-306" rx="59.5901" ry="18"/>
<text text-anchor="middle" x="411.995" y="-302.3" font-family="Times New Roman,serif" font-size="14.00">HippieStation</text>
</g>
<!-- /tg/Station (AGPL)&#45;&gt;HippieStation -->
<g id="edge29" class="edge"><title>/tg/Station (AGPL)&#45;&gt;HippieStation</title>
<path fill="none" stroke="black" d="M604.346,-363.337C563.725,-351.44 504.941,-334.223 463.066,-321.958"/>
<polygon fill="black" stroke="black" points="463.92,-318.561 453.339,-319.109 461.952,-325.279 463.92,-318.561"/>
</g>
<!-- Citadel -->
<g id="node33" class="node"><title>Citadel</title>
<ellipse fill="none" stroke="black" cx="525.995" cy="-306" rx="36.2938" ry="18"/>
<text text-anchor="middle" x="525.995" y="-302.3" font-family="Times New Roman,serif" font-size="14.00">Citadel</text>
</g>
<!-- /tg/Station (AGPL)&#45;&gt;Citadel -->
<g id="edge30" class="edge"><title>/tg/Station (AGPL)&#45;&gt;Citadel</title>
<path fill="none" stroke="black" d="M622.631,-361.116C603.392,-350.342 577.927,-336.082 557.968,-324.905"/>
<polygon fill="black" stroke="black" points="559.663,-321.842 549.228,-320.01 556.243,-327.95 559.663,-321.842"/>
</g>
<!-- Toolbox Station -->
<g id="node34" class="node"><title>Toolbox Station</title>
<ellipse fill="none" stroke="black" cx="650.995" cy="-306" rx="70.3881" ry="18"/>
<text text-anchor="middle" x="650.995" y="-302.3" font-family="Times New Roman,serif" font-size="14.00">Toolbox Station</text>
</g>
<!-- /tg/Station (AGPL)&#45;&gt;Toolbox Station -->
<g id="edge31" class="edge"><title>/tg/Station (AGPL)&#45;&gt;Toolbox Station</title>
<path fill="none" stroke="black" d="M650.995,-359.697C650.995,-351.983 650.995,-342.712 650.995,-334.112"/>
<polygon fill="black" stroke="black" points="654.495,-334.104 650.995,-324.104 647.495,-334.104 654.495,-334.104"/>
</g>
<!-- FulpStation -->
<g id="node35" class="node"><title>FulpStation</title>
<ellipse fill="none" stroke="black" cx="791.995" cy="-306" rx="52.7911" ry="18"/>
<text text-anchor="middle" x="791.995" y="-302.3" font-family="Times New Roman,serif" font-size="14.00">FulpStation</text>
</g>
<!-- /tg/Station (AGPL)&#45;&gt;FulpStation -->
<g id="edge32" class="edge"><title>/tg/Station (AGPL)&#45;&gt;FulpStation</title>
<path fill="none" stroke="black" d="M682.639,-361.291C703.81,-350.78 731.78,-336.894 754.133,-325.797"/>
<polygon fill="black" stroke="black" points="755.933,-328.811 763.333,-321.229 752.82,-322.541 755.933,-328.811"/>
</g>
<!-- OracleStation -->
<g id="node36" class="node"><title>OracleStation</title>
<ellipse fill="none" stroke="black" cx="921.995" cy="-306" rx="59.5901" ry="18"/>
<text text-anchor="middle" x="921.995" y="-302.3" font-family="Times New Roman,serif" font-size="14.00">OracleStation</text>
</g>
<!-- /tg/Station (AGPL)&#45;&gt;OracleStation -->
<g id="edge33" class="edge"><title>/tg/Station (AGPL)&#45;&gt;OracleStation</title>
<path fill="none" stroke="black" d="M701.333,-363.998C748.877,-351.717 819.944,-333.36 868.496,-320.819"/>
<polygon fill="black" stroke="black" points="869.389,-324.203 878.196,-318.314 867.638,-317.426 869.389,-324.203"/>
</g>
<!-- Sunset Station -->
<g id="node37" class="node"><title>Sunset Station</title>
<ellipse fill="none" stroke="black" cx="1063" cy="-306" rx="63.0888" ry="18"/>
<text text-anchor="middle" x="1063" y="-302.3" font-family="Times New Roman,serif" font-size="14.00">Sunset Station</text>
</g>
<!-- /tg/Station (AGPL)&#45;&gt;Sunset Station -->
<g id="edge34" class="edge"><title>/tg/Station (AGPL)&#45;&gt;Sunset Station</title>
<path fill="none" stroke="black" d="M718.034,-368.108C786.803,-358.622 896.75,-342.443 990.995,-324 996.274,-322.967 1001.75,-321.817 1007.22,-320.616"/>
<polygon fill="black" stroke="black" points="1008.03,-324.022 1017.02,-318.414 1006.49,-317.193 1008.03,-324.022"/>
</g>
<!-- Star Trek 13 -->
<g id="node38" class="node"><title>Star Trek 13</title>
<ellipse fill="none" stroke="black" cx="1200" cy="-306" rx="55.7903" ry="18"/>
<text text-anchor="middle" x="1200" y="-302.3" font-family="Times New Roman,serif" font-size="14.00">Star Trek 13</text>
</g>
<!-- /tg/Station (AGPL)&#45;&gt;Star Trek 13 -->
<g id="edge35" class="edge"><title>/tg/Station (AGPL)&#45;&gt;Star Trek 13</title>
<path fill="none" stroke="black" d="M726.947,-372.146C822.68,-365.236 992.017,-350.378 1135,-324 1139.76,-323.12 1144.7,-322.078 1149.61,-320.95"/>
<polygon fill="black" stroke="black" points="1150.73,-324.281 1159.63,-318.536 1149.09,-317.476 1150.73,-324.281"/>
</g>
<!-- /vg/Station -->
<g id="node22" class="node"><title>/vg/Station</title>
<ellipse fill="none" stroke="black" cx="1324" cy="-306" rx="50.0912" ry="18"/>
<text text-anchor="middle" x="1324" y="-302.3" font-family="Times New Roman,serif" font-size="14.00">/vg/Station</text>
</g>
<!-- BayStation (GPL)&#45;&gt;/vg/Station -->
<g id="edge19" class="edge"><title>BayStation (GPL)&#45;&gt;/vg/Station</title>
<path fill="none" stroke="black" d="M1493.6,-363.003C1457.71,-351.15 1406.37,-334.198 1369.59,-322.055"/>
<polygon fill="black" stroke="black" points="1370.22,-318.577 1359.63,-318.765 1368.03,-325.224 1370.22,-318.577"/>
</g>
<!-- Paradise -->
<g id="node23" class="node"><title>Paradise</title>
<ellipse fill="none" stroke="black" cx="1434" cy="-306" rx="41.6928" ry="18"/>
<text text-anchor="middle" x="1434" y="-302.3" font-family="Times New Roman,serif" font-size="14.00">Paradise</text>
</g>
<!-- BayStation (GPL)&#45;&gt;Paradise -->
<g id="edge20" class="edge"><title>BayStation (GPL)&#45;&gt;Paradise</title>
<path fill="none" stroke="black" d="M1512.34,-360.765C1497.97,-350.906 1479.5,-338.228 1464.1,-327.659"/>
<polygon fill="black" stroke="black" points="1465.67,-324.49 1455.44,-321.717 1461.7,-330.261 1465.67,-324.49"/>
</g>
<!-- Tau Ceti -->
<g id="node24" class="node"><title>Tau Ceti</title>
<ellipse fill="none" stroke="black" cx="1536" cy="-306" rx="42.4939" ry="18"/>
<text text-anchor="middle" x="1536" y="-302.3" font-family="Times New Roman,serif" font-size="14.00">Tau Ceti</text>
</g>
<!-- BayStation (GPL)&#45;&gt;Tau Ceti -->
<g id="edge21" class="edge"><title>BayStation (GPL)&#45;&gt;Tau Ceti</title>
<path fill="none" stroke="black" d="M1536,-359.697C1536,-351.983 1536,-342.712 1536,-334.112"/>
<polygon fill="black" stroke="black" points="1539.5,-334.104 1536,-324.104 1532.5,-334.104 1539.5,-334.104"/>
</g>
<!-- Aurora (Old) -->
<g id="node25" class="node"><title>Aurora (Old)</title>
<ellipse fill="none" stroke="black" cx="1654" cy="-306" rx="57.6901" ry="18"/>
<text text-anchor="middle" x="1654" y="-302.3" font-family="Times New Roman,serif" font-size="14.00">Aurora (Old)</text>
</g>
<!-- BayStation (GPL)&#45;&gt;Aurora (Old) -->
<g id="edge22" class="edge"><title>BayStation (GPL)&#45;&gt;Aurora (Old)</title>
<path fill="none" stroke="black" d="M1562.77,-361.116C1579.45,-351.223 1601.08,-338.391 1619.09,-327.705"/>
<polygon fill="black" stroke="black" points="1621.32,-330.452 1628.14,-322.34 1617.75,-324.432 1621.32,-330.452"/>
</g>
<!-- Colonial Marines -->
<g id="node26" class="node"><title>Colonial Marines</title>
<ellipse fill="none" stroke="black" cx="1802" cy="-306" rx="72.2875" ry="18"/>
<text text-anchor="middle" x="1802" y="-302.3" font-family="Times New Roman,serif" font-size="14.00">Colonial Marines</text>
</g>
<!-- BayStation (GPL)&#45;&gt;Colonial Marines -->
<g id="edge23" class="edge"><title>BayStation (GPL)&#45;&gt;Colonial Marines</title>
<path fill="none" stroke="black" d="M1584.78,-364.161C1629.73,-352.333 1696.48,-334.768 1744.11,-322.234"/>
<polygon fill="black" stroke="black" points="1745.18,-325.57 1753.96,-319.64 1743.4,-318.8 1745.18,-325.57"/>
</g>
<!-- BayStation (AGPL) -->
<g id="node27" class="node"><title>BayStation (AGPL)</title>
<ellipse fill="none" stroke="black" cx="2147" cy="-306" rx="82.5854" ry="18"/>
<text text-anchor="middle" x="2147" y="-302.3" font-family="Times New Roman,serif" font-size="14.00">BayStation (AGPL)</text>
</g>
<!-- BayStation (GPL)&#45;&gt;BayStation (AGPL) -->
<g id="edge24" class="edge"><title>BayStation (GPL)&#45;&gt;BayStation (AGPL)</title>
<path fill="none" stroke="red" d="M1590.27,-365.33C1600.45,-363.373 1611.02,-361.496 1621,-360 1774.5,-336.972 1954.74,-321.239 2059.41,-313.213"/>
<polygon fill="red" stroke="red" points="2059.9,-316.685 2069.61,-312.437 2059.37,-309.706 2059.9,-316.685"/>
</g>
<!-- Corporate Mercenaries -->
<g id="node21" class="node"><title>Corporate Mercenaries</title>
<ellipse fill="none" stroke="black" cx="2420" cy="-306" rx="94.4839" ry="18"/>
<text text-anchor="middle" x="2420" y="-302.3" font-family="Times New Roman,serif" font-size="14.00">Corporate Mercenaries</text>
</g>
<!-- FacePunch&#45;&gt;Corporate Mercenaries -->
<g id="edge18" class="edge"><title>FacePunch&#45;&gt;Corporate Mercenaries</title>
<path fill="none" stroke="black" d="M2420,-359.697C2420,-351.983 2420,-342.712 2420,-334.112"/>
<polygon fill="black" stroke="black" points="2423.5,-334.104 2420,-324.104 2416.5,-334.104 2423.5,-334.104"/>
</g>
<!-- Persistence SS13 (Old) -->
<g id="node28" class="node"><title>Persistence SS13 (Old)</title>
<ellipse fill="none" stroke="black" cx="1434" cy="-234" rx="95.5831" ry="18"/>
<text text-anchor="middle" x="1434" y="-230.3" font-family="Times New Roman,serif" font-size="14.00">Persistence SS13 (Old)</text>
</g>
<!-- Paradise&#45;&gt;Persistence SS13 (Old) -->
<g id="edge25" class="edge"><title>Paradise&#45;&gt;Persistence SS13 (Old)</title>
<path fill="none" stroke="black" d="M1434,-287.697C1434,-279.983 1434,-270.712 1434,-262.112"/>
<polygon fill="black" stroke="black" points="1437.5,-262.104 1434,-252.104 1430.5,-262.104 1437.5,-262.104"/>
</g>
<!-- TGMC -->
<g id="node48" class="node"><title>TGMC</title>
<ellipse fill="none" stroke="black" cx="1662" cy="-234" rx="37.8943" ry="18"/>
<text text-anchor="middle" x="1662" y="-230.3" font-family="Times New Roman,serif" font-size="14.00">TGMC</text>
</g>
<!-- Colonial Marines&#45;&gt;TGMC -->
<g id="edge45" class="edge"><title>Colonial Marines&#45;&gt;TGMC</title>
<path fill="none" stroke="black" d="M1771.27,-289.638C1749.06,-278.531 1719.04,-263.524 1696.09,-252.047"/>
<polygon fill="black" stroke="black" points="1697.55,-248.866 1687.04,-247.524 1694.42,-255.127 1697.55,-248.866"/>
</g>
<!-- Urist McStation -->
<g id="node40" class="node"><title>Urist McStation</title>
<ellipse fill="none" stroke="black" cx="1786" cy="-234" rx="68.4888" ry="18"/>
<text text-anchor="middle" x="1786" y="-230.3" font-family="Times New Roman,serif" font-size="14.00">Urist McStation</text>
</g>
<!-- BayStation (AGPL)&#45;&gt;Urist McStation -->
<g id="edge37" class="edge"><title>BayStation (AGPL)&#45;&gt;Urist McStation</title>
<path fill="none" stroke="black" d="M2085.11,-294.055C2027.5,-283.723 1939.3,-267.538 1863,-252 1857.55,-250.89 1851.89,-249.705 1846.22,-248.495"/>
<polygon fill="black" stroke="black" points="1846.58,-244.991 1836.06,-246.303 1845.1,-251.834 1846.58,-244.991"/>
</g>
<!-- Polaris -->
<g id="node41" class="node"><title>Polaris</title>
<ellipse fill="none" stroke="black" cx="1908" cy="-234" rx="35.9954" ry="18"/>
<text text-anchor="middle" x="1908" y="-230.3" font-family="Times New Roman,serif" font-size="14.00">Polaris</text>
</g>
<!-- BayStation (AGPL)&#45;&gt;Polaris -->
<g id="edge38" class="edge"><title>BayStation (AGPL)&#45;&gt;Polaris</title>
<path fill="none" stroke="black" d="M2094.31,-292.044C2055.07,-282.046 2000.32,-267.365 1953,-252 1950.4,-251.159 1947.74,-250.256 1945.07,-249.32"/>
<polygon fill="black" stroke="black" points="1946.05,-245.953 1935.46,-245.844 1943.67,-252.536 1946.05,-245.953"/>
</g>
<!-- CEV Eris -->
<g id="node42" class="node"><title>CEV Eris</title>
<ellipse fill="none" stroke="black" cx="2007" cy="-234" rx="45.4919" ry="18"/>
<text text-anchor="middle" x="2007" y="-230.3" font-family="Times New Roman,serif" font-size="14.00">CEV Eris</text>
</g>
<!-- BayStation (AGPL)&#45;&gt;CEV Eris -->
<g id="edge39" class="edge"><title>BayStation (AGPL)&#45;&gt;CEV Eris</title>
<path fill="none" stroke="black" d="M2115.58,-289.291C2094.13,-278.568 2065.66,-264.333 2043.26,-253.13"/>
<polygon fill="black" stroke="black" points="2044.57,-249.875 2034.06,-248.533 2041.44,-256.136 2044.57,-249.875"/>
</g>
<!-- Persistence (New) -->
<g id="node43" class="node"><title>Persistence (New)</title>
<ellipse fill="none" stroke="black" cx="2147" cy="-234" rx="76.8869" ry="18"/>
<text text-anchor="middle" x="2147" y="-230.3" font-family="Times New Roman,serif" font-size="14.00">Persistence (New)</text>
</g>
<!-- BayStation (AGPL)&#45;&gt;Persistence (New) -->
<g id="edge40" class="edge"><title>BayStation (AGPL)&#45;&gt;Persistence (New)</title>
<path fill="none" stroke="black" d="M2147,-287.697C2147,-279.983 2147,-270.712 2147,-262.112"/>
<polygon fill="black" stroke="black" points="2150.5,-262.104 2147,-252.104 2143.5,-262.104 2150.5,-262.104"/>
</g>
<!-- Europa Station -->
<g id="node44" class="node"><title>Europa Station</title>
<ellipse fill="none" stroke="black" cx="2307" cy="-234" rx="64.9885" ry="18"/>
<text text-anchor="middle" x="2307" y="-230.3" font-family="Times New Roman,serif" font-size="14.00">Europa Station</text>
</g>
<!-- BayStation (AGPL)&#45;&gt;Europa Station -->
<g id="edge41" class="edge"><title>BayStation (AGPL)&#45;&gt;Europa Station</title>
<path fill="none" stroke="black" d="M2182.11,-289.638C2206.33,-279.039 2238.68,-264.888 2264.38,-253.643"/>
<polygon fill="black" stroke="black" points="2266.12,-256.704 2273.88,-249.489 2263.31,-250.291 2266.12,-256.704"/>
</g>
<!-- SCP&#45;13 -->
<g id="node45" class="node"><title>SCP&#45;13</title>
<ellipse fill="none" stroke="black" cx="2430" cy="-234" rx="39.7935" ry="18"/>
<text text-anchor="middle" x="2430" y="-230.3" font-family="Times New Roman,serif" font-size="14.00">SCP&#45;13</text>
</g>
<!-- BayStation (AGPL)&#45;&gt;SCP&#45;13 -->
<g id="edge42" class="edge"><title>BayStation (AGPL)&#45;&gt;SCP&#45;13</title>
<path fill="none" stroke="black" d="M2206.6,-293.408C2254.17,-283.7 2322.32,-268.767 2381,-252 2384.11,-251.109 2387.32,-250.133 2390.54,-249.113"/>
<polygon fill="black" stroke="black" points="2391.7,-252.414 2400.1,-245.962 2389.51,-245.765 2391.7,-252.414"/>
</g>
<!-- Halo: Space Station Evolved -->
<g id="node46" class="node"><title>Halo: Space Station Evolved</title>
<ellipse fill="none" stroke="black" cx="2602" cy="-234" rx="114.28" ry="18"/>
<text text-anchor="middle" x="2602" y="-230.3" font-family="Times New Roman,serif" font-size="14.00">Halo: Space Station Evolved</text>
</g>
<!-- BayStation (AGPL)&#45;&gt;Halo: Space Station Evolved -->
<g id="edge43" class="edge"><title>BayStation (AGPL)&#45;&gt;Halo: Space Station Evolved</title>
<path fill="none" stroke="black" d="M2212.67,-294.896C2291.82,-282.72 2425.14,-262.208 2513.36,-248.636"/>
<polygon fill="black" stroke="black" points="2514,-252.079 2523.35,-247.099 2512.94,-245.16 2514,-252.079"/>
</g>
<!-- Aurora Station -->
<g id="node47" class="node"><title>Aurora Station</title>
<ellipse fill="none" stroke="black" cx="2798" cy="-234" rx="63.8893" ry="18"/>
<text text-anchor="middle" x="2798" y="-230.3" font-family="Times New Roman,serif" font-size="14.00">Aurora Station</text>
</g>
<!-- BayStation (AGPL)&#45;&gt;Aurora Station -->
<g id="edge44" class="edge"><title>BayStation (AGPL)&#45;&gt;Aurora Station</title>
<path fill="none" stroke="black" d="M2220.19,-297.491C2250.19,-294.464 2285.25,-290.988 2317,-288 2498.23,-270.943 2545.24,-280.715 2725,-252 2730.68,-251.093 2736.57,-249.992 2742.44,-248.791"/>
<polygon fill="black" stroke="black" points="2743.19,-252.209 2752.24,-246.694 2741.73,-245.364 2743.19,-252.209"/>
</g>
<!-- Deep Space 13 -->
<g id="node39" class="node"><title>Deep Space 13</title>
<ellipse fill="none" stroke="black" cx="1200" cy="-234" rx="65.7887" ry="18"/>
<text text-anchor="middle" x="1200" y="-230.3" font-family="Times New Roman,serif" font-size="14.00">Deep Space 13</text>
</g>
<!-- Star Trek 13&#45;&gt;Deep Space 13 -->
<g id="edge36" class="edge"><title>Star Trek 13&#45;&gt;Deep Space 13</title>
<path fill="none" stroke="red" d="M1200,-287.697C1200,-279.983 1200,-270.712 1200,-262.112"/>
<polygon fill="red" stroke="red" points="1203.5,-262.104 1200,-252.104 1196.5,-262.104 1203.5,-262.104"/>
</g>
<!-- V.O.R.E. Station -->
<g id="node52" class="node"><title>V.O.R.E. Station</title>
<ellipse fill="none" stroke="black" cx="1757" cy="-162" rx="73.387" ry="18"/>
<text text-anchor="middle" x="1757" y="-158.3" font-family="Times New Roman,serif" font-size="14.00">V.O.R.E. Station</text>
</g>
<!-- Polaris&#45;&gt;V.O.R.E. Station -->
<g id="edge49" class="edge"><title>Polaris&#45;&gt;V.O.R.E. Station</title>
<path fill="none" stroke="black" d="M1882.38,-221.125C1859.57,-210.553 1825.78,-194.885 1799.01,-182.479"/>
<polygon fill="black" stroke="black" points="1800.42,-179.271 1789.87,-178.241 1797.47,-185.622 1800.42,-179.271"/>
</g>
<!-- World Server -->
<g id="node55" class="node"><title>World Server</title>
<ellipse fill="none" stroke="black" cx="1908" cy="-162" rx="59.5901" ry="18"/>
<text text-anchor="middle" x="1908" y="-158.3" font-family="Times New Roman,serif" font-size="14.00">World Server</text>
</g>
<!-- Polaris&#45;&gt;World Server -->
<g id="edge52" class="edge"><title>Polaris&#45;&gt;World Server</title>
<path fill="none" stroke="black" d="M1908,-215.697C1908,-207.983 1908,-198.712 1908,-190.112"/>
<polygon fill="black" stroke="black" points="1911.5,-190.104 1908,-180.104 1904.5,-190.104 1911.5,-190.104"/>
</g>
<!-- InterStation&#45;Two -->
<g id="node49" class="node"><title>InterStation&#45;Two</title>
<ellipse fill="none" stroke="black" cx="2059" cy="-162" rx="72.5877" ry="18"/>
<text text-anchor="middle" x="2059" y="-158.3" font-family="Times New Roman,serif" font-size="14.00">InterStation&#45;Two</text>
</g>
<!-- CEV Eris&#45;&gt;InterStation&#45;Two -->
<g id="edge46" class="edge"><title>CEV Eris&#45;&gt;InterStation&#45;Two</title>
<path fill="none" stroke="black" d="M2019.32,-216.411C2025.57,-207.992 2033.3,-197.585 2040.27,-188.201"/>
<polygon fill="black" stroke="black" points="2043.25,-190.071 2046.4,-179.956 2037.63,-185.897 2043.25,-190.071"/>
</g>
<!-- Lebensraum -->
<g id="node50" class="node"><title>Lebensraum</title>
<ellipse fill="none" stroke="black" cx="2059" cy="-90" rx="55.4913" ry="18"/>
<text text-anchor="middle" x="2059" y="-86.3" font-family="Times New Roman,serif" font-size="14.00">Lebensraum</text>
</g>
<!-- InterStation&#45;Two&#45;&gt;Lebensraum -->
<g id="edge47" class="edge"><title>InterStation&#45;Two&#45;&gt;Lebensraum</title>
<path fill="none" stroke="black" d="M2059,-143.697C2059,-135.983 2059,-126.712 2059,-118.112"/>
<polygon fill="black" stroke="black" points="2062.5,-118.104 2059,-108.104 2055.5,-118.104 2062.5,-118.104"/>
</g>
<!-- Civilization 13 -->
<g id="node51" class="node"><title>Civilization 13</title>
<ellipse fill="none" stroke="black" cx="2059" cy="-18" rx="61.99" ry="18"/>
<text text-anchor="middle" x="2059" y="-14.3" font-family="Times New Roman,serif" font-size="14.00">Civilization 13</text>
</g>
<!-- Lebensraum&#45;&gt;Civilization 13 -->
<g id="edge48" class="edge"><title>Lebensraum&#45;&gt;Civilization 13</title>
<path fill="none" stroke="black" d="M2059,-71.6966C2059,-63.9827 2059,-54.7125 2059,-46.1124"/>
<polygon fill="black" stroke="black" points="2062.5,-46.1043 2059,-36.1043 2055.5,-46.1044 2062.5,-46.1043"/>
</g>
<!-- Chompers -->
<g id="node53" class="node"><title>Chompers</title>
<ellipse fill="none" stroke="black" cx="1705" cy="-90" rx="48.9926" ry="18"/>
<text text-anchor="middle" x="1705" y="-86.3" font-family="Times New Roman,serif" font-size="14.00">Chompers</text>
</g>
<!-- V.O.R.E. Station&#45;&gt;Chompers -->
<g id="edge50" class="edge"><title>V.O.R.E. Station&#45;&gt;Chompers</title>
<path fill="none" stroke="black" d="M1744.41,-144.055C1738.15,-135.629 1730.46,-125.28 1723.54,-115.966"/>
<polygon fill="black" stroke="black" points="1726.24,-113.729 1717.47,-107.789 1720.62,-117.904 1726.24,-113.729"/>
</g>
<!-- AEIOU -->
<g id="node54" class="node"><title>AEIOU</title>
<ellipse fill="none" stroke="black" cx="1810" cy="-90" rx="38.1938" ry="18"/>
<text text-anchor="middle" x="1810" y="-86.3" font-family="Times New Roman,serif" font-size="14.00">AEIOU</text>
</g>
<!-- V.O.R.E. Station&#45;&gt;AEIOU -->
<g id="edge51" class="edge"><title>V.O.R.E. Station&#45;&gt;AEIOU</title>
<path fill="none" stroke="black" d="M1769.83,-144.055C1776.3,-135.505 1784.27,-124.975 1791.4,-115.556"/>
<polygon fill="black" stroke="black" points="1794.4,-117.392 1797.65,-107.307 1788.82,-113.167 1794.4,-117.392"/>
</g>
<!-- Eclipse Station -->
<g id="node56" class="node"><title>Eclipse Station</title>
<ellipse fill="none" stroke="black" cx="1810" cy="-18" rx="64.9885" ry="18"/>
<text text-anchor="middle" x="1810" y="-14.3" font-family="Times New Roman,serif" font-size="14.00">Eclipse Station</text>
</g>
<!-- AEIOU&#45;&gt;Eclipse Station -->
<g id="edge53" class="edge"><title>AEIOU&#45;&gt;Eclipse Station</title>
<path fill="none" stroke="red" d="M1810,-71.6966C1810,-63.9827 1810,-54.7125 1810,-46.1124"/>
<polygon fill="red" stroke="red" points="1813.5,-46.1043 1810,-36.1043 1806.5,-46.1044 1813.5,-46.1043"/>
</g>
</g>
</svg>
