<?xml version="1.0" encoding="UTF-8" standalone="no"?>
<!DOCTYPE svg PUBLIC "-//W3C//DTD SVG 1.1//EN"
 "http://www.w3.org/Graphics/SVG/1.1/DTD/svg11.dtd">
<!-- Generated by graphviz version 2.38.0 (20140413.2041)
 -->
<!-- Title: G Pages: 1 -->
<svg width="2960pt" height="715pt"
 viewBox="0.00 0.00 2959.69 715.00" xmlns="http://www.w3.org/2000/svg" xmlns:xlink="http://www.w3.org/1999/xlink">
<g id="graph0" class="graph" transform="scale(1 1) rotate(0) translate(4 711)">
<title>G</title>
<polygon fill="white" stroke="none" points="-4,4 -4,-711 2955.69,-711 2955.69,4 -4,4"/>
<text text-anchor="middle" x="1475.84" y="-691.8" font-family="Times New Roman,serif" font-size="14.00">SS13 Codebases Circa Mid&#45;2019</text>
<!-- Red arrows indicate that the child is not a fork of a parent, rather a new version or rebrand. -->
<g id="node1" class="node"><title>Red arrows indicate that the child is not a fork of a parent, rather a new version or rebrand.</title>
<polygon fill="none" stroke="black" points="2256,-684 1732,-684 1732,-648 2256,-648 2256,-684"/>
<text text-anchor="middle" x="1994" y="-662.3" font-family="Times New Roman,serif" font-size="14.00">Red arrows indicate that the child is not a fork of a parent, rather a new version or rebrand.</text>
</g>
<!-- BurgerStation -->
<g id="node2" class="node"><title>BurgerStation</title>
<ellipse fill="none" stroke="black" cx="2334" cy="-666" rx="60.3893" ry="18"/>
<text text-anchor="middle" x="2334" y="-662.3" font-family="Times New Roman,serif" font-size="14.00">BurgerStation</text>
</g>
<!-- SS13 (Pre Open) -->
<g id="node3" class="node"><title>SS13 (Pre Open)</title>
<ellipse fill="none" stroke="black" cx="2486" cy="-666" rx="73.387" ry="18"/>
<text text-anchor="middle" x="2486" y="-662.3" font-family="Times New Roman,serif" font-size="14.00">SS13 (Pre Open)</text>
</g>
<!-- Source Decompilation (OpenSS13) -->
<g id="node4" class="node"><title>Source Decompilation (OpenSS13)</title>
<ellipse fill="none" stroke="black" cx="2379" cy="-594" rx="139.976" ry="18"/>
<text text-anchor="middle" x="2379" y="-590.3" font-family="Times New Roman,serif" font-size="14.00">Source Decompilation (OpenSS13)</text>
</g>
<!-- SS13 (Pre Open)&#45;&gt;Source Decompilation (OpenSS13) -->
<g id="edge1" class="edge"><title>SS13 (Pre Open)&#45;&gt;Source Decompilation (OpenSS13)</title>
<path fill="none" stroke="black" d="M2461.45,-648.941C2447.08,-639.541 2428.72,-627.533 2412.98,-617.234"/>
<polygon fill="black" stroke="black" points="2414.83,-614.261 2404.55,-611.715 2411,-620.119 2414.83,-614.261"/>
</g>
<!-- Goonstation -->
<g id="node5" class="node"><title>Goonstation</title>
<ellipse fill="none" stroke="black" cx="2593" cy="-594" rx="55.7903" ry="18"/>
<text text-anchor="middle" x="2593" y="-590.3" font-family="Times New Roman,serif" font-size="14.00">Goonstation</text>
</g>
<!-- SS13 (Pre Open)&#45;&gt;Goonstation -->
<g id="edge2" class="edge"><title>SS13 (Pre Open)&#45;&gt;Goonstation</title>
<path fill="none" stroke="black" d="M2510.54,-648.941C2525.43,-639.2 2544.6,-626.659 2560.71,-616.121"/>
<polygon fill="black" stroke="black" points="2562.85,-618.907 2569.3,-610.503 2559.01,-613.049 2562.85,-618.907"/>
</g>
<!-- BayStation OpenSS13 -->
<g id="node6" class="node"><title>BayStation OpenSS13</title>
<ellipse fill="none" stroke="black" cx="2379" cy="-522" rx="92.0841" ry="18"/>
<text text-anchor="middle" x="2379" y="-518.3" font-family="Times New Roman,serif" font-size="14.00">BayStation OpenSS13</text>
</g>
<!-- Source Decompilation (OpenSS13)&#45;&gt;BayStation OpenSS13 -->
<g id="edge3" class="edge"><title>Source Decompilation (OpenSS13)&#45;&gt;BayStation OpenSS13</title>
<path fill="none" stroke="black" d="M2379,-575.697C2379,-567.983 2379,-558.712 2379,-550.112"/>
<polygon fill="black" stroke="black" points="2382.5,-550.104 2379,-540.104 2375.5,-550.104 2382.5,-550.104"/>
</g>
<!-- Revision 4407 (r4407) -->
<g id="node7" class="node"><title>Revision 4407 (r4407)</title>
<ellipse fill="none" stroke="black" cx="2586" cy="-522" rx="90.9839" ry="18"/>
<text text-anchor="middle" x="2586" y="-518.3" font-family="Times New Roman,serif" font-size="14.00">Revision 4407 (r4407)</text>
</g>
<!-- Goonstation&#45;&gt;Revision 4407 (r4407) -->
<g id="edge4" class="edge"><title>Goonstation&#45;&gt;Revision 4407 (r4407)</title>
<path fill="none" stroke="black" d="M2591.27,-575.697C2590.49,-567.983 2589.57,-558.712 2588.71,-550.112"/>
<polygon fill="black" stroke="black" points="2592.18,-549.706 2587.71,-540.104 2585.22,-550.403 2592.18,-549.706"/>
</g>
<!-- Goon 2016 -->
<g id="node8" class="node"><title>Goon 2016</title>
<ellipse fill="none" stroke="black" cx="2747" cy="-522" rx="51.9908" ry="18"/>
<text text-anchor="middle" x="2747" y="-518.3" font-family="Times New Roman,serif" font-size="14.00">Goon 2016</text>
</g>
<!-- Goonstation&#45;&gt;Goon 2016 -->
<g id="edge5" class="edge"><title>Goonstation&#45;&gt;Goon 2016</title>
<path fill="none" stroke="black" d="M2624.16,-578.834C2648.19,-567.911 2681.59,-552.732 2707.49,-540.957"/>
<polygon fill="black" stroke="black" points="2709.01,-544.111 2716.66,-536.787 2706.11,-537.738 2709.01,-544.111"/>
</g>
<!-- /tg/Station (Pre&#45;AGPL) -->
<g id="node9" class="node"><title>/tg/Station (Pre&#45;AGPL)</title>
<ellipse fill="none" stroke="black" cx="2167" cy="-450" rx="94.7833" ry="18"/>
<text text-anchor="middle" x="2167" y="-446.3" font-family="Times New Roman,serif" font-size="14.00">/tg/Station (Pre&#45;AGPL)</text>
</g>
<!-- Revision 4407 (r4407)&#45;&gt;/tg/Station (Pre&#45;AGPL) -->
<g id="edge6" class="edge"><title>Revision 4407 (r4407)&#45;&gt;/tg/Station (Pre&#45;AGPL)</title>
<path fill="none" stroke="black" d="M2518.68,-509.753C2444.14,-497.3 2324.13,-477.252 2245.41,-464.1"/>
<polygon fill="black" stroke="black" points="2245.98,-460.647 2235.54,-462.451 2244.83,-467.551 2245.98,-460.647"/>
</g>
<!-- BayStation (Luna) -->
<g id="node10" class="node"><title>BayStation (Luna)</title>
<ellipse fill="none" stroke="black" cx="2586" cy="-450" rx="76.8869" ry="18"/>
<text text-anchor="middle" x="2586" y="-446.3" font-family="Times New Roman,serif" font-size="14.00">BayStation (Luna)</text>
</g>
<!-- Revision 4407 (r4407)&#45;&gt;BayStation (Luna) -->
<g id="edge7" class="edge"><title>Revision 4407 (r4407)&#45;&gt;BayStation (Luna)</title>
<path fill="none" stroke="black" d="M2586,-503.697C2586,-495.983 2586,-486.712 2586,-478.112"/>
<polygon fill="black" stroke="black" points="2589.5,-478.104 2586,-468.104 2582.5,-478.104 2589.5,-478.104"/>
</g>
<!-- D2K5 -->
<g id="node11" class="node"><title>D2K5</title>
<ellipse fill="none" stroke="black" cx="2713" cy="-450" rx="32.4942" ry="18"/>
<text text-anchor="middle" x="2713" y="-446.3" font-family="Times New Roman,serif" font-size="14.00">D2K5</text>
</g>
<!-- Revision 4407 (r4407)&#45;&gt;D2K5 -->
<g id="edge8" class="edge"><title>Revision 4407 (r4407)&#45;&gt;D2K5</title>
<path fill="none" stroke="black" d="M2615.13,-504.941C2635.07,-493.95 2661.48,-479.393 2681.84,-468.171"/>
<polygon fill="black" stroke="black" points="2683.66,-471.167 2690.72,-463.275 2680.28,-465.037 2683.66,-471.167"/>
</g>
<!-- /tg/Station (AGPL) -->
<g id="node13" class="node"><title>/tg/Station (AGPL)</title>
<ellipse fill="none" stroke="black" cx="720.995" cy="-378" rx="79.8859" ry="18"/>
<text text-anchor="middle" x="720.995" y="-374.3" font-family="Times New Roman,serif" font-size="14.00">/tg/Station (AGPL)</text>
</g>
<!-- /tg/Station (Pre&#45;AGPL)&#45;&gt;/tg/Station (AGPL) -->
<g id="edge10" class="edge"><title>/tg/Station (Pre&#45;AGPL)&#45;&gt;/tg/Station (AGPL)</title>
<path fill="none" stroke="red" d="M2076.27,-444.608C1815.32,-431.976 1065.12,-395.659 808.39,-383.231"/>
<polygon fill="red" stroke="red" points="808.524,-379.733 798.367,-382.745 808.186,-386.725 808.524,-379.733"/>
</g>
<!-- BayStation (GPL) -->
<g id="node14" class="node"><title>BayStation (GPL)</title>
<ellipse fill="none" stroke="black" cx="1626" cy="-378" rx="76.0865" ry="18"/>
<text text-anchor="middle" x="1626" y="-374.3" font-family="Times New Roman,serif" font-size="14.00">BayStation (GPL)</text>
</g>
<!-- /tg/Station (Pre&#45;AGPL)&#45;&gt;BayStation (GPL) -->
<g id="edge11" class="edge"><title>/tg/Station (Pre&#45;AGPL)&#45;&gt;BayStation (GPL)</title>
<path fill="none" stroke="black" d="M2083.51,-441.362C1991.85,-432.496 1840.5,-416.441 1711,-396 1704.4,-394.96 1697.55,-393.769 1690.71,-392.513"/>
<polygon fill="black" stroke="black" points="1691.22,-389.048 1680.75,-390.634 1689.92,-395.926 1691.22,-389.048"/>
</g>
<!-- Old HippieStation -->
<g id="node15" class="node"><title>Old HippieStation</title>
<ellipse fill="none" stroke="black" cx="1796" cy="-378" rx="76.0865" ry="18"/>
<text text-anchor="middle" x="1796" y="-374.3" font-family="Times New Roman,serif" font-size="14.00">Old HippieStation</text>
</g>
<!-- /tg/Station (Pre&#45;AGPL)&#45;&gt;Old HippieStation -->
<g id="edge12" class="edge"><title>/tg/Station (Pre&#45;AGPL)&#45;&gt;Old HippieStation</title>
<path fill="none" stroke="black" d="M2101.06,-437.055C2043.06,-426.482 1956.37,-410.52 1881,-396 1874.79,-394.804 1868.33,-393.543 1861.87,-392.271"/>
<polygon fill="black" stroke="black" points="1862.24,-388.777 1851.75,-390.269 1860.88,-395.644 1862.24,-388.777"/>
</g>
<!-- Old YogStation -->
<g id="node16" class="node"><title>Old YogStation</title>
<ellipse fill="none" stroke="black" cx="1958" cy="-378" rx="67.6881" ry="18"/>
<text text-anchor="middle" x="1958" y="-374.3" font-family="Times New Roman,serif" font-size="14.00">Old YogStation</text>
</g>
<!-- /tg/Station (Pre&#45;AGPL)&#45;&gt;Old YogStation -->
<g id="edge13" class="edge"><title>/tg/Station (Pre&#45;AGPL)&#45;&gt;Old YogStation</title>
<path fill="none" stroke="black" d="M2122.42,-434.069C2088.77,-422.802 2042.62,-407.343 2007.77,-395.672"/>
<polygon fill="black" stroke="black" points="2008.86,-392.344 1998.26,-392.487 2006.63,-398.982 2008.86,-392.344"/>
</g>
<!-- NTStation -->
<g id="node17" class="node"><title>NTStation</title>
<ellipse fill="none" stroke="black" cx="2092" cy="-378" rx="48.1917" ry="18"/>
<text text-anchor="middle" x="2092" y="-374.3" font-family="Times New Roman,serif" font-size="14.00">NTStation</text>
</g>
<!-- /tg/Station (Pre&#45;AGPL)&#45;&gt;NTStation -->
<g id="edge14" class="edge"><title>/tg/Station (Pre&#45;AGPL)&#45;&gt;NTStation</title>
<path fill="none" stroke="black" d="M2148.84,-432.055C2139.14,-423.003 2127.07,-411.733 2116.54,-401.911"/>
<polygon fill="black" stroke="black" points="2118.91,-399.332 2109.21,-395.068 2114.13,-404.45 2118.91,-399.332"/>
</g>
<!-- Traitor Death Match -->
<g id="node18" class="node"><title>Traitor Death Match</title>
<ellipse fill="none" stroke="black" cx="2243" cy="-378" rx="84.485" ry="18"/>
<text text-anchor="middle" x="2243" y="-374.3" font-family="Times New Roman,serif" font-size="14.00">Traitor Death Match</text>
</g>
<!-- /tg/Station (Pre&#45;AGPL)&#45;&gt;Traitor Death Match -->
<g id="edge15" class="edge"><title>/tg/Station (Pre&#45;AGPL)&#45;&gt;Traitor Death Match</title>
<path fill="none" stroke="black" d="M2185.39,-432.055C2194.91,-423.285 2206.7,-412.432 2217.12,-402.831"/>
<polygon fill="black" stroke="black" points="2219.78,-405.138 2224.77,-395.789 2215.04,-399.989 2219.78,-405.138"/>
</g>
<!-- Archangel -->
<g id="node19" class="node"><title>Archangel</title>
<ellipse fill="none" stroke="black" cx="2393" cy="-378" rx="47.3916" ry="18"/>
<text text-anchor="middle" x="2393" y="-374.3" font-family="Times New Roman,serif" font-size="14.00">Archangel</text>
</g>
<!-- /tg/Station (Pre&#45;AGPL)&#45;&gt;Archangel -->
<g id="edge16" class="edge"><title>/tg/Station (Pre&#45;AGPL)&#45;&gt;Archangel</title>
<path fill="none" stroke="black" d="M2214.37,-434.326C2253.58,-422.181 2308.92,-405.04 2347.58,-393.066"/>
<polygon fill="black" stroke="black" points="2349.01,-396.289 2357.52,-389.987 2346.93,-389.603 2349.01,-396.289"/>
</g>
<!-- FacePunch -->
<g id="node20" class="node"><title>FacePunch</title>
<ellipse fill="none" stroke="black" cx="2510" cy="-378" rx="51.1914" ry="18"/>
<text text-anchor="middle" x="2510" y="-374.3" font-family="Times New Roman,serif" font-size="14.00">FacePunch</text>
</g>
<!-- /tg/Station (Pre&#45;AGPL)&#45;&gt;FacePunch -->
<g id="edge17" class="edge"><title>/tg/Station (Pre&#45;AGPL)&#45;&gt;FacePunch</title>
<path fill="none" stroke="black" d="M2236.3,-437.687C2293.6,-427.924 2376.95,-412.777 2449,-396 2453.15,-395.032 2457.45,-393.967 2461.75,-392.857"/>
<polygon fill="black" stroke="black" points="2462.96,-396.156 2471.73,-390.207 2461.16,-389.391 2462.96,-396.156"/>
</g>
<!-- Old FTL13 -->
<g id="node21" class="node"><title>Old FTL13</title>
<ellipse fill="none" stroke="black" cx="2631" cy="-378" rx="51.9908" ry="18"/>
<text text-anchor="middle" x="2631" y="-374.3" font-family="Times New Roman,serif" font-size="14.00">Old FTL13</text>
</g>
<!-- /tg/Station (Pre&#45;AGPL)&#45;&gt;Old FTL13 -->
<g id="edge18" class="edge"><title>/tg/Station (Pre&#45;AGPL)&#45;&gt;Old FTL13</title>
<path fill="none" stroke="black" d="M2250.92,-441.446C2332.84,-433.255 2460.75,-418.291 2570,-396 2574.35,-395.111 2578.86,-394.077 2583.36,-392.968"/>
<polygon fill="black" stroke="black" points="2584.32,-396.335 2593.13,-390.445 2582.57,-389.557 2584.32,-396.335"/>
</g>
<!-- Lifeweb -->
<g id="node12" class="node"><title>Lifeweb</title>
<ellipse fill="none" stroke="black" cx="2741" cy="-378" rx="40.0939" ry="18"/>
<text text-anchor="middle" x="2741" y="-374.3" font-family="Times New Roman,serif" font-size="14.00">Lifeweb</text>
</g>
<!-- BayStation (Luna)&#45;&gt;Lifeweb -->
<g id="edge9" class="edge"><title>BayStation (Luna)&#45;&gt;Lifeweb</title>
<path fill="none" stroke="black" d="M2619.63,-433.811C2644.58,-422.544 2678.57,-407.193 2704.23,-395.603"/>
<polygon fill="black" stroke="black" points="2705.95,-398.667 2713.62,-391.361 2703.07,-392.287 2705.95,-398.667"/>
</g>
<!-- YogStation -->
<g id="node30" class="node"><title>YogStation</title>
<ellipse fill="none" stroke="black" cx="51.9954" cy="-306" rx="51.9908" ry="18"/>
<text text-anchor="middle" x="51.9954" y="-302.3" font-family="Times New Roman,serif" font-size="14.00">YogStation</text>
</g>
<!-- /tg/Station (AGPL)&#45;&gt;YogStation -->
<g id="edge27" class="edge"><title>/tg/Station (AGPL)&#45;&gt;YogStation</title>
<path fill="none" stroke="black" d="M642.158,-374.775C525.628,-370.44 300.917,-358.074 112.995,-324 108.555,-323.195 103.971,-322.211 99.4021,-321.126"/>
<polygon fill="black" stroke="black" points="100.042,-317.678 89.4889,-318.621 98.3264,-324.464 100.042,-317.678"/>
</g>
<!-- Fallout 13 -->
<g id="node31" class="node"><title>Fallout 13</title>
<ellipse fill="none" stroke="black" cx="168.995" cy="-306" rx="46.5926" ry="18"/>
<text text-anchor="middle" x="168.995" y="-302.3" font-family="Times New Roman,serif" font-size="14.00">Fallout 13</text>
</g>
<!-- /tg/Station (AGPL)&#45;&gt;Fallout 13 -->
<g id="edge28" class="edge"><title>/tg/Station (AGPL)&#45;&gt;Fallout 13</title>
<path fill="none" stroke="black" d="M643.836,-373.263C545.699,-367.481 371.387,-353.765 224.995,-324 221.075,-323.203 217.036,-322.249 213.007,-321.205"/>
<polygon fill="black" stroke="black" points="213.659,-317.754 203.088,-318.463 211.794,-324.501 213.659,-317.754"/>
</g>
<!-- BeeStation -->
<g id="node32" class="node"><title>BeeStation</title>
<ellipse fill="none" stroke="black" cx="283.995" cy="-306" rx="50.0912" ry="18"/>
<text text-anchor="middle" x="283.995" y="-302.3" font-family="Times New Roman,serif" font-size="14.00">BeeStation</text>
</g>
<!-- /tg/Station (AGPL)&#45;&gt;BeeStation -->
<g id="edge29" class="edge"><title>/tg/Station (AGPL)&#45;&gt;BeeStation</title>
<path fill="none" stroke="black" d="M649.058,-369.972C572.616,-361.793 448.477,-346.474 342.995,-324 338.89,-323.125 334.652,-322.118 330.419,-321.038"/>
<polygon fill="black" stroke="black" points="331.181,-317.619 320.616,-318.419 329.374,-324.382 331.181,-317.619"/>
</g>
<!-- HippieStation -->
<g id="node33" class="node"><title>HippieStation</title>
<ellipse fill="none" stroke="black" cx="411.995" cy="-306" rx="59.5901" ry="18"/>
<text text-anchor="middle" x="411.995" y="-302.3" font-family="Times New Roman,serif" font-size="14.00">HippieStation</text>
</g>
<!-- /tg/Station (AGPL)&#45;&gt;HippieStation -->
<g id="edge30" class="edge"><title>/tg/Station (AGPL)&#45;&gt;HippieStation</title>
<path fill="none" stroke="black" d="M665.14,-365.066C616.443,-354.566 543.947,-338.704 480.995,-324 476.287,-322.9 471.404,-321.739 466.509,-320.561"/>
<polygon fill="black" stroke="black" points="467.041,-317.088 456.498,-318.132 465.391,-323.891 467.041,-317.088"/>
</g>
<!-- Citadel -->
<g id="node34" class="node"><title>Citadel</title>
<ellipse fill="none" stroke="black" cx="525.995" cy="-306" rx="36.2938" ry="18"/>
<text text-anchor="middle" x="525.995" y="-302.3" font-family="Times New Roman,serif" font-size="14.00">Citadel</text>
</g>
<!-- /tg/Station (AGPL)&#45;&gt;Citadel -->
<g id="edge31" class="edge"><title>/tg/Station (AGPL)&#45;&gt;Citadel</title>
<path fill="none" stroke="black" d="M679.839,-362.513C649.894,-351.935 608.389,-337.197 571.995,-324 569.294,-323.02 566.505,-322.004 563.7,-320.977"/>
<polygon fill="black" stroke="black" points="564.788,-317.648 554.195,-317.484 562.374,-324.218 564.788,-317.648"/>
</g>
<!-- Toolbox Station -->
<g id="node35" class="node"><title>Toolbox Station</title>
<ellipse fill="none" stroke="black" cx="650.995" cy="-306" rx="70.3881" ry="18"/>
<text text-anchor="middle" x="650.995" y="-302.3" font-family="Times New Roman,serif" font-size="14.00">Toolbox Station</text>
</g>
<!-- /tg/Station (AGPL)&#45;&gt;Toolbox Station -->
<g id="edge32" class="edge"><title>/tg/Station (AGPL)&#45;&gt;Toolbox Station</title>
<path fill="none" stroke="black" d="M704.05,-360.055C695.366,-351.371 684.64,-340.644 675.109,-331.114"/>
<polygon fill="black" stroke="black" points="677.33,-328.385 667.784,-323.789 672.381,-333.335 677.33,-328.385"/>
</g>
<!-- FulpStation -->
<g id="node36" class="node"><title>FulpStation</title>
<ellipse fill="none" stroke="black" cx="791.995" cy="-306" rx="52.7911" ry="18"/>
<text text-anchor="middle" x="791.995" y="-302.3" font-family="Times New Roman,serif" font-size="14.00">FulpStation</text>
</g>
<!-- /tg/Station (AGPL)&#45;&gt;FulpStation -->
<g id="edge33" class="edge"><title>/tg/Station (AGPL)&#45;&gt;FulpStation</title>
<path fill="none" stroke="black" d="M738.183,-360.055C747.209,-351.156 758.41,-340.112 768.252,-330.408"/>
<polygon fill="black" stroke="black" points="770.792,-332.82 775.455,-323.307 765.877,-327.835 770.792,-332.82"/>
</g>
<!-- OracleStation -->
<g id="node37" class="node"><title>OracleStation</title>
<ellipse fill="none" stroke="black" cx="921.995" cy="-306" rx="59.5901" ry="18"/>
<text text-anchor="middle" x="921.995" y="-302.3" font-family="Times New Roman,serif" font-size="14.00">OracleStation</text>
</g>
<!-- /tg/Station (AGPL)&#45;&gt;OracleStation -->
<g id="edge34" class="edge"><title>/tg/Station (AGPL)&#45;&gt;OracleStation</title>
<path fill="none" stroke="black" d="M762.643,-362.496C795.296,-351.124 840.747,-335.295 874.755,-323.452"/>
<polygon fill="black" stroke="black" points="876.176,-326.663 884.469,-320.069 873.874,-320.053 876.176,-326.663"/>
</g>
<!-- Sunset Station -->
<g id="node38" class="node"><title>Sunset Station</title>
<ellipse fill="none" stroke="black" cx="1063" cy="-306" rx="63.0888" ry="18"/>
<text text-anchor="middle" x="1063" y="-302.3" font-family="Times New Roman,serif" font-size="14.00">Sunset Station</text>
</g>
<!-- /tg/Station (AGPL)&#45;&gt;Sunset Station -->
<g id="edge35" class="edge"><title>/tg/Station (AGPL)&#45;&gt;Sunset Station</title>
<path fill="none" stroke="black" d="M780.65,-365.964C835.449,-355.667 918.857,-339.591 990.995,-324 996.044,-322.909 1001.28,-321.741 1006.53,-320.547"/>
<polygon fill="black" stroke="black" points="1007.62,-323.889 1016.58,-318.234 1006.05,-317.067 1007.62,-323.889"/>
</g>
<!-- Star Trek 13 -->
<g id="node39" class="node"><title>Star Trek 13</title>
<ellipse fill="none" stroke="black" cx="1200" cy="-306" rx="55.7903" ry="18"/>
<text text-anchor="middle" x="1200" y="-302.3" font-family="Times New Roman,serif" font-size="14.00">Star Trek 13</text>
</g>
<!-- /tg/Station (AGPL)&#45;&gt;Star Trek 13 -->
<g id="edge36" class="edge"><title>/tg/Station (AGPL)&#45;&gt;Star Trek 13</title>
<path fill="none" stroke="black" d="M793.989,-370.519C877.054,-362.481 1016.55,-346.971 1135,-324 1139.69,-323.09 1144.54,-322.036 1149.39,-320.907"/>
<polygon fill="black" stroke="black" points="1150.37,-324.27 1159.26,-318.508 1148.72,-317.467 1150.37,-324.27"/>
</g>
<!-- FTL13 -->
<g id="node40" class="node"><title>FTL13</title>
<ellipse fill="none" stroke="black" cx="1310" cy="-306" rx="36.2938" ry="18"/>
<text text-anchor="middle" x="1310" y="-302.3" font-family="Times New Roman,serif" font-size="14.00">FTL13</text>
</g>
<!-- /tg/Station (AGPL)&#45;&gt;FTL13 -->
<g id="edge37" class="edge"><title>/tg/Station (AGPL)&#45;&gt;FTL13</title>
<path fill="none" stroke="black" d="M800.429,-375.796C907.333,-372.7 1102.81,-361.83 1265,-324 1267.82,-323.342 1270.7,-322.55 1273.58,-321.673"/>
<polygon fill="black" stroke="black" points="1274.86,-324.933 1283.23,-318.431 1272.63,-318.297 1274.86,-324.933"/>
</g>
<!-- /vg/Station -->
<g id="node23" class="node"><title>/vg/Station</title>
<ellipse fill="none" stroke="black" cx="1414" cy="-306" rx="50.0912" ry="18"/>
<text text-anchor="middle" x="1414" y="-302.3" font-family="Times New Roman,serif" font-size="14.00">/vg/Station</text>
</g>
<!-- BayStation (GPL)&#45;&gt;/vg/Station -->
<g id="edge20" class="edge"><title>BayStation (GPL)&#45;&gt;/vg/Station</title>
<path fill="none" stroke="black" d="M1583.6,-363.003C1547.71,-351.15 1496.37,-334.198 1459.59,-322.055"/>
<polygon fill="black" stroke="black" points="1460.22,-318.577 1449.63,-318.765 1458.03,-325.224 1460.22,-318.577"/>
</g>
<!-- Paradise -->
<g id="node24" class="node"><title>Paradise</title>
<ellipse fill="none" stroke="black" cx="1524" cy="-306" rx="41.6928" ry="18"/>
<text text-anchor="middle" x="1524" y="-302.3" font-family="Times New Roman,serif" font-size="14.00">Paradise</text>
</g>
<!-- BayStation (GPL)&#45;&gt;Paradise -->
<g id="edge21" class="edge"><title>BayStation (GPL)&#45;&gt;Paradise</title>
<path fill="none" stroke="black" d="M1602.34,-360.765C1587.97,-350.906 1569.5,-338.228 1554.1,-327.659"/>
<polygon fill="black" stroke="black" points="1555.67,-324.49 1545.44,-321.717 1551.7,-330.261 1555.67,-324.49"/>
</g>
<!-- Tau Ceti -->
<g id="node25" class="node"><title>Tau Ceti</title>
<ellipse fill="none" stroke="black" cx="1626" cy="-306" rx="42.4939" ry="18"/>
<text text-anchor="middle" x="1626" y="-302.3" font-family="Times New Roman,serif" font-size="14.00">Tau Ceti</text>
</g>
<!-- BayStation (GPL)&#45;&gt;Tau Ceti -->
<g id="edge22" class="edge"><title>BayStation (GPL)&#45;&gt;Tau Ceti</title>
<path fill="none" stroke="black" d="M1626,-359.697C1626,-351.983 1626,-342.712 1626,-334.112"/>
<polygon fill="black" stroke="black" points="1629.5,-334.104 1626,-324.104 1622.5,-334.104 1629.5,-334.104"/>
</g>
<!-- Aurora (Old) -->
<g id="node26" class="node"><title>Aurora (Old)</title>
<ellipse fill="none" stroke="black" cx="1744" cy="-306" rx="57.6901" ry="18"/>
<text text-anchor="middle" x="1744" y="-302.3" font-family="Times New Roman,serif" font-size="14.00">Aurora (Old)</text>
</g>
<!-- BayStation (GPL)&#45;&gt;Aurora (Old) -->
<g id="edge23" class="edge"><title>BayStation (GPL)&#45;&gt;Aurora (Old)</title>
<path fill="none" stroke="black" d="M1652.77,-361.116C1669.45,-351.223 1691.08,-338.391 1709.09,-327.705"/>
<polygon fill="black" stroke="black" points="1711.32,-330.452 1718.14,-322.34 1707.75,-324.432 1711.32,-330.452"/>
</g>
<!-- Colonial Marines -->
<g id="node27" class="node"><title>Colonial Marines</title>
<ellipse fill="none" stroke="black" cx="1892" cy="-306" rx="72.2875" ry="18"/>
<text text-anchor="middle" x="1892" y="-302.3" font-family="Times New Roman,serif" font-size="14.00">Colonial Marines</text>
</g>
<!-- BayStation (GPL)&#45;&gt;Colonial Marines -->
<g id="edge24" class="edge"><title>BayStation (GPL)&#45;&gt;Colonial Marines</title>
<path fill="none" stroke="black" d="M1674.78,-364.161C1719.73,-352.333 1786.48,-334.768 1834.11,-322.234"/>
<polygon fill="black" stroke="black" points="1835.18,-325.57 1843.96,-319.64 1833.4,-318.8 1835.18,-325.57"/>
</g>
<!-- BayStation (AGPL) -->
<g id="node28" class="node"><title>BayStation (AGPL)</title>
<ellipse fill="none" stroke="black" cx="2237" cy="-306" rx="82.5854" ry="18"/>
<text text-anchor="middle" x="2237" y="-302.3" font-family="Times New Roman,serif" font-size="14.00">BayStation (AGPL)</text>
</g>
<!-- BayStation (GPL)&#45;&gt;BayStation (AGPL) -->
<g id="edge25" class="edge"><title>BayStation (GPL)&#45;&gt;BayStation (AGPL)</title>
<path fill="none" stroke="red" d="M1680.27,-365.33C1690.45,-363.373 1701.02,-361.496 1711,-360 1864.5,-336.972 2044.74,-321.239 2149.41,-313.213"/>
<polygon fill="red" stroke="red" points="2149.9,-316.685 2159.61,-312.437 2149.37,-309.706 2149.9,-316.685"/>
</g>
<!-- Corporate Mercenaries -->
<g id="node22" class="node"><title>Corporate Mercenaries</title>
<ellipse fill="none" stroke="black" cx="2510" cy="-306" rx="94.4839" ry="18"/>
<text text-anchor="middle" x="2510" y="-302.3" font-family="Times New Roman,serif" font-size="14.00">Corporate Mercenaries</text>
</g>
<!-- FacePunch&#45;&gt;Corporate Mercenaries -->
<g id="edge19" class="edge"><title>FacePunch&#45;&gt;Corporate Mercenaries</title>
<path fill="none" stroke="black" d="M2510,-359.697C2510,-351.983 2510,-342.712 2510,-334.112"/>
<polygon fill="black" stroke="black" points="2513.5,-334.104 2510,-324.104 2506.5,-334.104 2513.5,-334.104"/>
</g>
<!-- Persistence SS13 (Old) -->
<g id="node29" class="node"><title>Persistence SS13 (Old)</title>
<ellipse fill="none" stroke="black" cx="1524" cy="-234" rx="95.5831" ry="18"/>
<text text-anchor="middle" x="1524" y="-230.3" font-family="Times New Roman,serif" font-size="14.00">Persistence SS13 (Old)</text>
</g>
<!-- Paradise&#45;&gt;Persistence SS13 (Old) -->
<g id="edge26" class="edge"><title>Paradise&#45;&gt;Persistence SS13 (Old)</title>
<path fill="none" stroke="black" d="M1524,-287.697C1524,-279.983 1524,-270.712 1524,-262.112"/>
<polygon fill="black" stroke="black" points="1527.5,-262.104 1524,-252.104 1520.5,-262.104 1527.5,-262.104"/>
</g>
<!-- TGMC -->
<g id="node50" class="node"><title>TGMC</title>
<ellipse fill="none" stroke="black" cx="1752" cy="-234" rx="37.8943" ry="18"/>
<text text-anchor="middle" x="1752" y="-230.3" font-family="Times New Roman,serif" font-size="14.00">TGMC</text>
</g>
<!-- Colonial Marines&#45;&gt;TGMC -->
<g id="edge47" class="edge"><title>Colonial Marines&#45;&gt;TGMC</title>
<path fill="none" stroke="black" d="M1861.27,-289.638C1839.06,-278.531 1809.04,-263.524 1786.09,-252.047"/>
<polygon fill="black" stroke="black" points="1787.55,-248.866 1777.04,-247.524 1784.42,-255.127 1787.55,-248.866"/>
</g>
<!-- Urist McStation -->
<g id="node42" class="node"><title>Urist McStation</title>
<ellipse fill="none" stroke="black" cx="1876" cy="-234" rx="68.4888" ry="18"/>
<text text-anchor="middle" x="1876" y="-230.3" font-family="Times New Roman,serif" font-size="14.00">Urist McStation</text>
</g>
<!-- BayStation (AGPL)&#45;&gt;Urist McStation -->
<g id="edge39" class="edge"><title>BayStation (AGPL)&#45;&gt;Urist McStation</title>
<path fill="none" stroke="black" d="M2175.11,-294.055C2117.5,-283.723 2029.3,-267.538 1953,-252 1947.55,-250.89 1941.89,-249.705 1936.22,-248.495"/>
<polygon fill="black" stroke="black" points="1936.58,-244.991 1926.06,-246.303 1935.1,-251.834 1936.58,-244.991"/>
</g>
<!-- Polaris -->
<g id="node43" class="node"><title>Polaris</title>
<ellipse fill="none" stroke="black" cx="1998" cy="-234" rx="35.9954" ry="18"/>
<text text-anchor="middle" x="1998" y="-230.3" font-family="Times New Roman,serif" font-size="14.00">Polaris</text>
</g>
<!-- BayStation (AGPL)&#45;&gt;Polaris -->
<g id="edge40" class="edge"><title>BayStation (AGPL)&#45;&gt;Polaris</title>
<path fill="none" stroke="black" d="M2184.31,-292.044C2145.07,-282.046 2090.32,-267.365 2043,-252 2040.4,-251.159 2037.74,-250.256 2035.07,-249.32"/>
<polygon fill="black" stroke="black" points="2036.05,-245.953 2025.46,-245.844 2033.67,-252.536 2036.05,-245.953"/>
</g>
<!-- CEV Eris -->
<g id="node44" class="node"><title>CEV Eris</title>
<ellipse fill="none" stroke="black" cx="2097" cy="-234" rx="45.4919" ry="18"/>
<text text-anchor="middle" x="2097" y="-230.3" font-family="Times New Roman,serif" font-size="14.00">CEV Eris</text>
</g>
<!-- BayStation (AGPL)&#45;&gt;CEV Eris -->
<g id="edge41" class="edge"><title>BayStation (AGPL)&#45;&gt;CEV Eris</title>
<path fill="none" stroke="black" d="M2205.58,-289.291C2184.13,-278.568 2155.66,-264.333 2133.26,-253.13"/>
<polygon fill="black" stroke="black" points="2134.57,-249.875 2124.06,-248.533 2131.44,-256.136 2134.57,-249.875"/>
</g>
<!-- Persistence (New) -->
<g id="node45" class="node"><title>Persistence (New)</title>
<ellipse fill="none" stroke="black" cx="2237" cy="-234" rx="76.8869" ry="18"/>
<text text-anchor="middle" x="2237" y="-230.3" font-family="Times New Roman,serif" font-size="14.00">Persistence (New)</text>
</g>
<!-- BayStation (AGPL)&#45;&gt;Persistence (New) -->
<g id="edge42" class="edge"><title>BayStation (AGPL)&#45;&gt;Persistence (New)</title>
<path fill="none" stroke="black" d="M2237,-287.697C2237,-279.983 2237,-270.712 2237,-262.112"/>
<polygon fill="black" stroke="black" points="2240.5,-262.104 2237,-252.104 2233.5,-262.104 2240.5,-262.104"/>
</g>
<!-- Europa Station -->
<g id="node46" class="node"><title>Europa Station</title>
<ellipse fill="none" stroke="black" cx="2397" cy="-234" rx="64.9885" ry="18"/>
<text text-anchor="middle" x="2397" y="-230.3" font-family="Times New Roman,serif" font-size="14.00">Europa Station</text>
</g>
<!-- BayStation (AGPL)&#45;&gt;Europa Station -->
<g id="edge43" class="edge"><title>BayStation (AGPL)&#45;&gt;Europa Station</title>
<path fill="none" stroke="black" d="M2272.11,-289.638C2296.33,-279.039 2328.68,-264.888 2354.38,-253.643"/>
<polygon fill="black" stroke="black" points="2356.12,-256.704 2363.88,-249.489 2353.31,-250.291 2356.12,-256.704"/>
</g>
<!-- SCP&#45;13 -->
<g id="node47" class="node"><title>SCP&#45;13</title>
<ellipse fill="none" stroke="black" cx="2520" cy="-234" rx="39.7935" ry="18"/>
<text text-anchor="middle" x="2520" y="-230.3" font-family="Times New Roman,serif" font-size="14.00">SCP&#45;13</text>
</g>
<!-- BayStation (AGPL)&#45;&gt;SCP&#45;13 -->
<g id="edge44" class="edge"><title>BayStation (AGPL)&#45;&gt;SCP&#45;13</title>
<path fill="none" stroke="black" d="M2296.6,-293.408C2344.17,-283.7 2412.32,-268.767 2471,-252 2474.11,-251.109 2477.32,-250.133 2480.54,-249.113"/>
<polygon fill="black" stroke="black" points="2481.7,-252.414 2490.1,-245.962 2479.51,-245.765 2481.7,-252.414"/>
</g>
<!-- Halo: Space Station Evolved -->
<g id="node48" class="node"><title>Halo: Space Station Evolved</title>
<ellipse fill="none" stroke="black" cx="2692" cy="-234" rx="114.28" ry="18"/>
<text text-anchor="middle" x="2692" y="-230.3" font-family="Times New Roman,serif" font-size="14.00">Halo: Space Station Evolved</text>
</g>
<!-- BayStation (AGPL)&#45;&gt;Halo: Space Station Evolved -->
<g id="edge45" class="edge"><title>BayStation (AGPL)&#45;&gt;Halo: Space Station Evolved</title>
<path fill="none" stroke="black" d="M2302.67,-294.896C2381.82,-282.72 2515.14,-262.208 2603.36,-248.636"/>
<polygon fill="black" stroke="black" points="2604,-252.079 2613.35,-247.099 2602.94,-245.16 2604,-252.079"/>
</g>
<!-- Aurora Station -->
<g id="node49" class="node"><title>Aurora Station</title>
<ellipse fill="none" stroke="black" cx="2888" cy="-234" rx="63.8893" ry="18"/>
<text text-anchor="middle" x="2888" y="-230.3" font-family="Times New Roman,serif" font-size="14.00">Aurora Station</text>
</g>
<!-- BayStation (AGPL)&#45;&gt;Aurora Station -->
<g id="edge46" class="edge"><title>BayStation (AGPL)&#45;&gt;Aurora Station</title>
<path fill="none" stroke="black" d="M2310.19,-297.491C2340.19,-294.464 2375.25,-290.988 2407,-288 2588.23,-270.943 2635.24,-280.715 2815,-252 2820.68,-251.093 2826.57,-249.992 2832.44,-248.791"/>
<polygon fill="black" stroke="black" points="2833.19,-252.209 2842.24,-246.694 2831.73,-245.364 2833.19,-252.209"/>
</g>
<!-- Deep Space 13 -->
<g id="node41" class="node"><title>Deep Space 13</title>
<ellipse fill="none" stroke="black" cx="1200" cy="-234" rx="65.7887" ry="18"/>
<text text-anchor="middle" x="1200" y="-230.3" font-family="Times New Roman,serif" font-size="14.00">Deep Space 13</text>
</g>
<!-- Star Trek 13&#45;&gt;Deep Space 13 -->
<g id="edge38" class="edge"><title>Star Trek 13&#45;&gt;Deep Space 13</title>
<path fill="none" stroke="red" d="M1200,-287.697C1200,-279.983 1200,-270.712 1200,-262.112"/>
<polygon fill="red" stroke="red" points="1203.5,-262.104 1200,-252.104 1196.5,-262.104 1203.5,-262.104"/>
</g>
<!-- V.O.R.E. Station -->
<g id="node54" class="node"><title>V.O.R.E. Station</title>
<ellipse fill="none" stroke="black" cx="1847" cy="-162" rx="73.387" ry="18"/>
<text text-anchor="middle" x="1847" y="-158.3" font-family="Times New Roman,serif" font-size="14.00">V.O.R.E. Station</text>
</g>
<!-- Polaris&#45;&gt;V.O.R.E. Station -->
<g id="edge51" class="edge"><title>Polaris&#45;&gt;V.O.R.E. Station</title>
<path fill="none" stroke="black" d="M1972.38,-221.125C1949.57,-210.553 1915.78,-194.885 1889.01,-182.479"/>
<polygon fill="black" stroke="black" points="1890.42,-179.271 1879.87,-178.241 1887.47,-185.622 1890.42,-179.271"/>
</g>
<!-- World Server -->
<g id="node57" class="node"><title>World Server</title>
<ellipse fill="none" stroke="black" cx="1998" cy="-162" rx="59.5901" ry="18"/>
<text text-anchor="middle" x="1998" y="-158.3" font-family="Times New Roman,serif" font-size="14.00">World Server</text>
</g>
<!-- Polaris&#45;&gt;World Server -->
<g id="edge54" class="edge"><title>Polaris&#45;&gt;World Server</title>
<path fill="none" stroke="black" d="M1998,-215.697C1998,-207.983 1998,-198.712 1998,-190.112"/>
<polygon fill="black" stroke="black" points="2001.5,-190.104 1998,-180.104 1994.5,-190.104 2001.5,-190.104"/>
</g>
<!-- InterStation&#45;Two -->
<g id="node51" class="node"><title>InterStation&#45;Two</title>
<ellipse fill="none" stroke="black" cx="2149" cy="-162" rx="72.5877" ry="18"/>
<text text-anchor="middle" x="2149" y="-158.3" font-family="Times New Roman,serif" font-size="14.00">InterStation&#45;Two</text>
</g>
<!-- CEV Eris&#45;&gt;InterStation&#45;Two -->
<g id="edge48" class="edge"><title>CEV Eris&#45;&gt;InterStation&#45;Two</title>
<path fill="none" stroke="black" d="M2109.32,-216.411C2115.57,-207.992 2123.3,-197.585 2130.27,-188.201"/>
<polygon fill="black" stroke="black" points="2133.25,-190.071 2136.4,-179.956 2127.63,-185.897 2133.25,-190.071"/>
</g>
<!-- Lebensraum -->
<g id="node52" class="node"><title>Lebensraum</title>
<ellipse fill="none" stroke="black" cx="2149" cy="-90" rx="55.4913" ry="18"/>
<text text-anchor="middle" x="2149" y="-86.3" font-family="Times New Roman,serif" font-size="14.00">Lebensraum</text>
</g>
<!-- InterStation&#45;Two&#45;&gt;Lebensraum -->
<g id="edge49" class="edge"><title>InterStation&#45;Two&#45;&gt;Lebensraum</title>
<path fill="none" stroke="black" d="M2149,-143.697C2149,-135.983 2149,-126.712 2149,-118.112"/>
<polygon fill="black" stroke="black" points="2152.5,-118.104 2149,-108.104 2145.5,-118.104 2152.5,-118.104"/>
</g>
<!-- Civilization 13 -->
<g id="node53" class="node"><title>Civilization 13</title>
<ellipse fill="none" stroke="black" cx="2149" cy="-18" rx="61.99" ry="18"/>
<text text-anchor="middle" x="2149" y="-14.3" font-family="Times New Roman,serif" font-size="14.00">Civilization 13</text>
</g>
<!-- Lebensraum&#45;&gt;Civilization 13 -->
<g id="edge50" class="edge"><title>Lebensraum&#45;&gt;Civilization 13</title>
<path fill="none" stroke="black" d="M2149,-71.6966C2149,-63.9827 2149,-54.7125 2149,-46.1124"/>
<polygon fill="black" stroke="black" points="2152.5,-46.1043 2149,-36.1043 2145.5,-46.1044 2152.5,-46.1043"/>
</g>
<!-- Chompers -->
<g id="node55" class="node"><title>Chompers</title>
<ellipse fill="none" stroke="black" cx="1795" cy="-90" rx="48.9926" ry="18"/>
<text text-anchor="middle" x="1795" y="-86.3" font-family="Times New Roman,serif" font-size="14.00">Chompers</text>
</g>
<!-- V.O.R.E. Station&#45;&gt;Chompers -->
<g id="edge52" class="edge"><title>V.O.R.E. Station&#45;&gt;Chompers</title>
<path fill="none" stroke="black" d="M1834.41,-144.055C1828.15,-135.629 1820.46,-125.28 1813.54,-115.966"/>
<polygon fill="black" stroke="black" points="1816.24,-113.729 1807.47,-107.789 1810.62,-117.904 1816.24,-113.729"/>
</g>
<!-- AEIOU -->
<g id="node56" class="node"><title>AEIOU</title>
<ellipse fill="none" stroke="black" cx="1900" cy="-90" rx="38.1938" ry="18"/>
<text text-anchor="middle" x="1900" y="-86.3" font-family="Times New Roman,serif" font-size="14.00">AEIOU</text>
</g>
<!-- V.O.R.E. Station&#45;&gt;AEIOU -->
<g id="edge53" class="edge"><title>V.O.R.E. Station&#45;&gt;AEIOU</title>
<path fill="none" stroke="black" d="M1859.83,-144.055C1866.3,-135.505 1874.27,-124.975 1881.4,-115.556"/>
<polygon fill="black" stroke="black" points="1884.4,-117.392 1887.65,-107.307 1878.82,-113.167 1884.4,-117.392"/>
</g>
<!-- Eclipse Station -->
<g id="node58" class="node"><title>Eclipse Station</title>
<ellipse fill="none" stroke="black" cx="1900" cy="-18" rx="64.9885" ry="18"/>
<text text-anchor="middle" x="1900" y="-14.3" font-family="Times New Roman,serif" font-size="14.00">Eclipse Station</text>
</g>
<!-- AEIOU&#45;&gt;Eclipse Station -->
<g id="edge55" class="edge"><title>AEIOU&#45;&gt;Eclipse Station</title>
<path fill="none" stroke="red" d="M1900,-71.6966C1900,-63.9827 1900,-54.7125 1900,-46.1124"/>
<polygon fill="red" stroke="red" points="1903.5,-46.1043 1900,-36.1043 1896.5,-46.1044 1903.5,-46.1043"/>
</g>
</g>
</svg>
