<?xml version="1.0" encoding="UTF-8" standalone="no"?><!DOCTYPE svg PUBLIC "-//W3C//DTD SVG 1.1//EN" "http://www.w3.org/Graphics/SVG/1.1/DTD/svg11.dtd"><!-- Generated by graphviz version 2.40.1 (20161225.0304)
 --><!-- Title: G Pages: 1 --><svg xmlns="http://www.w3.org/2000/svg" xmlns:xlink="http://www.w3.org/1999/xlink" width="3120pt" height="717pt" viewBox="0.00 0.00 3120.19 716.80">
<g id="graph0" class="graph" transform="scale(1 1) rotate(0) translate(4 712.8)">
<title>G</title>
<polygon fill="#ffffff" stroke="transparent" points="-4,4 -4,-712.8 3116.1861,-712.8 3116.1861,4 -4,4"/>
<text text-anchor="middle" x="1556.093" y="-692.2" font-family="Times,serif" font-size="14.00" fill="#000000">SS13 Codebases Circa Mid-2019</text>
<!-- Red arrows indicate that the child is not a fork of a parent, rather a new version or rebrand. -->
<g id="node1" class="node">
<title>Red arrows indicate that the child is not a fork of a parent, rather a new version or rebrand.</title>
<polygon fill="none" stroke="#000000" points="2339.494,-684 1814.5615,-684 1814.5615,-648 2339.494,-648 2339.494,-684"/>
<text text-anchor="middle" x="2077.0278" y="-661.8" font-family="Times,serif" font-size="14.00" fill="#000000">Red arrows indicate that the child is not a fork of a parent, rather a new version or rebrand.</text>
</g>
<!-- BurgerStation -->
<g id="node2" class="node">
<title>BurgerStation</title>
<ellipse fill="none" stroke="#000000" cx="2422.0278" cy="-666" rx="65.4266" ry="18"/>
<text text-anchor="middle" x="2422.0278" y="-661.8" font-family="Times,serif" font-size="14.00" fill="#000000">BurgerStation</text>
</g>
<!-- SS13 (Pre Open) -->
<g id="node3" class="node">
<title>SS13 (Pre Open)</title>
<ellipse fill="none" stroke="#000000" cx="2582.0278" cy="-666" rx="76.4459" ry="18"/>
<text text-anchor="middle" x="2582.0278" y="-661.8" font-family="Times,serif" font-size="14.00" fill="#000000">SS13 (Pre Open)</text>
</g>
<!-- Source Decompilation (OpenSS13) -->
<g id="node4" class="node">
<title>Source Decompilation (OpenSS13)</title>
<ellipse fill="none" stroke="#000000" cx="2470.0278" cy="-594" rx="147.6178" ry="18"/>
<text text-anchor="middle" x="2470.0278" y="-589.8" font-family="Times,serif" font-size="14.00" fill="#000000">Source Decompilation (OpenSS13)</text>
</g>
<!-- SS13 (Pre Open)&#45;&gt;Source Decompilation (OpenSS13) -->
<g id="edge1" class="edge">
<title>SS13 (Pre Open)-&gt;Source Decompilation (OpenSS13)</title>
<path fill="none" stroke="#000000" d="M2555.4853,-648.937C2540.7487,-639.4635 2522.2075,-627.5441 2506.1648,-617.231"/>
<polygon fill="#000000" stroke="#000000" points="2507.8538,-614.1559 2497.5493,-611.6924 2504.0684,-620.0442 2507.8538,-614.1559"/>
</g>
<!-- Goonstation -->
<g id="node5" class="node">
<title>Goonstation</title>
<ellipse fill="none" stroke="#000000" cx="2694.0278" cy="-594" rx="58.4881" ry="18"/>
<text text-anchor="middle" x="2694.0278" y="-589.8" font-family="Times,serif" font-size="14.00" fill="#000000">Goonstation</text>
</g>
<!-- SS13 (Pre Open)&#45;&gt;Goonstation -->
<g id="edge2" class="edge">
<title>SS13 (Pre Open)-&gt;Goonstation</title>
<path fill="none" stroke="#000000" d="M2608.5702,-648.937C2623.8526,-639.1126 2643.2267,-626.6578 2659.6626,-616.0919"/>
<polygon fill="#000000" stroke="#000000" points="2661.9276,-618.7967 2668.4468,-610.4449 2658.1423,-612.9084 2661.9276,-618.7967"/>
</g>
<!-- BayStation OpenSS13 -->
<g id="node6" class="node">
<title>BayStation OpenSS13</title>
<ellipse fill="none" stroke="#000000" cx="2470.0278" cy="-522" rx="97.8556" ry="18"/>
<text text-anchor="middle" x="2470.0278" y="-517.8" font-family="Times,serif" font-size="14.00" fill="#000000">BayStation OpenSS13</text>
</g>
<!-- Source Decompilation (OpenSS13)&#45;&gt;BayStation OpenSS13 -->
<g id="edge3" class="edge">
<title>Source Decompilation (OpenSS13)-&gt;BayStation OpenSS13</title>
<path fill="none" stroke="#000000" d="M2470.0278,-575.8314C2470.0278,-568.131 2470.0278,-558.9743 2470.0278,-550.4166"/>
<polygon fill="#000000" stroke="#000000" points="2473.5279,-550.4132 2470.0278,-540.4133 2466.5279,-550.4133 2473.5279,-550.4132"/>
</g>
<!-- Revision 4407 (r4407) -->
<g id="node7" class="node">
<title>Revision 4407 (r4407)</title>
<ellipse fill="none" stroke="#000000" cx="2689.0278" cy="-522" rx="98.4448" ry="18"/>
<text text-anchor="middle" x="2689.0278" y="-517.8" font-family="Times,serif" font-size="14.00" fill="#000000">Revision 4407 (r4407)</text>
</g>
<!-- Goonstation&#45;&gt;Revision 4407 (r4407) -->
<g id="edge4" class="edge">
<title>Goonstation-&gt;Revision 4407 (r4407)</title>
<path fill="none" stroke="#000000" d="M2692.766,-575.8314C2692.2313,-568.131 2691.5954,-558.9743 2691.0011,-550.4166"/>
<polygon fill="#000000" stroke="#000000" points="2694.4909,-550.1467 2690.3065,-540.4133 2687.5077,-550.6317 2694.4909,-550.1467"/>
</g>
<!-- Goon 2016 -->
<g id="node8" class="node">
<title>Goon 2016</title>
<ellipse fill="none" stroke="#000000" cx="2860.0278" cy="-522" rx="54.4437" ry="18"/>
<text text-anchor="middle" x="2860.0278" y="-517.8" font-family="Times,serif" font-size="14.00" fill="#000000">Goon 2016</text>
</g>
<!-- Goonstation&#45;&gt;Goon 2016 -->
<g id="edge5" class="edge">
<title>Goonstation-&gt;Goon 2016</title>
<path fill="none" stroke="#000000" d="M2728.0209,-579.256C2753.9002,-568.0312 2789.6828,-552.5111 2817.4656,-540.4607"/>
<polygon fill="#000000" stroke="#000000" points="2819.1483,-543.546 2826.9298,-536.3558 2816.3628,-537.124 2819.1483,-543.546"/>
</g>
<!-- /tg/Station (Pre&#45;AGPL) -->
<g id="node9" class="node">
<title>/tg/Station (Pre-AGPL)</title>
<ellipse fill="none" stroke="#000000" cx="2286.0278" cy="-450" rx="101.3356" ry="18"/>
<text text-anchor="middle" x="2286.0278" y="-445.8" font-family="Times,serif" font-size="14.00" fill="#000000">/tg/Station (Pre-AGPL)</text>
</g>
<!-- Revision 4407 (r4407)&#45;&gt;/tg/Station (Pre&#45;AGPL) -->
<g id="edge6" class="edge">
<title>Revision 4407 (r4407)-&gt;/tg/Station (Pre-AGPL)</title>
<path fill="none" stroke="#000000" d="M2618.3694,-509.3762C2548.4075,-496.8768 2441.3707,-477.7536 2367.778,-464.6055"/>
<polygon fill="#000000" stroke="#000000" points="2368.0827,-461.1046 2357.623,-462.7912 2366.8516,-467.9955 2368.0827,-461.1046"/>
</g>
<!-- BayStation (Luna) -->
<g id="node10" class="node">
<title>BayStation (Luna)</title>
<ellipse fill="none" stroke="#000000" cx="2689.0278" cy="-450" rx="82.7838" ry="18"/>
<text text-anchor="middle" x="2689.0278" y="-445.8" font-family="Times,serif" font-size="14.00" fill="#000000">BayStation (Luna)</text>
</g>
<!-- Revision 4407 (r4407)&#45;&gt;BayStation (Luna) -->
<g id="edge7" class="edge">
<title>Revision 4407 (r4407)-&gt;BayStation (Luna)</title>
<path fill="none" stroke="#000000" d="M2689.0278,-503.8314C2689.0278,-496.131 2689.0278,-486.9743 2689.0278,-478.4166"/>
<polygon fill="#000000" stroke="#000000" points="2692.5279,-478.4132 2689.0278,-468.4133 2685.5279,-478.4133 2692.5279,-478.4132"/>
</g>
<!-- D2K5 -->
<g id="node11" class="node">
<title>D2K5</title>
<ellipse fill="none" stroke="#000000" cx="2824.0278" cy="-450" rx="34.7728" ry="18"/>
<text text-anchor="middle" x="2824.0278" y="-445.8" font-family="Times,serif" font-size="14.00" fill="#000000">D2K5</text>
</g>
<!-- Revision 4407 (r4407)&#45;&gt;D2K5 -->
<g id="edge8" class="edge">
<title>Revision 4407 (r4407)-&gt;D2K5</title>
<path fill="none" stroke="#000000" d="M2721.0209,-504.937C2741.9403,-493.78 2769.2206,-479.2305 2790.4509,-467.9077"/>
<polygon fill="#000000" stroke="#000000" points="2792.2619,-470.9085 2799.4383,-463.1144 2788.9677,-464.732 2792.2619,-470.9085"/>
</g>
<!-- /tg/Station (AGPL) -->
<g id="node13" class="node">
<title>/tg/Station (AGPL)</title>
<ellipse fill="none" stroke="#000000" cx="762.0278" cy="-378" rx="85.1667" ry="18"/>
<text text-anchor="middle" x="762.0278" y="-373.8" font-family="Times,serif" font-size="14.00" fill="#000000">/tg/Station (AGPL)</text>
</g>
<!-- /tg/Station (Pre&#45;AGPL)&#45;&gt;/tg/Station (AGPL) -->
<g id="edge10" class="edge">
<title>/tg/Station (Pre-AGPL)-&gt;/tg/Station (AGPL)</title>
<path fill="none" stroke="#ff0000" d="M2187.793,-445.359C1910.9272,-432.2787 1126.8134,-395.234 855.6598,-382.4236"/>
<polygon fill="#ff0000" stroke="#ff0000" points="855.6105,-378.9174 845.4565,-381.9415 855.2801,-385.9096 855.6105,-378.9174"/>
</g>
<!-- BayStation (GPL) -->
<g id="node14" class="node">
<title>BayStation (GPL)</title>
<ellipse fill="none" stroke="#000000" cx="1712.0278" cy="-378" rx="81.0756" ry="18"/>
<text text-anchor="middle" x="1712.0278" y="-373.8" font-family="Times,serif" font-size="14.00" fill="#000000">BayStation (GPL)</text>
</g>
<!-- /tg/Station (Pre&#45;AGPL)&#45;&gt;BayStation (GPL) -->
<g id="edge11" class="edge">
<title>/tg/Station (Pre-AGPL)-&gt;BayStation (GPL)</title>
<path fill="none" stroke="#000000" d="M2194.2784,-442.1405C2096.7013,-433.2272 1937.9977,-417.1417 1802.0278,-396 1795.2573,-394.9473 1788.2221,-393.7404 1781.2021,-392.4607"/>
<polygon fill="#000000" stroke="#000000" points="1781.4337,-388.9434 1770.9604,-390.5434 1780.1456,-395.8238 1781.4337,-388.9434"/>
</g>
<!-- Old HippieStation -->
<g id="node15" class="node">
<title>Old HippieStation</title>
<ellipse fill="none" stroke="#000000" cx="1893.0278" cy="-378" rx="81.6591" ry="18"/>
<text text-anchor="middle" x="1893.0278" y="-373.8" font-family="Times,serif" font-size="14.00" fill="#000000">Old HippieStation</text>
</g>
<!-- /tg/Station (Pre&#45;AGPL)&#45;&gt;Old HippieStation -->
<g id="edge12" class="edge">
<title>/tg/Station (Pre-AGPL)-&gt;Old HippieStation</title>
<path fill="none" stroke="#000000" d="M2213.3438,-437.3887C2152.1291,-426.6751 2062.2796,-410.7339 1984.0278,-396 1977.435,-394.7587 1970.5783,-393.4447 1963.7181,-392.1146"/>
<polygon fill="#000000" stroke="#000000" points="1964.18,-388.6388 1953.695,-390.161 1962.8407,-395.5095 1964.18,-388.6388"/>
</g>
<!-- Old YogStation -->
<g id="node16" class="node">
<title>Old YogStation</title>
<ellipse fill="none" stroke="#000000" cx="2065.0278" cy="-378" rx="71.851" ry="18"/>
<text text-anchor="middle" x="2065.0278" y="-373.8" font-family="Times,serif" font-size="14.00" fill="#000000">Old YogStation</text>
</g>
<!-- /tg/Station (Pre&#45;AGPL)&#45;&gt;Old YogStation -->
<g id="edge13" class="edge">
<title>/tg/Station (Pre-AGPL)-&gt;Old YogStation</title>
<path fill="none" stroke="#000000" d="M2237.2548,-434.1102C2202.2817,-422.7162 2155.1623,-407.3651 2119.0497,-395.5999"/>
<polygon fill="#000000" stroke="#000000" points="2119.7676,-392.1528 2109.1753,-392.3829 2117.5992,-398.8085 2119.7676,-392.1528"/>
</g>
<!-- NTStation -->
<g id="node17" class="node">
<title>NTStation</title>
<ellipse fill="none" stroke="#000000" cx="2206.0278" cy="-378" rx="51.0415" ry="18"/>
<text text-anchor="middle" x="2206.0278" y="-373.8" font-family="Times,serif" font-size="14.00" fill="#000000">NTStation</text>
</g>
<!-- /tg/Station (Pre&#45;AGPL)&#45;&gt;NTStation -->
<g id="edge14" class="edge">
<title>/tg/Station (Pre-AGPL)-&gt;NTStation</title>
<path fill="none" stroke="#000000" d="M2266.2525,-432.2022C2256.0506,-423.0206 2243.4669,-411.6952 2232.4446,-401.7752"/>
<polygon fill="#000000" stroke="#000000" points="2234.5254,-398.9391 2224.7511,-394.851 2229.8426,-404.1422 2234.5254,-398.9391"/>
</g>
<!-- Traitor Death Match -->
<g id="node18" class="node">
<title>Traitor Death Match</title>
<ellipse fill="none" stroke="#000000" cx="2366.0278" cy="-378" rx="90.3062" ry="18"/>
<text text-anchor="middle" x="2366.0278" y="-373.8" font-family="Times,serif" font-size="14.00" fill="#000000">Traitor Death Match</text>
</g>
<!-- /tg/Station (Pre&#45;AGPL)&#45;&gt;Traitor Death Match -->
<g id="edge15" class="edge">
<title>/tg/Station (Pre-AGPL)-&gt;Traitor Death Match</title>
<path fill="none" stroke="#000000" d="M2305.803,-432.2022C2315.7815,-423.2217 2328.0386,-412.1902 2338.8846,-402.4289"/>
<polygon fill="#000000" stroke="#000000" points="2341.3884,-404.8842 2346.4799,-395.593 2336.7056,-399.6812 2341.3884,-404.8842"/>
</g>
<!-- Archangel -->
<g id="node19" class="node">
<title>Archangel</title>
<ellipse fill="none" stroke="#000000" cx="2526.0278" cy="-378" rx="51.005" ry="18"/>
<text text-anchor="middle" x="2526.0278" y="-373.8" font-family="Times,serif" font-size="14.00" fill="#000000">Archangel</text>
</g>
<!-- /tg/Station (Pre&#45;AGPL)&#45;&gt;Archangel -->
<g id="edge16" class="edge">
<title>/tg/Station (Pre-AGPL)-&gt;Archangel</title>
<path fill="none" stroke="#000000" d="M2337.8087,-434.4657C2379.1822,-422.0537 2436.7568,-404.7813 2477.3038,-392.6172"/>
<polygon fill="#000000" stroke="#000000" points="2478.3949,-395.944 2486.9674,-389.7181 2476.3834,-389.2392 2478.3949,-395.944"/>
</g>
<!-- FacePunch -->
<g id="node20" class="node">
<title>FacePunch</title>
<ellipse fill="none" stroke="#000000" cx="2649.0278" cy="-378" rx="53.3109" ry="18"/>
<text text-anchor="middle" x="2649.0278" y="-373.8" font-family="Times,serif" font-size="14.00" fill="#000000">FacePunch</text>
</g>
<!-- /tg/Station (Pre&#45;AGPL)&#45;&gt;FacePunch -->
<g id="edge17" class="edge">
<title>/tg/Station (Pre-AGPL)-&gt;FacePunch</title>
<path fill="none" stroke="#000000" d="M2363.2221,-438.2889C2424.0715,-428.5328 2510.8959,-413.4487 2586.0278,-396 2590.3837,-394.9884 2594.8875,-393.863 2599.3909,-392.6826"/>
<polygon fill="#000000" stroke="#000000" points="2600.4515,-396.0216 2609.1919,-390.0335 2598.625,-389.2641 2600.4515,-396.0216"/>
</g>
<!-- Old FTL13 -->
<g id="node21" class="node">
<title>Old FTL13</title>
<ellipse fill="none" stroke="#000000" cx="2775.0278" cy="-378" rx="54.5177" ry="18"/>
<text text-anchor="middle" x="2775.0278" y="-373.8" font-family="Times,serif" font-size="14.00" fill="#000000">Old FTL13</text>
</g>
<!-- /tg/Station (Pre&#45;AGPL)&#45;&gt;Old FTL13 -->
<g id="edge18" class="edge">
<title>/tg/Station (Pre-AGPL)-&gt;Old FTL13</title>
<path fill="none" stroke="#000000" d="M2377.8609,-442.2845C2464.3729,-434.0856 2597.3174,-419.0827 2711.0278,-396 2715.4746,-395.0973 2720.0649,-394.0474 2724.6498,-392.9167"/>
<polygon fill="#000000" stroke="#000000" points="2725.8152,-396.2306 2734.6204,-390.3384 2724.0626,-389.4535 2725.8152,-396.2306"/>
</g>
<!-- Lifeweb -->
<g id="node12" class="node">
<title>Lifeweb</title>
<ellipse fill="none" stroke="#000000" cx="2891.0278" cy="-378" rx="43.4163" ry="18"/>
<text text-anchor="middle" x="2891.0278" y="-373.8" font-family="Times,serif" font-size="14.00" fill="#000000">Lifeweb</text>
</g>
<!-- BayStation (Luna)&#45;&gt;Lifeweb -->
<g id="edge9" class="edge">
<title>BayStation (Luna)-&gt;Lifeweb</title>
<path fill="none" stroke="#000000" d="M2732.3618,-434.5542C2766.6529,-422.3316 2814.2809,-405.3553 2848.3898,-393.1977"/>
<polygon fill="#000000" stroke="#000000" points="2849.8253,-396.4018 2858.0697,-389.7474 2847.475,-389.8081 2849.8253,-396.4018"/>
</g>
<!-- YogStation -->
<g id="node30" class="node">
<title>YogStation</title>
<ellipse fill="none" stroke="#000000" cx="55.0278" cy="-306" rx="55.0555" ry="18"/>
<text text-anchor="middle" x="55.0278" y="-301.8" font-family="Times,serif" font-size="14.00" fill="#000000">YogStation</text>
</g>
<!-- /tg/Station (AGPL)&#45;&gt;YogStation -->
<g id="edge27" class="edge">
<title>/tg/Station (AGPL)-&gt;YogStation</title>
<path fill="none" stroke="#000000" d="M677.0972,-376.0056C553.4134,-371.9433 316.9004,-359.7975 119.0278,-324 114.3746,-323.1582 109.5717,-322.1248 104.7861,-320.9828"/>
<polygon fill="#000000" stroke="#000000" points="105.5943,-317.577 95.0409,-318.5124 103.8742,-324.3624 105.5943,-317.577"/>
</g>
<!-- Fallout 13 -->
<g id="node31" class="node">
<title>Fallout 13</title>
<ellipse fill="none" stroke="#000000" cx="178.0278" cy="-306" rx="50.4413" ry="18"/>
<text text-anchor="middle" x="178.0278" y="-301.8" font-family="Times,serif" font-size="14.00" fill="#000000">Fallout 13</text>
</g>
<!-- /tg/Station (AGPL)&#45;&gt;Fallout 13 -->
<g id="edge28" class="edge">
<title>/tg/Station (AGPL)-&gt;Fallout 13</title>
<path fill="none" stroke="#000000" d="M678.2622,-374.2463C574.2005,-368.4681 391.6113,-354.6653 238.0278,-324 233.8285,-323.1616 229.5016,-322.1552 225.1856,-321.0524"/>
<polygon fill="#000000" stroke="#000000" points="225.768,-317.5838 215.2001,-318.3379 223.9317,-324.3387 225.768,-317.5838"/>
</g>
<!-- BeeStation -->
<g id="node32" class="node">
<title>BeeStation</title>
<ellipse fill="none" stroke="#000000" cx="300.0278" cy="-306" rx="53.3264" ry="18"/>
<text text-anchor="middle" x="300.0278" y="-301.8" font-family="Times,serif" font-size="14.00" fill="#000000">BeeStation</text>
</g>
<!-- /tg/Station (AGPL)&#45;&gt;BeeStation -->
<g id="edge29" class="edge">
<title>/tg/Station (AGPL)-&gt;BeeStation</title>
<path fill="none" stroke="#000000" d="M683.2591,-370.852C602.1592,-362.6799 472.4071,-347.3387 362.0278,-324 357.7168,-323.0885 353.2678,-322.0324 348.8247,-320.8978"/>
<polygon fill="#000000" stroke="#000000" points="349.7285,-317.5165 339.1637,-318.3137 347.9197,-324.2788 349.7285,-317.5165"/>
</g>
<!-- HippieStation -->
<g id="node33" class="node">
<title>HippieStation</title>
<ellipse fill="none" stroke="#000000" cx="436.0278" cy="-306" rx="64.8641" ry="18"/>
<text text-anchor="middle" x="436.0278" y="-301.8" font-family="Times,serif" font-size="14.00" fill="#000000">HippieStation</text>
</g>
<!-- /tg/Station (AGPL)&#45;&gt;HippieStation -->
<g id="edge30" class="edge">
<title>/tg/Station (AGPL)-&gt;HippieStation</title>
<path fill="none" stroke="#000000" d="M700.8178,-365.3752C649.7222,-354.7186 575.0169,-338.8642 510.0278,-324 505.001,-322.8503 499.7885,-321.6331 494.5633,-320.3958"/>
<polygon fill="#000000" stroke="#000000" points="495.0846,-316.9219 484.5451,-318.0037 493.4588,-323.7305 495.0846,-316.9219"/>
</g>
<!-- Citadel -->
<g id="node34" class="node">
<title>Citadel</title>
<ellipse fill="none" stroke="#000000" cx="558.0278" cy="-306" rx="38.8594" ry="18"/>
<text text-anchor="middle" x="558.0278" y="-301.8" font-family="Times,serif" font-size="14.00" fill="#000000">Citadel</text>
</g>
<!-- /tg/Station (AGPL)&#45;&gt;Citadel -->
<g id="edge31" class="edge">
<title>/tg/Station (AGPL)-&gt;Citadel</title>
<path fill="none" stroke="#000000" d="M716.1957,-362.7005C684.806,-352.1084 642.2783,-337.5347 605.0278,-324 602.6205,-323.1253 600.1483,-322.215 597.6576,-321.2886"/>
<polygon fill="#000000" stroke="#000000" points="598.6496,-317.9224 588.0576,-317.6775 596.1851,-324.4742 598.6496,-317.9224"/>
</g>
<!-- Toolbox Station -->
<g id="node35" class="node">
<title>Toolbox Station</title>
<ellipse fill="none" stroke="#000000" cx="688.0278" cy="-306" rx="73.5783" ry="18"/>
<text text-anchor="middle" x="688.0278" y="-301.8" font-family="Times,serif" font-size="14.00" fill="#000000">Toolbox Station</text>
</g>
<!-- /tg/Station (AGPL)&#45;&gt;Toolbox Station -->
<g id="edge32" class="edge">
<title>/tg/Station (AGPL)-&gt;Toolbox Station</title>
<path fill="none" stroke="#000000" d="M743.7356,-360.2022C734.5952,-351.3088 723.3877,-340.4042 713.4278,-330.7135"/>
<polygon fill="#000000" stroke="#000000" points="715.7175,-328.0581 706.1095,-323.593 710.836,-333.0752 715.7175,-328.0581"/>
</g>
<!-- FulpStation -->
<g id="node36" class="node">
<title>FulpStation</title>
<ellipse fill="none" stroke="#000000" cx="836.0278" cy="-306" rx="56.2169" ry="18"/>
<text text-anchor="middle" x="836.0278" y="-301.8" font-family="Times,serif" font-size="14.00" fill="#000000">FulpStation</text>
</g>
<!-- /tg/Station (AGPL)&#45;&gt;FulpStation -->
<g id="edge33" class="edge">
<title>/tg/Station (AGPL)-&gt;FulpStation</title>
<path fill="none" stroke="#000000" d="M780.3199,-360.2022C789.5968,-351.1761 801.0029,-340.0783 811.0729,-330.2804"/>
<polygon fill="#000000" stroke="#000000" points="813.7291,-332.5794 818.4556,-323.0972 808.8476,-327.5623 813.7291,-332.5794"/>
</g>
<!-- OracleStation -->
<g id="node37" class="node">
<title>OracleStation</title>
<ellipse fill="none" stroke="#000000" cx="974.0278" cy="-306" rx="64.2591" ry="18"/>
<text text-anchor="middle" x="974.0278" y="-301.8" font-family="Times,serif" font-size="14.00" fill="#000000">OracleStation</text>
</g>
<!-- /tg/Station (AGPL)&#45;&gt;OracleStation -->
<g id="edge34" class="edge">
<title>/tg/Station (AGPL)-&gt;OracleStation</title>
<path fill="none" stroke="#000000" d="M807.247,-362.6425C841.2605,-351.0908 887.885,-335.256 923.1908,-323.2654"/>
<polygon fill="#000000" stroke="#000000" points="924.4856,-326.5221 932.8289,-319.9921 922.2345,-319.8939 924.4856,-326.5221"/>
</g>
<!-- Sunset Station -->
<g id="node38" class="node">
<title>Sunset Station</title>
<ellipse fill="none" stroke="#000000" cx="1123.0278" cy="-306" rx="66.6299" ry="18"/>
<text text-anchor="middle" x="1123.0278" y="-301.8" font-family="Times,serif" font-size="14.00" fill="#000000">Sunset Station</text>
</g>
<!-- /tg/Station (AGPL)&#45;&gt;Sunset Station -->
<g id="edge35" class="edge">
<title>/tg/Station (AGPL)-&gt;Sunset Station</title>
<path fill="none" stroke="#000000" d="M827.5664,-366.4531C885.4409,-356.0491 972.0383,-339.976 1047.0278,-324 1052.3325,-322.8699 1057.835,-321.6534 1063.3439,-320.4053"/>
<polygon fill="#000000" stroke="#000000" points="1064.2626,-323.7855 1073.2255,-318.1361 1062.6959,-316.9631 1064.2626,-323.7855"/>
</g>
<!-- Star Trek 13 -->
<g id="node39" class="node">
<title>Star Trek 13</title>
<ellipse fill="none" stroke="#000000" cx="1267.0278" cy="-306" rx="59.1103" ry="18"/>
<text text-anchor="middle" x="1267.0278" y="-301.8" font-family="Times,serif" font-size="14.00" fill="#000000">Star Trek 13</text>
</g>
<!-- /tg/Station (AGPL)&#45;&gt;Star Trek 13 -->
<g id="edge36" class="edge">
<title>/tg/Station (AGPL)-&gt;Star Trek 13</title>
<path fill="none" stroke="#000000" d="M841.8804,-371.415C929.8852,-363.397 1075.3714,-347.8917 1199.0278,-324 1203.7977,-323.0784 1208.7272,-322.0086 1213.6516,-320.8588"/>
<polygon fill="#000000" stroke="#000000" points="1214.8133,-324.1782 1223.6993,-318.4085 1213.1548,-317.3775 1214.8133,-324.1782"/>
</g>
<!-- FTL13 -->
<g id="node40" class="node">
<title>FTL13</title>
<ellipse fill="none" stroke="#000000" cx="1382.0278" cy="-306" rx="37.7217" ry="18"/>
<text text-anchor="middle" x="1382.0278" y="-301.8" font-family="Times,serif" font-size="14.00" fill="#000000">FTL13</text>
</g>
<!-- /tg/Station (AGPL)&#45;&gt;FTL13 -->
<g id="edge37" class="edge">
<title>/tg/Station (AGPL)-&gt;FTL13</title>
<path fill="none" stroke="#000000" d="M844.0998,-373.0197C979.5406,-364.3387 1243.9381,-345.3141 1335.0278,-324 1338.0361,-323.2961 1341.11,-322.4432 1344.1741,-321.496"/>
<polygon fill="#000000" stroke="#000000" points="1345.4907,-324.7452 1353.8345,-318.2159 1343.2401,-318.1169 1345.4907,-324.7452"/>
</g>
<!-- /vg/Station -->
<g id="node23" class="node">
<title>/vg/Station</title>
<ellipse fill="none" stroke="#000000" cx="1491.0278" cy="-306" rx="53.3476" ry="18"/>
<text text-anchor="middle" x="1491.0278" y="-301.8" font-family="Times,serif" font-size="14.00" fill="#000000">/vg/Station</text>
</g>
<!-- BayStation (GPL)&#45;&gt;/vg/Station -->
<g id="edge20" class="edge">
<title>BayStation (GPL)-&gt;/vg/Station</title>
<path fill="none" stroke="#000000" d="M1666.2364,-363.0816C1629.2136,-351.0198 1577.2273,-334.0831 1539.5045,-321.7933"/>
<polygon fill="#000000" stroke="#000000" points="1540.3465,-318.3866 1529.7542,-318.6167 1538.1781,-325.0423 1540.3465,-318.3866"/>
</g>
<!-- Paradise -->
<g id="node24" class="node">
<title>Paradise</title>
<ellipse fill="none" stroke="#000000" cx="1606.0278" cy="-306" rx="43.9964" ry="18"/>
<text text-anchor="middle" x="1606.0278" y="-301.8" font-family="Times,serif" font-size="14.00" fill="#000000">Paradise</text>
</g>
<!-- BayStation (GPL)&#45;&gt;Paradise -->
<g id="edge21" class="edge">
<title>BayStation (GPL)-&gt;Paradise</title>
<path fill="none" stroke="#000000" d="M1686.6381,-360.7542C1671.8581,-350.715 1653.1036,-337.9761 1637.4043,-327.3124"/>
<polygon fill="#000000" stroke="#000000" points="1639.2802,-324.3555 1629.0414,-321.6319 1635.347,-330.1461 1639.2802,-324.3555"/>
</g>
<!-- Tau Ceti -->
<g id="node25" class="node">
<title>Tau Ceti</title>
<ellipse fill="none" stroke="#000000" cx="1712.0278" cy="-306" rx="44.6193" ry="18"/>
<text text-anchor="middle" x="1712.0278" y="-301.8" font-family="Times,serif" font-size="14.00" fill="#000000">Tau Ceti</text>
</g>
<!-- BayStation (GPL)&#45;&gt;Tau Ceti -->
<g id="edge22" class="edge">
<title>BayStation (GPL)-&gt;Tau Ceti</title>
<path fill="none" stroke="#000000" d="M1712.0278,-359.8314C1712.0278,-352.131 1712.0278,-342.9743 1712.0278,-334.4166"/>
<polygon fill="#000000" stroke="#000000" points="1715.5279,-334.4132 1712.0278,-324.4133 1708.5279,-334.4133 1715.5279,-334.4132"/>
</g>
<!-- Aurora (Old) -->
<g id="node26" class="node">
<title>Aurora (Old)</title>
<ellipse fill="none" stroke="#000000" cx="1836.0278" cy="-306" rx="61.9176" ry="18"/>
<text text-anchor="middle" x="1836.0278" y="-301.8" font-family="Times,serif" font-size="14.00" fill="#000000">Aurora (Old)</text>
</g>
<!-- BayStation (GPL)&#45;&gt;Aurora (Old) -->
<g id="edge23" class="edge">
<title>BayStation (GPL)-&gt;Aurora (Old)</title>
<path fill="none" stroke="#000000" d="M1741.1002,-361.1192C1758.448,-351.0463 1780.6409,-338.1601 1799.2057,-327.3806"/>
<polygon fill="#000000" stroke="#000000" points="1801.1003,-330.3278 1807.9907,-322.2796 1797.5853,-324.2742 1801.1003,-330.3278"/>
</g>
<!-- Colonial Marines -->
<g id="node27" class="node">
<title>Colonial Marines</title>
<ellipse fill="none" stroke="#000000" cx="1994.0278" cy="-306" rx="78.2085" ry="18"/>
<text text-anchor="middle" x="1994.0278" y="-301.8" font-family="Times,serif" font-size="14.00" fill="#000000">Colonial Marines</text>
</g>
<!-- BayStation (GPL)&#45;&gt;Colonial Marines -->
<g id="edge24" class="edge">
<title>BayStation (GPL)-&gt;Colonial Marines</title>
<path fill="none" stroke="#000000" d="M1765.4013,-364.3727C1812.7057,-352.295 1881.8108,-334.6511 1931.6511,-321.926"/>
<polygon fill="#000000" stroke="#000000" points="1932.5268,-325.3147 1941.3501,-319.4496 1930.795,-318.5323 1932.5268,-325.3147"/>
</g>
<!-- BayStation (AGPL) -->
<g id="node28" class="node">
<title>BayStation (AGPL)</title>
<ellipse fill="none" stroke="#000000" cx="2359.0278" cy="-306" rx="88.0182" ry="18"/>
<text text-anchor="middle" x="2359.0278" y="-301.8" font-family="Times,serif" font-size="14.00" fill="#000000">BayStation (AGPL)</text>
</g>
<!-- BayStation (GPL)&#45;&gt;BayStation (AGPL) -->
<g id="edge25" class="edge">
<title>BayStation (GPL)-&gt;BayStation (AGPL)</title>
<path fill="none" stroke="#ff0000" d="M1770.4578,-365.4258C1780.9372,-363.4245 1791.7821,-361.5173 1802.0278,-360 1963.9578,-336.0199 2154.016,-320.2138 2265.0316,-312.2097"/>
<polygon fill="#ff0000" stroke="#ff0000" points="2265.4697,-315.6874 2275.1945,-311.4828 2264.9703,-308.7052 2265.4697,-315.6874"/>
</g>
<!-- Corporate Mercenaries -->
<g id="node22" class="node">
<title>Corporate Mercenaries</title>
<ellipse fill="none" stroke="#000000" cx="2649.0278" cy="-306" rx="99.5566" ry="18"/>
<text text-anchor="middle" x="2649.0278" y="-301.8" font-family="Times,serif" font-size="14.00" fill="#000000">Corporate Mercenaries</text>
</g>
<!-- FacePunch&#45;&gt;Corporate Mercenaries -->
<g id="edge19" class="edge">
<title>FacePunch-&gt;Corporate Mercenaries</title>
<path fill="none" stroke="#000000" d="M2649.0278,-359.8314C2649.0278,-352.131 2649.0278,-342.9743 2649.0278,-334.4166"/>
<polygon fill="#000000" stroke="#000000" points="2652.5279,-334.4132 2649.0278,-324.4133 2645.5279,-334.4133 2652.5279,-334.4132"/>
</g>
<!-- Persistence SS13 (Old) -->
<g id="node29" class="node">
<title>Persistence SS13 (Old)</title>
<ellipse fill="none" stroke="#000000" cx="1606.0278" cy="-234" rx="100.7172" ry="18"/>
<text text-anchor="middle" x="1606.0278" y="-229.8" font-family="Times,serif" font-size="14.00" fill="#000000">Persistence SS13 (Old)</text>
</g>
<!-- Paradise&#45;&gt;Persistence SS13 (Old) -->
<g id="edge26" class="edge">
<title>Paradise-&gt;Persistence SS13 (Old)</title>
<path fill="none" stroke="#000000" d="M1606.0278,-287.8314C1606.0278,-280.131 1606.0278,-270.9743 1606.0278,-262.4166"/>
<polygon fill="#000000" stroke="#000000" points="1609.5279,-262.4132 1606.0278,-252.4133 1602.5279,-262.4133 1609.5279,-262.4132"/>
</g>
<!-- TGMC -->
<g id="node50" class="node">
<title>TGMC</title>
<ellipse fill="none" stroke="#000000" cx="1848.0278" cy="-234" rx="38.8632" ry="18"/>
<text text-anchor="middle" x="1848.0278" y="-229.8" font-family="Times,serif" font-size="14.00" fill="#000000">TGMC</text>
</g>
<!-- Colonial Marines&#45;&gt;TGMC -->
<g id="edge47" class="edge">
<title>Colonial Marines-&gt;TGMC</title>
<path fill="none" stroke="#000000" d="M1960.8981,-289.6621C1937.8732,-278.3074 1907.2149,-263.1882 1883.6618,-251.5729"/>
<polygon fill="#000000" stroke="#000000" points="1885.2091,-248.4336 1874.6923,-247.1496 1882.113,-254.7117 1885.2091,-248.4336"/>
</g>
<!-- Urist McStation -->
<g id="node42" class="node">
<title>Urist McStation</title>
<ellipse fill="none" stroke="#000000" cx="1978.0278" cy="-234" rx="72.9871" ry="18"/>
<text text-anchor="middle" x="1978.0278" y="-229.8" font-family="Times,serif" font-size="14.00" fill="#000000">Urist McStation</text>
</g>
<!-- BayStation (AGPL)&#45;&gt;Urist McStation -->
<g id="edge39" class="edge">
<title>BayStation (AGPL)-&gt;Urist McStation</title>
<path fill="none" stroke="#000000" d="M2291.2032,-294.4957C2230.5112,-284.024 2139.1675,-267.8267 2060.0278,-252 2054.2596,-250.8465 2048.272,-249.6092 2042.2777,-248.3434"/>
<polygon fill="#000000" stroke="#000000" points="2042.7312,-244.8614 2032.2208,-246.1958 2041.2693,-251.7071 2042.7312,-244.8614"/>
</g>
<!-- Polaris -->
<g id="node43" class="node">
<title>Polaris</title>
<ellipse fill="none" stroke="#000000" cx="2107.0278" cy="-234" rx="37.7159" ry="18"/>
<text text-anchor="middle" x="2107.0278" y="-229.8" font-family="Times,serif" font-size="14.00" fill="#000000">Polaris</text>
</g>
<!-- BayStation (AGPL)&#45;&gt;Polaris -->
<g id="edge40" class="edge">
<title>BayStation (AGPL)-&gt;Polaris</title>
<path fill="none" stroke="#000000" d="M2300.6656,-292.41C2259.3786,-282.3636 2202.8965,-267.7433 2154.0278,-252 2151.2598,-251.1083 2148.4172,-250.1442 2145.5662,-249.1417"/>
<polygon fill="#000000" stroke="#000000" points="2146.5302,-245.7679 2135.9362,-245.634 2144.1345,-252.3452 2146.5302,-245.7679"/>
</g>
<!-- CEV Eris -->
<g id="node44" class="node">
<title>CEV Eris</title>
<ellipse fill="none" stroke="#000000" cx="2211.0278" cy="-234" rx="48.1311" ry="18"/>
<text text-anchor="middle" x="2211.0278" y="-229.8" font-family="Times,serif" font-size="14.00" fill="#000000">CEV Eris</text>
</g>
<!-- BayStation (AGPL)&#45;&gt;CEV Eris -->
<g id="edge41" class="edge">
<title>BayStation (AGPL)-&gt;CEV Eris</title>
<path fill="none" stroke="#000000" d="M2324.7016,-289.3008C2302.3362,-278.4203 2273.1062,-264.2003 2249.8875,-252.9047"/>
<polygon fill="#000000" stroke="#000000" points="2251.1899,-249.6462 2240.6664,-248.4188 2248.1277,-255.9409 2251.1899,-249.6462"/>
</g>
<!-- Persistence (New) -->
<g id="node45" class="node">
<title>Persistence (New)</title>
<ellipse fill="none" stroke="#000000" cx="2359.0278" cy="-234" rx="81.5934" ry="18"/>
<text text-anchor="middle" x="2359.0278" y="-229.8" font-family="Times,serif" font-size="14.00" fill="#000000">Persistence (New)</text>
</g>
<!-- BayStation (AGPL)&#45;&gt;Persistence (New) -->
<g id="edge42" class="edge">
<title>BayStation (AGPL)-&gt;Persistence (New)</title>
<path fill="none" stroke="#000000" d="M2359.0278,-287.8314C2359.0278,-280.131 2359.0278,-270.9743 2359.0278,-262.4166"/>
<polygon fill="#000000" stroke="#000000" points="2362.5279,-262.4132 2359.0278,-252.4133 2355.5279,-262.4133 2362.5279,-262.4132"/>
</g>
<!-- Europa Station -->
<g id="node46" class="node">
<title>Europa Station</title>
<ellipse fill="none" stroke="#000000" cx="2527.0278" cy="-234" rx="68.9007" ry="18"/>
<text text-anchor="middle" x="2527.0278" y="-229.8" font-family="Times,serif" font-size="14.00" fill="#000000">Europa Station</text>
</g>
<!-- BayStation (AGPL)&#45;&gt;Europa Station -->
<g id="edge43" class="edge">
<title>BayStation (AGPL)-&gt;Europa Station</title>
<path fill="none" stroke="#000000" d="M2397.1496,-289.6621C2422.2401,-278.909 2455.2084,-264.7797 2481.65,-253.4476"/>
<polygon fill="#000000" stroke="#000000" points="2483.257,-256.5669 2491.0697,-249.4106 2480.4995,-250.1328 2483.257,-256.5669"/>
</g>
<!-- SCP&#45;13 -->
<g id="node47" class="node">
<title>SCP-13</title>
<ellipse fill="none" stroke="#000000" cx="2655.0278" cy="-234" rx="41.1703" ry="18"/>
<text text-anchor="middle" x="2655.0278" y="-229.8" font-family="Times,serif" font-size="14.00" fill="#000000">SCP-13</text>
</g>
<!-- BayStation (AGPL)&#45;&gt;SCP&#45;13 -->
<g id="edge44" class="edge">
<title>BayStation (AGPL)-&gt;SCP-13</title>
<path fill="none" stroke="#000000" d="M2424.867,-293.9551C2474.7441,-284.2513 2544.7399,-269.3896 2605.0278,-252 2608.1303,-251.1051 2611.3192,-250.1184 2614.5126,-249.0818"/>
<polygon fill="#000000" stroke="#000000" points="2615.6743,-252.3838 2624.0255,-245.864 2613.4313,-245.7528 2615.6743,-252.3838"/>
</g>
<!-- Halo: Space Station Evolved -->
<g id="node48" class="node">
<title>Halo: Space Station Evolved</title>
<ellipse fill="none" stroke="#000000" cx="2836.0278" cy="-234" rx="122.1735" ry="18"/>
<text text-anchor="middle" x="2836.0278" y="-229.8" font-family="Times,serif" font-size="14.00" fill="#000000">Halo: Space Station Evolved</text>
</g>
<!-- BayStation (AGPL)&#45;&gt;Halo: Space Station Evolved -->
<g id="edge45" class="edge">
<title>BayStation (AGPL)-&gt;Halo: Space Station Evolved</title>
<path fill="none" stroke="#000000" d="M2429.9244,-295.2986C2512.3485,-282.8573 2648.7749,-262.2646 2740.4936,-248.4202"/>
<polygon fill="#000000" stroke="#000000" points="2741.2492,-251.8459 2750.6148,-246.8925 2740.2044,-244.9243 2741.2492,-251.8459"/>
</g>
<!-- Aurora Station -->
<g id="node49" class="node">
<title>Aurora Station</title>
<ellipse fill="none" stroke="#000000" cx="3044.0278" cy="-234" rx="68.317" ry="18"/>
<text text-anchor="middle" x="3044.0278" y="-229.8" font-family="Times,serif" font-size="14.00" fill="#000000">Aurora Station</text>
</g>
<!-- BayStation (AGPL)&#45;&gt;Aurora Station -->
<g id="edge46" class="edge">
<title>BayStation (AGPL)-&gt;Aurora Station</title>
<path fill="none" stroke="#000000" d="M2437.8508,-297.9017C2469.5868,-294.7089 2506.5376,-291.0768 2540.0278,-288 2729.6801,-270.5761 2778.9154,-281.7549 2967.0278,-252 2972.8479,-251.0794 2978.881,-249.9615 2984.8919,-248.7383"/>
<polygon fill="#000000" stroke="#000000" points="2985.8942,-252.1034 2994.9455,-246.5967 2984.4357,-245.257 2985.8942,-252.1034"/>
</g>
<!-- NSV13 -->
<g id="node59" class="node">
<title>NSV13</title>
<ellipse fill="none" stroke="#000000" cx="247.0278" cy="-234" rx="40.0089" ry="18"/>
<text text-anchor="middle" x="247.0278" y="-229.8" font-family="Times,serif" font-size="14.00" fill="#000000">NSV13</text>
</g>
<!-- BeeStation&#45;&gt;NSV13 -->
<g id="edge56" class="edge">
<title>BeeStation-&gt;NSV13</title>
<path fill="none" stroke="#000000" d="M286.9266,-288.2022C280.5429,-279.5301 272.7515,-268.9455 265.7536,-259.4389"/>
<polygon fill="#000000" stroke="#000000" points="268.3601,-257.0757 259.6132,-251.0972 262.7227,-261.2255 268.3601,-257.0757"/>
</g>
<!-- Austation -->
<g id="node60" class="node">
<title>Austation</title>
<ellipse fill="none" stroke="#000000" cx="354.0278" cy="-234" rx="48.6733" ry="18"/>
<text text-anchor="middle" x="354.0278" y="-229.8" font-family="Times,serif" font-size="14.00" fill="#000000">Austation</text>
</g>
<!-- BeeStation&#45;&gt;Austation -->
<g id="edge57" class="edge">
<title>BeeStation-&gt;Austation</title>
<path fill="none" stroke="#000000" d="M313.3761,-288.2022C319.8983,-279.506 327.8627,-268.8867 335.0079,-259.3598"/>
<polygon fill="#000000" stroke="#000000" points="337.8193,-261.4446 341.0193,-251.3446 332.2193,-257.2446 337.8193,-261.4446"/>
</g>
<!-- Deep Space 13 -->
<g id="node41" class="node">
<title>Deep Space 13</title>
<ellipse fill="none" stroke="#000000" cx="1267.0278" cy="-234" rx="68.9042" ry="18"/>
<text text-anchor="middle" x="1267.0278" y="-229.8" font-family="Times,serif" font-size="14.00" fill="#000000">Deep Space 13</text>
</g>
<!-- Star Trek 13&#45;&gt;Deep Space 13 -->
<g id="edge38" class="edge">
<title>Star Trek 13-&gt;Deep Space 13</title>
<path fill="none" stroke="#ff0000" d="M1267.0278,-287.8314C1267.0278,-280.131 1267.0278,-270.9743 1267.0278,-262.4166"/>
<polygon fill="#ff0000" stroke="#ff0000" points="1270.5279,-262.4132 1267.0278,-252.4133 1263.5279,-262.4133 1270.5279,-262.4132"/>
</g>
<!-- V.O.R.E. Station -->
<g id="node54" class="node">
<title>V.O.R.E. Station</title>
<ellipse fill="none" stroke="#000000" cx="1949.0278" cy="-162" rx="76.5068" ry="18"/>
<text text-anchor="middle" x="1949.0278" y="-157.8" font-family="Times,serif" font-size="14.00" fill="#000000">V.O.R.E. Station</text>
</g>
<!-- Polaris&#45;&gt;V.O.R.E. Station -->
<g id="edge51" class="edge">
<title>Polaris-&gt;V.O.R.E. Station</title>
<path fill="none" stroke="#000000" d="M2079.5063,-221.4586C2055.8586,-210.6824 2021.3109,-194.9391 1993.7046,-182.3591"/>
<polygon fill="#000000" stroke="#000000" points="1994.8098,-179.0165 1984.2587,-178.0546 1991.907,-185.3863 1994.8098,-179.0165"/>
</g>
<!-- World Server -->
<g id="node57" class="node">
<title>World Server</title>
<ellipse fill="none" stroke="#000000" cx="2107.0278" cy="-162" rx="63.1428" ry="18"/>
<text text-anchor="middle" x="2107.0278" y="-157.8" font-family="Times,serif" font-size="14.00" fill="#000000">World Server</text>
</g>
<!-- Polaris&#45;&gt;World Server -->
<g id="edge54" class="edge">
<title>Polaris-&gt;World Server</title>
<path fill="none" stroke="#000000" d="M2107.0278,-215.8314C2107.0278,-208.131 2107.0278,-198.9743 2107.0278,-190.4166"/>
<polygon fill="#000000" stroke="#000000" points="2110.5279,-190.4132 2107.0278,-180.4133 2103.5279,-190.4133 2110.5279,-190.4132"/>
</g>
<!-- InterStation&#45;Two -->
<g id="node51" class="node">
<title>InterStation-Two</title>
<ellipse fill="none" stroke="#000000" cx="2266.0278" cy="-162" rx="77.5839" ry="18"/>
<text text-anchor="middle" x="2266.0278" y="-157.8" font-family="Times,serif" font-size="14.00" fill="#000000">InterStation-Two</text>
</g>
<!-- CEV Eris&#45;&gt;InterStation&#45;Two -->
<g id="edge48" class="edge">
<title>CEV Eris-&gt;InterStation-Two</title>
<path fill="none" stroke="#000000" d="M2224.3417,-216.5708C2230.9316,-207.9441 2239.018,-197.3582 2246.3092,-187.8134"/>
<polygon fill="#000000" stroke="#000000" points="2249.1652,-189.8403 2252.4543,-179.7689 2243.6025,-185.591 2249.1652,-189.8403"/>
</g>
<!-- Lebensraum -->
<g id="node52" class="node">
<title>Lebensraum</title>
<ellipse fill="none" stroke="#000000" cx="2266.0278" cy="-90" rx="58.529" ry="18"/>
<text text-anchor="middle" x="2266.0278" y="-85.8" font-family="Times,serif" font-size="14.00" fill="#000000">Lebensraum</text>
</g>
<!-- InterStation&#45;Two&#45;&gt;Lebensraum -->
<g id="edge49" class="edge">
<title>InterStation-Two-&gt;Lebensraum</title>
<path fill="none" stroke="#000000" d="M2266.0278,-143.8314C2266.0278,-136.131 2266.0278,-126.9743 2266.0278,-118.4166"/>
<polygon fill="#000000" stroke="#000000" points="2269.5279,-118.4132 2266.0278,-108.4133 2262.5279,-118.4133 2269.5279,-118.4132"/>
</g>
<!-- Civilization 13 -->
<g id="node53" class="node">
<title>Civilization 13</title>
<ellipse fill="none" stroke="#000000" cx="2266.0278" cy="-18" rx="68.9181" ry="18"/>
<text text-anchor="middle" x="2266.0278" y="-13.8" font-family="Times,serif" font-size="14.00" fill="#000000">Civilization 13</text>
</g>
<!-- Lebensraum&#45;&gt;Civilization 13 -->
<g id="edge50" class="edge">
<title>Lebensraum-&gt;Civilization 13</title>
<path fill="none" stroke="#000000" d="M2266.0278,-71.8314C2266.0278,-64.131 2266.0278,-54.9743 2266.0278,-46.4166"/>
<polygon fill="#000000" stroke="#000000" points="2269.5279,-46.4132 2266.0278,-36.4133 2262.5279,-46.4133 2269.5279,-46.4132"/>
</g>
<!-- Chompers -->
<g id="node55" class="node">
<title>Chompers</title>
<ellipse fill="none" stroke="#000000" cx="1894.0278" cy="-90" rx="50.9638" ry="18"/>
<text text-anchor="middle" x="1894.0278" y="-85.8" font-family="Times,serif" font-size="14.00" fill="#000000">Chompers</text>
</g>
<!-- V.O.R.E. Station&#45;&gt;Chompers -->
<g id="edge52" class="edge">
<title>V.O.R.E. Station-&gt;Chompers</title>
<path fill="none" stroke="#000000" d="M1935.4322,-144.2022C1928.8385,-135.5704 1920.7974,-125.0439 1913.5617,-115.5717"/>
<polygon fill="#000000" stroke="#000000" points="1916.3187,-113.4151 1907.4669,-107.593 1910.756,-117.6644 1916.3187,-113.4151"/>
</g>
<!-- AEIOU -->
<g id="node56" class="node">
<title>AEIOU</title>
<ellipse fill="none" stroke="#000000" cx="2004.0278" cy="-90" rx="41.1297" ry="18"/>
<text text-anchor="middle" x="2004.0278" y="-85.8" font-family="Times,serif" font-size="14.00" fill="#000000">AEIOU</text>
</g>
<!-- V.O.R.E. Station&#45;&gt;AEIOU -->
<g id="edge53" class="edge">
<title>V.O.R.E. Station-&gt;AEIOU</title>
<path fill="none" stroke="#000000" d="M1962.6233,-144.2022C1969.3154,-135.4416 1977.4984,-124.7293 1984.8173,-115.1482"/>
<polygon fill="#000000" stroke="#000000" points="1987.6783,-117.1686 1990.9674,-107.0972 1982.1156,-112.9193 1987.6783,-117.1686"/>
</g>
<!-- Eclipse Station -->
<g id="node58" class="node">
<title>Eclipse Station</title>
<ellipse fill="none" stroke="#000000" cx="2004.0278" cy="-18" rx="69.4767" ry="18"/>
<text text-anchor="middle" x="2004.0278" y="-13.8" font-family="Times,serif" font-size="14.00" fill="#000000">Eclipse Station</text>
</g>
<!-- AEIOU&#45;&gt;Eclipse Station -->
<g id="edge55" class="edge">
<title>AEIOU-&gt;Eclipse Station</title>
<path fill="none" stroke="#ff0000" d="M2004.0278,-71.8314C2004.0278,-64.131 2004.0278,-54.9743 2004.0278,-46.4166"/>
<polygon fill="#ff0000" stroke="#ff0000" points="2007.5279,-46.4132 2004.0278,-36.4133 2000.5279,-46.4133 2007.5279,-46.4132"/>
</g>
</g>
</svg>