<?xml version="1.0" encoding="UTF-8" standalone="no"?>
<!DOCTYPE svg PUBLIC "-//W3C//DTD SVG 1.1//EN"
 "http://www.w3.org/Graphics/SVG/1.1/DTD/svg11.dtd">
<!-- Generated by graphviz version 2.38.0 (20140413.2041)
 -->
<!-- Title: G Pages: 1 -->
<svg width="2688pt" height="715pt"
 viewBox="0.00 0.00 2688.39 715.00" xmlns="http://www.w3.org/2000/svg" xmlns:xlink="http://www.w3.org/1999/xlink">
<g id="graph0" class="graph" transform="scale(1 1) rotate(0) translate(4 711)">
<title>G</title>
<polygon fill="white" stroke="none" points="-4,4 -4,-711 2684.39,-711 2684.39,4 -4,4"/>
<text text-anchor="middle" x="1340.19" y="-691.8" font-family="Times New Roman,serif" font-size="14.00">SS13 Codebases Circa Mid&#45;2019</text>
<!-- Red arrows indicate that the child is not a fork of a parent, rather a new version or rebrand. -->
<g id="node1" class="node"><title>Red arrows indicate that the child is not a fork of a parent, rather a new version or rebrand.</title>
<polygon fill="none" stroke="black" points="1980,-684 1456,-684 1456,-648 1980,-648 1980,-684"/>
<text text-anchor="middle" x="1718" y="-662.3" font-family="Times New Roman,serif" font-size="14.00">Red arrows indicate that the child is not a fork of a parent, rather a new version or rebrand.</text>
</g>
<!-- BurgerStation -->
<g id="node2" class="node"><title>BurgerStation</title>
<ellipse fill="none" stroke="black" cx="2058" cy="-666" rx="60.3893" ry="18"/>
<text text-anchor="middle" x="2058" y="-662.3" font-family="Times New Roman,serif" font-size="14.00">BurgerStation</text>
</g>
<!-- SS13 (Pre Open) -->
<g id="node3" class="node"><title>SS13 (Pre Open)</title>
<ellipse fill="none" stroke="black" cx="2210" cy="-666" rx="73.387" ry="18"/>
<text text-anchor="middle" x="2210" y="-662.3" font-family="Times New Roman,serif" font-size="14.00">SS13 (Pre Open)</text>
</g>
<!-- Source Decompilation (OpenSS13) -->
<g id="node4" class="node"><title>Source Decompilation (OpenSS13)</title>
<ellipse fill="none" stroke="black" cx="2103" cy="-594" rx="139.976" ry="18"/>
<text text-anchor="middle" x="2103" y="-590.3" font-family="Times New Roman,serif" font-size="14.00">Source Decompilation (OpenSS13)</text>
</g>
<!-- SS13 (Pre Open)&#45;&gt;Source Decompilation (OpenSS13) -->
<g id="edge1" class="edge"><title>SS13 (Pre Open)&#45;&gt;Source Decompilation (OpenSS13)</title>
<path fill="none" stroke="black" d="M2185.45,-648.941C2171.08,-639.541 2152.72,-627.533 2136.98,-617.234"/>
<polygon fill="black" stroke="black" points="2138.83,-614.261 2128.55,-611.715 2135,-620.119 2138.83,-614.261"/>
</g>
<!-- Goonstation -->
<g id="node5" class="node"><title>Goonstation</title>
<ellipse fill="none" stroke="black" cx="2317" cy="-594" rx="55.7903" ry="18"/>
<text text-anchor="middle" x="2317" y="-590.3" font-family="Times New Roman,serif" font-size="14.00">Goonstation</text>
</g>
<!-- SS13 (Pre Open)&#45;&gt;Goonstation -->
<g id="edge2" class="edge"><title>SS13 (Pre Open)&#45;&gt;Goonstation</title>
<path fill="none" stroke="black" d="M2234.54,-648.941C2249.43,-639.2 2268.6,-626.659 2284.71,-616.121"/>
<polygon fill="black" stroke="black" points="2286.85,-618.907 2293.3,-610.503 2283.01,-613.049 2286.85,-618.907"/>
</g>
<!-- BayStation OpenSS13 -->
<g id="node6" class="node"><title>BayStation OpenSS13</title>
<ellipse fill="none" stroke="black" cx="2103" cy="-522" rx="92.0841" ry="18"/>
<text text-anchor="middle" x="2103" y="-518.3" font-family="Times New Roman,serif" font-size="14.00">BayStation OpenSS13</text>
</g>
<!-- Source Decompilation (OpenSS13)&#45;&gt;BayStation OpenSS13 -->
<g id="edge3" class="edge"><title>Source Decompilation (OpenSS13)&#45;&gt;BayStation OpenSS13</title>
<path fill="none" stroke="black" d="M2103,-575.697C2103,-567.983 2103,-558.712 2103,-550.112"/>
<polygon fill="black" stroke="black" points="2106.5,-550.104 2103,-540.104 2099.5,-550.104 2106.5,-550.104"/>
</g>
<!-- Revision 4407 (r4407) -->
<g id="node7" class="node"><title>Revision 4407 (r4407)</title>
<ellipse fill="none" stroke="black" cx="2310" cy="-522" rx="90.9839" ry="18"/>
<text text-anchor="middle" x="2310" y="-518.3" font-family="Times New Roman,serif" font-size="14.00">Revision 4407 (r4407)</text>
</g>
<!-- Goonstation&#45;&gt;Revision 4407 (r4407) -->
<g id="edge4" class="edge"><title>Goonstation&#45;&gt;Revision 4407 (r4407)</title>
<path fill="none" stroke="black" d="M2315.27,-575.697C2314.49,-567.983 2313.57,-558.712 2312.71,-550.112"/>
<polygon fill="black" stroke="black" points="2316.18,-549.706 2311.71,-540.104 2309.22,-550.403 2316.18,-549.706"/>
</g>
<!-- Goon 2016 -->
<g id="node8" class="node"><title>Goon 2016</title>
<ellipse fill="none" stroke="black" cx="2471" cy="-522" rx="51.9908" ry="18"/>
<text text-anchor="middle" x="2471" y="-518.3" font-family="Times New Roman,serif" font-size="14.00">Goon 2016</text>
</g>
<!-- Goonstation&#45;&gt;Goon 2016 -->
<g id="edge5" class="edge"><title>Goonstation&#45;&gt;Goon 2016</title>
<path fill="none" stroke="black" d="M2348.16,-578.834C2372.19,-567.911 2405.59,-552.732 2431.49,-540.957"/>
<polygon fill="black" stroke="black" points="2433.01,-544.111 2440.66,-536.787 2430.11,-537.738 2433.01,-544.111"/>
</g>
<!-- /tg/Station (Pre&#45;AGPL) -->
<g id="node9" class="node"><title>/tg/Station (Pre&#45;AGPL)</title>
<ellipse fill="none" stroke="black" cx="1951" cy="-450" rx="94.7833" ry="18"/>
<text text-anchor="middle" x="1951" y="-446.3" font-family="Times New Roman,serif" font-size="14.00">/tg/Station (Pre&#45;AGPL)</text>
</g>
<!-- Revision 4407 (r4407)&#45;&gt;/tg/Station (Pre&#45;AGPL) -->
<g id="edge6" class="edge"><title>Revision 4407 (r4407)&#45;&gt;/tg/Station (Pre&#45;AGPL)</title>
<path fill="none" stroke="black" d="M2247.46,-508.807C2185.36,-496.698 2090.18,-478.138 2024.5,-465.331"/>
<polygon fill="black" stroke="black" points="2025.11,-461.885 2014.62,-463.406 2023.77,-468.755 2025.11,-461.885"/>
</g>
<!-- BayStation (Luna) -->
<g id="node10" class="node"><title>BayStation (Luna)</title>
<ellipse fill="none" stroke="black" cx="2310" cy="-450" rx="76.8869" ry="18"/>
<text text-anchor="middle" x="2310" y="-446.3" font-family="Times New Roman,serif" font-size="14.00">BayStation (Luna)</text>
</g>
<!-- Revision 4407 (r4407)&#45;&gt;BayStation (Luna) -->
<g id="edge7" class="edge"><title>Revision 4407 (r4407)&#45;&gt;BayStation (Luna)</title>
<path fill="none" stroke="black" d="M2310,-503.697C2310,-495.983 2310,-486.712 2310,-478.112"/>
<polygon fill="black" stroke="black" points="2313.5,-478.104 2310,-468.104 2306.5,-478.104 2313.5,-478.104"/>
</g>
<!-- D2K5 -->
<g id="node11" class="node"><title>D2K5</title>
<ellipse fill="none" stroke="black" cx="2437" cy="-450" rx="32.4942" ry="18"/>
<text text-anchor="middle" x="2437" y="-446.3" font-family="Times New Roman,serif" font-size="14.00">D2K5</text>
</g>
<!-- Revision 4407 (r4407)&#45;&gt;D2K5 -->
<g id="edge8" class="edge"><title>Revision 4407 (r4407)&#45;&gt;D2K5</title>
<path fill="none" stroke="black" d="M2339.13,-504.941C2359.07,-493.95 2385.48,-479.393 2405.84,-468.171"/>
<polygon fill="black" stroke="black" points="2407.66,-471.167 2414.72,-463.275 2404.28,-465.037 2407.66,-471.167"/>
</g>
<!-- /tg/Station (AGPL) -->
<g id="node13" class="node"><title>/tg/Station (AGPL)</title>
<ellipse fill="none" stroke="black" cx="650.995" cy="-378" rx="79.8859" ry="18"/>
<text text-anchor="middle" x="650.995" y="-374.3" font-family="Times New Roman,serif" font-size="14.00">/tg/Station (AGPL)</text>
</g>
<!-- /tg/Station (Pre&#45;AGPL)&#45;&gt;/tg/Station (AGPL) -->
<g id="edge10" class="edge"><title>/tg/Station (Pre&#45;AGPL)&#45;&gt;/tg/Station (AGPL)</title>
<path fill="none" stroke="red" d="M1861.13,-444.161C1622.29,-431.3 973.93,-396.389 738.184,-383.695"/>
<polygon fill="red" stroke="red" points="738.12,-380.186 727.946,-383.143 737.743,-387.176 738.12,-380.186"/>
</g>
<!-- BayStation (GPL) -->
<g id="node14" class="node"><title>BayStation (GPL)</title>
<ellipse fill="none" stroke="black" cx="1485" cy="-378" rx="76.0865" ry="18"/>
<text text-anchor="middle" x="1485" y="-374.3" font-family="Times New Roman,serif" font-size="14.00">BayStation (GPL)</text>
</g>
<!-- /tg/Station (Pre&#45;AGPL)&#45;&gt;BayStation (GPL) -->
<g id="edge11" class="edge"><title>/tg/Station (Pre&#45;AGPL)&#45;&gt;BayStation (GPL)</title>
<path fill="none" stroke="black" d="M1873.44,-439.577C1796.31,-429.885 1674.69,-413.735 1570,-396 1563.67,-394.928 1557.09,-393.741 1550.51,-392.507"/>
<polygon fill="black" stroke="black" points="1550.71,-388.982 1540.23,-390.54 1549.4,-395.857 1550.71,-388.982"/>
</g>
<!-- Old HippieStation -->
<g id="node15" class="node"><title>Old HippieStation</title>
<ellipse fill="none" stroke="black" cx="1655" cy="-378" rx="76.0865" ry="18"/>
<text text-anchor="middle" x="1655" y="-374.3" font-family="Times New Roman,serif" font-size="14.00">Old HippieStation</text>
</g>
<!-- /tg/Station (Pre&#45;AGPL)&#45;&gt;Old HippieStation -->
<g id="edge12" class="edge"><title>/tg/Station (Pre&#45;AGPL)&#45;&gt;Old HippieStation</title>
<path fill="none" stroke="black" d="M1893.92,-435.503C1843.1,-423.485 1768.93,-405.944 1716.74,-393.602"/>
<polygon fill="black" stroke="black" points="1717.47,-390.179 1706.94,-391.283 1715.86,-396.991 1717.47,-390.179"/>
</g>
<!-- Old YogStation -->
<g id="node16" class="node"><title>Old YogStation</title>
<ellipse fill="none" stroke="black" cx="1817" cy="-378" rx="67.6881" ry="18"/>
<text text-anchor="middle" x="1817" y="-374.3" font-family="Times New Roman,serif" font-size="14.00">Old YogStation</text>
</g>
<!-- /tg/Station (Pre&#45;AGPL)&#45;&gt;Old YogStation -->
<g id="edge13" class="edge"><title>/tg/Station (Pre&#45;AGPL)&#45;&gt;Old YogStation</title>
<path fill="none" stroke="black" d="M1920.25,-432.941C1900.96,-422.86 1875.91,-409.779 1855.33,-399.023"/>
<polygon fill="black" stroke="black" points="1856.7,-395.793 1846.22,-394.264 1853.46,-401.997 1856.7,-395.793"/>
</g>
<!-- NTStation -->
<g id="node17" class="node"><title>NTStation</title>
<ellipse fill="none" stroke="black" cx="1951" cy="-378" rx="48.1917" ry="18"/>
<text text-anchor="middle" x="1951" y="-374.3" font-family="Times New Roman,serif" font-size="14.00">NTStation</text>
</g>
<!-- /tg/Station (Pre&#45;AGPL)&#45;&gt;NTStation -->
<g id="edge14" class="edge"><title>/tg/Station (Pre&#45;AGPL)&#45;&gt;NTStation</title>
<path fill="none" stroke="black" d="M1951,-431.697C1951,-423.983 1951,-414.712 1951,-406.112"/>
<polygon fill="black" stroke="black" points="1954.5,-406.104 1951,-396.104 1947.5,-406.104 1954.5,-406.104"/>
</g>
<!-- Traitor Death Match -->
<g id="node18" class="node"><title>Traitor Death Match</title>
<ellipse fill="none" stroke="black" cx="2102" cy="-378" rx="84.485" ry="18"/>
<text text-anchor="middle" x="2102" y="-374.3" font-family="Times New Roman,serif" font-size="14.00">Traitor Death Match</text>
</g>
<!-- /tg/Station (Pre&#45;AGPL)&#45;&gt;Traitor Death Match -->
<g id="edge15" class="edge"><title>/tg/Station (Pre&#45;AGPL)&#45;&gt;Traitor Death Match</title>
<path fill="none" stroke="black" d="M1985.26,-433.116C2007.13,-422.976 2035.67,-409.749 2059.05,-398.91"/>
<polygon fill="black" stroke="black" points="2060.79,-401.961 2068.39,-394.58 2057.84,-395.611 2060.79,-401.961"/>
</g>
<!-- Archangel -->
<g id="node19" class="node"><title>Archangel</title>
<ellipse fill="none" stroke="black" cx="2252" cy="-378" rx="47.3916" ry="18"/>
<text text-anchor="middle" x="2252" y="-374.3" font-family="Times New Roman,serif" font-size="14.00">Archangel</text>
</g>
<!-- /tg/Station (Pre&#45;AGPL)&#45;&gt;Archangel -->
<g id="edge16" class="edge"><title>/tg/Station (Pre&#45;AGPL)&#45;&gt;Archangel</title>
<path fill="none" stroke="black" d="M2014.5,-436.583C2063.93,-426.587 2134.12,-411.665 2195,-396 2198.82,-395.015 2202.78,-393.944 2206.75,-392.836"/>
<polygon fill="black" stroke="black" points="2207.89,-396.149 2216.54,-390.029 2205.96,-389.42 2207.89,-396.149"/>
</g>
<!-- FacePunch -->
<g id="node20" class="node"><title>FacePunch</title>
<ellipse fill="none" stroke="black" cx="2369" cy="-378" rx="51.1914" ry="18"/>
<text text-anchor="middle" x="2369" y="-374.3" font-family="Times New Roman,serif" font-size="14.00">FacePunch</text>
</g>
<!-- /tg/Station (Pre&#45;AGPL)&#45;&gt;FacePunch -->
<g id="edge17" class="edge"><title>/tg/Station (Pre&#45;AGPL)&#45;&gt;FacePunch</title>
<path fill="none" stroke="black" d="M2030.55,-440.068C2103.24,-431.227 2213.46,-416.109 2308,-396 2312.35,-395.074 2316.85,-394.017 2321.34,-392.891"/>
<polygon fill="black" stroke="black" points="2322.31,-396.256 2331.1,-390.346 2320.55,-389.482 2322.31,-396.256"/>
</g>
<!-- Lifeweb -->
<g id="node12" class="node"><title>Lifeweb</title>
<ellipse fill="none" stroke="black" cx="2479" cy="-378" rx="40.0939" ry="18"/>
<text text-anchor="middle" x="2479" y="-374.3" font-family="Times New Roman,serif" font-size="14.00">Lifeweb</text>
</g>
<!-- BayStation (Luna)&#45;&gt;Lifeweb -->
<g id="edge9" class="edge"><title>BayStation (Luna)&#45;&gt;Lifeweb</title>
<path fill="none" stroke="black" d="M2346.25,-433.983C2374.1,-422.448 2412.46,-406.557 2440.79,-394.825"/>
<polygon fill="black" stroke="black" points="2442.46,-397.923 2450.36,-390.862 2439.78,-391.456 2442.46,-397.923"/>
</g>
<!-- YogStation -->
<g id="node28" class="node"><title>YogStation</title>
<ellipse fill="none" stroke="black" cx="51.9954" cy="-306" rx="51.9908" ry="18"/>
<text text-anchor="middle" x="51.9954" y="-302.3" font-family="Times New Roman,serif" font-size="14.00">YogStation</text>
</g>
<!-- /tg/Station (AGPL)&#45;&gt;YogStation -->
<g id="edge25" class="edge"><title>/tg/Station (AGPL)&#45;&gt;YogStation</title>
<path fill="none" stroke="black" d="M573.335,-373.585C468.214,-368.002 275.131,-354.341 112.995,-324 108.56,-323.17 103.978,-322.169 99.4118,-321.073"/>
<polygon fill="black" stroke="black" points="100.056,-317.626 89.5014,-318.553 98.3302,-324.41 100.056,-317.626"/>
</g>
<!-- Fallout 13 -->
<g id="node29" class="node"><title>Fallout 13</title>
<ellipse fill="none" stroke="black" cx="168.995" cy="-306" rx="46.5926" ry="18"/>
<text text-anchor="middle" x="168.995" y="-302.3" font-family="Times New Roman,serif" font-size="14.00">Fallout 13</text>
</g>
<!-- /tg/Station (AGPL)&#45;&gt;Fallout 13 -->
<g id="edge26" class="edge"><title>/tg/Station (AGPL)&#45;&gt;Fallout 13</title>
<path fill="none" stroke="black" d="M576.091,-371.579C490.502,-364.487 346.561,-349.816 224.995,-324 221.082,-323.169 217.048,-322.191 213.022,-321.132"/>
<polygon fill="black" stroke="black" points="213.681,-317.682 203.108,-318.367 211.8,-324.425 213.681,-317.682"/>
</g>
<!-- BeeStation -->
<g id="node30" class="node"><title>BeeStation</title>
<ellipse fill="none" stroke="black" cx="283.995" cy="-306" rx="50.0912" ry="18"/>
<text text-anchor="middle" x="283.995" y="-302.3" font-family="Times New Roman,serif" font-size="14.00">BeeStation</text>
</g>
<!-- /tg/Station (AGPL)&#45;&gt;BeeStation -->
<g id="edge27" class="edge"><title>/tg/Station (AGPL)&#45;&gt;BeeStation</title>
<path fill="none" stroke="black" d="M585.088,-367.808C522.438,-358.564 425.76,-342.984 342.995,-324 338.963,-323.075 334.797,-322.04 330.631,-320.949"/>
<polygon fill="black" stroke="black" points="331.539,-317.569 320.971,-318.328 329.706,-324.325 331.539,-317.569"/>
</g>
<!-- HippieStation -->
<g id="node31" class="node"><title>HippieStation</title>
<ellipse fill="none" stroke="black" cx="411.995" cy="-306" rx="59.5901" ry="18"/>
<text text-anchor="middle" x="411.995" y="-302.3" font-family="Times New Roman,serif" font-size="14.00">HippieStation</text>
</g>
<!-- /tg/Station (AGPL)&#45;&gt;HippieStation -->
<g id="edge28" class="edge"><title>/tg/Station (AGPL)&#45;&gt;HippieStation</title>
<path fill="none" stroke="black" d="M604.346,-363.337C563.725,-351.44 504.941,-334.223 463.066,-321.958"/>
<polygon fill="black" stroke="black" points="463.92,-318.561 453.339,-319.109 461.952,-325.279 463.92,-318.561"/>
</g>
<!-- Citadel -->
<g id="node32" class="node"><title>Citadel</title>
<ellipse fill="none" stroke="black" cx="525.995" cy="-306" rx="36.2938" ry="18"/>
<text text-anchor="middle" x="525.995" y="-302.3" font-family="Times New Roman,serif" font-size="14.00">Citadel</text>
</g>
<!-- /tg/Station (AGPL)&#45;&gt;Citadel -->
<g id="edge29" class="edge"><title>/tg/Station (AGPL)&#45;&gt;Citadel</title>
<path fill="none" stroke="black" d="M622.631,-361.116C603.392,-350.342 577.927,-336.082 557.968,-324.905"/>
<polygon fill="black" stroke="black" points="559.663,-321.842 549.228,-320.01 556.243,-327.95 559.663,-321.842"/>
</g>
<!-- Toolbox Station -->
<g id="node33" class="node"><title>Toolbox Station</title>
<ellipse fill="none" stroke="black" cx="650.995" cy="-306" rx="70.3881" ry="18"/>
<text text-anchor="middle" x="650.995" y="-302.3" font-family="Times New Roman,serif" font-size="14.00">Toolbox Station</text>
</g>
<!-- /tg/Station (AGPL)&#45;&gt;Toolbox Station -->
<g id="edge30" class="edge"><title>/tg/Station (AGPL)&#45;&gt;Toolbox Station</title>
<path fill="none" stroke="black" d="M650.995,-359.697C650.995,-351.983 650.995,-342.712 650.995,-334.112"/>
<polygon fill="black" stroke="black" points="654.495,-334.104 650.995,-324.104 647.495,-334.104 654.495,-334.104"/>
</g>
<!-- FulpStation -->
<g id="node34" class="node"><title>FulpStation</title>
<ellipse fill="none" stroke="black" cx="791.995" cy="-306" rx="52.7911" ry="18"/>
<text text-anchor="middle" x="791.995" y="-302.3" font-family="Times New Roman,serif" font-size="14.00">FulpStation</text>
</g>
<!-- /tg/Station (AGPL)&#45;&gt;FulpStation -->
<g id="edge31" class="edge"><title>/tg/Station (AGPL)&#45;&gt;FulpStation</title>
<path fill="none" stroke="black" d="M682.639,-361.291C703.81,-350.78 731.78,-336.894 754.133,-325.797"/>
<polygon fill="black" stroke="black" points="755.933,-328.811 763.333,-321.229 752.82,-322.541 755.933,-328.811"/>
</g>
<!-- OracleStation -->
<g id="node35" class="node"><title>OracleStation</title>
<ellipse fill="none" stroke="black" cx="921.995" cy="-306" rx="59.5901" ry="18"/>
<text text-anchor="middle" x="921.995" y="-302.3" font-family="Times New Roman,serif" font-size="14.00">OracleStation</text>
</g>
<!-- /tg/Station (AGPL)&#45;&gt;OracleStation -->
<g id="edge32" class="edge"><title>/tg/Station (AGPL)&#45;&gt;OracleStation</title>
<path fill="none" stroke="black" d="M701.333,-363.998C748.877,-351.717 819.944,-333.36 868.496,-320.819"/>
<polygon fill="black" stroke="black" points="869.389,-324.203 878.196,-318.314 867.638,-317.426 869.389,-324.203"/>
</g>
<!-- Sunset Station -->
<g id="node36" class="node"><title>Sunset Station</title>
<ellipse fill="none" stroke="black" cx="1063" cy="-306" rx="63.0888" ry="18"/>
<text text-anchor="middle" x="1063" y="-302.3" font-family="Times New Roman,serif" font-size="14.00">Sunset Station</text>
</g>
<!-- /tg/Station (AGPL)&#45;&gt;Sunset Station -->
<g id="edge33" class="edge"><title>/tg/Station (AGPL)&#45;&gt;Sunset Station</title>
<path fill="none" stroke="black" d="M718.034,-368.108C786.803,-358.622 896.75,-342.443 990.995,-324 996.274,-322.967 1001.75,-321.817 1007.22,-320.616"/>
<polygon fill="black" stroke="black" points="1008.03,-324.022 1017.02,-318.414 1006.49,-317.193 1008.03,-324.022"/>
</g>
<!-- Star Trek 13 -->
<g id="node37" class="node"><title>Star Trek 13</title>
<ellipse fill="none" stroke="black" cx="1200" cy="-306" rx="55.7903" ry="18"/>
<text text-anchor="middle" x="1200" y="-302.3" font-family="Times New Roman,serif" font-size="14.00">Star Trek 13</text>
</g>
<!-- /tg/Station (AGPL)&#45;&gt;Star Trek 13 -->
<g id="edge34" class="edge"><title>/tg/Station (AGPL)&#45;&gt;Star Trek 13</title>
<path fill="none" stroke="black" d="M726.947,-372.146C822.68,-365.236 992.017,-350.378 1135,-324 1139.76,-323.12 1144.7,-322.078 1149.61,-320.95"/>
<polygon fill="black" stroke="black" points="1150.73,-324.281 1159.63,-318.536 1149.09,-317.476 1150.73,-324.281"/>
</g>
<!-- /vg/Station -->
<g id="node22" class="node"><title>/vg/Station</title>
<ellipse fill="none" stroke="black" cx="1324" cy="-306" rx="50.0912" ry="18"/>
<text text-anchor="middle" x="1324" y="-302.3" font-family="Times New Roman,serif" font-size="14.00">/vg/Station</text>
</g>
<!-- BayStation (GPL)&#45;&gt;/vg/Station -->
<g id="edge19" class="edge"><title>BayStation (GPL)&#45;&gt;/vg/Station</title>
<path fill="none" stroke="black" d="M1450.06,-361.811C1424.69,-350.781 1390.32,-335.837 1363.87,-324.339"/>
<polygon fill="black" stroke="black" points="1365.09,-321.05 1354.52,-320.272 1362.3,-327.469 1365.09,-321.05"/>
</g>
<!-- Paradise -->
<g id="node23" class="node"><title>Paradise</title>
<ellipse fill="none" stroke="black" cx="1434" cy="-306" rx="41.6928" ry="18"/>
<text text-anchor="middle" x="1434" y="-302.3" font-family="Times New Roman,serif" font-size="14.00">Paradise</text>
</g>
<!-- BayStation (GPL)&#45;&gt;Paradise -->
<g id="edge20" class="edge"><title>BayStation (GPL)&#45;&gt;Paradise</title>
<path fill="none" stroke="black" d="M1472.65,-360.055C1466.42,-351.505 1458.75,-340.975 1451.89,-331.556"/>
<polygon fill="black" stroke="black" points="1454.59,-329.328 1445.88,-323.307 1448.94,-333.45 1454.59,-329.328"/>
</g>
<!-- Tau Ceti -->
<g id="node24" class="node"><title>Tau Ceti</title>
<ellipse fill="none" stroke="black" cx="1536" cy="-306" rx="42.4939" ry="18"/>
<text text-anchor="middle" x="1536" y="-302.3" font-family="Times New Roman,serif" font-size="14.00">Tau Ceti</text>
</g>
<!-- BayStation (GPL)&#45;&gt;Tau Ceti -->
<g id="edge21" class="edge"><title>BayStation (GPL)&#45;&gt;Tau Ceti</title>
<path fill="none" stroke="black" d="M1497.34,-360.055C1503.57,-351.505 1511.24,-340.975 1518.1,-331.556"/>
<polygon fill="black" stroke="black" points="1521.05,-333.45 1524.11,-323.307 1515.4,-329.328 1521.05,-333.45"/>
</g>
<!-- Aurora -->
<g id="node25" class="node"><title>Aurora</title>
<ellipse fill="none" stroke="black" cx="1633" cy="-306" rx="36.2938" ry="18"/>
<text text-anchor="middle" x="1633" y="-302.3" font-family="Times New Roman,serif" font-size="14.00">Aurora</text>
</g>
<!-- BayStation (GPL)&#45;&gt;Aurora -->
<g id="edge22" class="edge"><title>BayStation (GPL)&#45;&gt;Aurora</title>
<path fill="none" stroke="black" d="M1517.47,-361.638C1541.36,-350.34 1573.78,-335.005 1598.2,-323.457"/>
<polygon fill="black" stroke="black" points="1599.92,-326.516 1607.46,-319.076 1596.93,-320.188 1599.92,-326.516"/>
</g>
<!-- BayStation (AGPL) -->
<g id="node26" class="node"><title>BayStation (AGPL)</title>
<ellipse fill="none" stroke="black" cx="1971" cy="-306" rx="82.5854" ry="18"/>
<text text-anchor="middle" x="1971" y="-302.3" font-family="Times New Roman,serif" font-size="14.00">BayStation (AGPL)</text>
</g>
<!-- BayStation (GPL)&#45;&gt;BayStation (AGPL) -->
<g id="edge23" class="edge"><title>BayStation (GPL)&#45;&gt;BayStation (AGPL)</title>
<path fill="none" stroke="red" d="M1539.77,-365.494C1549.8,-363.543 1560.2,-361.626 1570,-360 1680.11,-341.732 1808.08,-325.717 1889.28,-316.199"/>
<polygon fill="red" stroke="red" points="1889.91,-319.65 1899.43,-315.014 1889.1,-312.697 1889.91,-319.65"/>
</g>
<!-- Corporate Mercenaries -->
<g id="node21" class="node"><title>Corporate Mercenaries</title>
<ellipse fill="none" stroke="black" cx="2369" cy="-306" rx="94.4839" ry="18"/>
<text text-anchor="middle" x="2369" y="-302.3" font-family="Times New Roman,serif" font-size="14.00">Corporate Mercenaries</text>
</g>
<!-- FacePunch&#45;&gt;Corporate Mercenaries -->
<g id="edge18" class="edge"><title>FacePunch&#45;&gt;Corporate Mercenaries</title>
<path fill="none" stroke="black" d="M2369,-359.697C2369,-351.983 2369,-342.712 2369,-334.112"/>
<polygon fill="black" stroke="black" points="2372.5,-334.104 2369,-324.104 2365.5,-334.104 2372.5,-334.104"/>
</g>
<!-- Persistence SS13 (Old) -->
<g id="node27" class="node"><title>Persistence SS13 (Old)</title>
<ellipse fill="none" stroke="black" cx="1406" cy="-234" rx="95.5831" ry="18"/>
<text text-anchor="middle" x="1406" y="-230.3" font-family="Times New Roman,serif" font-size="14.00">Persistence SS13 (Old)</text>
</g>
<!-- Paradise&#45;&gt;Persistence SS13 (Old) -->
<g id="edge24" class="edge"><title>Paradise&#45;&gt;Persistence SS13 (Old)</title>
<path fill="none" stroke="black" d="M1427.22,-288.055C1424.07,-280.176 1420.24,-270.617 1416.71,-261.794"/>
<polygon fill="black" stroke="black" points="1419.87,-260.26 1412.91,-252.275 1413.37,-262.86 1419.87,-260.26"/>
</g>
<!-- Colonial Marines -->
<g id="node39" class="node"><title>Colonial Marines</title>
<ellipse fill="none" stroke="black" cx="1592" cy="-234" rx="72.2875" ry="18"/>
<text text-anchor="middle" x="1592" y="-230.3" font-family="Times New Roman,serif" font-size="14.00">Colonial Marines</text>
</g>
<!-- BayStation (AGPL)&#45;&gt;Colonial Marines -->
<g id="edge36" class="edge"><title>BayStation (AGPL)&#45;&gt;Colonial Marines</title>
<path fill="none" stroke="black" d="M1907.81,-294.345C1847.42,-284.023 1753.86,-267.673 1673,-252 1667.12,-250.862 1661.02,-249.644 1654.91,-248.402"/>
<polygon fill="black" stroke="black" points="1655.17,-244.883 1644.67,-246.301 1653.76,-251.74 1655.17,-244.883"/>
</g>
<!-- Urist McStation -->
<g id="node40" class="node"><title>Urist McStation</title>
<ellipse fill="none" stroke="black" cx="1750" cy="-234" rx="68.4888" ry="18"/>
<text text-anchor="middle" x="1750" y="-230.3" font-family="Times New Roman,serif" font-size="14.00">Urist McStation</text>
</g>
<!-- BayStation (AGPL)&#45;&gt;Urist McStation -->
<g id="edge37" class="edge"><title>BayStation (AGPL)&#45;&gt;Urist McStation</title>
<path fill="none" stroke="black" d="M1926.27,-290.834C1890.27,-279.429 1839.61,-263.383 1801.83,-251.418"/>
<polygon fill="black" stroke="black" points="1802.62,-247.997 1792.03,-248.314 1800.51,-254.671 1802.62,-247.997"/>
</g>
<!-- Polaris -->
<g id="node41" class="node"><title>Polaris</title>
<ellipse fill="none" stroke="black" cx="1872" cy="-234" rx="35.9954" ry="18"/>
<text text-anchor="middle" x="1872" y="-230.3" font-family="Times New Roman,serif" font-size="14.00">Polaris</text>
</g>
<!-- BayStation (AGPL)&#45;&gt;Polaris -->
<g id="edge38" class="edge"><title>BayStation (AGPL)&#45;&gt;Polaris</title>
<path fill="none" stroke="black" d="M1947.78,-288.588C1933.64,-278.589 1915.47,-265.739 1900.46,-255.129"/>
<polygon fill="black" stroke="black" points="1902.23,-252.094 1892.05,-249.179 1898.19,-257.81 1902.23,-252.094"/>
</g>
<!-- CEV Eris -->
<g id="node42" class="node"><title>CEV Eris</title>
<ellipse fill="none" stroke="black" cx="1971" cy="-234" rx="45.4919" ry="18"/>
<text text-anchor="middle" x="1971" y="-230.3" font-family="Times New Roman,serif" font-size="14.00">CEV Eris</text>
</g>
<!-- BayStation (AGPL)&#45;&gt;CEV Eris -->
<g id="edge39" class="edge"><title>BayStation (AGPL)&#45;&gt;CEV Eris</title>
<path fill="none" stroke="black" d="M1971,-287.697C1971,-279.983 1971,-270.712 1971,-262.112"/>
<polygon fill="black" stroke="black" points="1974.5,-262.104 1971,-252.104 1967.5,-262.104 1974.5,-262.104"/>
</g>
<!-- Persistence (New) -->
<g id="node43" class="node"><title>Persistence (New)</title>
<ellipse fill="none" stroke="black" cx="2111" cy="-234" rx="76.8869" ry="18"/>
<text text-anchor="middle" x="2111" y="-230.3" font-family="Times New Roman,serif" font-size="14.00">Persistence (New)</text>
</g>
<!-- BayStation (AGPL)&#45;&gt;Persistence (New) -->
<g id="edge40" class="edge"><title>BayStation (AGPL)&#45;&gt;Persistence (New)</title>
<path fill="none" stroke="black" d="M2002.41,-289.291C2022.59,-279.203 2048.98,-266.007 2070.69,-255.151"/>
<polygon fill="black" stroke="black" points="2072.3,-258.26 2079.68,-250.657 2069.17,-251.999 2072.3,-258.26"/>
</g>
<!-- Europa Station -->
<g id="node44" class="node"><title>Europa Station</title>
<ellipse fill="none" stroke="black" cx="2271" cy="-234" rx="64.9885" ry="18"/>
<text text-anchor="middle" x="2271" y="-230.3" font-family="Times New Roman,serif" font-size="14.00">Europa Station</text>
</g>
<!-- BayStation (AGPL)&#45;&gt;Europa Station -->
<g id="edge41" class="edge"><title>BayStation (AGPL)&#45;&gt;Europa Station</title>
<path fill="none" stroke="black" d="M2025.32,-292.324C2078.41,-279.935 2158.95,-261.144 2213.2,-248.486"/>
<polygon fill="black" stroke="black" points="2214.07,-251.877 2223.01,-246.196 2212.48,-245.06 2214.07,-251.877"/>
</g>
<!-- SCP&#45;13 -->
<g id="node45" class="node"><title>SCP&#45;13</title>
<ellipse fill="none" stroke="black" cx="2394" cy="-234" rx="39.7935" ry="18"/>
<text text-anchor="middle" x="2394" y="-230.3" font-family="Times New Roman,serif" font-size="14.00">SCP&#45;13</text>
</g>
<!-- BayStation (AGPL)&#45;&gt;SCP&#45;13 -->
<g id="edge42" class="edge"><title>BayStation (AGPL)&#45;&gt;SCP&#45;13</title>
<path fill="none" stroke="black" d="M2046.66,-298.604C2122.79,-291.162 2243.17,-276.634 2345,-252 2348.33,-251.192 2351.77,-250.247 2355.19,-249.225"/>
<polygon fill="black" stroke="black" points="2356.27,-252.555 2364.73,-246.184 2354.14,-245.886 2356.27,-252.555"/>
</g>
<!-- Halo: Space Station Evolved -->
<g id="node46" class="node"><title>Halo: Space Station Evolved</title>
<ellipse fill="none" stroke="black" cx="2566" cy="-234" rx="114.28" ry="18"/>
<text text-anchor="middle" x="2566" y="-230.3" font-family="Times New Roman,serif" font-size="14.00">Halo: Space Station Evolved</text>
</g>
<!-- BayStation (AGPL)&#45;&gt;Halo: Space Station Evolved -->
<g id="edge43" class="edge"><title>BayStation (AGPL)&#45;&gt;Halo: Space Station Evolved</title>
<path fill="none" stroke="black" d="M2043.84,-297.404C2136.61,-287.594 2301.86,-269.675 2443,-252 2453.05,-250.741 2463.55,-249.372 2474,-247.975"/>
<polygon fill="black" stroke="black" points="2474.55,-251.433 2483.99,-246.63 2473.61,-244.496 2474.55,-251.433"/>
</g>
<!-- Deep Space 13 -->
<g id="node38" class="node"><title>Deep Space 13</title>
<ellipse fill="none" stroke="black" cx="1200" cy="-234" rx="65.7887" ry="18"/>
<text text-anchor="middle" x="1200" y="-230.3" font-family="Times New Roman,serif" font-size="14.00">Deep Space 13</text>
</g>
<!-- Star Trek 13&#45;&gt;Deep Space 13 -->
<g id="edge35" class="edge"><title>Star Trek 13&#45;&gt;Deep Space 13</title>
<path fill="none" stroke="red" d="M1200,-287.697C1200,-279.983 1200,-270.712 1200,-262.112"/>
<polygon fill="red" stroke="red" points="1203.5,-262.104 1200,-252.104 1196.5,-262.104 1203.5,-262.104"/>
</g>
<!-- TGMC -->
<g id="node47" class="node"><title>TGMC</title>
<ellipse fill="none" stroke="black" cx="1592" cy="-162" rx="37.8943" ry="18"/>
<text text-anchor="middle" x="1592" y="-158.3" font-family="Times New Roman,serif" font-size="14.00">TGMC</text>
</g>
<!-- Colonial Marines&#45;&gt;TGMC -->
<g id="edge44" class="edge"><title>Colonial Marines&#45;&gt;TGMC</title>
<path fill="none" stroke="black" d="M1592,-215.697C1592,-207.983 1592,-198.712 1592,-190.112"/>
<polygon fill="black" stroke="black" points="1595.5,-190.104 1592,-180.104 1588.5,-190.104 1595.5,-190.104"/>
</g>
<!-- V.O.R.E. Station -->
<g id="node51" class="node"><title>V.O.R.E. Station</title>
<ellipse fill="none" stroke="black" cx="1721" cy="-162" rx="73.387" ry="18"/>
<text text-anchor="middle" x="1721" y="-158.3" font-family="Times New Roman,serif" font-size="14.00">V.O.R.E. Station</text>
</g>
<!-- Polaris&#45;&gt;V.O.R.E. Station -->
<g id="edge48" class="edge"><title>Polaris&#45;&gt;V.O.R.E. Station</title>
<path fill="none" stroke="black" d="M1846.38,-221.125C1823.57,-210.553 1789.78,-194.885 1763.01,-182.479"/>
<polygon fill="black" stroke="black" points="1764.42,-179.271 1753.87,-178.241 1761.47,-185.622 1764.42,-179.271"/>
</g>
<!-- World Server -->
<g id="node54" class="node"><title>World Server</title>
<ellipse fill="none" stroke="black" cx="1872" cy="-162" rx="59.5901" ry="18"/>
<text text-anchor="middle" x="1872" y="-158.3" font-family="Times New Roman,serif" font-size="14.00">World Server</text>
</g>
<!-- Polaris&#45;&gt;World Server -->
<g id="edge51" class="edge"><title>Polaris&#45;&gt;World Server</title>
<path fill="none" stroke="black" d="M1872,-215.697C1872,-207.983 1872,-198.712 1872,-190.112"/>
<polygon fill="black" stroke="black" points="1875.5,-190.104 1872,-180.104 1868.5,-190.104 1875.5,-190.104"/>
</g>
<!-- InterStation&#45;Two -->
<g id="node48" class="node"><title>InterStation&#45;Two</title>
<ellipse fill="none" stroke="black" cx="2023" cy="-162" rx="72.5877" ry="18"/>
<text text-anchor="middle" x="2023" y="-158.3" font-family="Times New Roman,serif" font-size="14.00">InterStation&#45;Two</text>
</g>
<!-- CEV Eris&#45;&gt;InterStation&#45;Two -->
<g id="edge45" class="edge"><title>CEV Eris&#45;&gt;InterStation&#45;Two</title>
<path fill="none" stroke="black" d="M1983.32,-216.411C1989.57,-207.992 1997.3,-197.585 2004.27,-188.201"/>
<polygon fill="black" stroke="black" points="2007.25,-190.071 2010.4,-179.956 2001.63,-185.897 2007.25,-190.071"/>
</g>
<!-- Lebensraum -->
<g id="node49" class="node"><title>Lebensraum</title>
<ellipse fill="none" stroke="black" cx="2023" cy="-90" rx="55.4913" ry="18"/>
<text text-anchor="middle" x="2023" y="-86.3" font-family="Times New Roman,serif" font-size="14.00">Lebensraum</text>
</g>
<!-- InterStation&#45;Two&#45;&gt;Lebensraum -->
<g id="edge46" class="edge"><title>InterStation&#45;Two&#45;&gt;Lebensraum</title>
<path fill="none" stroke="black" d="M2023,-143.697C2023,-135.983 2023,-126.712 2023,-118.112"/>
<polygon fill="black" stroke="black" points="2026.5,-118.104 2023,-108.104 2019.5,-118.104 2026.5,-118.104"/>
</g>
<!-- Civilization 13 -->
<g id="node50" class="node"><title>Civilization 13</title>
<ellipse fill="none" stroke="black" cx="2023" cy="-18" rx="61.99" ry="18"/>
<text text-anchor="middle" x="2023" y="-14.3" font-family="Times New Roman,serif" font-size="14.00">Civilization 13</text>
</g>
<!-- Lebensraum&#45;&gt;Civilization 13 -->
<g id="edge47" class="edge"><title>Lebensraum&#45;&gt;Civilization 13</title>
<path fill="none" stroke="black" d="M2023,-71.6966C2023,-63.9827 2023,-54.7125 2023,-46.1124"/>
<polygon fill="black" stroke="black" points="2026.5,-46.1043 2023,-36.1043 2019.5,-46.1044 2026.5,-46.1043"/>
</g>
<!-- Chompers -->
<g id="node52" class="node"><title>Chompers</title>
<ellipse fill="none" stroke="black" cx="1669" cy="-90" rx="48.9926" ry="18"/>
<text text-anchor="middle" x="1669" y="-86.3" font-family="Times New Roman,serif" font-size="14.00">Chompers</text>
</g>
<!-- V.O.R.E. Station&#45;&gt;Chompers -->
<g id="edge49" class="edge"><title>V.O.R.E. Station&#45;&gt;Chompers</title>
<path fill="none" stroke="black" d="M1708.41,-144.055C1702.15,-135.629 1694.46,-125.28 1687.54,-115.966"/>
<polygon fill="black" stroke="black" points="1690.24,-113.729 1681.47,-107.789 1684.62,-117.904 1690.24,-113.729"/>
</g>
<!-- AEIOU -->
<g id="node53" class="node"><title>AEIOU</title>
<ellipse fill="none" stroke="black" cx="1774" cy="-90" rx="38.1938" ry="18"/>
<text text-anchor="middle" x="1774" y="-86.3" font-family="Times New Roman,serif" font-size="14.00">AEIOU</text>
</g>
<!-- V.O.R.E. Station&#45;&gt;AEIOU -->
<g id="edge50" class="edge"><title>V.O.R.E. Station&#45;&gt;AEIOU</title>
<path fill="none" stroke="black" d="M1733.83,-144.055C1740.3,-135.505 1748.27,-124.975 1755.4,-115.556"/>
<polygon fill="black" stroke="black" points="1758.4,-117.392 1761.65,-107.307 1752.82,-113.167 1758.4,-117.392"/>
</g>
<!-- Eclipse Station -->
<g id="node55" class="node"><title>Eclipse Station</title>
<ellipse fill="none" stroke="black" cx="1774" cy="-18" rx="64.9885" ry="18"/>
<text text-anchor="middle" x="1774" y="-14.3" font-family="Times New Roman,serif" font-size="14.00">Eclipse Station</text>
</g>
<!-- AEIOU&#45;&gt;Eclipse Station -->
<g id="edge52" class="edge"><title>AEIOU&#45;&gt;Eclipse Station</title>
<path fill="none" stroke="red" d="M1774,-71.6966C1774,-63.9827 1774,-54.7125 1774,-46.1124"/>
<polygon fill="red" stroke="red" points="1777.5,-46.1043 1774,-36.1043 1770.5,-46.1044 1777.5,-46.1043"/>
</g>
</g>
</svg>
