<?xml version="1.0" encoding="UTF-8" standalone="no"?>
<!DOCTYPE svg PUBLIC "-//W3C//DTD SVG 1.1//EN"
 "http://www.w3.org/Graphics/SVG/1.1/DTD/svg11.dtd">
<!-- Generated by graphviz version 2.38.0 (20140413.2041)
 -->
<!-- Title: G Pages: 1 -->
<svg width="2472pt" height="715pt"
 viewBox="0.00 0.00 2472.39 715.00" xmlns="http://www.w3.org/2000/svg" xmlns:xlink="http://www.w3.org/1999/xlink">
<g id="graph0" class="graph" transform="scale(1 1) rotate(0) translate(4 711)">
<title>G</title>
<polygon fill="white" stroke="none" points="-4,4 -4,-711 2468.39,-711 2468.39,4 -4,4"/>
<text text-anchor="middle" x="1232.19" y="-691.8" font-family="Times New Roman,serif" font-size="14.00">SS13 Codebases Circa Mid&#45;2019</text>
<!-- Red arrows indicate that the child is not a fork of a parent, rather a new version or rebrand. -->
<g id="node1" class="node"><title>Red arrows indicate that the child is not a fork of a parent, rather a new version or rebrand.</title>
<polygon fill="none" stroke="black" points="1671,-684 1147,-684 1147,-648 1671,-648 1671,-684"/>
<text text-anchor="middle" x="1409" y="-662.3" font-family="Times New Roman,serif" font-size="14.00">Red arrows indicate that the child is not a fork of a parent, rather a new version or rebrand.</text>
</g>
<!-- BurgerStation -->
<g id="node2" class="node"><title>BurgerStation</title>
<ellipse fill="none" stroke="black" cx="1749" cy="-666" rx="60.3893" ry="18"/>
<text text-anchor="middle" x="1749" y="-662.3" font-family="Times New Roman,serif" font-size="14.00">BurgerStation</text>
</g>
<!-- SS13 (Pre Open) -->
<g id="node3" class="node"><title>SS13 (Pre Open)</title>
<ellipse fill="none" stroke="black" cx="1901" cy="-666" rx="73.387" ry="18"/>
<text text-anchor="middle" x="1901" y="-662.3" font-family="Times New Roman,serif" font-size="14.00">SS13 (Pre Open)</text>
</g>
<!-- Source Decompilation (OpenSS13) -->
<g id="node4" class="node"><title>Source Decompilation (OpenSS13)</title>
<ellipse fill="none" stroke="black" cx="1794" cy="-594" rx="139.976" ry="18"/>
<text text-anchor="middle" x="1794" y="-590.3" font-family="Times New Roman,serif" font-size="14.00">Source Decompilation (OpenSS13)</text>
</g>
<!-- SS13 (Pre Open)&#45;&gt;Source Decompilation (OpenSS13) -->
<g id="edge1" class="edge"><title>SS13 (Pre Open)&#45;&gt;Source Decompilation (OpenSS13)</title>
<path fill="none" stroke="black" d="M1876.45,-648.941C1862.08,-639.541 1843.72,-627.533 1827.98,-617.234"/>
<polygon fill="black" stroke="black" points="1829.83,-614.261 1819.55,-611.715 1826,-620.119 1829.83,-614.261"/>
</g>
<!-- Goonstation -->
<g id="node5" class="node"><title>Goonstation</title>
<ellipse fill="none" stroke="black" cx="2008" cy="-594" rx="55.7903" ry="18"/>
<text text-anchor="middle" x="2008" y="-590.3" font-family="Times New Roman,serif" font-size="14.00">Goonstation</text>
</g>
<!-- SS13 (Pre Open)&#45;&gt;Goonstation -->
<g id="edge2" class="edge"><title>SS13 (Pre Open)&#45;&gt;Goonstation</title>
<path fill="none" stroke="black" d="M1925.54,-648.941C1940.43,-639.2 1959.6,-626.659 1975.71,-616.121"/>
<polygon fill="black" stroke="black" points="1977.85,-618.907 1984.3,-610.503 1974.01,-613.049 1977.85,-618.907"/>
</g>
<!-- BayStation OpenSS13 -->
<g id="node6" class="node"><title>BayStation OpenSS13</title>
<ellipse fill="none" stroke="black" cx="1794" cy="-522" rx="92.0841" ry="18"/>
<text text-anchor="middle" x="1794" y="-518.3" font-family="Times New Roman,serif" font-size="14.00">BayStation OpenSS13</text>
</g>
<!-- Source Decompilation (OpenSS13)&#45;&gt;BayStation OpenSS13 -->
<g id="edge3" class="edge"><title>Source Decompilation (OpenSS13)&#45;&gt;BayStation OpenSS13</title>
<path fill="none" stroke="black" d="M1794,-575.697C1794,-567.983 1794,-558.712 1794,-550.112"/>
<polygon fill="black" stroke="black" points="1797.5,-550.104 1794,-540.104 1790.5,-550.104 1797.5,-550.104"/>
</g>
<!-- Revision 4407 (r4407) -->
<g id="node7" class="node"><title>Revision 4407 (r4407)</title>
<ellipse fill="none" stroke="black" cx="2001" cy="-522" rx="90.9839" ry="18"/>
<text text-anchor="middle" x="2001" y="-518.3" font-family="Times New Roman,serif" font-size="14.00">Revision 4407 (r4407)</text>
</g>
<!-- Goonstation&#45;&gt;Revision 4407 (r4407) -->
<g id="edge4" class="edge"><title>Goonstation&#45;&gt;Revision 4407 (r4407)</title>
<path fill="none" stroke="black" d="M2006.27,-575.697C2005.49,-567.983 2004.57,-558.712 2003.71,-550.112"/>
<polygon fill="black" stroke="black" points="2007.18,-549.706 2002.71,-540.104 2000.22,-550.403 2007.18,-549.706"/>
</g>
<!-- Goon 2016 -->
<g id="node8" class="node"><title>Goon 2016</title>
<ellipse fill="none" stroke="black" cx="2162" cy="-522" rx="51.9908" ry="18"/>
<text text-anchor="middle" x="2162" y="-518.3" font-family="Times New Roman,serif" font-size="14.00">Goon 2016</text>
</g>
<!-- Goonstation&#45;&gt;Goon 2016 -->
<g id="edge5" class="edge"><title>Goonstation&#45;&gt;Goon 2016</title>
<path fill="none" stroke="black" d="M2039.16,-578.834C2063.19,-567.911 2096.59,-552.732 2122.49,-540.957"/>
<polygon fill="black" stroke="black" points="2124.01,-544.111 2131.66,-536.787 2121.11,-537.738 2124.01,-544.111"/>
</g>
<!-- /tg/Station (Pre&#45;AGPL) -->
<g id="node9" class="node"><title>/tg/Station (Pre&#45;AGPL)</title>
<ellipse fill="none" stroke="black" cx="1821" cy="-450" rx="94.7833" ry="18"/>
<text text-anchor="middle" x="1821" y="-446.3" font-family="Times New Roman,serif" font-size="14.00">/tg/Station (Pre&#45;AGPL)</text>
</g>
<!-- Revision 4407 (r4407)&#45;&gt;/tg/Station (Pre&#45;AGPL) -->
<g id="edge6" class="edge"><title>Revision 4407 (r4407)&#45;&gt;/tg/Station (Pre&#45;AGPL)</title>
<path fill="none" stroke="black" d="M1961.49,-505.638C1934.62,-495.189 1898.87,-481.286 1870.16,-470.12"/>
<polygon fill="black" stroke="black" points="1871.3,-466.809 1860.72,-466.447 1868.77,-473.333 1871.3,-466.809"/>
</g>
<!-- BayStation (Luna) -->
<g id="node10" class="node"><title>BayStation (Luna)</title>
<ellipse fill="none" stroke="black" cx="2180" cy="-450" rx="76.8869" ry="18"/>
<text text-anchor="middle" x="2180" y="-446.3" font-family="Times New Roman,serif" font-size="14.00">BayStation (Luna)</text>
</g>
<!-- Revision 4407 (r4407)&#45;&gt;BayStation (Luna) -->
<g id="edge7" class="edge"><title>Revision 4407 (r4407)&#45;&gt;BayStation (Luna)</title>
<path fill="none" stroke="black" d="M2040.28,-505.638C2067.55,-494.972 2104.03,-480.707 2132.87,-469.428"/>
<polygon fill="black" stroke="black" points="2134.3,-472.628 2142.34,-465.727 2131.75,-466.109 2134.3,-472.628"/>
</g>
<!-- /tg/Station (AGPL) -->
<g id="node12" class="node"><title>/tg/Station (AGPL)</title>
<ellipse fill="none" stroke="black" cx="587.995" cy="-378" rx="79.8859" ry="18"/>
<text text-anchor="middle" x="587.995" y="-374.3" font-family="Times New Roman,serif" font-size="14.00">/tg/Station (AGPL)</text>
</g>
<!-- /tg/Station (Pre&#45;AGPL)&#45;&gt;/tg/Station (AGPL) -->
<g id="edge9" class="edge"><title>/tg/Station (Pre&#45;AGPL)&#45;&gt;/tg/Station (AGPL)</title>
<path fill="none" stroke="red" d="M1731.33,-443.909C1502.65,-430.927 899.888,-396.707 674.593,-383.916"/>
<polygon fill="red" stroke="red" points="674.658,-380.414 664.476,-383.342 674.261,-387.403 674.658,-380.414"/>
</g>
<!-- BayStation (GPL) -->
<g id="node13" class="node"><title>BayStation (GPL)</title>
<ellipse fill="none" stroke="black" cx="1355" cy="-378" rx="76.0865" ry="18"/>
<text text-anchor="middle" x="1355" y="-374.3" font-family="Times New Roman,serif" font-size="14.00">BayStation (GPL)</text>
</g>
<!-- /tg/Station (Pre&#45;AGPL)&#45;&gt;BayStation (GPL) -->
<g id="edge10" class="edge"><title>/tg/Station (Pre&#45;AGPL)&#45;&gt;BayStation (GPL)</title>
<path fill="none" stroke="black" d="M1743.44,-439.577C1666.31,-429.885 1544.69,-413.735 1440,-396 1433.67,-394.928 1427.09,-393.741 1420.51,-392.507"/>
<polygon fill="black" stroke="black" points="1420.71,-388.982 1410.23,-390.54 1419.4,-395.857 1420.71,-388.982"/>
</g>
<!-- Old HippieStation -->
<g id="node14" class="node"><title>Old HippieStation</title>
<ellipse fill="none" stroke="black" cx="1525" cy="-378" rx="76.0865" ry="18"/>
<text text-anchor="middle" x="1525" y="-374.3" font-family="Times New Roman,serif" font-size="14.00">Old HippieStation</text>
</g>
<!-- /tg/Station (Pre&#45;AGPL)&#45;&gt;Old HippieStation -->
<g id="edge11" class="edge"><title>/tg/Station (Pre&#45;AGPL)&#45;&gt;Old HippieStation</title>
<path fill="none" stroke="black" d="M1763.92,-435.503C1713.1,-423.485 1638.93,-405.944 1586.74,-393.602"/>
<polygon fill="black" stroke="black" points="1587.47,-390.179 1576.94,-391.283 1585.86,-396.991 1587.47,-390.179"/>
</g>
<!-- Old YogStation -->
<g id="node15" class="node"><title>Old YogStation</title>
<ellipse fill="none" stroke="black" cx="1687" cy="-378" rx="67.6881" ry="18"/>
<text text-anchor="middle" x="1687" y="-374.3" font-family="Times New Roman,serif" font-size="14.00">Old YogStation</text>
</g>
<!-- /tg/Station (Pre&#45;AGPL)&#45;&gt;Old YogStation -->
<g id="edge12" class="edge"><title>/tg/Station (Pre&#45;AGPL)&#45;&gt;Old YogStation</title>
<path fill="none" stroke="black" d="M1790.25,-432.941C1770.96,-422.86 1745.91,-409.779 1725.33,-399.023"/>
<polygon fill="black" stroke="black" points="1726.7,-395.793 1716.22,-394.264 1723.46,-401.997 1726.7,-395.793"/>
</g>
<!-- NTStation -->
<g id="node16" class="node"><title>NTStation</title>
<ellipse fill="none" stroke="black" cx="1821" cy="-378" rx="48.1917" ry="18"/>
<text text-anchor="middle" x="1821" y="-374.3" font-family="Times New Roman,serif" font-size="14.00">NTStation</text>
</g>
<!-- /tg/Station (Pre&#45;AGPL)&#45;&gt;NTStation -->
<g id="edge13" class="edge"><title>/tg/Station (Pre&#45;AGPL)&#45;&gt;NTStation</title>
<path fill="none" stroke="black" d="M1821,-431.697C1821,-423.983 1821,-414.712 1821,-406.112"/>
<polygon fill="black" stroke="black" points="1824.5,-406.104 1821,-396.104 1817.5,-406.104 1824.5,-406.104"/>
</g>
<!-- Traitor Death Match -->
<g id="node17" class="node"><title>Traitor Death Match</title>
<ellipse fill="none" stroke="black" cx="1972" cy="-378" rx="84.485" ry="18"/>
<text text-anchor="middle" x="1972" y="-374.3" font-family="Times New Roman,serif" font-size="14.00">Traitor Death Match</text>
</g>
<!-- /tg/Station (Pre&#45;AGPL)&#45;&gt;Traitor Death Match -->
<g id="edge14" class="edge"><title>/tg/Station (Pre&#45;AGPL)&#45;&gt;Traitor Death Match</title>
<path fill="none" stroke="black" d="M1855.26,-433.116C1877.13,-422.976 1905.67,-409.749 1929.05,-398.91"/>
<polygon fill="black" stroke="black" points="1930.79,-401.961 1938.39,-394.58 1927.84,-395.611 1930.79,-401.961"/>
</g>
<!-- Archangel -->
<g id="node18" class="node"><title>Archangel</title>
<ellipse fill="none" stroke="black" cx="2122" cy="-378" rx="47.3916" ry="18"/>
<text text-anchor="middle" x="2122" y="-374.3" font-family="Times New Roman,serif" font-size="14.00">Archangel</text>
</g>
<!-- /tg/Station (Pre&#45;AGPL)&#45;&gt;Archangel -->
<g id="edge15" class="edge"><title>/tg/Station (Pre&#45;AGPL)&#45;&gt;Archangel</title>
<path fill="none" stroke="black" d="M1884.5,-436.583C1933.93,-426.587 2004.12,-411.665 2065,-396 2068.82,-395.015 2072.78,-393.944 2076.75,-392.836"/>
<polygon fill="black" stroke="black" points="2077.89,-396.149 2086.54,-390.029 2075.96,-389.42 2077.89,-396.149"/>
</g>
<!-- FacePunch -->
<g id="node19" class="node"><title>FacePunch</title>
<ellipse fill="none" stroke="black" cx="2239" cy="-378" rx="51.1914" ry="18"/>
<text text-anchor="middle" x="2239" y="-374.3" font-family="Times New Roman,serif" font-size="14.00">FacePunch</text>
</g>
<!-- /tg/Station (Pre&#45;AGPL)&#45;&gt;FacePunch -->
<g id="edge16" class="edge"><title>/tg/Station (Pre&#45;AGPL)&#45;&gt;FacePunch</title>
<path fill="none" stroke="black" d="M1900.55,-440.068C1973.24,-431.227 2083.46,-416.109 2178,-396 2182.35,-395.074 2186.85,-394.017 2191.34,-392.891"/>
<polygon fill="black" stroke="black" points="2192.31,-396.256 2201.1,-390.346 2190.55,-389.482 2192.31,-396.256"/>
</g>
<!-- Lifeweb -->
<g id="node11" class="node"><title>Lifeweb</title>
<ellipse fill="none" stroke="black" cx="2349" cy="-378" rx="40.0939" ry="18"/>
<text text-anchor="middle" x="2349" y="-374.3" font-family="Times New Roman,serif" font-size="14.00">Lifeweb</text>
</g>
<!-- BayStation (Luna)&#45;&gt;Lifeweb -->
<g id="edge8" class="edge"><title>BayStation (Luna)&#45;&gt;Lifeweb</title>
<path fill="none" stroke="black" d="M2216.25,-433.983C2244.1,-422.448 2282.46,-406.557 2310.79,-394.825"/>
<polygon fill="black" stroke="black" points="2312.46,-397.923 2320.36,-390.862 2309.78,-391.456 2312.46,-397.923"/>
</g>
<!-- YogStation -->
<g id="node27" class="node"><title>YogStation</title>
<ellipse fill="none" stroke="black" cx="51.9954" cy="-306" rx="51.9908" ry="18"/>
<text text-anchor="middle" x="51.9954" y="-302.3" font-family="Times New Roman,serif" font-size="14.00">YogStation</text>
</g>
<!-- /tg/Station (AGPL)&#45;&gt;YogStation -->
<g id="edge24" class="edge"><title>/tg/Station (AGPL)&#45;&gt;YogStation</title>
<path fill="none" stroke="black" d="M511.742,-372.281C417.435,-365.577 252.294,-351 112.995,-324 108.565,-323.141 103.987,-322.121 99.4234,-321.013"/>
<polygon fill="black" stroke="black" points="100.072,-317.566 89.5161,-318.475 98.3351,-324.347 100.072,-317.566"/>
</g>
<!-- Fallout 13 -->
<g id="node28" class="node"><title>Fallout 13</title>
<ellipse fill="none" stroke="black" cx="168.995" cy="-306" rx="46.5926" ry="18"/>
<text text-anchor="middle" x="168.995" y="-302.3" font-family="Times New Roman,serif" font-size="14.00">Fallout 13</text>
</g>
<!-- /tg/Station (AGPL)&#45;&gt;Fallout 13 -->
<g id="edge25" class="edge"><title>/tg/Station (AGPL)&#45;&gt;Fallout 13</title>
<path fill="none" stroke="black" d="M516.815,-369.798C443.208,-361.607 325.222,-346.397 224.995,-324 221.145,-323.14 217.175,-322.149 213.209,-321.088"/>
<polygon fill="black" stroke="black" points="214.007,-317.676 203.432,-318.338 212.111,-324.415 214.007,-317.676"/>
</g>
<!-- BeeStation -->
<g id="node29" class="node"><title>BeeStation</title>
<ellipse fill="none" stroke="black" cx="283.995" cy="-306" rx="50.0912" ry="18"/>
<text text-anchor="middle" x="283.995" y="-302.3" font-family="Times New Roman,serif" font-size="14.00">BeeStation</text>
</g>
<!-- /tg/Station (AGPL)&#45;&gt;BeeStation -->
<g id="edge26" class="edge"><title>/tg/Station (AGPL)&#45;&gt;BeeStation</title>
<path fill="none" stroke="black" d="M529.822,-365.567C480.018,-355.505 406.506,-340 342.995,-324 339.151,-323.032 335.179,-321.986 331.197,-320.906"/>
<polygon fill="black" stroke="black" points="331.918,-317.473 321.346,-318.174 330.047,-324.219 331.918,-317.473"/>
</g>
<!-- HippieStation -->
<g id="node30" class="node"><title>HippieStation</title>
<ellipse fill="none" stroke="black" cx="411.995" cy="-306" rx="59.5901" ry="18"/>
<text text-anchor="middle" x="411.995" y="-302.3" font-family="Times New Roman,serif" font-size="14.00">HippieStation</text>
</g>
<!-- /tg/Station (AGPL)&#45;&gt;HippieStation -->
<g id="edge27" class="edge"><title>/tg/Station (AGPL)&#45;&gt;HippieStation</title>
<path fill="none" stroke="black" d="M550.239,-361.983C522.652,-351.011 485.158,-336.099 456.177,-324.572"/>
<polygon fill="black" stroke="black" points="457.287,-321.247 446.702,-320.804 454.7,-327.752 457.287,-321.247"/>
</g>
<!-- Citadel -->
<g id="node31" class="node"><title>Citadel</title>
<ellipse fill="none" stroke="black" cx="525.995" cy="-306" rx="36.2938" ry="18"/>
<text text-anchor="middle" x="525.995" y="-302.3" font-family="Times New Roman,serif" font-size="14.00">Citadel</text>
</g>
<!-- /tg/Station (AGPL)&#45;&gt;Citadel -->
<g id="edge28" class="edge"><title>/tg/Station (AGPL)&#45;&gt;Citadel</title>
<path fill="none" stroke="black" d="M572.987,-360.055C565.147,-351.204 555.429,-340.231 546.868,-330.566"/>
<polygon fill="black" stroke="black" points="549.266,-327.995 540.016,-322.829 544.026,-332.636 549.266,-327.995"/>
</g>
<!-- Toolbox Station -->
<g id="node32" class="node"><title>Toolbox Station</title>
<ellipse fill="none" stroke="black" cx="650.995" cy="-306" rx="70.3881" ry="18"/>
<text text-anchor="middle" x="650.995" y="-302.3" font-family="Times New Roman,serif" font-size="14.00">Toolbox Station</text>
</g>
<!-- /tg/Station (AGPL)&#45;&gt;Toolbox Station -->
<g id="edge29" class="edge"><title>/tg/Station (AGPL)&#45;&gt;Toolbox Station</title>
<path fill="none" stroke="black" d="M603.246,-360.055C610.984,-351.457 620.524,-340.857 629.038,-331.397"/>
<polygon fill="black" stroke="black" points="631.797,-333.563 635.885,-323.789 626.594,-328.881 631.797,-333.563"/>
</g>
<!-- FulpStation -->
<g id="node33" class="node"><title>FulpStation</title>
<ellipse fill="none" stroke="black" cx="791.995" cy="-306" rx="52.7911" ry="18"/>
<text text-anchor="middle" x="791.995" y="-302.3" font-family="Times New Roman,serif" font-size="14.00">FulpStation</text>
</g>
<!-- /tg/Station (AGPL)&#45;&gt;FulpStation -->
<g id="edge30" class="edge"><title>/tg/Station (AGPL)&#45;&gt;FulpStation</title>
<path fill="none" stroke="black" d="M630.264,-362.496C664.148,-350.869 711.611,-334.583 746.356,-322.661"/>
<polygon fill="black" stroke="black" points="747.925,-325.822 756.248,-319.266 745.653,-319.201 747.925,-325.822"/>
</g>
<!-- OracleStation -->
<g id="node34" class="node"><title>OracleStation</title>
<ellipse fill="none" stroke="black" cx="921.995" cy="-306" rx="59.5901" ry="18"/>
<text text-anchor="middle" x="921.995" y="-302.3" font-family="Times New Roman,serif" font-size="14.00">OracleStation</text>
</g>
<!-- /tg/Station (AGPL)&#45;&gt;OracleStation -->
<g id="edge31" class="edge"><title>/tg/Station (AGPL)&#45;&gt;OracleStation</title>
<path fill="none" stroke="black" d="M647.595,-365.978C701.619,-355.785 783.355,-339.858 853.995,-324 858.648,-322.955 863.47,-321.832 868.3,-320.679"/>
<polygon fill="black" stroke="black" points="869.28,-324.043 878.174,-318.286 867.631,-317.24 869.28,-324.043"/>
</g>
<!-- Sunset Station -->
<g id="node35" class="node"><title>Sunset Station</title>
<ellipse fill="none" stroke="black" cx="1063" cy="-306" rx="63.0888" ry="18"/>
<text text-anchor="middle" x="1063" y="-302.3" font-family="Times New Roman,serif" font-size="14.00">Sunset Station</text>
</g>
<!-- /tg/Station (AGPL)&#45;&gt;Sunset Station -->
<g id="edge32" class="edge"><title>/tg/Station (AGPL)&#45;&gt;Sunset Station</title>
<path fill="none" stroke="black" d="M659.313,-369.825C740.122,-361.186 875.6,-345.155 990.995,-324 996.364,-323.016 1001.94,-321.89 1007.49,-320.696"/>
<polygon fill="black" stroke="black" points="1008.43,-324.073 1017.44,-318.491 1006.91,-317.239 1008.43,-324.073"/>
</g>
<!-- /vg/Station -->
<g id="node21" class="node"><title>/vg/Station</title>
<ellipse fill="none" stroke="black" cx="1194" cy="-306" rx="50.0912" ry="18"/>
<text text-anchor="middle" x="1194" y="-302.3" font-family="Times New Roman,serif" font-size="14.00">/vg/Station</text>
</g>
<!-- BayStation (GPL)&#45;&gt;/vg/Station -->
<g id="edge18" class="edge"><title>BayStation (GPL)&#45;&gt;/vg/Station</title>
<path fill="none" stroke="black" d="M1320.06,-361.811C1294.69,-350.781 1260.32,-335.837 1233.87,-324.339"/>
<polygon fill="black" stroke="black" points="1235.09,-321.05 1224.52,-320.272 1232.3,-327.469 1235.09,-321.05"/>
</g>
<!-- Paradise -->
<g id="node22" class="node"><title>Paradise</title>
<ellipse fill="none" stroke="black" cx="1304" cy="-306" rx="41.6928" ry="18"/>
<text text-anchor="middle" x="1304" y="-302.3" font-family="Times New Roman,serif" font-size="14.00">Paradise</text>
</g>
<!-- BayStation (GPL)&#45;&gt;Paradise -->
<g id="edge19" class="edge"><title>BayStation (GPL)&#45;&gt;Paradise</title>
<path fill="none" stroke="black" d="M1342.65,-360.055C1336.42,-351.505 1328.75,-340.975 1321.89,-331.556"/>
<polygon fill="black" stroke="black" points="1324.59,-329.328 1315.88,-323.307 1318.94,-333.45 1324.59,-329.328"/>
</g>
<!-- Tau Ceti -->
<g id="node23" class="node"><title>Tau Ceti</title>
<ellipse fill="none" stroke="black" cx="1406" cy="-306" rx="42.4939" ry="18"/>
<text text-anchor="middle" x="1406" y="-302.3" font-family="Times New Roman,serif" font-size="14.00">Tau Ceti</text>
</g>
<!-- BayStation (GPL)&#45;&gt;Tau Ceti -->
<g id="edge20" class="edge"><title>BayStation (GPL)&#45;&gt;Tau Ceti</title>
<path fill="none" stroke="black" d="M1367.34,-360.055C1373.57,-351.505 1381.24,-340.975 1388.1,-331.556"/>
<polygon fill="black" stroke="black" points="1391.05,-333.45 1394.11,-323.307 1385.4,-329.328 1391.05,-333.45"/>
</g>
<!-- Aurora -->
<g id="node24" class="node"><title>Aurora</title>
<ellipse fill="none" stroke="black" cx="1503" cy="-306" rx="36.2938" ry="18"/>
<text text-anchor="middle" x="1503" y="-302.3" font-family="Times New Roman,serif" font-size="14.00">Aurora</text>
</g>
<!-- BayStation (GPL)&#45;&gt;Aurora -->
<g id="edge21" class="edge"><title>BayStation (GPL)&#45;&gt;Aurora</title>
<path fill="none" stroke="black" d="M1387.47,-361.638C1411.36,-350.34 1443.78,-335.005 1468.2,-323.457"/>
<polygon fill="black" stroke="black" points="1469.92,-326.516 1477.46,-319.076 1466.93,-320.188 1469.92,-326.516"/>
</g>
<!-- BayStation (AGPL) -->
<g id="node25" class="node"><title>BayStation (AGPL)</title>
<ellipse fill="none" stroke="black" cx="1755" cy="-306" rx="82.5854" ry="18"/>
<text text-anchor="middle" x="1755" y="-302.3" font-family="Times New Roman,serif" font-size="14.00">BayStation (AGPL)</text>
</g>
<!-- BayStation (GPL)&#45;&gt;BayStation (AGPL) -->
<g id="edge22" class="edge"><title>BayStation (GPL)&#45;&gt;BayStation (AGPL)</title>
<path fill="none" stroke="red" d="M1410.73,-365.599C1420.47,-363.678 1430.52,-361.744 1440,-360 1522.05,-344.895 1616.46,-329.239 1680.35,-318.896"/>
<polygon fill="red" stroke="red" points="1681.03,-322.333 1690.34,-317.283 1679.91,-315.423 1681.03,-322.333"/>
</g>
<!-- Corporate Mercenaries -->
<g id="node20" class="node"><title>Corporate Mercenaries</title>
<ellipse fill="none" stroke="black" cx="2239" cy="-306" rx="94.4839" ry="18"/>
<text text-anchor="middle" x="2239" y="-302.3" font-family="Times New Roman,serif" font-size="14.00">Corporate Mercenaries</text>
</g>
<!-- FacePunch&#45;&gt;Corporate Mercenaries -->
<g id="edge17" class="edge"><title>FacePunch&#45;&gt;Corporate Mercenaries</title>
<path fill="none" stroke="black" d="M2239,-359.697C2239,-351.983 2239,-342.712 2239,-334.112"/>
<polygon fill="black" stroke="black" points="2242.5,-334.104 2239,-324.104 2235.5,-334.104 2242.5,-334.104"/>
</g>
<!-- Persistence SS13 (Old) -->
<g id="node26" class="node"><title>Persistence SS13 (Old)</title>
<ellipse fill="none" stroke="black" cx="1190" cy="-234" rx="95.5831" ry="18"/>
<text text-anchor="middle" x="1190" y="-230.3" font-family="Times New Roman,serif" font-size="14.00">Persistence SS13 (Old)</text>
</g>
<!-- Paradise&#45;&gt;Persistence SS13 (Old) -->
<g id="edge23" class="edge"><title>Paradise&#45;&gt;Persistence SS13 (Old)</title>
<path fill="none" stroke="black" d="M1280.93,-290.834C1264.94,-281.016 1243.34,-267.757 1225.21,-256.624"/>
<polygon fill="black" stroke="black" points="1226.98,-253.604 1216.63,-251.354 1223.32,-259.569 1226.98,-253.604"/>
</g>
<!-- Colonial Marines -->
<g id="node36" class="node"><title>Colonial Marines</title>
<ellipse fill="none" stroke="black" cx="1376" cy="-234" rx="72.2875" ry="18"/>
<text text-anchor="middle" x="1376" y="-230.3" font-family="Times New Roman,serif" font-size="14.00">Colonial Marines</text>
</g>
<!-- BayStation (AGPL)&#45;&gt;Colonial Marines -->
<g id="edge33" class="edge"><title>BayStation (AGPL)&#45;&gt;Colonial Marines</title>
<path fill="none" stroke="black" d="M1691.81,-294.345C1631.42,-284.023 1537.86,-267.673 1457,-252 1451.12,-250.862 1445.02,-249.644 1438.91,-248.402"/>
<polygon fill="black" stroke="black" points="1439.17,-244.883 1428.67,-246.301 1437.76,-251.74 1439.17,-244.883"/>
</g>
<!-- Urist McStation -->
<g id="node37" class="node"><title>Urist McStation</title>
<ellipse fill="none" stroke="black" cx="1534" cy="-234" rx="68.4888" ry="18"/>
<text text-anchor="middle" x="1534" y="-230.3" font-family="Times New Roman,serif" font-size="14.00">Urist McStation</text>
</g>
<!-- BayStation (AGPL)&#45;&gt;Urist McStation -->
<g id="edge34" class="edge"><title>BayStation (AGPL)&#45;&gt;Urist McStation</title>
<path fill="none" stroke="black" d="M1710.27,-290.834C1674.27,-279.429 1623.61,-263.383 1585.83,-251.418"/>
<polygon fill="black" stroke="black" points="1586.62,-247.997 1576.03,-248.314 1584.51,-254.671 1586.62,-247.997"/>
</g>
<!-- Polaris -->
<g id="node38" class="node"><title>Polaris</title>
<ellipse fill="none" stroke="black" cx="1656" cy="-234" rx="35.9954" ry="18"/>
<text text-anchor="middle" x="1656" y="-230.3" font-family="Times New Roman,serif" font-size="14.00">Polaris</text>
</g>
<!-- BayStation (AGPL)&#45;&gt;Polaris -->
<g id="edge35" class="edge"><title>BayStation (AGPL)&#45;&gt;Polaris</title>
<path fill="none" stroke="black" d="M1731.78,-288.588C1717.64,-278.589 1699.47,-265.739 1684.46,-255.129"/>
<polygon fill="black" stroke="black" points="1686.23,-252.094 1676.05,-249.179 1682.19,-257.81 1686.23,-252.094"/>
</g>
<!-- CEV Eris -->
<g id="node39" class="node"><title>CEV Eris</title>
<ellipse fill="none" stroke="black" cx="1755" cy="-234" rx="45.4919" ry="18"/>
<text text-anchor="middle" x="1755" y="-230.3" font-family="Times New Roman,serif" font-size="14.00">CEV Eris</text>
</g>
<!-- BayStation (AGPL)&#45;&gt;CEV Eris -->
<g id="edge36" class="edge"><title>BayStation (AGPL)&#45;&gt;CEV Eris</title>
<path fill="none" stroke="black" d="M1755,-287.697C1755,-279.983 1755,-270.712 1755,-262.112"/>
<polygon fill="black" stroke="black" points="1758.5,-262.104 1755,-252.104 1751.5,-262.104 1758.5,-262.104"/>
</g>
<!-- Persistence (New) -->
<g id="node40" class="node"><title>Persistence (New)</title>
<ellipse fill="none" stroke="black" cx="1895" cy="-234" rx="76.8869" ry="18"/>
<text text-anchor="middle" x="1895" y="-230.3" font-family="Times New Roman,serif" font-size="14.00">Persistence (New)</text>
</g>
<!-- BayStation (AGPL)&#45;&gt;Persistence (New) -->
<g id="edge37" class="edge"><title>BayStation (AGPL)&#45;&gt;Persistence (New)</title>
<path fill="none" stroke="black" d="M1786.41,-289.291C1806.59,-279.203 1832.98,-266.007 1854.69,-255.151"/>
<polygon fill="black" stroke="black" points="1856.3,-258.26 1863.68,-250.657 1853.17,-251.999 1856.3,-258.26"/>
</g>
<!-- Europa Station -->
<g id="node41" class="node"><title>Europa Station</title>
<ellipse fill="none" stroke="black" cx="2055" cy="-234" rx="64.9885" ry="18"/>
<text text-anchor="middle" x="2055" y="-230.3" font-family="Times New Roman,serif" font-size="14.00">Europa Station</text>
</g>
<!-- BayStation (AGPL)&#45;&gt;Europa Station -->
<g id="edge38" class="edge"><title>BayStation (AGPL)&#45;&gt;Europa Station</title>
<path fill="none" stroke="black" d="M1809.32,-292.324C1862.41,-279.935 1942.95,-261.144 1997.2,-248.486"/>
<polygon fill="black" stroke="black" points="1998.07,-251.877 2007.01,-246.196 1996.48,-245.06 1998.07,-251.877"/>
</g>
<!-- SCP&#45;13 -->
<g id="node42" class="node"><title>SCP&#45;13</title>
<ellipse fill="none" stroke="black" cx="2178" cy="-234" rx="39.7935" ry="18"/>
<text text-anchor="middle" x="2178" y="-230.3" font-family="Times New Roman,serif" font-size="14.00">SCP&#45;13</text>
</g>
<!-- BayStation (AGPL)&#45;&gt;SCP&#45;13 -->
<g id="edge39" class="edge"><title>BayStation (AGPL)&#45;&gt;SCP&#45;13</title>
<path fill="none" stroke="black" d="M1830.66,-298.604C1906.79,-291.162 2027.17,-276.634 2129,-252 2132.33,-251.192 2135.77,-250.247 2139.19,-249.225"/>
<polygon fill="black" stroke="black" points="2140.27,-252.555 2148.73,-246.184 2138.14,-245.886 2140.27,-252.555"/>
</g>
<!-- Halo: Space Station Evolved -->
<g id="node43" class="node"><title>Halo: Space Station Evolved</title>
<ellipse fill="none" stroke="black" cx="2350" cy="-234" rx="114.28" ry="18"/>
<text text-anchor="middle" x="2350" y="-230.3" font-family="Times New Roman,serif" font-size="14.00">Halo: Space Station Evolved</text>
</g>
<!-- BayStation (AGPL)&#45;&gt;Halo: Space Station Evolved -->
<g id="edge40" class="edge"><title>BayStation (AGPL)&#45;&gt;Halo: Space Station Evolved</title>
<path fill="none" stroke="black" d="M1827.84,-297.404C1920.61,-287.594 2085.86,-269.675 2227,-252 2237.05,-250.741 2247.55,-249.372 2258,-247.975"/>
<polygon fill="black" stroke="black" points="2258.55,-251.433 2267.99,-246.63 2257.61,-244.496 2258.55,-251.433"/>
</g>
<!-- TGMC -->
<g id="node44" class="node"><title>TGMC</title>
<ellipse fill="none" stroke="black" cx="1376" cy="-162" rx="37.8943" ry="18"/>
<text text-anchor="middle" x="1376" y="-158.3" font-family="Times New Roman,serif" font-size="14.00">TGMC</text>
</g>
<!-- Colonial Marines&#45;&gt;TGMC -->
<g id="edge41" class="edge"><title>Colonial Marines&#45;&gt;TGMC</title>
<path fill="none" stroke="black" d="M1376,-215.697C1376,-207.983 1376,-198.712 1376,-190.112"/>
<polygon fill="black" stroke="black" points="1379.5,-190.104 1376,-180.104 1372.5,-190.104 1379.5,-190.104"/>
</g>
<!-- V.O.R.E. Station -->
<g id="node48" class="node"><title>V.O.R.E. Station</title>
<ellipse fill="none" stroke="black" cx="1505" cy="-162" rx="73.387" ry="18"/>
<text text-anchor="middle" x="1505" y="-158.3" font-family="Times New Roman,serif" font-size="14.00">V.O.R.E. Station</text>
</g>
<!-- Polaris&#45;&gt;V.O.R.E. Station -->
<g id="edge45" class="edge"><title>Polaris&#45;&gt;V.O.R.E. Station</title>
<path fill="none" stroke="black" d="M1630.38,-221.125C1607.57,-210.553 1573.78,-194.885 1547.01,-182.479"/>
<polygon fill="black" stroke="black" points="1548.42,-179.271 1537.87,-178.241 1545.47,-185.622 1548.42,-179.271"/>
</g>
<!-- World Server -->
<g id="node51" class="node"><title>World Server</title>
<ellipse fill="none" stroke="black" cx="1656" cy="-162" rx="59.5901" ry="18"/>
<text text-anchor="middle" x="1656" y="-158.3" font-family="Times New Roman,serif" font-size="14.00">World Server</text>
</g>
<!-- Polaris&#45;&gt;World Server -->
<g id="edge48" class="edge"><title>Polaris&#45;&gt;World Server</title>
<path fill="none" stroke="black" d="M1656,-215.697C1656,-207.983 1656,-198.712 1656,-190.112"/>
<polygon fill="black" stroke="black" points="1659.5,-190.104 1656,-180.104 1652.5,-190.104 1659.5,-190.104"/>
</g>
<!-- InterStation&#45;Two -->
<g id="node45" class="node"><title>InterStation&#45;Two</title>
<ellipse fill="none" stroke="black" cx="1807" cy="-162" rx="72.5877" ry="18"/>
<text text-anchor="middle" x="1807" y="-158.3" font-family="Times New Roman,serif" font-size="14.00">InterStation&#45;Two</text>
</g>
<!-- CEV Eris&#45;&gt;InterStation&#45;Two -->
<g id="edge42" class="edge"><title>CEV Eris&#45;&gt;InterStation&#45;Two</title>
<path fill="none" stroke="black" d="M1767.32,-216.411C1773.57,-207.992 1781.3,-197.585 1788.27,-188.201"/>
<polygon fill="black" stroke="black" points="1791.25,-190.071 1794.4,-179.956 1785.63,-185.897 1791.25,-190.071"/>
</g>
<!-- Lebensraum -->
<g id="node46" class="node"><title>Lebensraum</title>
<ellipse fill="none" stroke="black" cx="1807" cy="-90" rx="55.4913" ry="18"/>
<text text-anchor="middle" x="1807" y="-86.3" font-family="Times New Roman,serif" font-size="14.00">Lebensraum</text>
</g>
<!-- InterStation&#45;Two&#45;&gt;Lebensraum -->
<g id="edge43" class="edge"><title>InterStation&#45;Two&#45;&gt;Lebensraum</title>
<path fill="none" stroke="black" d="M1807,-143.697C1807,-135.983 1807,-126.712 1807,-118.112"/>
<polygon fill="black" stroke="black" points="1810.5,-118.104 1807,-108.104 1803.5,-118.104 1810.5,-118.104"/>
</g>
<!-- Civilization 13 -->
<g id="node47" class="node"><title>Civilization 13</title>
<ellipse fill="none" stroke="black" cx="1807" cy="-18" rx="61.99" ry="18"/>
<text text-anchor="middle" x="1807" y="-14.3" font-family="Times New Roman,serif" font-size="14.00">Civilization 13</text>
</g>
<!-- Lebensraum&#45;&gt;Civilization 13 -->
<g id="edge44" class="edge"><title>Lebensraum&#45;&gt;Civilization 13</title>
<path fill="none" stroke="black" d="M1807,-71.6966C1807,-63.9827 1807,-54.7125 1807,-46.1124"/>
<polygon fill="black" stroke="black" points="1810.5,-46.1043 1807,-36.1043 1803.5,-46.1044 1810.5,-46.1043"/>
</g>
<!-- Chompers -->
<g id="node49" class="node"><title>Chompers</title>
<ellipse fill="none" stroke="black" cx="1453" cy="-90" rx="48.9926" ry="18"/>
<text text-anchor="middle" x="1453" y="-86.3" font-family="Times New Roman,serif" font-size="14.00">Chompers</text>
</g>
<!-- V.O.R.E. Station&#45;&gt;Chompers -->
<g id="edge46" class="edge"><title>V.O.R.E. Station&#45;&gt;Chompers</title>
<path fill="none" stroke="black" d="M1492.41,-144.055C1486.15,-135.629 1478.46,-125.28 1471.54,-115.966"/>
<polygon fill="black" stroke="black" points="1474.24,-113.729 1465.47,-107.789 1468.62,-117.904 1474.24,-113.729"/>
</g>
<!-- AEIOU -->
<g id="node50" class="node"><title>AEIOU</title>
<ellipse fill="none" stroke="black" cx="1558" cy="-90" rx="38.1938" ry="18"/>
<text text-anchor="middle" x="1558" y="-86.3" font-family="Times New Roman,serif" font-size="14.00">AEIOU</text>
</g>
<!-- V.O.R.E. Station&#45;&gt;AEIOU -->
<g id="edge47" class="edge"><title>V.O.R.E. Station&#45;&gt;AEIOU</title>
<path fill="none" stroke="black" d="M1517.83,-144.055C1524.3,-135.505 1532.27,-124.975 1539.4,-115.556"/>
<polygon fill="black" stroke="black" points="1542.4,-117.392 1545.65,-107.307 1536.82,-113.167 1542.4,-117.392"/>
</g>
<!-- Eclipse Station -->
<g id="node52" class="node"><title>Eclipse Station</title>
<ellipse fill="none" stroke="black" cx="1558" cy="-18" rx="64.9885" ry="18"/>
<text text-anchor="middle" x="1558" y="-14.3" font-family="Times New Roman,serif" font-size="14.00">Eclipse Station</text>
</g>
<!-- AEIOU&#45;&gt;Eclipse Station -->
<g id="edge49" class="edge"><title>AEIOU&#45;&gt;Eclipse Station</title>
<path fill="none" stroke="red" d="M1558,-71.6966C1558,-63.9827 1558,-54.7125 1558,-46.1124"/>
<polygon fill="red" stroke="red" points="1561.5,-46.1043 1558,-36.1043 1554.5,-46.1044 1561.5,-46.1043"/>
</g>
</g>
</svg>
