<?xml version="1.0" encoding="UTF-8" standalone="no"?><!DOCTYPE svg PUBLIC "-//W3C//DTD SVG 1.1//EN" "http://www.w3.org/Graphics/SVG/1.1/DTD/svg11.dtd"><!-- Generated by graphviz version 2.40.1 (20161225.0304)
 --><!-- Title: G Pages: 1 --><svg xmlns="http://www.w3.org/2000/svg" xmlns:xlink="http://www.w3.org/1999/xlink" width="3127pt" height="717pt" viewBox="0.00 0.00 3127.19 716.80">
<g id="graph0" class="graph" transform="scale(1 1) rotate(0) translate(4 712.8)">
<title>G</title>
<polygon fill="#ffffff" stroke="transparent" points="-4,4 -4,-712.8 3123.1861,-712.8 3123.1861,4 -4,4"/>
<text text-anchor="middle" x="1559.593" y="-692.2" font-family="Times,serif" font-size="14.00" fill="#000000">SS13 Codebases Circa Early 2020</text>
<!-- Red arrows indicate that the child is not a fork of a parent, rather a new version or rebrand. -->
<g id="node1" class="node">
<title>Red arrows indicate that the child is not a fork of a parent, rather a new version or rebrand.</title>
<polygon fill="none" stroke="#000000" points="2476.494,-684 1951.5615,-684 1951.5615,-648 2476.494,-648 2476.494,-684"/>
<text text-anchor="middle" x="2214.0278" y="-661.8" font-family="Times,serif" font-size="14.00" fill="#000000">Red arrows indicate that the child is not a fork of a parent, rather a new version or rebrand.</text>
</g>
<!-- BurgerStation -->
<g id="node2" class="node">
<title>BurgerStation</title>
<ellipse fill="none" stroke="#000000" cx="2559.0278" cy="-666" rx="65.4266" ry="18"/>
<text text-anchor="middle" x="2559.0278" y="-661.8" font-family="Times,serif" font-size="14.00" fill="#000000">BurgerStation</text>
</g>
<!-- SS13 (Pre Open) -->
<g id="node3" class="node">
<title>SS13 (Pre Open)</title>
<ellipse fill="none" stroke="#000000" cx="2719.0278" cy="-666" rx="76.4459" ry="18"/>
<text text-anchor="middle" x="2719.0278" y="-661.8" font-family="Times,serif" font-size="14.00" fill="#000000">SS13 (Pre Open)</text>
</g>
<!-- Source Decompilation (OpenSS13) -->
<g id="node4" class="node">
<title>Source Decompilation (OpenSS13)</title>
<ellipse fill="none" stroke="#000000" cx="2607.0278" cy="-594" rx="147.6178" ry="18"/>
<text text-anchor="middle" x="2607.0278" y="-589.8" font-family="Times,serif" font-size="14.00" fill="#000000">Source Decompilation (OpenSS13)</text>
</g>
<!-- SS13 (Pre Open)&#45;&gt;Source Decompilation (OpenSS13) -->
<g id="edge1" class="edge">
<title>SS13 (Pre Open)-&gt;Source Decompilation (OpenSS13)</title>
<path fill="none" stroke="#000000" d="M2692.4853,-648.937C2677.7487,-639.4635 2659.2075,-627.5441 2643.1648,-617.231"/>
<polygon fill="#000000" stroke="#000000" points="2644.8538,-614.1559 2634.5493,-611.6924 2641.0684,-620.0442 2644.8538,-614.1559"/>
</g>
<!-- Goonstation -->
<g id="node5" class="node">
<title>Goonstation</title>
<ellipse fill="none" stroke="#000000" cx="2831.0278" cy="-594" rx="58.4881" ry="18"/>
<text text-anchor="middle" x="2831.0278" y="-589.8" font-family="Times,serif" font-size="14.00" fill="#000000">Goonstation</text>
</g>
<!-- SS13 (Pre Open)&#45;&gt;Goonstation -->
<g id="edge2" class="edge">
<title>SS13 (Pre Open)-&gt;Goonstation</title>
<path fill="none" stroke="#000000" d="M2745.5702,-648.937C2760.8526,-639.1126 2780.2267,-626.6578 2796.6626,-616.0919"/>
<polygon fill="#000000" stroke="#000000" points="2798.9276,-618.7967 2805.4468,-610.4449 2795.1423,-612.9084 2798.9276,-618.7967"/>
</g>
<!-- BayStation OpenSS13 -->
<g id="node6" class="node">
<title>BayStation OpenSS13</title>
<ellipse fill="none" stroke="#000000" cx="2607.0278" cy="-522" rx="97.8556" ry="18"/>
<text text-anchor="middle" x="2607.0278" y="-517.8" font-family="Times,serif" font-size="14.00" fill="#000000">BayStation OpenSS13</text>
</g>
<!-- Source Decompilation (OpenSS13)&#45;&gt;BayStation OpenSS13 -->
<g id="edge3" class="edge">
<title>Source Decompilation (OpenSS13)-&gt;BayStation OpenSS13</title>
<path fill="none" stroke="#000000" d="M2607.0278,-575.8314C2607.0278,-568.131 2607.0278,-558.9743 2607.0278,-550.4166"/>
<polygon fill="#000000" stroke="#000000" points="2610.5279,-550.4132 2607.0278,-540.4133 2603.5279,-550.4133 2610.5279,-550.4132"/>
</g>
<!-- Revision 4407 (r4407) -->
<g id="node7" class="node">
<title>Revision 4407 (r4407)</title>
<ellipse fill="none" stroke="#000000" cx="2826.0278" cy="-522" rx="98.4448" ry="18"/>
<text text-anchor="middle" x="2826.0278" y="-517.8" font-family="Times,serif" font-size="14.00" fill="#000000">Revision 4407 (r4407)</text>
</g>
<!-- Goonstation&#45;&gt;Revision 4407 (r4407) -->
<g id="edge4" class="edge">
<title>Goonstation-&gt;Revision 4407 (r4407)</title>
<path fill="none" stroke="#000000" d="M2829.766,-575.8314C2829.2313,-568.131 2828.5954,-558.9743 2828.0011,-550.4166"/>
<polygon fill="#000000" stroke="#000000" points="2831.4909,-550.1467 2827.3065,-540.4133 2824.5077,-550.6317 2831.4909,-550.1467"/>
</g>
<!-- Goon 2016 -->
<g id="node8" class="node">
<title>Goon 2016</title>
<ellipse fill="none" stroke="#000000" cx="2997.0278" cy="-522" rx="54.4437" ry="18"/>
<text text-anchor="middle" x="2997.0278" y="-517.8" font-family="Times,serif" font-size="14.00" fill="#000000">Goon 2016</text>
</g>
<!-- Goonstation&#45;&gt;Goon 2016 -->
<g id="edge5" class="edge">
<title>Goonstation-&gt;Goon 2016</title>
<path fill="none" stroke="#000000" d="M2865.0209,-579.256C2890.9002,-568.0312 2926.6828,-552.5111 2954.4656,-540.4607"/>
<polygon fill="#000000" stroke="#000000" points="2956.1483,-543.546 2963.9298,-536.3558 2953.3628,-537.124 2956.1483,-543.546"/>
</g>
<!-- /tg/Station (Pre&#45;AGPL) -->
<g id="node9" class="node">
<title>/tg/Station (Pre-AGPL)</title>
<ellipse fill="none" stroke="#000000" cx="2383.0278" cy="-450" rx="101.3356" ry="18"/>
<text text-anchor="middle" x="2383.0278" y="-445.8" font-family="Times,serif" font-size="14.00" fill="#000000">/tg/Station (Pre-AGPL)</text>
</g>
<!-- Revision 4407 (r4407)&#45;&gt;/tg/Station (Pre&#45;AGPL) -->
<g id="edge6" class="edge">
<title>Revision 4407 (r4407)-&gt;/tg/Station (Pre-AGPL)</title>
<path fill="none" stroke="#000000" d="M2752.378,-510.0298C2674.0837,-497.3048 2550.4319,-477.2079 2468.0511,-463.8187"/>
<polygon fill="#000000" stroke="#000000" points="2468.3967,-460.329 2457.9647,-462.1794 2467.2737,-467.2384 2468.3967,-460.329"/>
</g>
<!-- BayStation (Luna) -->
<g id="node10" class="node">
<title>BayStation (Luna)</title>
<ellipse fill="none" stroke="#000000" cx="2826.0278" cy="-450" rx="82.7838" ry="18"/>
<text text-anchor="middle" x="2826.0278" y="-445.8" font-family="Times,serif" font-size="14.00" fill="#000000">BayStation (Luna)</text>
</g>
<!-- Revision 4407 (r4407)&#45;&gt;BayStation (Luna) -->
<g id="edge7" class="edge">
<title>Revision 4407 (r4407)-&gt;BayStation (Luna)</title>
<path fill="none" stroke="#000000" d="M2826.0278,-503.8314C2826.0278,-496.131 2826.0278,-486.9743 2826.0278,-478.4166"/>
<polygon fill="#000000" stroke="#000000" points="2829.5279,-478.4132 2826.0278,-468.4133 2822.5279,-478.4133 2829.5279,-478.4132"/>
</g>
<!-- D2K5 -->
<g id="node11" class="node">
<title>D2K5</title>
<ellipse fill="none" stroke="#000000" cx="2961.0278" cy="-450" rx="34.7728" ry="18"/>
<text text-anchor="middle" x="2961.0278" y="-445.8" font-family="Times,serif" font-size="14.00" fill="#000000">D2K5</text>
</g>
<!-- Revision 4407 (r4407)&#45;&gt;D2K5 -->
<g id="edge8" class="edge">
<title>Revision 4407 (r4407)-&gt;D2K5</title>
<path fill="none" stroke="#000000" d="M2858.0209,-504.937C2878.9403,-493.78 2906.2206,-479.2305 2927.4509,-467.9077"/>
<polygon fill="#000000" stroke="#000000" points="2929.2619,-470.9085 2936.4383,-463.1144 2925.9677,-464.732 2929.2619,-470.9085"/>
</g>
<!-- /tg/Station (AGPL) -->
<g id="node13" class="node">
<title>/tg/Station (AGPL)</title>
<ellipse fill="none" stroke="#000000" cx="836.0278" cy="-378" rx="85.1667" ry="18"/>
<text text-anchor="middle" x="836.0278" y="-373.8" font-family="Times,serif" font-size="14.00" fill="#000000">/tg/Station (AGPL)</text>
</g>
<!-- /tg/Station (Pre&#45;AGPL)&#45;&gt;/tg/Station (AGPL) -->
<g id="edge10" class="edge">
<title>/tg/Station (Pre-AGPL)-&gt;/tg/Station (AGPL)</title>
<path fill="none" stroke="#ff0000" d="M2284.788,-445.4278C2004.6619,-432.3902 1204.4918,-395.1489 929.8795,-382.368"/>
<polygon fill="#ff0000" stroke="#ff0000" points="929.701,-378.856 919.5491,-381.8872 929.3755,-385.8484 929.701,-378.856"/>
</g>
<!-- BayStation (GPL) -->
<g id="node14" class="node">
<title>BayStation (GPL)</title>
<ellipse fill="none" stroke="#000000" cx="1889.0278" cy="-378" rx="81.0756" ry="18"/>
<text text-anchor="middle" x="1889.0278" y="-373.8" font-family="Times,serif" font-size="14.00" fill="#000000">BayStation (GPL)</text>
</g>
<!-- /tg/Station (Pre&#45;AGPL)&#45;&gt;BayStation (GPL) -->
<g id="edge11" class="edge">
<title>/tg/Station (Pre-AGPL)-&gt;BayStation (GPL)</title>
<path fill="none" stroke="#000000" d="M2297.6678,-440.2125C2215.7357,-430.4353 2088.6138,-414.2629 1979.0278,-396 1972.2692,-394.8737 1965.2418,-393.6179 1958.2267,-392.3079"/>
<polygon fill="#000000" stroke="#000000" points="1958.4684,-388.7911 1947.9902,-390.3585 1957.1589,-395.6675 1958.4684,-388.7911"/>
</g>
<!-- Old HippieStation -->
<g id="node15" class="node">
<title>Old HippieStation</title>
<ellipse fill="none" stroke="#000000" cx="2070.0278" cy="-378" rx="81.6591" ry="18"/>
<text text-anchor="middle" x="2070.0278" y="-373.8" font-family="Times,serif" font-size="14.00" fill="#000000">Old HippieStation</text>
</g>
<!-- /tg/Station (Pre&#45;AGPL)&#45;&gt;Old HippieStation -->
<g id="edge12" class="edge">
<title>/tg/Station (Pre-AGPL)-&gt;Old HippieStation</title>
<path fill="none" stroke="#000000" d="M2320.8148,-435.689C2267.527,-423.4311 2190.9875,-405.8246 2136.5047,-393.2918"/>
<polygon fill="#000000" stroke="#000000" points="2137.129,-389.8441 2126.5989,-391.0132 2135.5597,-396.6659 2137.129,-389.8441"/>
</g>
<!-- Old YogStation -->
<g id="node16" class="node">
<title>Old YogStation</title>
<ellipse fill="none" stroke="#000000" cx="2242.0278" cy="-378" rx="71.851" ry="18"/>
<text text-anchor="middle" x="2242.0278" y="-373.8" font-family="Times,serif" font-size="14.00" fill="#000000">Old YogStation</text>
</g>
<!-- /tg/Station (Pre&#45;AGPL)&#45;&gt;Old YogStation -->
<g id="edge13" class="edge">
<title>/tg/Station (Pre-AGPL)-&gt;Old YogStation</title>
<path fill="none" stroke="#000000" d="M2349.6127,-432.937C2329.6079,-422.7218 2304.0339,-409.6627 2282.8397,-398.8401"/>
<polygon fill="#000000" stroke="#000000" points="2284.2483,-395.6296 2273.7505,-394.1989 2281.0649,-401.8638 2284.2483,-395.6296"/>
</g>
<!-- NTStation -->
<g id="node17" class="node">
<title>NTStation</title>
<ellipse fill="none" stroke="#000000" cx="2383.0278" cy="-378" rx="51.0415" ry="18"/>
<text text-anchor="middle" x="2383.0278" y="-373.8" font-family="Times,serif" font-size="14.00" fill="#000000">NTStation</text>
</g>
<!-- /tg/Station (Pre&#45;AGPL)&#45;&gt;NTStation -->
<g id="edge14" class="edge">
<title>/tg/Station (Pre-AGPL)-&gt;NTStation</title>
<path fill="none" stroke="#000000" d="M2377.0754,-431.8314C2376.3134,-424.0125 2376.0974,-414.6923 2376.4273,-406.0221"/>
<polygon fill="#000000" stroke="#000000" points="2379.9282,-406.1239 2377.1005,-395.9134 2372.9436,-405.6587 2379.9282,-406.1239"/>
</g>
<!-- /tg/Station (Pre&#45;AGPL)&#45;&gt;NTStation -->
<g id="edge19" class="edge">
<title>/tg/Station (Pre-AGPL)-&gt;NTStation</title>
<path fill="none" stroke="#000000" d="M2388.9801,-431.8314C2389.7421,-424.0125 2389.9581,-414.6923 2389.6282,-406.0221"/>
<polygon fill="#000000" stroke="#000000" points="2393.1119,-405.6587 2388.955,-395.9134 2386.1273,-406.1239 2393.1119,-405.6587"/>
</g>
<!-- Traitor Death Match -->
<g id="node18" class="node">
<title>Traitor Death Match</title>
<ellipse fill="none" stroke="#000000" cx="2543.0278" cy="-378" rx="90.3062" ry="18"/>
<text text-anchor="middle" x="2543.0278" y="-373.8" font-family="Times,serif" font-size="14.00" fill="#000000">Traitor Death Match</text>
</g>
<!-- /tg/Station (Pre&#45;AGPL)&#45;&gt;Traitor Death Match -->
<g id="edge15" class="edge">
<title>/tg/Station (Pre-AGPL)-&gt;Traitor Death Match</title>
<path fill="none" stroke="#000000" d="M2420.5406,-433.1192C2443.3723,-422.845 2472.708,-409.6439 2496.946,-398.7368"/>
<polygon fill="#000000" stroke="#000000" points="2498.6188,-401.8222 2506.3017,-394.5267 2495.7462,-395.4387 2498.6188,-401.8222"/>
</g>
<!-- Archangel -->
<g id="node19" class="node">
<title>Archangel</title>
<ellipse fill="none" stroke="#000000" cx="2703.0278" cy="-378" rx="51.005" ry="18"/>
<text text-anchor="middle" x="2703.0278" y="-373.8" font-family="Times,serif" font-size="14.00" fill="#000000">Archangel</text>
</g>
<!-- /tg/Station (Pre&#45;AGPL)&#45;&gt;Archangel -->
<g id="edge16" class="edge">
<title>/tg/Station (Pre-AGPL)-&gt;Archangel</title>
<path fill="none" stroke="#000000" d="M2453.1833,-436.977C2505.4889,-426.8795 2578.5488,-411.9551 2642.0278,-396 2646.1238,-394.9705 2650.3576,-393.8468 2654.5967,-392.68"/>
<polygon fill="#000000" stroke="#000000" points="2655.7613,-395.9881 2664.4346,-389.9034 2653.8599,-389.2513 2655.7613,-395.9881"/>
</g>
<!-- FacePunch -->
<g id="node20" class="node">
<title>FacePunch</title>
<ellipse fill="none" stroke="#000000" cx="2826.0278" cy="-378" rx="53.3109" ry="18"/>
<text text-anchor="middle" x="2826.0278" y="-373.8" font-family="Times,serif" font-size="14.00" fill="#000000">FacePunch</text>
</g>
<!-- /tg/Station (Pre&#45;AGPL)&#45;&gt;FacePunch -->
<g id="edge17" class="edge">
<title>/tg/Station (Pre-AGPL)-&gt;FacePunch</title>
<path fill="none" stroke="#000000" d="M2471.1673,-440.9454C2548.572,-432.1704 2663.962,-417.0871 2763.0278,-396 2767.4659,-395.0553 2772.0507,-393.9679 2776.6285,-392.8053"/>
<polygon fill="#000000" stroke="#000000" points="2777.8111,-396.1128 2786.5797,-390.1662 2776.0166,-389.3467 2777.8111,-396.1128"/>
</g>
<!-- Old FTL13 -->
<g id="node21" class="node">
<title>Old FTL13</title>
<ellipse fill="none" stroke="#000000" cx="2952.0278" cy="-378" rx="54.5177" ry="18"/>
<text text-anchor="middle" x="2952.0278" y="-373.8" font-family="Times,serif" font-size="14.00" fill="#000000">Old FTL13</text>
</g>
<!-- /tg/Station (Pre&#45;AGPL)&#45;&gt;Old FTL13 -->
<g id="edge18" class="edge">
<title>/tg/Station (Pre-AGPL)-&gt;Old FTL13</title>
<path fill="none" stroke="#000000" d="M2479.6108,-444.5003C2581.7769,-437.5602 2747.3338,-423.1088 2888.0278,-396 2892.671,-395.1053 2897.4673,-394.036 2902.2485,-392.8709"/>
<polygon fill="#000000" stroke="#000000" points="2903.1728,-396.2472 2911.988,-390.3699 2901.4317,-389.4672 2903.1728,-396.2472"/>
</g>
<!-- Lifeweb -->
<g id="node12" class="node">
<title>Lifeweb</title>
<ellipse fill="none" stroke="#000000" cx="3068.0278" cy="-378" rx="43.4163" ry="18"/>
<text text-anchor="middle" x="3068.0278" y="-373.8" font-family="Times,serif" font-size="14.00" fill="#000000">Lifeweb</text>
</g>
<!-- BayStation (Luna)&#45;&gt;Lifeweb -->
<g id="edge9" class="edge">
<title>BayStation (Luna)-&gt;Lifeweb</title>
<path fill="none" stroke="#000000" d="M2878.2778,-436.0026C2916.5781,-425.5356 2969.7445,-410.5749 3016.0278,-396 3019.1259,-395.0244 3022.3183,-393.9904 3025.5254,-392.9308"/>
<polygon fill="#000000" stroke="#000000" points="3026.7476,-396.2124 3035.1106,-389.7077 3024.5165,-389.5775 3026.7476,-396.2124"/>
</g>
<!-- YogStation -->
<g id="node31" class="node">
<title>YogStation</title>
<ellipse fill="none" stroke="#000000" cx="55.0278" cy="-306" rx="55.0555" ry="18"/>
<text text-anchor="middle" x="55.0278" y="-301.8" font-family="Times,serif" font-size="14.00" fill="#000000">YogStation</text>
</g>
<!-- /tg/Station (AGPL)&#45;&gt;YogStation -->
<g id="edge29" class="edge">
<title>/tg/Station (AGPL)-&gt;YogStation</title>
<path fill="none" stroke="#000000" d="M752.781,-373.817C590.8046,-365.3336 238.6562,-345.1106 119.0278,-324 114.371,-323.1782 109.5656,-322.1585 104.7785,-321.0252"/>
<polygon fill="#000000" stroke="#000000" points="105.5836,-317.6187 95.0312,-318.5665 103.8714,-324.4061 105.5836,-317.6187"/>
</g>
<!-- Fallout 13 -->
<g id="node32" class="node">
<title>Fallout 13</title>
<ellipse fill="none" stroke="#000000" cx="178.0278" cy="-306" rx="50.4413" ry="18"/>
<text text-anchor="middle" x="178.0278" y="-301.8" font-family="Times,serif" font-size="14.00" fill="#000000">Fallout 13</text>
</g>
<!-- /tg/Station (AGPL)&#45;&gt;Fallout 13 -->
<g id="edge30" class="edge">
<title>/tg/Station (AGPL)-&gt;Fallout 13</title>
<path fill="none" stroke="#000000" d="M751.0997,-375.704C634.4847,-371.3351 418.6773,-358.8843 238.0278,-324 233.6447,-323.1536 229.1248,-322.1159 224.6244,-320.97"/>
<polygon fill="#000000" stroke="#000000" points="225.4321,-317.5626 214.8644,-318.3207 223.5983,-324.3182 225.4321,-317.5626"/>
</g>
<!-- BeeStation -->
<g id="node33" class="node">
<title>BeeStation</title>
<ellipse fill="none" stroke="#000000" cx="300.0278" cy="-306" rx="53.3264" ry="18"/>
<text text-anchor="middle" x="300.0278" y="-301.8" font-family="Times,serif" font-size="14.00" fill="#000000">BeeStation</text>
</g>
<!-- /tg/Station (AGPL)&#45;&gt;BeeStation -->
<g id="edge31" class="edge">
<title>/tg/Station (AGPL)-&gt;BeeStation</title>
<path fill="none" stroke="#000000" d="M754.0179,-372.8852C658.9942,-365.9853 498.0475,-351.2888 362.0278,-324 357.8243,-323.1567 353.4929,-322.1635 349.1655,-321.0842"/>
<polygon fill="#000000" stroke="#000000" points="349.6998,-317.6055 339.1378,-318.439 347.9144,-324.3739 349.6998,-317.6055"/>
</g>
<!-- HippieStation -->
<g id="node34" class="node">
<title>HippieStation</title>
<ellipse fill="none" stroke="#000000" cx="436.0278" cy="-306" rx="64.8641" ry="18"/>
<text text-anchor="middle" x="436.0278" y="-301.8" font-family="Times,serif" font-size="14.00" fill="#000000">HippieStation</text>
</g>
<!-- /tg/Station (AGPL)&#45;&gt;HippieStation -->
<g id="edge32" class="edge">
<title>/tg/Station (AGPL)-&gt;HippieStation</title>
<path fill="none" stroke="#000000" d="M765.48,-367.865C699.2622,-357.9857 597.5734,-341.8723 510.0278,-324 504.7649,-322.9256 499.3089,-321.7389 493.8535,-320.5026"/>
<polygon fill="#000000" stroke="#000000" points="494.6084,-317.0849 484.0764,-318.2373 493.0283,-323.9042 494.6084,-317.0849"/>
</g>
<!-- Citadel -->
<g id="node35" class="node">
<title>Citadel</title>
<ellipse fill="none" stroke="#000000" cx="558.0278" cy="-306" rx="38.8594" ry="18"/>
<text text-anchor="middle" x="558.0278" y="-301.8" font-family="Times,serif" font-size="14.00" fill="#000000">Citadel</text>
</g>
<!-- /tg/Station (AGPL)&#45;&gt;Citadel -->
<g id="edge33" class="edge">
<title>/tg/Station (AGPL)-&gt;Citadel</title>
<path fill="none" stroke="#000000" d="M773.1566,-365.7197C726.3546,-355.9963 661.1355,-341.2145 605.0278,-324 602.416,-323.1987 599.7412,-322.3246 597.0576,-321.4075"/>
<polygon fill="#000000" stroke="#000000" points="597.9933,-318.025 587.3987,-317.9512 595.6348,-324.6158 597.9933,-318.025"/>
</g>
<!-- Toolbox Station -->
<g id="node36" class="node">
<title>Toolbox Station</title>
<ellipse fill="none" stroke="#000000" cx="688.0278" cy="-306" rx="73.5783" ry="18"/>
<text text-anchor="middle" x="688.0278" y="-301.8" font-family="Times,serif" font-size="14.00" fill="#000000">Toolbox Station</text>
</g>
<!-- /tg/Station (AGPL)&#45;&gt;Toolbox Station -->
<g id="edge34" class="edge">
<title>/tg/Station (AGPL)-&gt;Toolbox Station</title>
<path fill="none" stroke="#000000" d="M802.0736,-361.4817C780.7716,-351.1186 753.1341,-337.6734 730.4014,-326.6142"/>
<polygon fill="#000000" stroke="#000000" points="731.8374,-323.4206 721.3139,-322.1933 728.7751,-329.7153 731.8374,-323.4206"/>
</g>
<!-- FulpStation -->
<g id="node37" class="node">
<title>FulpStation</title>
<ellipse fill="none" stroke="#000000" cx="836.0278" cy="-306" rx="56.2169" ry="18"/>
<text text-anchor="middle" x="836.0278" y="-301.8" font-family="Times,serif" font-size="14.00" fill="#000000">FulpStation</text>
</g>
<!-- /tg/Station (AGPL)&#45;&gt;FulpStation -->
<g id="edge35" class="edge">
<title>/tg/Station (AGPL)-&gt;FulpStation</title>
<path fill="none" stroke="#000000" d="M836.0278,-359.8314C836.0278,-352.131 836.0278,-342.9743 836.0278,-334.4166"/>
<polygon fill="#000000" stroke="#000000" points="839.5279,-334.4132 836.0278,-324.4133 832.5279,-334.4133 839.5279,-334.4132"/>
</g>
<!-- OracleStation -->
<g id="node38" class="node">
<title>OracleStation</title>
<ellipse fill="none" stroke="#000000" cx="974.0278" cy="-306" rx="64.2591" ry="18"/>
<text text-anchor="middle" x="974.0278" y="-301.8" font-family="Times,serif" font-size="14.00" fill="#000000">OracleStation</text>
</g>
<!-- /tg/Station (AGPL)&#45;&gt;OracleStation -->
<g id="edge36" class="edge">
<title>/tg/Station (AGPL)-&gt;OracleStation</title>
<path fill="none" stroke="#000000" d="M868.0346,-361.3008C887.8711,-350.9513 913.499,-337.5802 934.5855,-326.5786"/>
<polygon fill="#000000" stroke="#000000" points="936.3681,-329.5963 943.615,-321.8675 933.1301,-323.3902 936.3681,-329.5963"/>
</g>
<!-- Sunset Station -->
<g id="node39" class="node">
<title>Sunset Station</title>
<ellipse fill="none" stroke="#000000" cx="1123.0278" cy="-306" rx="66.6299" ry="18"/>
<text text-anchor="middle" x="1123.0278" y="-301.8" font-family="Times,serif" font-size="14.00" fill="#000000">Sunset Station</text>
</g>
<!-- /tg/Station (AGPL)&#45;&gt;Sunset Station -->
<g id="edge37" class="edge">
<title>/tg/Station (AGPL)-&gt;Sunset Station</title>
<path fill="none" stroke="#000000" d="M891.0247,-364.2029C940.6169,-351.7616 1013.3457,-333.5161 1064.1119,-320.7803"/>
<polygon fill="#000000" stroke="#000000" points="1065.1111,-324.1381 1073.9589,-318.31 1063.4078,-317.3485 1065.1111,-324.1381"/>
</g>
<!-- Star Trek 13 -->
<g id="node40" class="node">
<title>Star Trek 13</title>
<ellipse fill="none" stroke="#000000" cx="1267.0278" cy="-306" rx="59.1103" ry="18"/>
<text text-anchor="middle" x="1267.0278" y="-301.8" font-family="Times,serif" font-size="14.00" fill="#000000">Star Trek 13</text>
</g>
<!-- /tg/Station (AGPL)&#45;&gt;Star Trek 13 -->
<g id="edge38" class="edge">
<title>/tg/Station (AGPL)-&gt;Star Trek 13</title>
<path fill="none" stroke="#000000" d="M910.8421,-369.3372C984.5363,-360.2255 1100.1188,-344.3821 1199.0278,-324 1203.7149,-323.0341 1208.5605,-321.9422 1213.4061,-320.7854"/>
<polygon fill="#000000" stroke="#000000" points="1214.4339,-324.1368 1223.3019,-318.3394 1212.7542,-317.3413 1214.4339,-324.1368"/>
</g>
<!-- FTL13 -->
<g id="node41" class="node">
<title>FTL13</title>
<ellipse fill="none" stroke="#000000" cx="1382.0278" cy="-306" rx="37.7217" ry="18"/>
<text text-anchor="middle" x="1382.0278" y="-301.8" font-family="Times,serif" font-size="14.00" fill="#000000">FTL13</text>
</g>
<!-- /tg/Station (AGPL)&#45;&gt;FTL13 -->
<g id="edge39" class="edge">
<title>/tg/Station (AGPL)-&gt;FTL13</title>
<path fill="none" stroke="#000000" d="M920.5951,-375.4775C1020.768,-370.9749 1192.0854,-358.4917 1335.0278,-324 1337.99,-323.2852 1341.0174,-322.4311 1344.0372,-321.489"/>
<polygon fill="#000000" stroke="#000000" points="1345.2305,-324.78 1353.5678,-318.2424 1342.9733,-318.1539 1345.2305,-324.78"/>
</g>
<!-- Skyrat 13 -->
<g id="node42" class="node">
<title>Skyrat 13</title>
<ellipse fill="none" stroke="#000000" cx="1486.0278" cy="-306" rx="48.1369" ry="18"/>
<text text-anchor="middle" x="1486.0278" y="-301.8" font-family="Times,serif" font-size="14.00" fill="#000000">Skyrat 13</text>
</g>
<!-- /tg/Station (AGPL)&#45;&gt;Skyrat 13 -->
<g id="edge40" class="edge">
<title>/tg/Station (AGPL)-&gt;Skyrat 13</title>
<path fill="none" stroke="#000000" d="M921.3055,-375.979C1037.257,-371.9307 1250.6508,-359.8516 1429.0278,-324 1432.9225,-323.2172 1436.927,-322.266 1440.9214,-321.2143"/>
<polygon fill="#000000" stroke="#000000" points="1442.091,-324.5209 1450.7612,-318.4316 1440.1861,-317.7851 1442.091,-324.5209"/>
</g>
<!-- /vg/Station -->
<g id="node24" class="node">
<title>/vg/Station</title>
<ellipse fill="none" stroke="#000000" cx="1606.0278" cy="-306" rx="53.3476" ry="18"/>
<text text-anchor="middle" x="1606.0278" y="-301.8" font-family="Times,serif" font-size="14.00" fill="#000000">/vg/Station</text>
</g>
<!-- BayStation (GPL)&#45;&gt;/vg/Station -->
<g id="edge22" class="edge">
<title>BayStation (GPL)-&gt;/vg/Station</title>
<path fill="none" stroke="#000000" d="M1832.5406,-364.903C1787.7859,-354.3565 1723.7386,-338.886 1668.0278,-324 1664.1786,-322.9715 1660.203,-321.8816 1656.2102,-320.7671"/>
<polygon fill="#000000" stroke="#000000" points="1656.8875,-317.3214 1646.3123,-317.9673 1654.9821,-324.0571 1656.8875,-317.3214"/>
</g>
<!-- Paradise -->
<g id="node25" class="node">
<title>Paradise</title>
<ellipse fill="none" stroke="#000000" cx="1721.0278" cy="-306" rx="43.9964" ry="18"/>
<text text-anchor="middle" x="1721.0278" y="-301.8" font-family="Times,serif" font-size="14.00" fill="#000000">Paradise</text>
</g>
<!-- BayStation (GPL)&#45;&gt;Paradise -->
<g id="edge23" class="edge">
<title>BayStation (GPL)-&gt;Paradise</title>
<path fill="none" stroke="#000000" d="M1851.3253,-361.8418C1824.4117,-350.3074 1788.2768,-334.821 1760.8874,-323.0827"/>
<polygon fill="#000000" stroke="#000000" points="1762.1638,-319.8219 1751.5936,-319.0997 1759.4063,-326.2559 1762.1638,-319.8219"/>
</g>
<!-- Tau Ceti -->
<g id="node26" class="node">
<title>Tau Ceti</title>
<ellipse fill="none" stroke="#000000" cx="1827.0278" cy="-306" rx="44.6193" ry="18"/>
<text text-anchor="middle" x="1827.0278" y="-301.8" font-family="Times,serif" font-size="14.00" fill="#000000">Tau Ceti</text>
</g>
<!-- BayStation (GPL)&#45;&gt;Tau Ceti -->
<g id="edge24" class="edge">
<title>BayStation (GPL)-&gt;Tau Ceti</title>
<path fill="none" stroke="#000000" d="M1873.7019,-360.2022C1866.0818,-351.3531 1856.747,-340.5127 1848.4335,-330.8583"/>
<polygon fill="#000000" stroke="#000000" points="1850.9278,-328.3911 1841.7504,-323.0972 1845.6234,-332.9588 1850.9278,-328.3911"/>
</g>
<!-- Aurora (Old) -->
<g id="node27" class="node">
<title>Aurora (Old)</title>
<ellipse fill="none" stroke="#000000" cx="1951.0278" cy="-306" rx="61.9176" ry="18"/>
<text text-anchor="middle" x="1951.0278" y="-301.8" font-family="Times,serif" font-size="14.00" fill="#000000">Aurora (Old)</text>
</g>
<!-- BayStation (GPL)&#45;&gt;Aurora (Old) -->
<g id="edge25" class="edge">
<title>BayStation (GPL)-&gt;Aurora (Old)</title>
<path fill="none" stroke="#000000" d="M1904.3536,-360.2022C1911.8616,-351.4832 1921.0343,-340.8311 1929.2546,-331.2849"/>
<polygon fill="#000000" stroke="#000000" points="1932.0051,-333.4546 1935.8782,-323.593 1926.7007,-328.8869 1932.0051,-333.4546"/>
</g>
<!-- Colonial Marines -->
<g id="node28" class="node">
<title>Colonial Marines</title>
<ellipse fill="none" stroke="#000000" cx="2109.0278" cy="-306" rx="78.2085" ry="18"/>
<text text-anchor="middle" x="2109.0278" y="-301.8" font-family="Times,serif" font-size="14.00" fill="#000000">Colonial Marines</text>
</g>
<!-- BayStation (GPL)&#45;&gt;Colonial Marines -->
<g id="edge26" class="edge">
<title>BayStation (GPL)-&gt;Colonial Marines</title>
<path fill="none" stroke="#000000" d="M1934.6119,-363.0816C1969.3876,-351.7004 2017.4254,-335.9789 2054.2832,-323.9164"/>
<polygon fill="#000000" stroke="#000000" points="2055.4636,-327.2128 2063.8789,-320.776 2053.2863,-320.5601 2055.4636,-327.2128"/>
</g>
<!-- BayStation (AGPL) -->
<g id="node29" class="node">
<title>BayStation (AGPL)</title>
<ellipse fill="none" stroke="#000000" cx="2318.0278" cy="-306" rx="88.0182" ry="18"/>
<text text-anchor="middle" x="2318.0278" y="-301.8" font-family="Times,serif" font-size="14.00" fill="#000000">BayStation (AGPL)</text>
</g>
<!-- BayStation (GPL)&#45;&gt;BayStation (AGPL) -->
<g id="edge27" class="edge">
<title>BayStation (GPL)-&gt;BayStation (AGPL)</title>
<path fill="none" stroke="#ff0000" d="M1948.511,-365.7592C1958.679,-363.7654 1969.1471,-361.7743 1979.0278,-360 2066.8038,-344.2377 2167.7931,-328.4519 2236.5572,-318.0557"/>
<polygon fill="#ff0000" stroke="#ff0000" points="2237.0974,-321.5139 2246.4635,-316.5616 2236.0534,-314.5922 2237.0974,-321.5139"/>
</g>
<!-- D12 Station -->
<g id="node22" class="node">
<title>D12 Station</title>
<ellipse fill="none" stroke="#000000" cx="2481.0278" cy="-306" rx="57.384" ry="18"/>
<text text-anchor="middle" x="2481.0278" y="-301.8" font-family="Times,serif" font-size="14.00" fill="#000000">D12 Station</text>
</g>
<!-- NTStation&#45;&gt;D12 Station -->
<g id="edge20" class="edge">
<title>NTStation-&gt;D12 Station</title>
<path fill="none" stroke="#000000" d="M2405.2655,-361.6621C2418.4837,-351.9508 2435.4499,-339.4858 2449.9748,-328.8144"/>
<polygon fill="#000000" stroke="#000000" points="2452.2114,-331.5143 2458.198,-322.7729 2448.0668,-325.8731 2452.2114,-331.5143"/>
</g>
<!-- Corporate Mercenaries -->
<g id="node23" class="node">
<title>Corporate Mercenaries</title>
<ellipse fill="none" stroke="#000000" cx="2826.0278" cy="-306" rx="99.5566" ry="18"/>
<text text-anchor="middle" x="2826.0278" y="-301.8" font-family="Times,serif" font-size="14.00" fill="#000000">Corporate Mercenaries</text>
</g>
<!-- FacePunch&#45;&gt;Corporate Mercenaries -->
<g id="edge21" class="edge">
<title>FacePunch-&gt;Corporate Mercenaries</title>
<path fill="none" stroke="#000000" d="M2826.0278,-359.8314C2826.0278,-352.131 2826.0278,-342.9743 2826.0278,-334.4166"/>
<polygon fill="#000000" stroke="#000000" points="2829.5279,-334.4132 2826.0278,-324.4133 2822.5279,-334.4133 2829.5279,-334.4132"/>
</g>
<!-- Persistence SS13 (Old) -->
<g id="node30" class="node">
<title>Persistence SS13 (Old)</title>
<ellipse fill="none" stroke="#000000" cx="1697.0278" cy="-234" rx="100.7172" ry="18"/>
<text text-anchor="middle" x="1697.0278" y="-229.8" font-family="Times,serif" font-size="14.00" fill="#000000">Persistence SS13 (Old)</text>
</g>
<!-- Paradise&#45;&gt;Persistence SS13 (Old) -->
<g id="edge28" class="edge">
<title>Paradise-&gt;Persistence SS13 (Old)</title>
<path fill="none" stroke="#000000" d="M1714.9715,-287.8314C1712.3765,-280.0463 1709.2854,-270.7729 1706.406,-262.1347"/>
<polygon fill="#000000" stroke="#000000" points="1709.6482,-260.7933 1703.1655,-252.4133 1703.0075,-263.0069 1709.6482,-260.7933"/>
</g>
<!-- TGMC -->
<g id="node52" class="node">
<title>TGMC</title>
<ellipse fill="none" stroke="#000000" cx="1855.0278" cy="-234" rx="38.8632" ry="18"/>
<text text-anchor="middle" x="1855.0278" y="-229.8" font-family="Times,serif" font-size="14.00" fill="#000000">TGMC</text>
</g>
<!-- Colonial Marines&#45;&gt;TGMC -->
<g id="edge50" class="edge">
<title>Colonial Marines-&gt;TGMC</title>
<path fill="none" stroke="#000000" d="M2053.9407,-293.186C2012.1978,-283.0845 1953.5932,-268.0621 1903.0278,-252 1900.2445,-251.1159 1897.3861,-250.1627 1894.5177,-249.1727"/>
<polygon fill="#000000" stroke="#000000" points="1895.4151,-245.7768 1884.8205,-245.7116 1893.062,-252.3695 1895.4151,-245.7768"/>
</g>
<!-- Urist McStation -->
<g id="node44" class="node">
<title>Urist McStation</title>
<ellipse fill="none" stroke="#000000" cx="1985.0278" cy="-234" rx="72.9871" ry="18"/>
<text text-anchor="middle" x="1985.0278" y="-229.8" font-family="Times,serif" font-size="14.00" fill="#000000">Urist McStation</text>
</g>
<!-- BayStation (AGPL)&#45;&gt;Urist McStation -->
<g id="edge42" class="edge">
<title>BayStation (AGPL)-&gt;Urist McStation</title>
<path fill="none" stroke="#000000" d="M2257.1488,-292.9769C2206.3085,-282.0834 2131.9273,-266.1043 2067.0278,-252 2061.3708,-250.7706 2055.4953,-249.4894 2049.6052,-248.202"/>
<polygon fill="#000000" stroke="#000000" points="2050.232,-244.7565 2039.715,-246.0378 2048.7356,-251.5946 2050.232,-244.7565"/>
</g>
<!-- Polaris -->
<g id="node45" class="node">
<title>Polaris</title>
<ellipse fill="none" stroke="#000000" cx="2114.0278" cy="-234" rx="37.7159" ry="18"/>
<text text-anchor="middle" x="2114.0278" y="-229.8" font-family="Times,serif" font-size="14.00" fill="#000000">Polaris</text>
</g>
<!-- BayStation (AGPL)&#45;&gt;Polaris -->
<g id="edge43" class="edge">
<title>BayStation (AGPL)-&gt;Polaris</title>
<path fill="none" stroke="#000000" d="M2271.8529,-290.5848C2240.4968,-280.0024 2198.1428,-265.4855 2161.0278,-252 2158.4601,-251.0671 2155.8186,-250.0935 2153.1595,-249.1032"/>
<polygon fill="#000000" stroke="#000000" points="2154.1463,-245.7349 2143.5544,-245.4862 2151.6794,-252.2858 2154.1463,-245.7349"/>
</g>
<!-- CEV Eris -->
<g id="node46" class="node">
<title>CEV Eris</title>
<ellipse fill="none" stroke="#000000" cx="2218.0278" cy="-234" rx="48.1311" ry="18"/>
<text text-anchor="middle" x="2218.0278" y="-229.8" font-family="Times,serif" font-size="14.00" fill="#000000">CEV Eris</text>
</g>
<!-- BayStation (AGPL)&#45;&gt;CEV Eris -->
<g id="edge44" class="edge">
<title>BayStation (AGPL)-&gt;CEV Eris</title>
<path fill="none" stroke="#000000" d="M2293.8205,-288.5708C2280.1943,-278.7599 2263.0487,-266.4151 2248.513,-255.9494"/>
<polygon fill="#000000" stroke="#000000" points="2250.4629,-253.0405 2240.3025,-250.0378 2246.3728,-258.7213 2250.4629,-253.0405"/>
</g>
<!-- Persistence (New) -->
<g id="node47" class="node">
<title>Persistence (New)</title>
<ellipse fill="none" stroke="#000000" cx="2366.0278" cy="-234" rx="81.5934" ry="18"/>
<text text-anchor="middle" x="2366.0278" y="-229.8" font-family="Times,serif" font-size="14.00" fill="#000000">Persistence (New)</text>
</g>
<!-- BayStation (AGPL)&#45;&gt;Persistence (New) -->
<g id="edge45" class="edge">
<title>BayStation (AGPL)-&gt;Persistence (New)</title>
<path fill="none" stroke="#000000" d="M2330.1402,-287.8314C2335.6964,-279.497 2342.39,-269.4567 2348.4836,-260.3162"/>
<polygon fill="#000000" stroke="#000000" points="2351.4506,-262.1754 2354.0855,-251.9134 2345.6263,-258.2925 2351.4506,-262.1754"/>
</g>
<!-- Europa Station -->
<g id="node48" class="node">
<title>Europa Station</title>
<ellipse fill="none" stroke="#000000" cx="2534.0278" cy="-234" rx="68.9007" ry="18"/>
<text text-anchor="middle" x="2534.0278" y="-229.8" font-family="Times,serif" font-size="14.00" fill="#000000">Europa Station</text>
</g>
<!-- BayStation (AGPL)&#45;&gt;Europa Station -->
<g id="edge46" class="edge">
<title>BayStation (AGPL)-&gt;Europa Station</title>
<path fill="none" stroke="#000000" d="M2364.1002,-290.6425C2398.529,-279.1663 2445.6392,-263.4628 2481.5248,-251.501"/>
<polygon fill="#000000" stroke="#000000" points="2482.9489,-254.7157 2491.3289,-248.2329 2480.7353,-248.0749 2482.9489,-254.7157"/>
</g>
<!-- SCP&#45;13 -->
<g id="node49" class="node">
<title>SCP-13</title>
<ellipse fill="none" stroke="#000000" cx="2662.0278" cy="-234" rx="41.1703" ry="18"/>
<text text-anchor="middle" x="2662.0278" y="-229.8" font-family="Times,serif" font-size="14.00" fill="#000000">SCP-13</text>
</g>
<!-- BayStation (AGPL)&#45;&gt;SCP&#45;13 -->
<g id="edge47" class="edge">
<title>BayStation (AGPL)-&gt;SCP-13</title>
<path fill="none" stroke="#000000" d="M2383.2446,-293.8726C2393.8667,-291.9047 2404.7526,-289.8922 2415.0278,-288 2502.5614,-271.8804 2526.0863,-275.1525 2612.0278,-252 2615.1457,-251.16 2618.3456,-250.2133 2621.5469,-249.2047"/>
<polygon fill="#000000" stroke="#000000" points="2622.6885,-252.5136 2631.0741,-246.0381 2620.4806,-245.8709 2622.6885,-252.5136"/>
</g>
<!-- Halo: Space Station Evolved -->
<g id="node50" class="node">
<title>Halo: Space Station Evolved</title>
<ellipse fill="none" stroke="#000000" cx="2843.0278" cy="-234" rx="122.1735" ry="18"/>
<text text-anchor="middle" x="2843.0278" y="-229.8" font-family="Times,serif" font-size="14.00" fill="#000000">Halo: Space Station Evolved</text>
</g>
<!-- BayStation (AGPL)&#45;&gt;Halo: Space Station Evolved -->
<g id="edge48" class="edge">
<title>BayStation (AGPL)-&gt;Halo: Space Station Evolved</title>
<path fill="none" stroke="#000000" d="M2381.8477,-293.5675C2392.8916,-291.585 2404.2771,-289.6474 2415.0278,-288 2546.4598,-267.8601 2580.1593,-269.0506 2712.0278,-252 2722.4864,-250.6477 2733.4098,-249.2011 2744.2944,-247.7376"/>
<polygon fill="#000000" stroke="#000000" points="2744.8235,-251.198 2754.265,-246.3911 2743.8866,-244.261 2744.8235,-251.198"/>
</g>
<!-- Aurora Station -->
<g id="node51" class="node">
<title>Aurora Station</title>
<ellipse fill="none" stroke="#000000" cx="3051.0278" cy="-234" rx="68.317" ry="18"/>
<text text-anchor="middle" x="3051.0278" y="-229.8" font-family="Times,serif" font-size="14.00" fill="#000000">Aurora Station</text>
</g>
<!-- BayStation (AGPL)&#45;&gt;Aurora Station -->
<g id="edge49" class="edge">
<title>BayStation (AGPL)-&gt;Aurora Station</title>
<path fill="none" stroke="#000000" d="M2380.4727,-293.2809C2391.9292,-291.2701 2403.8101,-289.397 2415.0278,-288 2662.0785,-257.2338 2727.7528,-288.4597 2974.0278,-252 2979.9437,-251.1242 2986.076,-250.0252 2992.1795,-248.8044"/>
<polygon fill="#000000" stroke="#000000" points="2993.3187,-252.1412 3002.3811,-246.6527 2991.8741,-245.2919 2993.3187,-252.1412"/>
</g>
<!-- NSV13 -->
<g id="node61" class="node">
<title>NSV13</title>
<ellipse fill="none" stroke="#000000" cx="247.0278" cy="-234" rx="40.0089" ry="18"/>
<text text-anchor="middle" x="247.0278" y="-229.8" font-family="Times,serif" font-size="14.00" fill="#000000">NSV13</text>
</g>
<!-- BeeStation&#45;&gt;NSV13 -->
<g id="edge59" class="edge">
<title>BeeStation-&gt;NSV13</title>
<path fill="none" stroke="#000000" d="M286.9266,-288.2022C280.5429,-279.5301 272.7515,-268.9455 265.7536,-259.4389"/>
<polygon fill="#000000" stroke="#000000" points="268.3601,-257.0757 259.6132,-251.0972 262.7227,-261.2255 268.3601,-257.0757"/>
</g>
<!-- Austation -->
<g id="node62" class="node">
<title>Austation</title>
<ellipse fill="none" stroke="#000000" cx="354.0278" cy="-234" rx="48.6733" ry="18"/>
<text text-anchor="middle" x="354.0278" y="-229.8" font-family="Times,serif" font-size="14.00" fill="#000000">Austation</text>
</g>
<!-- BeeStation&#45;&gt;Austation -->
<g id="edge60" class="edge">
<title>BeeStation-&gt;Austation</title>
<path fill="none" stroke="#000000" d="M313.3761,-288.2022C319.8983,-279.506 327.8627,-268.8867 335.0079,-259.3598"/>
<polygon fill="#000000" stroke="#000000" points="337.8193,-261.4446 341.0193,-251.3446 332.2193,-257.2446 337.8193,-261.4446"/>
</g>
<!-- Deep Space 13 -->
<g id="node43" class="node">
<title>Deep Space 13</title>
<ellipse fill="none" stroke="#000000" cx="1267.0278" cy="-234" rx="68.9042" ry="18"/>
<text text-anchor="middle" x="1267.0278" y="-229.8" font-family="Times,serif" font-size="14.00" fill="#000000">Deep Space 13</text>
</g>
<!-- Star Trek 13&#45;&gt;Deep Space 13 -->
<g id="edge41" class="edge">
<title>Star Trek 13-&gt;Deep Space 13</title>
<path fill="none" stroke="#ff0000" d="M1267.0278,-287.8314C1267.0278,-280.131 1267.0278,-270.9743 1267.0278,-262.4166"/>
<polygon fill="#ff0000" stroke="#ff0000" points="1270.5279,-262.4132 1267.0278,-252.4133 1263.5279,-262.4133 1270.5279,-262.4132"/>
</g>
<!-- V.O.R.E. Station -->
<g id="node56" class="node">
<title>V.O.R.E. Station</title>
<ellipse fill="none" stroke="#000000" cx="1956.0278" cy="-162" rx="76.5068" ry="18"/>
<text text-anchor="middle" x="1956.0278" y="-157.8" font-family="Times,serif" font-size="14.00" fill="#000000">V.O.R.E. Station</text>
</g>
<!-- Polaris&#45;&gt;V.O.R.E. Station -->
<g id="edge54" class="edge">
<title>Polaris-&gt;V.O.R.E. Station</title>
<path fill="none" stroke="#000000" d="M2086.5063,-221.4586C2062.8586,-210.6824 2028.3109,-194.9391 2000.7046,-182.3591"/>
<polygon fill="#000000" stroke="#000000" points="2001.8098,-179.0165 1991.2587,-178.0546 1998.907,-185.3863 2001.8098,-179.0165"/>
</g>
<!-- World Server -->
<g id="node59" class="node">
<title>World Server</title>
<ellipse fill="none" stroke="#000000" cx="2114.0278" cy="-162" rx="63.1428" ry="18"/>
<text text-anchor="middle" x="2114.0278" y="-157.8" font-family="Times,serif" font-size="14.00" fill="#000000">World Server</text>
</g>
<!-- Polaris&#45;&gt;World Server -->
<g id="edge57" class="edge">
<title>Polaris-&gt;World Server</title>
<path fill="none" stroke="#000000" d="M2114.0278,-215.8314C2114.0278,-208.131 2114.0278,-198.9743 2114.0278,-190.4166"/>
<polygon fill="#000000" stroke="#000000" points="2117.5279,-190.4132 2114.0278,-180.4133 2110.5279,-190.4133 2117.5279,-190.4132"/>
</g>
<!-- InterStation&#45;Two -->
<g id="node53" class="node">
<title>InterStation-Two</title>
<ellipse fill="none" stroke="#000000" cx="2273.0278" cy="-162" rx="77.5839" ry="18"/>
<text text-anchor="middle" x="2273.0278" y="-157.8" font-family="Times,serif" font-size="14.00" fill="#000000">InterStation-Two</text>
</g>
<!-- CEV Eris&#45;&gt;InterStation&#45;Two -->
<g id="edge51" class="edge">
<title>CEV Eris-&gt;InterStation-Two</title>
<path fill="none" stroke="#000000" d="M2231.3417,-216.5708C2237.9316,-207.9441 2246.018,-197.3582 2253.3092,-187.8134"/>
<polygon fill="#000000" stroke="#000000" points="2256.1652,-189.8403 2259.4543,-179.7689 2250.6025,-185.591 2256.1652,-189.8403"/>
</g>
<!-- Lebensraum -->
<g id="node54" class="node">
<title>Lebensraum</title>
<ellipse fill="none" stroke="#000000" cx="2273.0278" cy="-90" rx="58.529" ry="18"/>
<text text-anchor="middle" x="2273.0278" y="-85.8" font-family="Times,serif" font-size="14.00" fill="#000000">Lebensraum</text>
</g>
<!-- InterStation&#45;Two&#45;&gt;Lebensraum -->
<g id="edge52" class="edge">
<title>InterStation-Two-&gt;Lebensraum</title>
<path fill="none" stroke="#000000" d="M2273.0278,-143.8314C2273.0278,-136.131 2273.0278,-126.9743 2273.0278,-118.4166"/>
<polygon fill="#000000" stroke="#000000" points="2276.5279,-118.4132 2273.0278,-108.4133 2269.5279,-118.4133 2276.5279,-118.4132"/>
</g>
<!-- Civilization 13 -->
<g id="node55" class="node">
<title>Civilization 13</title>
<ellipse fill="none" stroke="#000000" cx="2273.0278" cy="-18" rx="68.9181" ry="18"/>
<text text-anchor="middle" x="2273.0278" y="-13.8" font-family="Times,serif" font-size="14.00" fill="#000000">Civilization 13</text>
</g>
<!-- Lebensraum&#45;&gt;Civilization 13 -->
<g id="edge53" class="edge">
<title>Lebensraum-&gt;Civilization 13</title>
<path fill="none" stroke="#000000" d="M2273.0278,-71.8314C2273.0278,-64.131 2273.0278,-54.9743 2273.0278,-46.4166"/>
<polygon fill="#000000" stroke="#000000" points="2276.5279,-46.4132 2273.0278,-36.4133 2269.5279,-46.4133 2276.5279,-46.4132"/>
</g>
<!-- Chompers -->
<g id="node57" class="node">
<title>Chompers</title>
<ellipse fill="none" stroke="#000000" cx="1901.0278" cy="-90" rx="50.9638" ry="18"/>
<text text-anchor="middle" x="1901.0278" y="-85.8" font-family="Times,serif" font-size="14.00" fill="#000000">Chompers</text>
</g>
<!-- V.O.R.E. Station&#45;&gt;Chompers -->
<g id="edge55" class="edge">
<title>V.O.R.E. Station-&gt;Chompers</title>
<path fill="none" stroke="#000000" d="M1942.4322,-144.2022C1935.8385,-135.5704 1927.7974,-125.0439 1920.5617,-115.5717"/>
<polygon fill="#000000" stroke="#000000" points="1923.3187,-113.4151 1914.4669,-107.593 1917.756,-117.6644 1923.3187,-113.4151"/>
</g>
<!-- AEIOU -->
<g id="node58" class="node">
<title>AEIOU</title>
<ellipse fill="none" stroke="#000000" cx="2011.0278" cy="-90" rx="41.1297" ry="18"/>
<text text-anchor="middle" x="2011.0278" y="-85.8" font-family="Times,serif" font-size="14.00" fill="#000000">AEIOU</text>
</g>
<!-- V.O.R.E. Station&#45;&gt;AEIOU -->
<g id="edge56" class="edge">
<title>V.O.R.E. Station-&gt;AEIOU</title>
<path fill="none" stroke="#000000" d="M1969.6233,-144.2022C1976.3154,-135.4416 1984.4984,-124.7293 1991.8173,-115.1482"/>
<polygon fill="#000000" stroke="#000000" points="1994.6783,-117.1686 1997.9674,-107.0972 1989.1156,-112.9193 1994.6783,-117.1686"/>
</g>
<!-- Eclipse Station -->
<g id="node60" class="node">
<title>Eclipse Station</title>
<ellipse fill="none" stroke="#000000" cx="2011.0278" cy="-18" rx="69.4767" ry="18"/>
<text text-anchor="middle" x="2011.0278" y="-13.8" font-family="Times,serif" font-size="14.00" fill="#000000">Eclipse Station</text>
</g>
<!-- AEIOU&#45;&gt;Eclipse Station -->
<g id="edge58" class="edge">
<title>AEIOU-&gt;Eclipse Station</title>
<path fill="none" stroke="#ff0000" d="M2011.0278,-71.8314C2011.0278,-64.131 2011.0278,-54.9743 2011.0278,-46.4166"/>
<polygon fill="#ff0000" stroke="#ff0000" points="2014.5279,-46.4132 2011.0278,-36.4133 2007.5279,-46.4133 2014.5279,-46.4132"/>
</g>
</g>
</svg>