<?xml version="1.0" encoding="UTF-8" standalone="no"?><!DOCTYPE svg PUBLIC "-//W3C//DTD SVG 1.1//EN" "http://www.w3.org/Graphics/SVG/1.1/DTD/svg11.dtd"><!-- Generated by graphviz version 2.40.1 (20161225.0304)
 --><!-- Title: G Pages: 1 --><svg xmlns="http://www.w3.org/2000/svg" xmlns:xlink="http://www.w3.org/1999/xlink" width="3235pt" height="717pt" viewBox="0.00 0.00 3235.19 716.80">
<g id="graph0" class="graph" transform="scale(1 1) rotate(0) translate(4 712.8)">
<title>G</title>
<polygon fill="#ffffff" stroke="transparent" points="-4,4 -4,-712.8 3231.1861,-712.8 3231.1861,4 -4,4"/>
<text text-anchor="middle" x="1613.593" y="-692.2" font-family="Times,serif" font-size="14.00" fill="#000000">SS13 Codebases Circa Mid-2019</text>
<!-- Red arrows indicate that the child is not a fork of a parent, rather a new version or rebrand. -->
<g id="node1" class="node">
<title>Red arrows indicate that the child is not a fork of a parent, rather a new version or rebrand.</title>
<polygon fill="none" stroke="#000000" points="2454.494,-684 1929.5615,-684 1929.5615,-648 2454.494,-648 2454.494,-684"/>
<text text-anchor="middle" x="2192.0278" y="-661.8" font-family="Times,serif" font-size="14.00" fill="#000000">Red arrows indicate that the child is not a fork of a parent, rather a new version or rebrand.</text>
</g>
<!-- BurgerStation -->
<g id="node2" class="node">
<title>BurgerStation</title>
<ellipse fill="none" stroke="#000000" cx="2537.0278" cy="-666" rx="65.4266" ry="18"/>
<text text-anchor="middle" x="2537.0278" y="-661.8" font-family="Times,serif" font-size="14.00" fill="#000000">BurgerStation</text>
</g>
<!-- SS13 (Pre Open) -->
<g id="node3" class="node">
<title>SS13 (Pre Open)</title>
<ellipse fill="none" stroke="#000000" cx="2697.0278" cy="-666" rx="76.4459" ry="18"/>
<text text-anchor="middle" x="2697.0278" y="-661.8" font-family="Times,serif" font-size="14.00" fill="#000000">SS13 (Pre Open)</text>
</g>
<!-- Source Decompilation (OpenSS13) -->
<g id="node4" class="node">
<title>Source Decompilation (OpenSS13)</title>
<ellipse fill="none" stroke="#000000" cx="2585.0278" cy="-594" rx="147.6178" ry="18"/>
<text text-anchor="middle" x="2585.0278" y="-589.8" font-family="Times,serif" font-size="14.00" fill="#000000">Source Decompilation (OpenSS13)</text>
</g>
<!-- SS13 (Pre Open)&#45;&gt;Source Decompilation (OpenSS13) -->
<g id="edge1" class="edge">
<title>SS13 (Pre Open)-&gt;Source Decompilation (OpenSS13)</title>
<path fill="none" stroke="#000000" d="M2670.4853,-648.937C2655.7487,-639.4635 2637.2075,-627.5441 2621.1648,-617.231"/>
<polygon fill="#000000" stroke="#000000" points="2622.8538,-614.1559 2612.5493,-611.6924 2619.0684,-620.0442 2622.8538,-614.1559"/>
</g>
<!-- Goonstation -->
<g id="node5" class="node">
<title>Goonstation</title>
<ellipse fill="none" stroke="#000000" cx="2809.0278" cy="-594" rx="58.4881" ry="18"/>
<text text-anchor="middle" x="2809.0278" y="-589.8" font-family="Times,serif" font-size="14.00" fill="#000000">Goonstation</text>
</g>
<!-- SS13 (Pre Open)&#45;&gt;Goonstation -->
<g id="edge2" class="edge">
<title>SS13 (Pre Open)-&gt;Goonstation</title>
<path fill="none" stroke="#000000" d="M2723.5702,-648.937C2738.8526,-639.1126 2758.2267,-626.6578 2774.6626,-616.0919"/>
<polygon fill="#000000" stroke="#000000" points="2776.9276,-618.7967 2783.4468,-610.4449 2773.1423,-612.9084 2776.9276,-618.7967"/>
</g>
<!-- BayStation OpenSS13 -->
<g id="node6" class="node">
<title>BayStation OpenSS13</title>
<ellipse fill="none" stroke="#000000" cx="2585.0278" cy="-522" rx="97.8556" ry="18"/>
<text text-anchor="middle" x="2585.0278" y="-517.8" font-family="Times,serif" font-size="14.00" fill="#000000">BayStation OpenSS13</text>
</g>
<!-- Source Decompilation (OpenSS13)&#45;&gt;BayStation OpenSS13 -->
<g id="edge3" class="edge">
<title>Source Decompilation (OpenSS13)-&gt;BayStation OpenSS13</title>
<path fill="none" stroke="#000000" d="M2585.0278,-575.8314C2585.0278,-568.131 2585.0278,-558.9743 2585.0278,-550.4166"/>
<polygon fill="#000000" stroke="#000000" points="2588.5279,-550.4132 2585.0278,-540.4133 2581.5279,-550.4133 2588.5279,-550.4132"/>
</g>
<!-- Revision 4407 (r4407) -->
<g id="node7" class="node">
<title>Revision 4407 (r4407)</title>
<ellipse fill="none" stroke="#000000" cx="2804.0278" cy="-522" rx="98.4448" ry="18"/>
<text text-anchor="middle" x="2804.0278" y="-517.8" font-family="Times,serif" font-size="14.00" fill="#000000">Revision 4407 (r4407)</text>
</g>
<!-- Goonstation&#45;&gt;Revision 4407 (r4407) -->
<g id="edge4" class="edge">
<title>Goonstation-&gt;Revision 4407 (r4407)</title>
<path fill="none" stroke="#000000" d="M2807.766,-575.8314C2807.2313,-568.131 2806.5954,-558.9743 2806.0011,-550.4166"/>
<polygon fill="#000000" stroke="#000000" points="2809.4909,-550.1467 2805.3065,-540.4133 2802.5077,-550.6317 2809.4909,-550.1467"/>
</g>
<!-- Goon 2016 -->
<g id="node8" class="node">
<title>Goon 2016</title>
<ellipse fill="none" stroke="#000000" cx="2975.0278" cy="-522" rx="54.4437" ry="18"/>
<text text-anchor="middle" x="2975.0278" y="-517.8" font-family="Times,serif" font-size="14.00" fill="#000000">Goon 2016</text>
</g>
<!-- Goonstation&#45;&gt;Goon 2016 -->
<g id="edge5" class="edge">
<title>Goonstation-&gt;Goon 2016</title>
<path fill="none" stroke="#000000" d="M2843.0209,-579.256C2868.9002,-568.0312 2904.6828,-552.5111 2932.4656,-540.4607"/>
<polygon fill="#000000" stroke="#000000" points="2934.1483,-543.546 2941.9298,-536.3558 2931.3628,-537.124 2934.1483,-543.546"/>
</g>
<!-- /tg/Station (Pre&#45;AGPL) -->
<g id="node9" class="node">
<title>/tg/Station (Pre-AGPL)</title>
<ellipse fill="none" stroke="#000000" cx="2401.0278" cy="-450" rx="101.3356" ry="18"/>
<text text-anchor="middle" x="2401.0278" y="-445.8" font-family="Times,serif" font-size="14.00" fill="#000000">/tg/Station (Pre-AGPL)</text>
</g>
<!-- Revision 4407 (r4407)&#45;&gt;/tg/Station (Pre&#45;AGPL) -->
<g id="edge6" class="edge">
<title>Revision 4407 (r4407)-&gt;/tg/Station (Pre-AGPL)</title>
<path fill="none" stroke="#000000" d="M2733.3694,-509.3762C2663.4075,-496.8768 2556.3707,-477.7536 2482.778,-464.6055"/>
<polygon fill="#000000" stroke="#000000" points="2483.0827,-461.1046 2472.623,-462.7912 2481.8516,-467.9955 2483.0827,-461.1046"/>
</g>
<!-- BayStation (Luna) -->
<g id="node10" class="node">
<title>BayStation (Luna)</title>
<ellipse fill="none" stroke="#000000" cx="2804.0278" cy="-450" rx="82.7838" ry="18"/>
<text text-anchor="middle" x="2804.0278" y="-445.8" font-family="Times,serif" font-size="14.00" fill="#000000">BayStation (Luna)</text>
</g>
<!-- Revision 4407 (r4407)&#45;&gt;BayStation (Luna) -->
<g id="edge7" class="edge">
<title>Revision 4407 (r4407)-&gt;BayStation (Luna)</title>
<path fill="none" stroke="#000000" d="M2804.0278,-503.8314C2804.0278,-496.131 2804.0278,-486.9743 2804.0278,-478.4166"/>
<polygon fill="#000000" stroke="#000000" points="2807.5279,-478.4132 2804.0278,-468.4133 2800.5279,-478.4133 2807.5279,-478.4132"/>
</g>
<!-- D2K5 -->
<g id="node11" class="node">
<title>D2K5</title>
<ellipse fill="none" stroke="#000000" cx="2939.0278" cy="-450" rx="34.7728" ry="18"/>
<text text-anchor="middle" x="2939.0278" y="-445.8" font-family="Times,serif" font-size="14.00" fill="#000000">D2K5</text>
</g>
<!-- Revision 4407 (r4407)&#45;&gt;D2K5 -->
<g id="edge8" class="edge">
<title>Revision 4407 (r4407)-&gt;D2K5</title>
<path fill="none" stroke="#000000" d="M2836.0209,-504.937C2856.9403,-493.78 2884.2206,-479.2305 2905.4509,-467.9077"/>
<polygon fill="#000000" stroke="#000000" points="2907.2619,-470.9085 2914.4383,-463.1144 2903.9677,-464.732 2907.2619,-470.9085"/>
</g>
<!-- /tg/Station (AGPL) -->
<g id="node13" class="node">
<title>/tg/Station (AGPL)</title>
<ellipse fill="none" stroke="#000000" cx="836.0278" cy="-378" rx="85.1667" ry="18"/>
<text text-anchor="middle" x="836.0278" y="-373.8" font-family="Times,serif" font-size="14.00" fill="#000000">/tg/Station (AGPL)</text>
</g>
<!-- /tg/Station (Pre&#45;AGPL)&#45;&gt;/tg/Station (AGPL) -->
<g id="edge10" class="edge">
<title>/tg/Station (Pre-AGPL)-&gt;/tg/Station (AGPL)</title>
<path fill="none" stroke="#ff0000" d="M2302.8338,-445.4824C2020.1299,-432.4763 1206.8657,-395.0609 929.7909,-382.3137"/>
<polygon fill="#ff0000" stroke="#ff0000" points="929.9167,-378.8159 919.7664,-381.8525 929.5949,-385.8085 929.9167,-378.8159"/>
</g>
<!-- BayStation (GPL) -->
<g id="node14" class="node">
<title>BayStation (GPL)</title>
<ellipse fill="none" stroke="#000000" cx="1827.0278" cy="-378" rx="81.0756" ry="18"/>
<text text-anchor="middle" x="1827.0278" y="-373.8" font-family="Times,serif" font-size="14.00" fill="#000000">BayStation (GPL)</text>
</g>
<!-- /tg/Station (Pre&#45;AGPL)&#45;&gt;BayStation (GPL) -->
<g id="edge11" class="edge">
<title>/tg/Station (Pre-AGPL)-&gt;BayStation (GPL)</title>
<path fill="none" stroke="#000000" d="M2309.2784,-442.1405C2211.7013,-433.2272 2052.9977,-417.1417 1917.0278,-396 1910.2573,-394.9473 1903.2221,-393.7404 1896.2021,-392.4607"/>
<polygon fill="#000000" stroke="#000000" points="1896.4337,-388.9434 1885.9604,-390.5434 1895.1456,-395.8238 1896.4337,-388.9434"/>
</g>
<!-- Old HippieStation -->
<g id="node15" class="node">
<title>Old HippieStation</title>
<ellipse fill="none" stroke="#000000" cx="2008.0278" cy="-378" rx="81.6591" ry="18"/>
<text text-anchor="middle" x="2008.0278" y="-373.8" font-family="Times,serif" font-size="14.00" fill="#000000">Old HippieStation</text>
</g>
<!-- /tg/Station (Pre&#45;AGPL)&#45;&gt;Old HippieStation -->
<g id="edge12" class="edge">
<title>/tg/Station (Pre-AGPL)-&gt;Old HippieStation</title>
<path fill="none" stroke="#000000" d="M2328.3438,-437.3887C2267.1291,-426.6751 2177.2796,-410.7339 2099.0278,-396 2092.435,-394.7587 2085.5783,-393.4447 2078.7181,-392.1146"/>
<polygon fill="#000000" stroke="#000000" points="2079.18,-388.6388 2068.695,-390.161 2077.8407,-395.5095 2079.18,-388.6388"/>
</g>
<!-- Old YogStation -->
<g id="node16" class="node">
<title>Old YogStation</title>
<ellipse fill="none" stroke="#000000" cx="2180.0278" cy="-378" rx="71.851" ry="18"/>
<text text-anchor="middle" x="2180.0278" y="-373.8" font-family="Times,serif" font-size="14.00" fill="#000000">Old YogStation</text>
</g>
<!-- /tg/Station (Pre&#45;AGPL)&#45;&gt;Old YogStation -->
<g id="edge13" class="edge">
<title>/tg/Station (Pre-AGPL)-&gt;Old YogStation</title>
<path fill="none" stroke="#000000" d="M2352.2548,-434.1102C2317.2817,-422.7162 2270.1623,-407.3651 2234.0497,-395.5999"/>
<polygon fill="#000000" stroke="#000000" points="2234.7676,-392.1528 2224.1753,-392.3829 2232.5992,-398.8085 2234.7676,-392.1528"/>
</g>
<!-- NTStation -->
<g id="node17" class="node">
<title>NTStation</title>
<ellipse fill="none" stroke="#000000" cx="2321.0278" cy="-378" rx="51.0415" ry="18"/>
<text text-anchor="middle" x="2321.0278" y="-373.8" font-family="Times,serif" font-size="14.00" fill="#000000">NTStation</text>
</g>
<!-- /tg/Station (Pre&#45;AGPL)&#45;&gt;NTStation -->
<g id="edge14" class="edge">
<title>/tg/Station (Pre-AGPL)-&gt;NTStation</title>
<path fill="none" stroke="#000000" d="M2381.2525,-432.2022C2371.0506,-423.0206 2358.4669,-411.6952 2347.4446,-401.7752"/>
<polygon fill="#000000" stroke="#000000" points="2349.5254,-398.9391 2339.7511,-394.851 2344.8426,-404.1422 2349.5254,-398.9391"/>
</g>
<!-- Traitor Death Match -->
<g id="node18" class="node">
<title>Traitor Death Match</title>
<ellipse fill="none" stroke="#000000" cx="2481.0278" cy="-378" rx="90.3062" ry="18"/>
<text text-anchor="middle" x="2481.0278" y="-373.8" font-family="Times,serif" font-size="14.00" fill="#000000">Traitor Death Match</text>
</g>
<!-- /tg/Station (Pre&#45;AGPL)&#45;&gt;Traitor Death Match -->
<g id="edge15" class="edge">
<title>/tg/Station (Pre-AGPL)-&gt;Traitor Death Match</title>
<path fill="none" stroke="#000000" d="M2420.803,-432.2022C2430.7815,-423.2217 2443.0386,-412.1902 2453.8846,-402.4289"/>
<polygon fill="#000000" stroke="#000000" points="2456.3884,-404.8842 2461.4799,-395.593 2451.7056,-399.6812 2456.3884,-404.8842"/>
</g>
<!-- Archangel -->
<g id="node19" class="node">
<title>Archangel</title>
<ellipse fill="none" stroke="#000000" cx="2641.0278" cy="-378" rx="51.005" ry="18"/>
<text text-anchor="middle" x="2641.0278" y="-373.8" font-family="Times,serif" font-size="14.00" fill="#000000">Archangel</text>
</g>
<!-- /tg/Station (Pre&#45;AGPL)&#45;&gt;Archangel -->
<g id="edge16" class="edge">
<title>/tg/Station (Pre-AGPL)-&gt;Archangel</title>
<path fill="none" stroke="#000000" d="M2452.8087,-434.4657C2494.1822,-422.0537 2551.7568,-404.7813 2592.3038,-392.6172"/>
<polygon fill="#000000" stroke="#000000" points="2593.3949,-395.944 2601.9674,-389.7181 2591.3834,-389.2392 2593.3949,-395.944"/>
</g>
<!-- FacePunch -->
<g id="node20" class="node">
<title>FacePunch</title>
<ellipse fill="none" stroke="#000000" cx="2764.0278" cy="-378" rx="53.3109" ry="18"/>
<text text-anchor="middle" x="2764.0278" y="-373.8" font-family="Times,serif" font-size="14.00" fill="#000000">FacePunch</text>
</g>
<!-- /tg/Station (Pre&#45;AGPL)&#45;&gt;FacePunch -->
<g id="edge17" class="edge">
<title>/tg/Station (Pre-AGPL)-&gt;FacePunch</title>
<path fill="none" stroke="#000000" d="M2478.2221,-438.2889C2539.0715,-428.5328 2625.8959,-413.4487 2701.0278,-396 2705.3837,-394.9884 2709.8875,-393.863 2714.3909,-392.6826"/>
<polygon fill="#000000" stroke="#000000" points="2715.4515,-396.0216 2724.1919,-390.0335 2713.625,-389.2641 2715.4515,-396.0216"/>
</g>
<!-- Old FTL13 -->
<g id="node21" class="node">
<title>Old FTL13</title>
<ellipse fill="none" stroke="#000000" cx="2890.0278" cy="-378" rx="54.5177" ry="18"/>
<text text-anchor="middle" x="2890.0278" y="-373.8" font-family="Times,serif" font-size="14.00" fill="#000000">Old FTL13</text>
</g>
<!-- /tg/Station (Pre&#45;AGPL)&#45;&gt;Old FTL13 -->
<g id="edge18" class="edge">
<title>/tg/Station (Pre-AGPL)-&gt;Old FTL13</title>
<path fill="none" stroke="#000000" d="M2492.8609,-442.2845C2579.3729,-434.0856 2712.3174,-419.0827 2826.0278,-396 2830.4746,-395.0973 2835.0649,-394.0474 2839.6498,-392.9167"/>
<polygon fill="#000000" stroke="#000000" points="2840.8152,-396.2306 2849.6204,-390.3384 2839.0626,-389.4535 2840.8152,-396.2306"/>
</g>
<!-- Lifeweb -->
<g id="node12" class="node">
<title>Lifeweb</title>
<ellipse fill="none" stroke="#000000" cx="3006.0278" cy="-378" rx="43.4163" ry="18"/>
<text text-anchor="middle" x="3006.0278" y="-373.8" font-family="Times,serif" font-size="14.00" fill="#000000">Lifeweb</text>
</g>
<!-- BayStation (Luna)&#45;&gt;Lifeweb -->
<g id="edge9" class="edge">
<title>BayStation (Luna)-&gt;Lifeweb</title>
<path fill="none" stroke="#000000" d="M2847.3618,-434.5542C2881.6529,-422.3316 2929.2809,-405.3553 2963.3898,-393.1977"/>
<polygon fill="#000000" stroke="#000000" points="2964.8253,-396.4018 2973.0697,-389.7474 2962.475,-389.8081 2964.8253,-396.4018"/>
</g>
<!-- YogStation -->
<g id="node30" class="node">
<title>YogStation</title>
<ellipse fill="none" stroke="#000000" cx="55.0278" cy="-306" rx="55.0555" ry="18"/>
<text text-anchor="middle" x="55.0278" y="-301.8" font-family="Times,serif" font-size="14.00" fill="#000000">YogStation</text>
</g>
<!-- /tg/Station (AGPL)&#45;&gt;YogStation -->
<g id="edge27" class="edge">
<title>/tg/Station (AGPL)-&gt;YogStation</title>
<path fill="none" stroke="#000000" d="M752.781,-373.817C590.8046,-365.3336 238.6562,-345.1106 119.0278,-324 114.371,-323.1782 109.5656,-322.1585 104.7785,-321.0252"/>
<polygon fill="#000000" stroke="#000000" points="105.5836,-317.6187 95.0312,-318.5665 103.8714,-324.4061 105.5836,-317.6187"/>
</g>
<!-- Fallout 13 -->
<g id="node31" class="node">
<title>Fallout 13</title>
<ellipse fill="none" stroke="#000000" cx="178.0278" cy="-306" rx="50.4413" ry="18"/>
<text text-anchor="middle" x="178.0278" y="-301.8" font-family="Times,serif" font-size="14.00" fill="#000000">Fallout 13</text>
</g>
<!-- /tg/Station (AGPL)&#45;&gt;Fallout 13 -->
<g id="edge28" class="edge">
<title>/tg/Station (AGPL)-&gt;Fallout 13</title>
<path fill="none" stroke="#000000" d="M751.0997,-375.704C634.4847,-371.3351 418.6773,-358.8843 238.0278,-324 233.6447,-323.1536 229.1248,-322.1159 224.6244,-320.97"/>
<polygon fill="#000000" stroke="#000000" points="225.4321,-317.5626 214.8644,-318.3207 223.5983,-324.3182 225.4321,-317.5626"/>
</g>
<!-- BeeStation -->
<g id="node32" class="node">
<title>BeeStation</title>
<ellipse fill="none" stroke="#000000" cx="300.0278" cy="-306" rx="53.3264" ry="18"/>
<text text-anchor="middle" x="300.0278" y="-301.8" font-family="Times,serif" font-size="14.00" fill="#000000">BeeStation</text>
</g>
<!-- /tg/Station (AGPL)&#45;&gt;BeeStation -->
<g id="edge29" class="edge">
<title>/tg/Station (AGPL)-&gt;BeeStation</title>
<path fill="none" stroke="#000000" d="M754.0179,-372.8852C658.9942,-365.9853 498.0475,-351.2888 362.0278,-324 357.8243,-323.1567 353.4929,-322.1635 349.1655,-321.0842"/>
<polygon fill="#000000" stroke="#000000" points="349.6998,-317.6055 339.1378,-318.439 347.9144,-324.3739 349.6998,-317.6055"/>
</g>
<!-- HippieStation -->
<g id="node33" class="node">
<title>HippieStation</title>
<ellipse fill="none" stroke="#000000" cx="436.0278" cy="-306" rx="64.8641" ry="18"/>
<text text-anchor="middle" x="436.0278" y="-301.8" font-family="Times,serif" font-size="14.00" fill="#000000">HippieStation</text>
</g>
<!-- /tg/Station (AGPL)&#45;&gt;HippieStation -->
<g id="edge30" class="edge">
<title>/tg/Station (AGPL)-&gt;HippieStation</title>
<path fill="none" stroke="#000000" d="M765.48,-367.865C699.2622,-357.9857 597.5734,-341.8723 510.0278,-324 504.7649,-322.9256 499.3089,-321.7389 493.8535,-320.5026"/>
<polygon fill="#000000" stroke="#000000" points="494.6084,-317.0849 484.0764,-318.2373 493.0283,-323.9042 494.6084,-317.0849"/>
</g>
<!-- Citadel -->
<g id="node34" class="node">
<title>Citadel</title>
<ellipse fill="none" stroke="#000000" cx="558.0278" cy="-306" rx="38.8594" ry="18"/>
<text text-anchor="middle" x="558.0278" y="-301.8" font-family="Times,serif" font-size="14.00" fill="#000000">Citadel</text>
</g>
<!-- /tg/Station (AGPL)&#45;&gt;Citadel -->
<g id="edge31" class="edge">
<title>/tg/Station (AGPL)-&gt;Citadel</title>
<path fill="none" stroke="#000000" d="M773.1566,-365.7197C726.3546,-355.9963 661.1355,-341.2145 605.0278,-324 602.416,-323.1987 599.7412,-322.3246 597.0576,-321.4075"/>
<polygon fill="#000000" stroke="#000000" points="597.9933,-318.025 587.3987,-317.9512 595.6348,-324.6158 597.9933,-318.025"/>
</g>
<!-- Toolbox Station -->
<g id="node35" class="node">
<title>Toolbox Station</title>
<ellipse fill="none" stroke="#000000" cx="688.0278" cy="-306" rx="73.5783" ry="18"/>
<text text-anchor="middle" x="688.0278" y="-301.8" font-family="Times,serif" font-size="14.00" fill="#000000">Toolbox Station</text>
</g>
<!-- /tg/Station (AGPL)&#45;&gt;Toolbox Station -->
<g id="edge32" class="edge">
<title>/tg/Station (AGPL)-&gt;Toolbox Station</title>
<path fill="none" stroke="#000000" d="M802.0736,-361.4817C780.7716,-351.1186 753.1341,-337.6734 730.4014,-326.6142"/>
<polygon fill="#000000" stroke="#000000" points="731.8374,-323.4206 721.3139,-322.1933 728.7751,-329.7153 731.8374,-323.4206"/>
</g>
<!-- FulpStation -->
<g id="node36" class="node">
<title>FulpStation</title>
<ellipse fill="none" stroke="#000000" cx="836.0278" cy="-306" rx="56.2169" ry="18"/>
<text text-anchor="middle" x="836.0278" y="-301.8" font-family="Times,serif" font-size="14.00" fill="#000000">FulpStation</text>
</g>
<!-- /tg/Station (AGPL)&#45;&gt;FulpStation -->
<g id="edge33" class="edge">
<title>/tg/Station (AGPL)-&gt;FulpStation</title>
<path fill="none" stroke="#000000" d="M836.0278,-359.8314C836.0278,-352.131 836.0278,-342.9743 836.0278,-334.4166"/>
<polygon fill="#000000" stroke="#000000" points="839.5279,-334.4132 836.0278,-324.4133 832.5279,-334.4133 839.5279,-334.4132"/>
</g>
<!-- OracleStation -->
<g id="node37" class="node">
<title>OracleStation</title>
<ellipse fill="none" stroke="#000000" cx="974.0278" cy="-306" rx="64.2591" ry="18"/>
<text text-anchor="middle" x="974.0278" y="-301.8" font-family="Times,serif" font-size="14.00" fill="#000000">OracleStation</text>
</g>
<!-- /tg/Station (AGPL)&#45;&gt;OracleStation -->
<g id="edge34" class="edge">
<title>/tg/Station (AGPL)-&gt;OracleStation</title>
<path fill="none" stroke="#000000" d="M868.0346,-361.3008C887.8711,-350.9513 913.499,-337.5802 934.5855,-326.5786"/>
<polygon fill="#000000" stroke="#000000" points="936.3681,-329.5963 943.615,-321.8675 933.1301,-323.3902 936.3681,-329.5963"/>
</g>
<!-- Sunset Station -->
<g id="node38" class="node">
<title>Sunset Station</title>
<ellipse fill="none" stroke="#000000" cx="1123.0278" cy="-306" rx="66.6299" ry="18"/>
<text text-anchor="middle" x="1123.0278" y="-301.8" font-family="Times,serif" font-size="14.00" fill="#000000">Sunset Station</text>
</g>
<!-- /tg/Station (AGPL)&#45;&gt;Sunset Station -->
<g id="edge35" class="edge">
<title>/tg/Station (AGPL)-&gt;Sunset Station</title>
<path fill="none" stroke="#000000" d="M891.0247,-364.2029C940.6169,-351.7616 1013.3457,-333.5161 1064.1119,-320.7803"/>
<polygon fill="#000000" stroke="#000000" points="1065.1111,-324.1381 1073.9589,-318.31 1063.4078,-317.3485 1065.1111,-324.1381"/>
</g>
<!-- Star Trek 13 -->
<g id="node39" class="node">
<title>Star Trek 13</title>
<ellipse fill="none" stroke="#000000" cx="1267.0278" cy="-306" rx="59.1103" ry="18"/>
<text text-anchor="middle" x="1267.0278" y="-301.8" font-family="Times,serif" font-size="14.00" fill="#000000">Star Trek 13</text>
</g>
<!-- /tg/Station (AGPL)&#45;&gt;Star Trek 13 -->
<g id="edge36" class="edge">
<title>/tg/Station (AGPL)-&gt;Star Trek 13</title>
<path fill="none" stroke="#000000" d="M910.8421,-369.3372C984.5363,-360.2255 1100.1188,-344.3821 1199.0278,-324 1203.7149,-323.0341 1208.5605,-321.9422 1213.4061,-320.7854"/>
<polygon fill="#000000" stroke="#000000" points="1214.4339,-324.1368 1223.3019,-318.3394 1212.7542,-317.3413 1214.4339,-324.1368"/>
</g>
<!-- FTL13 -->
<g id="node40" class="node">
<title>FTL13</title>
<ellipse fill="none" stroke="#000000" cx="1382.0278" cy="-306" rx="37.7217" ry="18"/>
<text text-anchor="middle" x="1382.0278" y="-301.8" font-family="Times,serif" font-size="14.00" fill="#000000">FTL13</text>
</g>
<!-- /tg/Station (AGPL)&#45;&gt;FTL13 -->
<g id="edge37" class="edge">
<title>/tg/Station (AGPL)-&gt;FTL13</title>
<path fill="none" stroke="#000000" d="M920.5951,-375.4775C1020.768,-370.9749 1192.0854,-358.4917 1335.0278,-324 1337.99,-323.2852 1341.0174,-322.4311 1344.0372,-321.489"/>
<polygon fill="#000000" stroke="#000000" points="1345.2305,-324.78 1353.5678,-318.2424 1342.9733,-318.1539 1345.2305,-324.78"/>
</g>
<!-- Skyrat 13 -->
<g id="node41" class="node">
<title>Skyrat 13</title>
<ellipse fill="none" stroke="#000000" cx="1486.0278" cy="-306" rx="48.1369" ry="18"/>
<text text-anchor="middle" x="1486.0278" y="-301.8" font-family="Times,serif" font-size="14.00" fill="#000000">Skyrat 13</text>
</g>
<!-- /tg/Station (AGPL)&#45;&gt;Skyrat 13 -->
<g id="edge38" class="edge">
<title>/tg/Station (AGPL)-&gt;Skyrat 13</title>
<path fill="none" stroke="#000000" d="M921.3055,-375.979C1037.257,-371.9307 1250.6508,-359.8516 1429.0278,-324 1432.9225,-323.2172 1436.927,-322.266 1440.9214,-321.2143"/>
<polygon fill="#000000" stroke="#000000" points="1442.091,-324.5209 1450.7612,-318.4316 1440.1861,-317.7851 1442.091,-324.5209"/>
</g>
<!-- /vg/Station -->
<g id="node23" class="node">
<title>/vg/Station</title>
<ellipse fill="none" stroke="#000000" cx="1606.0278" cy="-306" rx="53.3476" ry="18"/>
<text text-anchor="middle" x="1606.0278" y="-301.8" font-family="Times,serif" font-size="14.00" fill="#000000">/vg/Station</text>
</g>
<!-- BayStation (GPL)&#45;&gt;/vg/Station -->
<g id="edge20" class="edge">
<title>BayStation (GPL)-&gt;/vg/Station</title>
<path fill="none" stroke="#000000" d="M1781.2364,-363.0816C1744.2136,-351.0198 1692.2273,-334.0831 1654.5045,-321.7933"/>
<polygon fill="#000000" stroke="#000000" points="1655.3465,-318.3866 1644.7542,-318.6167 1653.1781,-325.0423 1655.3465,-318.3866"/>
</g>
<!-- Paradise -->
<g id="node24" class="node">
<title>Paradise</title>
<ellipse fill="none" stroke="#000000" cx="1721.0278" cy="-306" rx="43.9964" ry="18"/>
<text text-anchor="middle" x="1721.0278" y="-301.8" font-family="Times,serif" font-size="14.00" fill="#000000">Paradise</text>
</g>
<!-- BayStation (GPL)&#45;&gt;Paradise -->
<g id="edge21" class="edge">
<title>BayStation (GPL)-&gt;Paradise</title>
<path fill="none" stroke="#000000" d="M1801.6381,-360.7542C1786.8581,-350.715 1768.1036,-337.9761 1752.4043,-327.3124"/>
<polygon fill="#000000" stroke="#000000" points="1754.2802,-324.3555 1744.0414,-321.6319 1750.347,-330.1461 1754.2802,-324.3555"/>
</g>
<!-- Tau Ceti -->
<g id="node25" class="node">
<title>Tau Ceti</title>
<ellipse fill="none" stroke="#000000" cx="1827.0278" cy="-306" rx="44.6193" ry="18"/>
<text text-anchor="middle" x="1827.0278" y="-301.8" font-family="Times,serif" font-size="14.00" fill="#000000">Tau Ceti</text>
</g>
<!-- BayStation (GPL)&#45;&gt;Tau Ceti -->
<g id="edge22" class="edge">
<title>BayStation (GPL)-&gt;Tau Ceti</title>
<path fill="none" stroke="#000000" d="M1827.0278,-359.8314C1827.0278,-352.131 1827.0278,-342.9743 1827.0278,-334.4166"/>
<polygon fill="#000000" stroke="#000000" points="1830.5279,-334.4132 1827.0278,-324.4133 1823.5279,-334.4133 1830.5279,-334.4132"/>
</g>
<!-- Aurora (Old) -->
<g id="node26" class="node">
<title>Aurora (Old)</title>
<ellipse fill="none" stroke="#000000" cx="1951.0278" cy="-306" rx="61.9176" ry="18"/>
<text text-anchor="middle" x="1951.0278" y="-301.8" font-family="Times,serif" font-size="14.00" fill="#000000">Aurora (Old)</text>
</g>
<!-- BayStation (GPL)&#45;&gt;Aurora (Old) -->
<g id="edge23" class="edge">
<title>BayStation (GPL)-&gt;Aurora (Old)</title>
<path fill="none" stroke="#000000" d="M1856.1002,-361.1192C1873.448,-351.0463 1895.6409,-338.1601 1914.2057,-327.3806"/>
<polygon fill="#000000" stroke="#000000" points="1916.1003,-330.3278 1922.9907,-322.2796 1912.5853,-324.2742 1916.1003,-330.3278"/>
</g>
<!-- Colonial Marines -->
<g id="node27" class="node">
<title>Colonial Marines</title>
<ellipse fill="none" stroke="#000000" cx="2109.0278" cy="-306" rx="78.2085" ry="18"/>
<text text-anchor="middle" x="2109.0278" y="-301.8" font-family="Times,serif" font-size="14.00" fill="#000000">Colonial Marines</text>
</g>
<!-- BayStation (GPL)&#45;&gt;Colonial Marines -->
<g id="edge24" class="edge">
<title>BayStation (GPL)-&gt;Colonial Marines</title>
<path fill="none" stroke="#000000" d="M1880.4013,-364.3727C1927.7057,-352.295 1996.8108,-334.6511 2046.6511,-321.926"/>
<polygon fill="#000000" stroke="#000000" points="2047.5268,-325.3147 2056.3501,-319.4496 2045.795,-318.5323 2047.5268,-325.3147"/>
</g>
<!-- BayStation (AGPL) -->
<g id="node28" class="node">
<title>BayStation (AGPL)</title>
<ellipse fill="none" stroke="#000000" cx="2474.0278" cy="-306" rx="88.0182" ry="18"/>
<text text-anchor="middle" x="2474.0278" y="-301.8" font-family="Times,serif" font-size="14.00" fill="#000000">BayStation (AGPL)</text>
</g>
<!-- BayStation (GPL)&#45;&gt;BayStation (AGPL) -->
<g id="edge25" class="edge">
<title>BayStation (GPL)-&gt;BayStation (AGPL)</title>
<path fill="none" stroke="#ff0000" d="M1885.4578,-365.4258C1895.9372,-363.4245 1906.7821,-361.5173 1917.0278,-360 2078.9578,-336.0199 2269.016,-320.2138 2380.0316,-312.2097"/>
<polygon fill="#ff0000" stroke="#ff0000" points="2380.4697,-315.6874 2390.1945,-311.4828 2379.9703,-308.7052 2380.4697,-315.6874"/>
</g>
<!-- Corporate Mercenaries -->
<g id="node22" class="node">
<title>Corporate Mercenaries</title>
<ellipse fill="none" stroke="#000000" cx="2764.0278" cy="-306" rx="99.5566" ry="18"/>
<text text-anchor="middle" x="2764.0278" y="-301.8" font-family="Times,serif" font-size="14.00" fill="#000000">Corporate Mercenaries</text>
</g>
<!-- FacePunch&#45;&gt;Corporate Mercenaries -->
<g id="edge19" class="edge">
<title>FacePunch-&gt;Corporate Mercenaries</title>
<path fill="none" stroke="#000000" d="M2764.0278,-359.8314C2764.0278,-352.131 2764.0278,-342.9743 2764.0278,-334.4166"/>
<polygon fill="#000000" stroke="#000000" points="2767.5279,-334.4132 2764.0278,-324.4133 2760.5279,-334.4133 2767.5279,-334.4132"/>
</g>
<!-- Persistence SS13 (Old) -->
<g id="node29" class="node">
<title>Persistence SS13 (Old)</title>
<ellipse fill="none" stroke="#000000" cx="1721.0278" cy="-234" rx="100.7172" ry="18"/>
<text text-anchor="middle" x="1721.0278" y="-229.8" font-family="Times,serif" font-size="14.00" fill="#000000">Persistence SS13 (Old)</text>
</g>
<!-- Paradise&#45;&gt;Persistence SS13 (Old) -->
<g id="edge26" class="edge">
<title>Paradise-&gt;Persistence SS13 (Old)</title>
<path fill="none" stroke="#000000" d="M1721.0278,-287.8314C1721.0278,-280.131 1721.0278,-270.9743 1721.0278,-262.4166"/>
<polygon fill="#000000" stroke="#000000" points="1724.5279,-262.4132 1721.0278,-252.4133 1717.5279,-262.4133 1724.5279,-262.4132"/>
</g>
<!-- TGMC -->
<g id="node51" class="node">
<title>TGMC</title>
<ellipse fill="none" stroke="#000000" cx="1963.0278" cy="-234" rx="38.8632" ry="18"/>
<text text-anchor="middle" x="1963.0278" y="-229.8" font-family="Times,serif" font-size="14.00" fill="#000000">TGMC</text>
</g>
<!-- Colonial Marines&#45;&gt;TGMC -->
<g id="edge48" class="edge">
<title>Colonial Marines-&gt;TGMC</title>
<path fill="none" stroke="#000000" d="M2075.8981,-289.6621C2052.8732,-278.3074 2022.2149,-263.1882 1998.6618,-251.5729"/>
<polygon fill="#000000" stroke="#000000" points="2000.2091,-248.4336 1989.6923,-247.1496 1997.113,-254.7117 2000.2091,-248.4336"/>
</g>
<!-- Urist McStation -->
<g id="node43" class="node">
<title>Urist McStation</title>
<ellipse fill="none" stroke="#000000" cx="2093.0278" cy="-234" rx="72.9871" ry="18"/>
<text text-anchor="middle" x="2093.0278" y="-229.8" font-family="Times,serif" font-size="14.00" fill="#000000">Urist McStation</text>
</g>
<!-- BayStation (AGPL)&#45;&gt;Urist McStation -->
<g id="edge40" class="edge">
<title>BayStation (AGPL)-&gt;Urist McStation</title>
<path fill="none" stroke="#000000" d="M2406.2032,-294.4957C2345.5112,-284.024 2254.1675,-267.8267 2175.0278,-252 2169.2596,-250.8465 2163.272,-249.6092 2157.2777,-248.3434"/>
<polygon fill="#000000" stroke="#000000" points="2157.7312,-244.8614 2147.2208,-246.1958 2156.2693,-251.7071 2157.7312,-244.8614"/>
</g>
<!-- Polaris -->
<g id="node44" class="node">
<title>Polaris</title>
<ellipse fill="none" stroke="#000000" cx="2222.0278" cy="-234" rx="37.7159" ry="18"/>
<text text-anchor="middle" x="2222.0278" y="-229.8" font-family="Times,serif" font-size="14.00" fill="#000000">Polaris</text>
</g>
<!-- BayStation (AGPL)&#45;&gt;Polaris -->
<g id="edge41" class="edge">
<title>BayStation (AGPL)-&gt;Polaris</title>
<path fill="none" stroke="#000000" d="M2415.6656,-292.41C2374.3786,-282.3636 2317.8965,-267.7433 2269.0278,-252 2266.2598,-251.1083 2263.4172,-250.1442 2260.5662,-249.1417"/>
<polygon fill="#000000" stroke="#000000" points="2261.5302,-245.7679 2250.9362,-245.634 2259.1345,-252.3452 2261.5302,-245.7679"/>
</g>
<!-- CEV Eris -->
<g id="node45" class="node">
<title>CEV Eris</title>
<ellipse fill="none" stroke="#000000" cx="2326.0278" cy="-234" rx="48.1311" ry="18"/>
<text text-anchor="middle" x="2326.0278" y="-229.8" font-family="Times,serif" font-size="14.00" fill="#000000">CEV Eris</text>
</g>
<!-- BayStation (AGPL)&#45;&gt;CEV Eris -->
<g id="edge42" class="edge">
<title>BayStation (AGPL)-&gt;CEV Eris</title>
<path fill="none" stroke="#000000" d="M2439.7016,-289.3008C2417.3362,-278.4203 2388.1062,-264.2003 2364.8875,-252.9047"/>
<polygon fill="#000000" stroke="#000000" points="2366.1899,-249.6462 2355.6664,-248.4188 2363.1277,-255.9409 2366.1899,-249.6462"/>
</g>
<!-- Persistence (New) -->
<g id="node46" class="node">
<title>Persistence (New)</title>
<ellipse fill="none" stroke="#000000" cx="2474.0278" cy="-234" rx="81.5934" ry="18"/>
<text text-anchor="middle" x="2474.0278" y="-229.8" font-family="Times,serif" font-size="14.00" fill="#000000">Persistence (New)</text>
</g>
<!-- BayStation (AGPL)&#45;&gt;Persistence (New) -->
<g id="edge43" class="edge">
<title>BayStation (AGPL)-&gt;Persistence (New)</title>
<path fill="none" stroke="#000000" d="M2474.0278,-287.8314C2474.0278,-280.131 2474.0278,-270.9743 2474.0278,-262.4166"/>
<polygon fill="#000000" stroke="#000000" points="2477.5279,-262.4132 2474.0278,-252.4133 2470.5279,-262.4133 2477.5279,-262.4132"/>
</g>
<!-- Europa Station -->
<g id="node47" class="node">
<title>Europa Station</title>
<ellipse fill="none" stroke="#000000" cx="2642.0278" cy="-234" rx="68.9007" ry="18"/>
<text text-anchor="middle" x="2642.0278" y="-229.8" font-family="Times,serif" font-size="14.00" fill="#000000">Europa Station</text>
</g>
<!-- BayStation (AGPL)&#45;&gt;Europa Station -->
<g id="edge44" class="edge">
<title>BayStation (AGPL)-&gt;Europa Station</title>
<path fill="none" stroke="#000000" d="M2512.1496,-289.6621C2537.2401,-278.909 2570.2084,-264.7797 2596.65,-253.4476"/>
<polygon fill="#000000" stroke="#000000" points="2598.257,-256.5669 2606.0697,-249.4106 2595.4995,-250.1328 2598.257,-256.5669"/>
</g>
<!-- SCP&#45;13 -->
<g id="node48" class="node">
<title>SCP-13</title>
<ellipse fill="none" stroke="#000000" cx="2770.0278" cy="-234" rx="41.1703" ry="18"/>
<text text-anchor="middle" x="2770.0278" y="-229.8" font-family="Times,serif" font-size="14.00" fill="#000000">SCP-13</text>
</g>
<!-- BayStation (AGPL)&#45;&gt;SCP&#45;13 -->
<g id="edge45" class="edge">
<title>BayStation (AGPL)-&gt;SCP-13</title>
<path fill="none" stroke="#000000" d="M2539.867,-293.9551C2589.7441,-284.2513 2659.7399,-269.3896 2720.0278,-252 2723.1303,-251.1051 2726.3192,-250.1184 2729.5126,-249.0818"/>
<polygon fill="#000000" stroke="#000000" points="2730.6743,-252.3838 2739.0255,-245.864 2728.4313,-245.7528 2730.6743,-252.3838"/>
</g>
<!-- Halo: Space Station Evolved -->
<g id="node49" class="node">
<title>Halo: Space Station Evolved</title>
<ellipse fill="none" stroke="#000000" cx="2951.0278" cy="-234" rx="122.1735" ry="18"/>
<text text-anchor="middle" x="2951.0278" y="-229.8" font-family="Times,serif" font-size="14.00" fill="#000000">Halo: Space Station Evolved</text>
</g>
<!-- BayStation (AGPL)&#45;&gt;Halo: Space Station Evolved -->
<g id="edge46" class="edge">
<title>BayStation (AGPL)-&gt;Halo: Space Station Evolved</title>
<path fill="none" stroke="#000000" d="M2544.9244,-295.2986C2627.3485,-282.8573 2763.7749,-262.2646 2855.4936,-248.4202"/>
<polygon fill="#000000" stroke="#000000" points="2856.2492,-251.8459 2865.6148,-246.8925 2855.2044,-244.9243 2856.2492,-251.8459"/>
</g>
<!-- Aurora Station -->
<g id="node50" class="node">
<title>Aurora Station</title>
<ellipse fill="none" stroke="#000000" cx="3159.0278" cy="-234" rx="68.317" ry="18"/>
<text text-anchor="middle" x="3159.0278" y="-229.8" font-family="Times,serif" font-size="14.00" fill="#000000">Aurora Station</text>
</g>
<!-- BayStation (AGPL)&#45;&gt;Aurora Station -->
<g id="edge47" class="edge">
<title>BayStation (AGPL)-&gt;Aurora Station</title>
<path fill="none" stroke="#000000" d="M2552.8508,-297.9017C2584.5868,-294.7089 2621.5376,-291.0768 2655.0278,-288 2844.6801,-270.5761 2893.9154,-281.7549 3082.0278,-252 3087.8479,-251.0794 3093.881,-249.9615 3099.8919,-248.7383"/>
<polygon fill="#000000" stroke="#000000" points="3100.8942,-252.1034 3109.9455,-246.5967 3099.4357,-245.257 3100.8942,-252.1034"/>
</g>
<!-- NSV13 -->
<g id="node60" class="node">
<title>NSV13</title>
<ellipse fill="none" stroke="#000000" cx="247.0278" cy="-234" rx="40.0089" ry="18"/>
<text text-anchor="middle" x="247.0278" y="-229.8" font-family="Times,serif" font-size="14.00" fill="#000000">NSV13</text>
</g>
<!-- BeeStation&#45;&gt;NSV13 -->
<g id="edge57" class="edge">
<title>BeeStation-&gt;NSV13</title>
<path fill="none" stroke="#000000" d="M286.9266,-288.2022C280.5429,-279.5301 272.7515,-268.9455 265.7536,-259.4389"/>
<polygon fill="#000000" stroke="#000000" points="268.3601,-257.0757 259.6132,-251.0972 262.7227,-261.2255 268.3601,-257.0757"/>
</g>
<!-- Austation -->
<g id="node61" class="node">
<title>Austation</title>
<ellipse fill="none" stroke="#000000" cx="354.0278" cy="-234" rx="48.6733" ry="18"/>
<text text-anchor="middle" x="354.0278" y="-229.8" font-family="Times,serif" font-size="14.00" fill="#000000">Austation</text>
</g>
<!-- BeeStation&#45;&gt;Austation -->
<g id="edge58" class="edge">
<title>BeeStation-&gt;Austation</title>
<path fill="none" stroke="#000000" d="M313.3761,-288.2022C319.8983,-279.506 327.8627,-268.8867 335.0079,-259.3598"/>
<polygon fill="#000000" stroke="#000000" points="337.8193,-261.4446 341.0193,-251.3446 332.2193,-257.2446 337.8193,-261.4446"/>
</g>
<!-- Deep Space 13 -->
<g id="node42" class="node">
<title>Deep Space 13</title>
<ellipse fill="none" stroke="#000000" cx="1267.0278" cy="-234" rx="68.9042" ry="18"/>
<text text-anchor="middle" x="1267.0278" y="-229.8" font-family="Times,serif" font-size="14.00" fill="#000000">Deep Space 13</text>
</g>
<!-- Star Trek 13&#45;&gt;Deep Space 13 -->
<g id="edge39" class="edge">
<title>Star Trek 13-&gt;Deep Space 13</title>
<path fill="none" stroke="#ff0000" d="M1267.0278,-287.8314C1267.0278,-280.131 1267.0278,-270.9743 1267.0278,-262.4166"/>
<polygon fill="#ff0000" stroke="#ff0000" points="1270.5279,-262.4132 1267.0278,-252.4133 1263.5279,-262.4133 1270.5279,-262.4132"/>
</g>
<!-- V.O.R.E. Station -->
<g id="node55" class="node">
<title>V.O.R.E. Station</title>
<ellipse fill="none" stroke="#000000" cx="2064.0278" cy="-162" rx="76.5068" ry="18"/>
<text text-anchor="middle" x="2064.0278" y="-157.8" font-family="Times,serif" font-size="14.00" fill="#000000">V.O.R.E. Station</text>
</g>
<!-- Polaris&#45;&gt;V.O.R.E. Station -->
<g id="edge52" class="edge">
<title>Polaris-&gt;V.O.R.E. Station</title>
<path fill="none" stroke="#000000" d="M2194.5063,-221.4586C2170.8586,-210.6824 2136.3109,-194.9391 2108.7046,-182.3591"/>
<polygon fill="#000000" stroke="#000000" points="2109.8098,-179.0165 2099.2587,-178.0546 2106.907,-185.3863 2109.8098,-179.0165"/>
</g>
<!-- World Server -->
<g id="node58" class="node">
<title>World Server</title>
<ellipse fill="none" stroke="#000000" cx="2222.0278" cy="-162" rx="63.1428" ry="18"/>
<text text-anchor="middle" x="2222.0278" y="-157.8" font-family="Times,serif" font-size="14.00" fill="#000000">World Server</text>
</g>
<!-- Polaris&#45;&gt;World Server -->
<g id="edge55" class="edge">
<title>Polaris-&gt;World Server</title>
<path fill="none" stroke="#000000" d="M2222.0278,-215.8314C2222.0278,-208.131 2222.0278,-198.9743 2222.0278,-190.4166"/>
<polygon fill="#000000" stroke="#000000" points="2225.5279,-190.4132 2222.0278,-180.4133 2218.5279,-190.4133 2225.5279,-190.4132"/>
</g>
<!-- InterStation&#45;Two -->
<g id="node52" class="node">
<title>InterStation-Two</title>
<ellipse fill="none" stroke="#000000" cx="2381.0278" cy="-162" rx="77.5839" ry="18"/>
<text text-anchor="middle" x="2381.0278" y="-157.8" font-family="Times,serif" font-size="14.00" fill="#000000">InterStation-Two</text>
</g>
<!-- CEV Eris&#45;&gt;InterStation&#45;Two -->
<g id="edge49" class="edge">
<title>CEV Eris-&gt;InterStation-Two</title>
<path fill="none" stroke="#000000" d="M2339.3417,-216.5708C2345.9316,-207.9441 2354.018,-197.3582 2361.3092,-187.8134"/>
<polygon fill="#000000" stroke="#000000" points="2364.1652,-189.8403 2367.4543,-179.7689 2358.6025,-185.591 2364.1652,-189.8403"/>
</g>
<!-- Lebensraum -->
<g id="node53" class="node">
<title>Lebensraum</title>
<ellipse fill="none" stroke="#000000" cx="2381.0278" cy="-90" rx="58.529" ry="18"/>
<text text-anchor="middle" x="2381.0278" y="-85.8" font-family="Times,serif" font-size="14.00" fill="#000000">Lebensraum</text>
</g>
<!-- InterStation&#45;Two&#45;&gt;Lebensraum -->
<g id="edge50" class="edge">
<title>InterStation-Two-&gt;Lebensraum</title>
<path fill="none" stroke="#000000" d="M2381.0278,-143.8314C2381.0278,-136.131 2381.0278,-126.9743 2381.0278,-118.4166"/>
<polygon fill="#000000" stroke="#000000" points="2384.5279,-118.4132 2381.0278,-108.4133 2377.5279,-118.4133 2384.5279,-118.4132"/>
</g>
<!-- Civilization 13 -->
<g id="node54" class="node">
<title>Civilization 13</title>
<ellipse fill="none" stroke="#000000" cx="2381.0278" cy="-18" rx="68.9181" ry="18"/>
<text text-anchor="middle" x="2381.0278" y="-13.8" font-family="Times,serif" font-size="14.00" fill="#000000">Civilization 13</text>
</g>
<!-- Lebensraum&#45;&gt;Civilization 13 -->
<g id="edge51" class="edge">
<title>Lebensraum-&gt;Civilization 13</title>
<path fill="none" stroke="#000000" d="M2381.0278,-71.8314C2381.0278,-64.131 2381.0278,-54.9743 2381.0278,-46.4166"/>
<polygon fill="#000000" stroke="#000000" points="2384.5279,-46.4132 2381.0278,-36.4133 2377.5279,-46.4133 2384.5279,-46.4132"/>
</g>
<!-- Chompers -->
<g id="node56" class="node">
<title>Chompers</title>
<ellipse fill="none" stroke="#000000" cx="2009.0278" cy="-90" rx="50.9638" ry="18"/>
<text text-anchor="middle" x="2009.0278" y="-85.8" font-family="Times,serif" font-size="14.00" fill="#000000">Chompers</text>
</g>
<!-- V.O.R.E. Station&#45;&gt;Chompers -->
<g id="edge53" class="edge">
<title>V.O.R.E. Station-&gt;Chompers</title>
<path fill="none" stroke="#000000" d="M2050.4322,-144.2022C2043.8385,-135.5704 2035.7974,-125.0439 2028.5617,-115.5717"/>
<polygon fill="#000000" stroke="#000000" points="2031.3187,-113.4151 2022.4669,-107.593 2025.756,-117.6644 2031.3187,-113.4151"/>
</g>
<!-- AEIOU -->
<g id="node57" class="node">
<title>AEIOU</title>
<ellipse fill="none" stroke="#000000" cx="2119.0278" cy="-90" rx="41.1297" ry="18"/>
<text text-anchor="middle" x="2119.0278" y="-85.8" font-family="Times,serif" font-size="14.00" fill="#000000">AEIOU</text>
</g>
<!-- V.O.R.E. Station&#45;&gt;AEIOU -->
<g id="edge54" class="edge">
<title>V.O.R.E. Station-&gt;AEIOU</title>
<path fill="none" stroke="#000000" d="M2077.6233,-144.2022C2084.3154,-135.4416 2092.4984,-124.7293 2099.8173,-115.1482"/>
<polygon fill="#000000" stroke="#000000" points="2102.6783,-117.1686 2105.9674,-107.0972 2097.1156,-112.9193 2102.6783,-117.1686"/>
</g>
<!-- Eclipse Station -->
<g id="node59" class="node">
<title>Eclipse Station</title>
<ellipse fill="none" stroke="#000000" cx="2119.0278" cy="-18" rx="69.4767" ry="18"/>
<text text-anchor="middle" x="2119.0278" y="-13.8" font-family="Times,serif" font-size="14.00" fill="#000000">Eclipse Station</text>
</g>
<!-- AEIOU&#45;&gt;Eclipse Station -->
<g id="edge56" class="edge">
<title>AEIOU-&gt;Eclipse Station</title>
<path fill="none" stroke="#ff0000" d="M2119.0278,-71.8314C2119.0278,-64.131 2119.0278,-54.9743 2119.0278,-46.4166"/>
<polygon fill="#ff0000" stroke="#ff0000" points="2122.5279,-46.4132 2119.0278,-36.4133 2115.5279,-46.4133 2122.5279,-46.4132"/>
</g>
</g>
</svg>